<?xml version="1.0" encoding="UTF-8"?>
<svg width="40px" height="40px" viewBox="0 0 40 40" version="1.1" xmlns="http://www.w3.org/2000/svg" xmlns:xlink="http://www.w3.org/1999/xlink">
    <!-- Generator: Sketch 61.2 (89653) - https://sketch.com -->
    <title>icon/dual-tone/blood-group</title>
    <desc>Created with Sketch.</desc>
    <defs>
        <linearGradient x1="50%" y1="0%" x2="50%" y2="100%" id="linearGradient-1">
            <stop stop-color="#E3E5E8" offset="0%"></stop>
            <stop stop-color="#C2C6CC" offset="100%"></stop>
        </linearGradient>
        <linearGradient x1="50%" y1="0%" x2="50%" y2="100%" id="linearGradient-2">
            <stop stop-color="#A5ADB7" offset="0%"></stop>
            <stop stop-color="#6C7580" offset="100%"></stop>
        </linearGradient>
    </defs>
    <g id="icon/dual-tone/blood-group" stroke="none" stroke-width="1" fill="none" fill-rule="evenodd">
        <g id="Group-9">
            <rect id="Rectangle" x="0" y="0" width="40" height="40"></rect>
            <g id="Group-8" transform="translate(10.833333, 6.666667)">
                <path d="M17.0648274,22.5955413 C15.3333978,25.1478349 12.5035986,26.7269615 9.12420799,26.6649021 C1.97924947,26.5036562 -2.30691265,18.6337682 1.30933338,12.4692936 L8.25239569,0.634922529 C8.58762479,0.062296057 9.2564568,-0.122798088 9.80740321,0.0788271404 C10.0719008,0.175032744 10.3090273,0.36012682 10.4702732,0.634922529 L17.4133355,12.4692936 C19.3962546,15.8489552 19.0030312,19.7418939 17.0648274,22.5955413 Z" id="Path" fill="url(#linearGradient-1)"></path>
                <path d="M10.7971014,20 L10.7971014,17.4637681 L13.3333333,17.4637681 C13.6401582,17.4637681 13.8888889,17.2150374 13.8888889,16.9082126 L13.8888889,15.3140097 C13.8888889,15.0071848 13.6401582,14.7584541 13.3333333,14.7584541 L10.7971014,14.7584541 L10.7971014,12.2222222 C10.7971014,11.9153974 10.5483708,11.6666667 10.2415459,11.6666667 L8.647343,11.6666667 C8.34051813,11.6666667 8.09178744,11.9153974 8.09178744,12.2222222 L8.09178744,14.7584541 L5.55555556,14.7584541 C5.24873069,14.7584541 5,15.0071848 5,15.3140097 L5,16.9082126 C5,17.2150374 5.24873069,17.4637681 5.55555556,17.4637681 L8.09178744,17.4637681 L8.09178744,20 C8.09178744,20.3068249 8.34051813,20.5555556 8.647343,20.5555556 L10.2415459,20.5555556 C10.5483708,20.5555556 10.7971014,20.3068249 10.7971014,20 Z" id="+" fill="url(#linearGradient-2)" fill-rule="nonzero" transform="translate(9.444444, 16.111111) rotate(-180.000000) translate(-9.444444, -16.111111) "></path>
            </g>
        </g>
    </g>
</svg>