<?xml version="1.0" encoding="UTF-8"?>
<svg width="84px" height="84px" viewBox="0 0 84 84" version="1.1" xmlns="http://www.w3.org/2000/svg" xmlns:xlink="http://www.w3.org/1999/xlink">
    <!-- Generator: Sketch 61.2 (89653) - https://sketch.com -->
    <title>icon/dual-tone/informative</title>
    <desc>Created with Sketch.</desc>
    <defs>
        <linearGradient x1="50%" y1="0%" x2="50%" y2="100%" id="linearGradient-1">
            <stop stop-color="#A5ADB7" offset="0%"></stop>
            <stop stop-color="#6C7580" offset="100%"></stop>
        </linearGradient>
        <linearGradient x1="50%" y1="0%" x2="50%" y2="100%" id="linearGradient-2">
            <stop stop-color="#E3E5E8" offset="0%"></stop>
            <stop stop-color="#C2C6CC" offset="100%"></stop>
        </linearGradient>
    </defs>
    <g id="icon/dual-tone/informative" stroke="none" stroke-width="1" fill="none" fill-rule="evenodd">
        <g id="v2/icon/timeline-copy">
            <rect id="Rectangle" x="0" y="0" width="84" height="84"></rect>
            <g id="drama" transform="translate(9.000000, 14.000000)">
                <path d="M30.3658508,4.48112519 L30.3658508,5.91936149 C32.3618324,5.78421177 33.4304239,5.94608898 33.5413678,5.96424344 C34.1838338,6.06913585 34.7325019,6.48416682 35.0088532,7.07317809 L37.8137167,13.0510374 C38.1531042,13.130211 38.4763543,13.2976354 38.7436283,13.5583537 C39.0820073,13.8881596 39.4869525,14.1463563 39.9458568,14.2583087 C40.8621526,14.4817094 41.7713883,14.2270428 42.4138543,13.6022269 C43.0769963,12.9577437 44.0886031,12.7938492 44.8702532,13.288054 C45.9877609,13.9940606 46.1077821,15.4897861 45.2313252,16.366243 C43.994805,17.6032675 42.3503138,18.2845638 40.6009302,18.2845638 C40.4884734,18.2845638 40.3765208,18.2815382 40.2645684,18.2759909 L44.0351482,26.3128681 C44.194504,26.6517513 44.3452869,26.9931561 44.4885054,27.3360736 C48.7341269,25.9971824 53.5632124,26.9916432 56.9374199,30.3275247 C57.6918384,31.0728659 57.7755507,32.2902232 57.0705526,33.0829678 C56.6767017,33.5257348 56.1350938,33.7471183 55.5934858,33.7471183 C55.0886911,33.7471183 54.5833921,33.5544793 54.1986184,33.1692015 C51.9116611,30.8827485 48.6282258,30.1873319 45.7335985,31.0794218 C46.8314388,35.4566631 46.7583168,39.9740971 45.625176,44.210137 C46.1587154,44.3866386 46.7018362,44.5439773 47.2535301,44.6811443 C47.8939789,44.8399958 48.5631724,44.8415087 49.2041256,44.6831616 C59.0715772,42.2423957 66.0983607,33.3683962 66.0983607,23.0874264 L66.0983607,4.48112519 C66.0983607,3.55978647 65.529521,2.73375861 64.6671842,2.40949981 C61.9495629,1.38831164 56.6973778,-7.33839219e-15 48.2328621,-7.33839219e-15 C39.7678423,-7.33839219e-15 34.5151528,1.38881589 31.7970271,2.41000419 C30.9346904,2.73375861 30.3658508,3.55978647 30.3658508,4.48112519 Z M52.1799436,13.5760037 C52.9504995,12.8054479 54.199627,12.8054479 54.9706872,13.5760037 C55.461866,14.0671827 56.1149222,14.3379867 56.8098344,14.3379867 C57.5047468,14.3379867 58.1583072,14.0671827 58.6494861,13.5760037 C59.4200419,12.8049436 60.6696738,12.8049436 61.4402296,13.5760037 C62.2107854,14.3465596 62.2107854,15.5956872 61.4402296,16.366243 C60.2032051,17.6032675 58.559218,18.2845638 56.8098344,18.2845638 C55.0609551,18.2845638 53.4164639,17.6032675 52.1794394,16.366243 C51.4093878,15.5956872 51.4093878,14.3465596 52.1799436,13.5760037 L52.1799436,13.5760037 Z" id="Shape" fill="url(#linearGradient-1)" fill-rule="nonzero"></path>
                <path d="M40.4627545,27.9891298 L32.5176581,11.0550556 C32.1520475,10.2754226 31.3421571,9.80592818 30.4833504,9.87098175 C27.614442,10.0878266 22.2331583,11.0394227 14.4822138,14.6758614 C6.81851143,18.2714524 2.65307214,21.7596295 0.626328701,23.8383149 C-0.0166415533,24.4979268 -0.181040311,25.4873447 0.210289094,26.3214412 L8.1130251,43.1662558 C12.4796763,52.4734408 22.6113762,57.5229012 32.581703,55.5410396 C33.2261863,55.4129499 33.8293177,55.1300428 34.3396597,54.7160204 C42.2368485,48.3155657 44.8294057,37.296819 40.4627545,27.9891298 Z M24.4959097,26.7268907 C25.7228484,23.3309986 29.4838466,21.565982 32.8797387,22.793425 C33.904457,23.1635742 34.4349705,24.2946977 34.0648214,25.3199202 C33.6946721,26.3446385 32.5635486,26.8756564 31.5383261,26.5050029 C30.189349,26.0178583 28.6951365,26.7188221 28.2074875,28.067799 C27.9170162,28.8716381 27.1595719,29.37139 26.3516986,29.37139 C26.1288022,29.37139 25.9023758,29.3335681 25.6809922,29.2533859 C24.656274,28.8827324 24.1252561,27.751609 24.4959097,26.7268907 L24.4959097,26.7268907 Z M16.8644819,33.3895764 C16.2109214,33.1535685 15.5044105,33.1858431 14.875056,33.4813572 C14.2462057,33.7763671 13.7696513,34.2988122 13.5336433,34.9523726 C13.243172,35.7562116 12.4852236,36.2559635 11.6773502,36.2559635 C11.4549581,36.2559635 11.2285316,36.2176374 11.0071481,36.1379594 C9.98192552,35.7678103 9.45141208,34.6366867 9.82156122,33.6114642 C10.4161197,31.9664687 11.6153224,30.6512791 13.1987945,29.9084593 C14.7827708,29.1656394 16.5603948,29.0834401 18.2053903,29.6779986 C19.2306129,30.0481477 19.7611263,31.1792713 19.3909772,32.2044938 C19.0203237,33.229212 17.8892001,33.7597256 16.8644819,33.3895764 Z M23.4903544,46.288318 C22.0959913,46.288318 20.6794394,46.0513016 19.2941534,45.5505412 C18.2689309,45.1803919 17.7384174,44.0492683 18.1085665,43.0240459 C18.47922,41.9993276 19.6098393,41.4683098 20.6350618,41.8389633 C25.0107902,43.4199138 29.8570217,41.1460681 31.4379722,36.770844 C31.8081215,35.7456215 32.9392451,35.2151079 33.9644676,35.5852571 C34.9891858,35.9559106 35.5196994,37.0870342 35.1495501,38.1122567 C33.3295658,43.1486056 28.5609951,46.288318 23.4903544,46.288318 Z" id="Shape" fill="url(#linearGradient-2)"></path>
            </g>
        </g>
    </g>
</svg>