<?xml version="1.0" encoding="UTF-8"?>
<svg width="159px" height="38px" viewBox="0 0 159 38" version="1.1" xmlns="http://www.w3.org/2000/svg" xmlns:xlink="http://www.w3.org/1999/xlink">
    <!-- Generator: Sketch 61.2 (89653) - https://sketch.com -->
    <title>Group 5</title>
    <desc>Created with Sketch.</desc>
    <g id="Projects" stroke="none" stroke-width="1" fill="none" fill-rule="evenodd">
        <g id="Portfolio-Projects" transform="translate(-127.000000, -264.000000)">
            <g id="Group-13" transform="translate(79.000000, 46.000000)">
                <g id="Group-5" transform="translate(49.000000, 219.000000)">
                    <path d="M5,-3.55271368e-14 L151.857143,-3.55271368e-14 C154.618567,-3.55271368e-14 156.857143,2.23857625 156.857143,5 L156.857143,26.8285708 L139.714575,35.7742686 L143.408029,26.8460439 L5,26.82918 C2.23881422,26.8282343 0,24.5897566 0,21.8285708 L0,5 C0,2.23857625 2.23857625,-3.55271368e-14 5,-3.55271368e-14 Z" id="Rectangle" stroke="#FFFFFF" fill="#000000"></path>
                    <path d="M112.371066,4.28571429 L112.371066,15.2513799 C112.371066,16.6633464 112.718421,17.7931801 113.404225,18.6098803 C114.0861,19.4221519 114.983565,19.8183882 116.148227,19.8183882 C117.347992,19.8183882 118.282917,19.4278831 118.92576,18.6588563 C119.537972,17.9267525 119.868592,16.8792111 119.909954,15.5422841 L119.914387,15.2513799 L119.914387,4.28571429 L122.142857,4.28571429 L122.142857,15.0335931 C122.142857,17.190359 121.6213,18.8813322 120.591546,20.0619655 C119.554719,21.2524981 118.059205,21.8571429 116.148227,21.8571429 C114.318718,21.8571429 112.842065,21.2300942 111.759919,19.9968379 C110.749812,18.8447075 110.208668,17.2982022 110.148499,15.3946785 L110.142857,15.0335931 L110.142857,4.28571429 L112.371066,4.28571429 Z M5.57142857,4.28571429 L8.58868326,4.28571429 L14.5712975,18.2213749 L20.5549602,4.28571429 L23.5714286,4.28571429 L23.5714286,21.4285714 L21.3428222,21.4285714 L21.3428222,7.80916065 L15.4957118,21.4285714 L13.6479316,21.4285714 L7.80042857,7.80871429 L7.80055914,21.4285714 L5.57142857,21.4285714 L5.57142857,4.28571429 Z M51.2504418,4.28571429 L57.0404212,18.4913757 L62.8096051,4.28571429 L65.1428571,4.28571429 L58.0284661,21.4285714 L55.9829714,21.4285714 L48.8571429,4.28571429 L51.2504418,4.28571429 Z M72.4285714,4.28571429 L72.4285714,21.4285714 L70.2857143,21.4285714 L70.2857143,4.28571429 L72.4285714,4.28571429 Z M136.285714,4.28571429 L136.285714,6.31963449 L129.500891,6.31963449 L129.500891,11.7635749 L136.285714,11.7635749 L136.285714,13.7969783 L129.500891,13.7969783 L129.500891,21.4285714 L127.285714,21.4285714 L127.285714,4.28571429 L136.285714,4.28571429 Z M150.857143,4.28571429 L150.857143,6.31963449 L144.073293,6.31963449 L144.073293,11.7635749 L150.857143,11.7635749 L150.857143,13.7969783 L144.073293,13.7969783 L144.073293,21.4285714 L141.857143,21.4285714 L141.857143,4.28571429 L150.857143,4.28571429 Z M87.8571429,19.2857143 L87.8571429,21.4285714 L78,21.4285714 L78,19.2857143 L87.8571429,19.2857143 Z M98.4985502,4.28571429 C100.209021,4.28571429 101.57023,4.68416304 102.542708,5.46969106 C103.539595,6.26684697 104.04518,7.38157325 104.04518,8.78337902 C104.04518,10.0978142 103.601731,11.1583436 102.726174,11.9383533 L102.545305,12.090607 C102.496486,12.1311754 102.44533,12.1717438 102.391318,12.2112786 C102.744994,12.389056 103.069846,12.5929315 103.361199,12.820838 C104.448453,13.6973219 105,14.9291022 105,16.483104 C105,18.0288371 104.481691,19.2551911 103.459616,20.1270238 C102.514566,20.9363729 101.216218,21.3721308 99.5988058,21.423439 L99.2710793,21.4285714 L93.8571429,21.4285714 L93.8571429,19.4024776 L99.2710793,19.406612 C100.380925,19.406612 101.254207,19.1402043 101.867037,18.615916 C102.467662,18.0998964 102.772,17.3668231 102.772,16.4368509 C102.772,15.4988684 102.446629,14.7880173 101.776411,14.2619202 C101.149599,13.7700906 100.278515,13.5021769 99.1852175,13.4638696 L98.9072765,13.4590795 L93.8571429,13.4549452 L93.8571429,11.4327273 L98.7395273,11.4327273 C99.7179777,11.4327273 100.485573,11.2037872 101.02128,10.7528838 C101.553611,10.3022388 101.811207,9.69061221 101.811207,8.88260361 C101.811207,8.07149425 101.534395,7.45625009 100.964931,7.00121231 C100.436495,6.57935706 99.6950976,6.34835519 98.7587405,6.31278443 L98.4985502,6.30793215 L93.8571429,6.30793215 L93.8571429,4.28571429 L98.4985502,4.28571429 Z M87.8571429,11.1428571 L87.8571429,13.2857143 L78,13.2857143 L78,11.1428571 L87.8571429,11.1428571 Z M87.8571429,4.28571429 L87.8571429,6.42857143 L78,6.42857143 L78,4.28571429 L87.8571429,4.28571429 Z" id="Shape" fill="#FFFFFE"></path>
                    <path d="M46.0714286,13.0714286 C46.0714286,18.0419913 42.0419913,22.0714286 37.0714286,22.0714286 C32.1008658,22.0714286 28.0714286,18.0419913 28.0714286,13.0714286 C28.0714286,8.10086582 32.1008658,4.07142857 37.0714286,4.07142857 C42.0419913,4.07142857 46.0714286,8.10086582 46.0714286,13.0714286 Z M43.9285714,13.0714286 C43.9285714,9.28433314 40.858524,6.21428571 37.0714286,6.21428571 C33.2843331,6.21428571 30.2142857,9.28433314 30.2142857,13.0714286 C30.2142857,16.858524 33.2843331,19.9285714 37.0714286,19.9285714 C40.858524,19.9285714 43.9285714,16.858524 43.9285714,13.0714286 Z" id="Shape" fill="" fill-rule="nonzero"></path>
                </g>
            </g>
        </g>
    </g>
</svg>