<?xml version="1.0" encoding="UTF-8"?>
<svg width="137px" height="36px" viewBox="0 0 137 36" version="1.1" xmlns="http://www.w3.org/2000/svg" xmlns:xlink="http://www.w3.org/1999/xlink">
    <!-- Generator: Sketch 61.2 (89653) - https://sketch.com -->
    <title>Combined Shape</title>
    <desc>Created with Sketch.</desc>
    <g id="Projects" stroke="none" stroke-width="1" fill="none" fill-rule="evenodd">
        <g id="Portfolio-Projects" transform="translate(-128.000000, -859.000000)" fill="#FFFFFF">
            <g id="Group-11" transform="translate(79.000000, 795.000000)">
                <g id="Group-10" transform="translate(49.000000, 64.000000)">
                    <g id="Group-6">
                        <g id="Group-5">
                            <path d="M18.1656765,3.19744231e-14 C28.1794049,3.19744231e-14 36.3143553,8.05978681 36.3272998,17.9931699 C36.339951,27.9108546 28.2057922,35.9824152 18.1807173,35.9999725 C8.15722561,36.0172132 -0.0244303426,27.9121628 5.48145287e-05,17.988722 C0.0246500937,8.04461175 8.14825392,3.19744231e-14 18.1656765,3.19744231e-14 Z M14.8253042,8.68327234 C12.4760401,10.0867035 11.2653894,12.2125197 11.3635502,14.9542339 C11.4435039,17.1959561 12.5000526,19.0297833 14.165621,20.4850189 C16.0119425,22.0980228 18.4482848,22.1184307 20.3761433,20.634938 C21.0722411,20.0991015 21.3812367,19.3916299 21.1962615,18.5287448 C21.0149806,17.6833894 20.4634853,17.1525241 19.6167159,16.9570798 C19.0185151,16.8189344 18.4630617,16.9557716 17.958536,17.3095074 C17.3603352,17.7294379 17.1159885,17.7105999 16.6309893,17.1622047 C16.3850594,16.8840825 16.1834602,16.5654063 15.9794861,16.2535327 C14.9754482,14.7200671 15.5227214,12.8354819 17.2745763,12.0254479 C17.9363706,11.719592 18.6572725,11.5008618 19.3744802,11.3593152 C21.6949821,10.9017087 23.3391767,11.8627085 24.0922711,14.0714642 C24.5843949,15.5149261 24.6347947,17.0044364 24.425807,18.4947317 C24.1395045,20.5357769 23.3164836,22.3141366 21.6398326,23.6215463 C19.9465575,24.9420379 17.1629579,25.148471 15.3232332,24.0770596 C14.4714501,23.5809922 13.8035868,22.8727357 13.2225377,22.093575 C11.3213305,19.5454736 10.0674045,16.7064297 9.41009611,13.6073167 C9.2668129,12.9312418 8.89844575,12.4283718 8.27042727,12.1389991 C7.52709614,11.7957289 6.80197228,11.8640166 6.14334449,12.3524965 C5.42165097,12.8880714 5.20896908,13.6366203 5.37441765,14.4796209 C5.51506213,15.1962499 5.69238499,15.9102625 5.91271921,16.6070069 C6.95844915,19.9128146 8.44537527,22.9904732 10.7922645,25.6011063 C11.8672844,26.7967961 13.1204188,27.775849 14.6656609,28.3006966 C16.0261917,28.7624893 17.4373862,28.9296766 18.8805093,28.8281607 C21.7432709,28.6266987 24.0748555,27.4022286 25.8823877,25.2196367 C27.8400638,22.8552059 28.6493633,20.0868045 28.6638763,17.061997 C28.6818197,15.1585739 28.3862816,13.3145428 27.5434702,11.5929587 C26.3146122,9.08148677 24.2812044,7.5843889 21.499452,7.21678622 C19.1203702,6.90255788 16.8624062,7.46612811 14.8253042,8.68327234 Z M48.1431771,11.9179686 L48.1433693,20.9210966 C48.1468309,21.8187701 48.2032503,22.8385171 48.7969968,23.6193675 C49.2691999,24.2468873 50.1046363,24.6898425 51.1216892,24.6898425 C52.1387421,24.6898425 52.9741784,24.2468873 53.4463815,23.6193675 C54.0638779,22.8072831 54.1002013,21.7368081 54.1002013,20.8139848 L54.1002013,20.8139848 L54.1002013,11.9179686 L57.6598864,11.9179686 L57.6598864,20.9247236 C57.6598864,22.9180218 57.4419465,24.5791037 56.0253371,26.018708 C54.645051,27.4213993 52.7562385,27.9381803 51.0490425,27.9381803 C49.4871398,27.9381803 47.5983273,27.4583123 46.2180412,26.018708 C44.8014318,24.5791037 44.5834919,22.9180218 44.5834919,20.9247236 L44.5834919,20.9247236 L44.5834919,11.9179686 L48.1431771,11.9179686 Z M64.1254371,11.9179686 L67.5035057,16.4582591 L70.9178976,11.9179686 L75.2766957,11.9179686 L69.6465814,19.0421642 L76.1847787,27.4583123 L71.8986272,27.4583123 L67.5035057,21.6629822 L62.9630909,27.4583123 L58.6042927,27.4583123 L65.3604299,19.0421642 L59.9119322,11.9179686 L64.1254371,11.9179686 Z M94.4917311,11.5119264 C96.3442203,11.5119264 97.9787696,12.3978367 98.8505292,13.9481798 C99.1411158,14.4649608 99.6496422,15.6092617 99.6496422,17.8609504 L99.6496422,17.8609504 L99.6496422,27.4583123 L96.0899571,27.4583123 L96.0899571,18.8945125 C96.0899571,17.1596047 95.9083405,16.4582591 95.7630472,16.1260427 C95.5451073,15.5354358 95.0002575,14.7602643 93.7289414,14.7602643 C92.8571817,14.7602643 92.0943921,15.2401324 91.6221889,15.9045651 C91.0046925,16.7904754 90.9320459,18.1193409 90.9320459,19.4482064 L90.9320459,19.4482064 L90.9320459,27.4583123 L87.3723607,27.4583123 L87.3723607,18.8945125 C87.3723607,17.1596047 87.1907441,16.4582591 87.0454508,16.1260427 C86.8275109,15.5354358 86.2826612,14.7602643 85.011345,14.7602643 C84.1395854,14.7602643 83.3767957,15.2401324 82.9045926,15.9045651 C82.2870962,16.7904754 82.2144495,18.1193409 82.2144495,19.4482064 L82.2144495,19.4482064 L82.2144495,27.4583123 L78.6547643,27.4583123 L78.6547643,11.9179686 L82.2144495,11.9179686 L82.2144495,13.3575729 C83.413119,11.8810557 84.8297284,11.5119264 85.9920746,11.5119264 C87.5903006,11.5119264 89.0795567,12.2870979 89.9513163,13.8005281 C91.2226324,11.9548816 93.1477683,11.5119264 94.4917311,11.5119264 Z M107.713419,11.9179686 L107.713419,27.4583123 L104.153734,27.4583123 L104.153734,11.9179686 L107.713419,11.9179686 Z M119.88173,11.5119264 C122.714949,11.5119264 123.913619,12.9515307 124.385822,13.6159634 C124.966995,14.4649608 125.330228,15.5354358 125.330228,17.9347763 L125.330228,17.9347763 L125.330228,27.4583123 L121.770543,27.4583123 L121.770543,18.8206866 C121.770543,14.8710031 120.31761,14.7602643 118.973648,14.7602643 L118.877724,14.7605667 C117.310693,14.7710428 115.740872,15.082145 115.740872,20.0019004 L115.740872,20.0019004 L115.740872,27.4583123 L112.181187,27.4583123 L112.181187,11.9179686 L115.740872,11.9179686 L115.740872,13.3575729 C117.266452,11.6226652 119.009971,11.5119264 119.88173,11.5119264 Z M133.502975,6.2333774 L133.502975,11.9179686 L136.227224,11.9179686 L136.227224,15.2401324 L133.502975,15.2401324 L133.502975,27.4583123 L129.94329,27.4583123 L129.94329,15.2401324 L128.454034,15.2401324 L128.454034,11.9179686 L129.94329,11.9179686 L129.94329,6.2333774 L133.502975,6.2333774 Z M105.933576,3.16960419 C107.241216,3.16960419 108.221945,4.16625331 108.221945,5.4951188 C108.221945,6.82398428 107.241216,7.8206334 105.933576,7.8206334 C104.625937,7.8206334 103.645207,6.82398428 103.645207,5.4951188 C103.645207,4.16625331 104.625937,3.16960419 105.933576,3.16960419 Z" id="Combined-Shape"></path>
                        </g>
                    </g>
                </g>
            </g>
        </g>
    </g>
</svg>