<?xml version="1.0" encoding="UTF-8"?>
<svg width="24px" height="24px" viewBox="0 0 24 24" version="1.1" xmlns="http://www.w3.org/2000/svg" xmlns:xlink="http://www.w3.org/1999/xlink">
    <!-- Generator: Sketch 61.2 (89653) - https://sketch.com -->
    <title>icon/lock</title>
    <desc>Created with Sketch.</desc>
    <g id="icon/lock" stroke="none" stroke-width="1" fill="none" fill-rule="evenodd">
        <g id="Group-4">
            <rect id="Rectangle" x="0" y="0" width="24" height="24"></rect>
            <path d="M15.8461538,10.6528067 L15.7463617,10.6528067 L15.7463617,8.12474012 C15.7463617,5.86278586 13.9168399,4 11.6216216,4 C10.4906445,4 9.45945946,4.46569647 8.69438669,5.1975052 C7.96257796,5.96257796 7.4968815,6.99376299 7.4968815,8.12474012 L7.4968815,10.6528067 L7.3970894,10.6528067 C6.63201663,10.6528067 6,11.2848233 6,12.049896 L6,18.6029106 C6,19.3679834 6.63201663,20 7.3970894,20 L15.8461538,20 C16.6112266,20 17.2432432,19.3679834 17.2432432,18.6029106 L17.2432432,12.049896 C17.2432432,11.2848233 16.6112266,10.6528067 15.8461538,10.6528067 Z M12.8191268,17.4386694 L10.4241164,17.4386694 L10.8232848,15.3430353 C10.4906445,15.1101871 10.2577963,14.7110187 10.2577963,14.2453222 C10.2577963,13.5135135 10.8565489,12.8814969 11.6216216,12.8814969 C12.3534304,12.8814969 12.985447,13.4802495 12.985447,14.2453222 C12.985447,14.7110187 12.7525988,15.1101871 12.4199584,15.3430353 L12.8191268,17.4386694 Z M14.3492723,10.6528067 L8.89397089,10.6528067 L8.89397089,8.12474012 C8.89397089,6.62785863 10.1247401,5.3970894 11.6216216,5.3970894 C13.1185031,5.3970894 14.3492723,6.62785863 14.3492723,8.12474012 L14.3492723,10.6528067 Z" id="Shape" class="fill-color" fill-rule="nonzero"></path>
        </g>
    </g>
</svg>