<?xml version="1.0" encoding="UTF-8"?>
<svg width="32px" height="32px" viewBox="0 0 32 32" version="1.1" xmlns="http://www.w3.org/2000/svg" xmlns:xlink="http://www.w3.org/1999/xlink">
    <!-- Generator: Sketch 61.2 (89653) - https://sketch.com -->
    <title>icon/alert</title>
    <desc>Created with Sketch.</desc>
    <g id="icon/alert" stroke="none" stroke-width="1" fill="none" fill-rule="evenodd">
        <g id="icon/disclaimer">
            <rect id="Rectangle" x="0" y="0" width="32" height="32"></rect>
            <path d="M16,5.33333333 C17.1820317,5.33333333 18.2445321,5.94361526 18.8555141,6.95195135 L18.8555141,6.95195135 L26.8667673,21.6516971 C27.4776164,22.6998784 27.490942,23.9469762 26.8932412,24.9950249 C26.2956733,26.0430735 25.2198916,26.6666667 24.0112531,26.6666667 L24.0112531,26.6666667 L7.98874688,26.6666667 C6.78010839,26.6666667 5.70437099,26.0430735 5.10675878,24.9950249 C4.50905803,23.9469762 4.52238355,22.6998784 5.13323275,21.6516971 L5.13323275,21.6516971 L13.1444859,6.95195135 C13.7554679,5.94361526 14.8179683,5.33333333 16,5.33333333 Z M16,21.3598673 C15.2678487,21.3598673 14.6718745,21.9552018 14.6718745,22.6865672 C14.6718745,23.4179326 15.2678487,24.013267 16,24.013267 C16.7321513,24.013267 17.3281255,23.4179326 17.3281255,22.6865672 C17.3281255,21.9552018 16.7321513,21.3598673 16,21.3598673 Z M16,10.7462687 C15.2678487,10.7462687 14.6718745,11.3416031 14.6718745,12.0729685 L14.6718745,12.0729685 L14.6718745,18.7064677 C14.6718745,19.4378331 15.2678487,20.0331675 16,20.0331675 C16.7321513,20.0331675 17.3281255,19.4378331 17.3281255,18.7064677 L17.3281255,18.7064677 L17.3281255,12.0729685 C17.3281255,11.3416031 16.7321513,10.7462687 16,10.7462687 Z" id="Combined-Shape" fill="#FFDE33" fill-rule="nonzero"></path>
        </g>
    </g>
</svg>