<?xml version="1.0" encoding="UTF-8"?>
<svg width="182px" height="107px" viewBox="0 0 182 107" version="1.1" xmlns="http://www.w3.org/2000/svg" xmlns:xlink="http://www.w3.org/1999/xlink">
    <!-- Generator: Sketch 61.2 (89653) - https://sketch.com -->
    <title>slow-motion</title>
    <desc>Created with Sketch.</desc>
    <defs>
        <linearGradient x1="50%" y1="0%" x2="50%" y2="100%" id="linearGradient-1">
            <stop stop-color="#79B8E3" offset="0%"></stop>
            <stop stop-color="#4482C3" offset="100%"></stop>
        </linearGradient>
        <linearGradient x1="50%" y1="0%" x2="50%" y2="100%" id="linearGradient-2">
            <stop stop-color="#6DC8EB" offset="0%"></stop>
            <stop stop-color="#3B97D3" offset="100%"></stop>
        </linearGradient>
        <linearGradient x1="50%" y1="0%" x2="50%" y2="100%" id="linearGradient-3">
            <stop stop-color="#BADBE7" offset="0%"></stop>
            <stop stop-color="#97C2D5" offset="65.0194996%"></stop>
            <stop stop-color="#84B5CB" offset="100%"></stop>
        </linearGradient>
        <linearGradient x1="50%" y1="0%" x2="50%" y2="100%" id="linearGradient-4">
            <stop stop-color="#CDE6EB" offset="0%"></stop>
            <stop stop-color="#9FC9D3" offset="100%"></stop>
        </linearGradient>
    </defs>
    <g id="Projects" stroke="none" stroke-width="1" fill="none" fill-rule="evenodd">
        <g id="Portfolio-Projects" transform="translate(-870.000000, -3381.000000)" fill-rule="nonzero">
            <g id="Group-11" transform="translate(812.000000, 3282.000000)">
                <g id="slow-motion" transform="translate(58.000000, 99.000000)">
                    <path d="M72,3.4304939 L72,103.569506 C56.1672432,109.559622 38.4451325,107.629739 24.2555224,98.3702807 C10.0659122,89.1108224 1.09744635,73.6237165 0.0939130435,56.6470462 C0.0313043478,55.608521 0,54.5385252 0,53.5 C0,52.4614747 0.0313043478,51.391479 0.0939130435,50.3529537 C1.09744635,33.3762834 10.0659122,17.8891775 24.2555224,8.62971918 C38.4451325,-0.629739124 56.1672432,-2.55962194 72,3.4304939 Z" id="Shape" fill="url(#linearGradient-1)"></path>
                    <path d="M110,3.4304939 L110,103.569506 C94.1672432,109.559622 76.4451325,107.629739 62.2555225,98.3702807 C48.0659121,89.1108224 39.0974462,73.6237165 38.093913,56.6470462 C38.0313043,55.608521 38,54.5385252 38,53.5 C38,52.4614747 38.0313043,51.391479 38.093913,50.3529537 C39.0974462,33.3762834 48.0659121,17.8891775 62.2555225,8.62971918 C76.4451325,-0.629739124 94.1672432,-2.55962194 110,3.4304939 Z" id="Shape" fill="url(#linearGradient-2)"></path>
                    <circle id="Oval" fill="url(#linearGradient-3)" cx="128.5" cy="53.5" r="53.5"></circle>
                    <circle id="Oval" fill="url(#linearGradient-4)" cx="129" cy="53" r="41"></circle>
                </g>
            </g>
        </g>
    </g>
</svg>