<?xml version="1.0" encoding="UTF-8"?>
<svg width="24px" height="24px" viewBox="0 0 24 24" version="1.1" xmlns="http://www.w3.org/2000/svg" xmlns:xlink="http://www.w3.org/1999/xlink">
    <!-- Generator: Sketch 61.2 (89653) - https://sketch.com -->
    <title>icon/arrow-down</title>
    <desc>Created with Sketch.</desc>
    <g id="icon/arrow-down" stroke="none" stroke-width="1" fill="none" fill-rule="evenodd">
        <g id="Group-4">
            <rect id="Rectangle" x="0" y="0" width="24" height="24"></rect>
            <path fill="#fff" d="M6.47698389,13.1072221 L10.8938344,17.5392451 C11.0383546,17.6840146 11.2098259,17.7990074 11.3984834,17.8777589 C11.7830244,18.040747 12.2169756,18.040747 12.6015166,17.8777589 C12.7901741,17.7992033 12.9616454,17.6840146 13.1061656,17.5392451 L17.5230161,13.1072221 C18.1436719,12.5060076 18.1608581,11.5137782 17.5614897,10.8912107 C16.9621214,10.2686431 15.9729391,10.2514039 15.3522833,10.8526185 C15.3391984,10.8651561 15.326504,10.8780854 15.3138097,10.8912107 L13.5623808,12.6480345 L13.5623808,7.56719342 C13.5623808,6.70171085 12.8628248,6 12,6 C11.1371752,6 10.4376192,6.70171085 10.4376192,7.56719342 L10.4376192,12.6480345 L8.68619034,10.8912107 C8.086822,10.2686431 7.09763966,10.2514039 6.47698389,10.8526185 C5.85632812,11.4538331 5.83914193,12.4460624 6.43851027,13.06863 C6.45120461,13.0817553 6.46389895,13.0946846 6.47698389,13.1072221 Z" id="Path" class="fill-color" fill-rule="nonzero"></path>
        </g>
    </g>
</svg>