<?xml version="1.0" encoding="UTF-8"?>
<svg width="169px" height="169px" viewBox="0 0 169 169" version="1.1" xmlns="http://www.w3.org/2000/svg" xmlns:xlink="http://www.w3.org/1999/xlink">
    <!-- Generator: Sketch 61.2 (89653) - https://sketch.com -->
    <title>pen</title>
    <desc>Created with Sketch.</desc>
    <defs>
        <linearGradient x1="50%" y1="0%" x2="50%" y2="100%" id="linearGradient-1">
            <stop stop-color="#F9E436" offset="0%"></stop>
            <stop stop-color="#F0C419" offset="100%"></stop>
        </linearGradient>
        <linearGradient x1="50%" y1="0%" x2="50%" y2="100%" id="linearGradient-2">
            <stop stop-color="#8E99B7" offset="0%"></stop>
            <stop stop-color="#556080" offset="100%"></stop>
        </linearGradient>
        <linearGradient x1="50%" y1="0%" x2="50%" y2="100%" id="linearGradient-3">
            <stop stop-color="#B77B68" offset="0%"></stop>
            <stop stop-color="#804537" offset="100%"></stop>
        </linearGradient>
        <linearGradient x1="50%" y1="0%" x2="50%" y2="100%" id="linearGradient-4">
            <stop stop-color="#8E99B7" offset="0%"></stop>
            <stop stop-color="#556080" offset="100%"></stop>
        </linearGradient>
        <linearGradient x1="50%" y1="0%" x2="50%" y2="100%" id="linearGradient-5">
            <stop stop-color="#F9E436" offset="0%"></stop>
            <stop stop-color="#F0C419" offset="100%"></stop>
        </linearGradient>
    </defs>
    <g id="Projects" stroke="none" stroke-width="1" fill="none" fill-rule="evenodd">
        <g id="Portfolio-Projects" transform="translate(-236.000000, -3348.000000)" fill-rule="nonzero">
            <g id="pen" transform="translate(236.000000, 3348.000000)">
                <path d="M66.9337276,146 L43.8340794,110.133898 C41.8076349,106.95349 41.4372055,102.994002 42.8386573,99.4939131 L67.6949328,37.4078486 C69.0124325,34.1234955 72.2084705,31.9784003 75.7519964,32 C77.3551904,32.0193733 78.6446912,33.322468 78.6445759,34.9232368 L78.6445759,87.71393 C78.6217324,88.583253 78.1871938,89.390214 77.473491,89.8886961 C73.6687257,92.7310605 71.9614758,97.587165 73.152188,102.180217 C74.1990708,106.332773 77.4612558,109.566163 81.6279145,110.581128 C87.0518735,111.959333 92.6944403,109.313047 95.0950978,104.265205 C97.4957549,99.2173623 95.9833914,93.1791035 91.485521,89.8536193 C90.7976354,89.3797906 90.3777321,88.6064812 90.3554241,87.7723915 L90.3554241,34.9232368 C90.3553088,33.322468 91.6448096,32.0193733 93.2480036,32 C96.7915295,31.9784003 99.9875675,34.1234955 101.305067,37.4078486 L126.161343,99.4939131 C127.562795,102.994002 127.192365,106.95349 125.165921,110.133898 L102.066272,146 L66.9337276,146 Z" id="Shape" fill="url(#linearGradient-1)"></path>
                <rect id="Rectangle-path" fill="url(#linearGradient-2)" x="59" y="146" width="52" height="12" rx="6"></rect>
                <path d="M93.125,137 L75.875,137 C74.2871815,137 73,135.656854 73,134 C73,132.343146 74.2871815,131 75.875,131 L93.125,131 C94.7128185,131 96,132.343146 96,134 C96,135.656854 94.7128185,137 93.125,137 Z" id="Shape" fill="#F29C1F"></path>
                <polygon id="Rectangle-path" fill="url(#linearGradient-3)" points="64 157 105 157 105 169 64 169"></polygon>
                <path d="M160.05917,79 C158.566402,79 157.311362,77.8793984 157.141186,76.3962556 C153.053471,42.5920046 126.412388,15.9490188 92.6105524,11.8610112 C90.9973718,11.6792314 89.8369814,10.2240349 90.0187482,8.61073889 C90.2005151,6.99744289 91.6556077,5.83696974 93.2687884,6.01874957 C129.954352,10.0866423 158.915428,39.0497876 162.983031,75.7379726 C163.155007,77.342873 162.000499,78.7861109 160.397104,78.9706124 C160.285204,78.9876299 160.172327,78.9974459 160.05917,79 L160.05917,79 Z" id="Shape" fill="url(#linearGradient-4)"></path>
                <path d="M8.94275288,79 C8.82960925,78.9974275 8.71674624,78.9876115 8.60486009,78.9705942 C6.9927179,78.7863234 5.83513046,77.3298648 6.01924569,75.7174138 C10.0953288,39.0375887 39.0507415,10.0854247 75.7250594,6.01942058 C77.338045,5.83439646 78.7955926,6.99222721 78.980583,8.60550795 C79.1655731,10.2187887 78.0079542,11.6766029 76.3949686,11.861627 C42.5972192,15.949596 15.9593578,42.5923301 11.8721365,76.3962617 C11.7014784,77.8838571 10.4398257,79.0052501 8.94275288,79 Z" id="Shape" fill="url(#linearGradient-4)"></path>
                <g id="Group" fill="url(#linearGradient-5)">
                    <ellipse id="Oval" cx="84.5" cy="8.79639332" rx="8.74137931" ry="8.79639332"></ellipse>
                    <ellipse id="Oval" cx="8.74137931" cy="85.0318021" rx="8.74137931" ry="8.79639332"></ellipse>
                    <ellipse id="Oval" cx="160.258621" cy="85.0318021" rx="8.74137931" ry="8.79639332"></ellipse>
                </g>
            </g>
        </g>
    </g>
</svg>