<?xml version="1.0" encoding="UTF-8"?>
<svg width="128px" height="128px" viewBox="0 0 128 128" version="1.1" xmlns="http://www.w3.org/2000/svg" xmlns:xlink="http://www.w3.org/1999/xlink">
    <!-- Generator: Sketch 52.5 (67469) - http://www.bohemiancoding.com/sketch -->
    <title>car-comp</title>
    <desc>Created with Sketch.</desc>
    <defs>
        <linearGradient x1="50.0000055%" y1="100%" x2="50.0000055%" y2="1.8680436e-05%" id="linearGradient-1">
            <stop stop-color="#E6D6C6" offset="0%"></stop>
            <stop stop-color="#93E8FD" offset="100%"></stop>
        </linearGradient>
        <circle id="path-2" cx="64" cy="64" r="64"></circle>
    </defs>
    <g id="Page-1" stroke="none" stroke-width="1" fill="none" fill-rule="evenodd">
        <g id="Instincts-2017" transform="translate(-1175.000000, -4260.000000)">
            <g id="Group-70" transform="translate(110.000000, 4215.000000)">
                <g id="car-comp" transform="translate(1065.000000, 45.000000)">
                    <g id="Group-20-Copy-6">
                        <g id="Fill-5">
                            <mask id="mask-3" fill="white">
                                <use xlink:href="#path-2"></use>
                            </mask>
                            <use id="Mask" fill="url(#linearGradient-1)" xlink:href="#path-2"></use>
                            <polygon fill="#C1BCB8" mask="url(#mask-3)" points="-3 131 128 131 128 55 -3 55"></polygon>
                            <polygon fill="#626474" mask="url(#mask-3)" points="-3 131 128 131 128 64 -3 64"></polygon>
                            <polygon fill="#493E4A" mask="url(#mask-3)" points="-3 131 128 131 128 74 -3 74"></polygon>
                            <g id="Group-26" mask="url(#mask-3)" fill="#60565F" fill-rule="nonzero">
                                <g transform="translate(5.000000, 90.000000)">
                                    <polygon id="Stroke-18" points="0 8 0 0 23 0 23 8"></polygon>
                                    <polygon id="Stroke-20" points="40 8 40 0 75 0 75 8"></polygon>
                                    <polygon id="Stroke-22" points="94 8 94 0 118 0 118 8"></polygon>
                                </g>
                            </g>
                        </g>
                    </g>
                    <g id="Group-35-Copy" transform="translate(12.000000, 37.000000)">
                        <path d="M68.1692,42.1335 C68.1692,46.4785 71.6912,49.9995 76.0362,49.9995 C80.3802,49.9995 83.9032,46.4785 83.9032,42.1335 C83.9032,37.7885 80.3802,34.2665 76.0362,34.2665 C71.6912,34.2665 68.1692,37.7885 68.1692,42.1335" id="Fill-1" fill="#1D1D1B"></path>
                        <path d="M71.6067,42.1335 C71.6067,44.5795 73.5897,46.5625 76.0357,46.5625 C78.4817,46.5625 80.4647,44.5795 80.4647,42.1335 C80.4647,39.6875 78.4817,37.7035 76.0357,37.7035 C73.5897,37.7035 71.6067,39.6875 71.6067,42.1335" id="Fill-3" fill="#686868"></path>
                        <path d="M73.4265,42.1335 C73.4265,43.5735 74.5945,44.7425 76.0355,44.7425 C77.4775,44.7425 78.6455,43.5735 78.6455,42.1335 C78.6455,40.6925 77.4775,39.5235 76.0355,39.5235 C74.5945,39.5235 73.4265,40.6925 73.4265,42.1335" id="Fill-5" fill="#AAAAAA"></path>
                        <path d="M17.2058,42.1335 C17.2058,46.4785 20.7278,49.9995 25.0728,49.9995 C29.4178,49.9995 32.9398,46.4785 32.9398,42.1335 C32.9398,37.7885 29.4178,34.2665 25.0728,34.2665 C20.7278,34.2665 17.2058,37.7885 17.2058,42.1335" id="Fill-7" fill="#1D1D1B"></path>
                        <path d="M62.1731,27.3659 C62.1731,27.3659 102.1181,35.0129 103.5801,35.0129 L101.8111,44.5069 L84.7751,44.5069 C84.7751,44.5069 83.9031,37.3959 76.0361,37.3959 C68.1691,37.3959 66.8061,44.5069 66.8061,44.5069 L34.3721,44.5069 C34.3721,44.5069 32.6981,37.3959 25.0731,37.3959 C17.2061,37.3959 14.3311,43.4519 14.3311,44.5069 C14.3311,44.5069 3.5781,43.9789 2.0981,43.1879 C0.6181,42.3969 2.6691,29.4749 2.6691,29.4749 L9.6461,27.3659 C9.6461,27.3659 12.2831,2.0519 13.4391,0.4689 C13.4391,0.4689 52.0391,-0.5861 56.2581,0.4689 L62.1731,27.3659 Z" id="Fill-9" fill="#F9BF64"></path>
                        <path d="M20.6433,42.1335 C20.6433,44.5795 22.6263,46.5625 25.0733,46.5625 C27.5193,46.5625 29.5023,44.5795 29.5023,42.1335 C29.5023,39.6875 27.5193,37.7035 25.0733,37.7035 C22.6263,37.7035 20.6433,39.6875 20.6433,42.1335" id="Fill-11" fill="#686868"></path>
                        <path d="M22.4631,42.1335 C22.4631,43.5735 23.6311,44.7425 25.0731,44.7425 C26.5141,44.7425 27.6821,43.5735 27.6821,42.1335 C27.6821,40.6925 26.5141,39.5235 25.0731,39.5235 C23.6311,39.5235 22.4631,40.6925 22.4631,42.1335" id="Fill-13" fill="#AAAAAA"></path>
                        <path d="M52.571,2.403 L57.313,26.029 L54.94,40.79 L38.445,40.79 C38.445,40.79 35.69,33.827 31.471,33.563 L32.885,2.93 L52.571,2.403 Z" id="Fill-15" fill-opacity="0.1" fill="#000000"></path>
                        <path d="M102.5036,40.7897 C102.5036,40.7897 97.8916,38.7927 97.5116,34.0027 L103.5806,35.0137 L102.5036,40.7897 Z" id="Fill-17" fill="#FFF4C5"></path>
                        <path d="M2.0979,31.321 C2.0979,31.321 -2.2411,32.64 1.5619,35.804 L2.0979,31.321 Z" id="Fill-19" fill="#F24A00"></path>
                        <polygon id="Fill-21" fill="#8695A3" points="61.8791 26.029 58.5941 24.993 54.3971 4.27 57.1711 4.622"></polygon>
                        <path d="M54.9402,24.9929 C54.9402,24.9929 51.7752,4.6879 51.5122,4.1609 C49.5202,3.9269 34.1082,4.1609 34.1082,4.1609 L34.1082,24.9929 L54.9402,24.9929 Z" id="Fill-23" fill="#8695A3"></path>
                        <polygon id="Fill-25" fill="#8695A3" points="30.0061 24.9929 30.9431 4.1879 15.3491 4.1879 13.2501 24.9929"></polygon>
                        <path d="M32.885,27.2253 C32.885,27.8853 33.42,28.4203 34.081,28.4203 L37.249,28.4203 C37.909,28.4203 38.445,27.8853 38.445,27.2253 C38.445,26.5653 37.909,26.0293 37.249,26.0293 L34.081,26.0293 C33.42,26.0293 32.885,26.5653 32.885,27.2253" id="Fill-27" fill="#EFEFEF"></path>
                        <polygon id="Fill-29" fill-opacity="0.1" fill="#000000" points="97.5115 34.0026 93.0085 35.8046 63.7555 29.4756 62.1735 27.3656"></polygon>
                        <path d="M104.2517,40.7897 L98.4507,40.1547 C98.4507,40.1547 97.6587,43.9247 98.4507,44.7427 C99.2417,45.5607 103.5807,45.2977 103.5807,45.2977 L104.2517,40.7897 Z" id="Fill-31" fill="#EFEFEF"></path>
                        <path d="M58.425,27.2253 C58.425,27.2253 60.595,26.6983 60.501,24.3253 C60.406,21.9523 55.656,21.5963 55.656,21.5963 L56.184,27.3663 L58.425,27.2253 Z" id="Fill-33" fill="#EFEFEF"></path>
                    </g>
                </g>
            </g>
        </g>
    </g>
</svg>