<?xml version="1.0" encoding="UTF-8"?>
<svg width="24px" height="24px" viewBox="0 0 24 24" version="1.1" xmlns="http://www.w3.org/2000/svg" xmlns:xlink="http://www.w3.org/1999/xlink">
    <!-- Generator: Sketch 61.2 (89653) - https://sketch.com -->
    <title>icon/close</title>
    <desc>Created with Sketch.</desc>
    <g id="icon/close" stroke="none" stroke-width="1" fill="none" fill-rule="evenodd">
        <g id="Group-4">
            <rect id="Rectangle" x="0" y="0" width="24" height="24"></rect>
            <g id="Group" transform="translate(5.000000, 5.000000)" fill="#fff" fill-rule="nonzero">
                <path d="M12.6568542,1.34314575 C13.2426407,1.92893219 13.2426407,2.87867966 12.6568542,3.46446609 L9.12080592,6.99980592 L12.6568542,10.5355339 C13.2426407,11.1213203 13.2426407,12.0710678 12.6568542,12.6568542 C12.0710678,13.2426407 11.1213203,13.2426407 10.5355339,12.6568542 L6.99980592,9.12080592 L3.46446609,12.6568542 C2.87867966,13.2426407 1.92893219,13.2426407 1.34314575,12.6568542 C0.757359313,12.0710678 0.757359313,11.1213203 1.34314575,10.5355339 L4.87780592,6.99980592 L1.34314575,3.46446609 C0.757359313,2.87867966 0.757359313,1.92893219 1.34314575,1.34314575 C1.92893219,0.757359313 2.87867966,0.757359313 3.46446609,1.34314575 L6.99980592,4.87780592 L10.5355339,1.34314575 C11.1213203,0.757359313 12.0710678,0.757359313 12.6568542,1.34314575 Z" id="Combined-Shape"></path>
            </g>
        </g>
    </g>
</svg>