<?xml version="1.0" encoding="UTF-8"?>
<svg width="143px" height="150px" viewBox="0 0 143 150" version="1.1" xmlns="http://www.w3.org/2000/svg" xmlns:xlink="http://www.w3.org/1999/xlink">
    <!-- Generator: Sketch 52.6 (67491) - http://www.bohemiancoding.com/sketch -->
    <title>Comp-gaint wheel</title>
    <desc>Created with Sketch.</desc>
    <g id="Page-1" stroke="none" stroke-width="1" fill="none" fill-rule="evenodd">
        <g id="Instincts-2017" transform="translate(-753.000000, -4555.000000)">
            <g id="Group-62" transform="translate(110.000000, 4476.000000)">
                <g id="Comp-gaint-wheel" transform="translate(643.000000, 78.000000)">
                    <g id="Group-86" transform="translate(0.000000, 0.561723)">
                        <polygon id="Stroke-8" fill="#32383D" fill-rule="nonzero" points="27.6320149 150.191473 26.4135623 149.518133 38.8702991 126.976841 40.0887517 127.650181"></polygon>
                        <polygon id="Stroke-10" fill="#32383D" fill-rule="nonzero" points="115.421522 149.518133 114.203069 150.191473 101.746332 127.650181 102.964785 126.976841"></polygon>
                        <polygon id="Stroke-12" fill="#32383D" fill-rule="nonzero" points="9.82106248 149.957472 9.82106248 148.565347 130.82807 148.565347 130.82807 149.957472"></polygon>
                        <polygon id="Stroke-14" fill="#32383D" fill-rule="nonzero" points="70.5184894 7.78939488 71.9106146 7.78939488 71.9106146 135.32199 70.5184894 135.32199"></polygon>
                        <polygon id="Stroke-16" fill="#32383D" fill-rule="nonzero" points="102.388068 16.0962829 103.594895 16.7902434 40.021407 127.347263 38.81458 126.653302"></polygon>
                        <polygon id="Stroke-18" fill="#32383D" fill-rule="nonzero" points="125.874457 39.1842731 126.574724 40.3874521 16.3518142 104.538672 15.6515478 103.335493"></polygon>
                        <polygon id="Stroke-20" fill="#32383D" fill-rule="nonzero" points="134.726624 70.9067626 134.73391 72.2988688 7.20270745 72.9663929 7.19542088 71.5742867"></polygon>
                        <polygon id="Stroke-22" fill="#32383D" fill-rule="nonzero" points="126.586778 102.819347 125.899155 104.029796 15.0101138 41.0368246 15.6977364 39.8263752"></polygon>
                        <polygon id="Stroke-24" fill="#32383D" fill-rule="nonzero" points="103.621788 126.426772 102.42229 127.133325 37.6954257 17.2480057 38.894924 16.541453"></polygon>
                        <path d="M133.394592,71.8522846 C133.394592,37.5107057 105.55593,9.67161783 71.2146216,9.67161783 C36.8731779,9.67161783 9.03395486,37.5108409 9.03395486,71.8522846 C9.03395486,106.193593 36.8730427,134.032255 71.2146216,134.032255 C105.556065,134.032255 133.394592,106.193728 133.394592,71.8522846 Z M134.786718,71.8522846 C134.786718,106.962578 106.324915,135.424381 71.2146216,135.424381 C36.104198,135.424381 7.6418296,106.962447 7.6418296,71.8522846 C7.6418296,36.7419913 36.1043284,8.27949258 71.2146216,8.27949258 C106.324784,8.27949258 134.786718,36.7418609 134.786718,71.8522846 Z" id="Stroke-26" fill="#32383D" fill-rule="nonzero"></path>
                        <path d="M111.150519,71.8522846 C111.150519,49.7962098 93.2704235,31.9156913 71.2146216,31.9156913 C49.1582295,31.9156913 31.2780283,49.796104 31.2780283,71.8522846 C31.2780283,93.9083287 49.158093,111.788182 71.2146216,111.788182 C93.2705599,111.788182 111.150519,93.9082229 111.150519,71.8522846 Z M112.542644,71.8522846 C112.542644,94.6770724 94.0394095,113.180307 71.2146216,113.180307 C48.3892472,113.180307 29.885903,94.6771819 29.885903,71.8522846 C29.885903,49.0272582 48.3893762,30.523566 71.2146216,30.523566 C94.0392804,30.523566 112.542644,49.0273676 112.542644,71.8522846 Z" id="Stroke-28" fill="#32383D" fill-rule="nonzero"></path>
                        <path d="M85.7469476,71.8522846 C85.7469476,79.8785828 79.2401541,86.3853762 71.214552,86.3853762 C63.1882538,86.3853762 56.6814604,79.8785828 56.6814604,71.8522846 C56.6814604,63.8259864 63.1882538,57.319193 71.214552,57.319193 C79.2401541,57.319193 85.7469476,63.8259864 85.7469476,71.8522846" id="Fill-30" fill="#529DF7"></path>
                        <path d="M85.0508849,71.8522846 C85.0508849,64.2105137 78.8558318,58.0152556 71.214552,58.0152556 C63.5726786,58.0152556 57.377523,64.2104112 57.377523,71.8522846 C57.377523,79.494158 63.5726786,85.6893136 71.214552,85.6893136 C78.8558318,85.6893136 85.0508849,79.4940555 85.0508849,71.8522846 Z M86.4430102,71.8522846 C86.4430102,80.2628947 79.6246917,87.0814388 71.214552,87.0814388 C62.8038291,87.0814388 55.9853977,80.2630075 55.9853977,71.8522846 C55.9853977,63.4415616 62.8038291,56.6231303 71.214552,56.6231303 C79.6246917,56.6231303 86.4430102,63.4416744 86.4430102,71.8522846 Z" id="Stroke-32" fill="#32383D" fill-rule="nonzero"></path>
                        <path d="M71.214552,77.0877196 C68.3279803,77.0877196 65.9787689,74.7392043 65.9787689,71.8526326 C65.9787689,68.9653648 68.3279803,66.6168495 71.214552,66.6168495 C74.1011237,66.6168495 76.449639,68.9653648 76.449639,71.8526326 C76.449639,74.7392043 74.1011237,77.0877196 71.214552,77.0877196" id="Fill-34" fill="#FFFFFF"></path>
                        <path d="M71.2139255,65.9207869 C67.9382548,65.9207869 65.2827759,68.5762658 65.2827759,71.8519366 C65.2827759,75.1283033 67.9382548,77.7837823 71.2139255,77.7837823 C74.4902923,77.7837823 77.1457713,75.1283033 77.1457713,71.8519366 C77.1457713,68.5762658 74.4902923,65.9207869 71.2139255,65.9207869 M71.2139255,67.3129121 C73.7176628,67.3129121 75.753646,69.3488953 75.753646,71.8519366 C75.753646,74.3549778 73.7176628,76.391657 71.2139255,76.391657 C68.7108843,76.391657 66.6749011,74.3549778 66.6749011,71.8519366 C66.6749011,69.3488953 68.7108843,67.3129121 71.2139255,67.3129121" id="Fill-36" fill="#32383D"></path>
                        <path d="M78.6292895,8.97555521 C78.6292895,13.0711877 75.3090708,16.3900143 71.2148304,16.3900143 C67.1191979,16.3900143 63.7996752,13.0711877 63.7996752,8.97555521 C63.7996752,4.88061876 67.1191979,1.56179215 71.2148304,1.56179215 C75.3090708,1.56179215 78.6292895,4.88061876 78.6292895,8.97555521" id="Fill-38" fill="#F9BF64"></path>
                        <path d="M77.9332269,8.97555521 C77.9332269,5.26544698 74.9250495,2.25785478 71.2148304,2.25785478 C67.5035672,2.25785478 64.4957379,5.26509902 64.4957379,8.97555521 C64.4957379,12.6866099 67.5034697,15.6939517 71.2148304,15.6939517 C74.9251471,15.6939517 77.9332269,12.686262 77.9332269,8.97555521 Z M79.3253522,8.97555521 C79.3253522,13.4551519 75.6939562,17.086077 71.2148304,17.086077 C66.7346606,17.086077 63.1036126,13.4554999 63.1036126,8.97555521 C63.1036126,4.49618883 66.7347783,0.865729519 71.2148304,0.865729519 C75.6938385,0.865729519 79.3253522,4.4965368 79.3253522,8.97555521 Z" id="Stroke-40" fill="#32383D" fill-rule="nonzero"></path>
                        <path d="M108.794486,20.8996649 C106.76616,24.457241 102.238272,25.6976246 98.6806961,23.6692981 C95.12312,21.6409716 93.8827364,17.1137802 95.9110629,13.5555081 C97.9386933,9.997932 102.467277,8.75824445 106.024853,10.786571 C109.582429,12.8142014 110.822117,17.3420888 108.794486,20.8996649" id="Fill-42" fill="#FC3D4B"></path>
                        <path d="M105.680095,11.3912572 C102.456435,9.55331055 98.3530113,10.6766999 96.5157781,13.9002147 C94.6779731,17.1242571 95.8015419,21.2265217 99.0254536,23.0646119 C102.248851,24.9024088 106.351723,23.7787396 108.189774,20.554952 C110.027107,17.3312061 108.903595,13.2284817 105.680095,11.3912572 Z M109.399223,21.2443331 C107.180356,25.1361082 102.227323,26.4926292 98.3359386,24.2739843 C94.4441865,22.0551298 93.0877913,17.102792 95.3063258,13.2108399 C97.5243097,9.31927923 102.478003,7.96311268 106.369521,10.1818338 C110.260964,12.3997506 111.617277,17.3526494 109.399223,21.2443331 Z" id="Stroke-44" fill="#32383D" fill-rule="nonzero"></path>
                        <path d="M129.095849,46.1979219 C125.57238,48.2840216 121.02361,47.1188128 118.937511,43.5953437 C116.851411,40.0711787 118.01662,35.5238015 121.540785,33.4370057 C125.064254,31.350906 129.611631,32.5161149 131.697731,36.0395839 C133.784527,39.563749 132.619318,44.1111262 129.095849,46.1979219" id="Fill-46" fill="#F9BF64"></path>
                        <path d="M131.098774,36.3942015 C129.208522,33.2015246 125.088074,32.1457146 121.895438,34.0359416 C118.702079,35.9268543 117.646166,40.0473336 119.536468,43.2407261 C121.426656,46.433296 125.54843,47.4892581 128.741187,45.5989908 C131.93408,43.7079486 132.989604,39.5874206 131.098774,36.3942015 Z M129.450554,46.7968271 C125.596136,49.0788676 120.620464,47.8041592 118.338523,43.9499095 C116.056586,40.0949047 117.33128,35.1206782 121.186167,32.8380487 C125.040429,30.5561003 130.014737,31.8307005 132.296667,35.6849306 C134.579211,39.5396743 133.304953,44.5140359 129.450554,46.7968271 Z" id="Stroke-48" fill="#32383D" fill-rule="nonzero"></path>
                        <path d="M134.204183,78.2289839 C130.109942,78.2971981 126.736127,75.0319683 126.668609,70.9377279 C126.601091,66.8434875 129.865624,63.469672 133.959865,63.4014578 C138.054105,63.3346358 141.428617,66.5991695 141.496135,70.6934099 C141.562957,74.7876503 138.299119,78.1614659 134.204183,78.2289839" id="Fill-50" fill="#FC3D4B"></path>
                        <path d="M134.192587,77.5330179 C137.902978,77.4718403 140.86072,74.4150197 140.800167,70.7048871 C140.738991,66.9952071 137.681371,64.0368745 133.97146,64.0974239 C130.261381,64.1592375 127.303399,67.216501 127.364577,70.9262507 C127.425761,74.6363954 130.483087,77.5948219 134.192587,77.5330179 Z M134.215658,78.924952 C129.737359,78.9995649 126.046502,75.4281026 125.972641,70.9492051 C125.898787,66.4707586 129.469583,62.7801112 133.948506,62.7054879 C138.427247,62.6323904 142.11825,66.2035389 142.192105,70.682051 C142.265204,75.1609154 138.694626,78.8511019 134.215658,78.924952 Z" id="Stroke-52" fill="#32383D" fill-rule="nonzero"></path>
                        <path d="M123.965798,109.773429 C120.375506,107.804267 119.060644,103.297262 121.029805,99.7069708 C122.998967,96.1166798 127.505972,94.8018175 131.096263,96.7709787 C134.686554,98.7394438 136.001416,103.247145 134.032255,106.837436 C132.063094,110.427727 127.556089,111.74259 123.965798,109.773429" id="Fill-54" fill="#F9BF64"></path>
                        <path d="M124.300525,109.163133 C127.553596,110.94734 131.637574,109.756106 133.42196,106.502709 C135.206206,103.249566 134.014854,99.1649856 130.761535,97.3812741 C127.508465,95.5970676 123.424487,96.788301 121.640101,100.041699 C119.855894,103.294769 121.047128,107.378747 124.300525,109.163133 Z M123.63107,110.383724 C119.703602,108.229632 118.26555,103.299471 120.41951,99.3722431 C122.573602,95.4447749 127.503763,94.006723 131.4309,96.1606333 C135.358372,98.313966 136.796563,103.244841 134.642551,107.172164 C132.488459,111.099632 127.558297,112.537684 123.63107,110.383724 Z" id="Stroke-56" fill="#32383D" fill-rule="nonzero"></path>
                        <path d="M96.0403217,131.082203 C93.8957528,127.593537 94.9857868,123.027366 98.4751488,120.883493 C101.963815,118.738924 106.529986,119.828958 108.673858,123.317624 C110.817731,126.80629 109.728393,131.372461 106.239031,133.51703 C102.751062,135.660903 98.1841946,134.571565 96.0403217,131.082203" id="Fill-58" fill="#FC3D4B"></path>
                        <path d="M96.6333039,130.717682 C98.5757454,133.879195 102.713717,134.866822 105.874563,132.924015 C109.036126,130.980913 110.023617,126.843513 108.080824,123.682059 C106.138186,120.520858 102.000714,119.533303 98.8395309,121.47656 C95.6777987,123.419137 94.6900668,127.556532 96.6333039,130.717682 Z M98.1106281,120.290511 C101.926734,117.944657 106.921674,119.136877 109.266893,122.953189 C111.612199,126.769641 110.420087,131.764362 106.603519,134.110032 C102.78766,136.455441 97.7922319,135.26318 95.447297,131.446654 C93.1014095,127.63041 94.2938692,122.635537 98.1106281,120.290511 Z" id="Stroke-60" fill="#32383D" fill-rule="nonzero"></path>
                        <path d="M63.5041967,134.939086 C63.3691605,130.846237 66.5773132,127.418825 70.6701614,127.283789 C74.7630097,127.148753 78.1904221,130.356905 78.3254582,134.449754 C78.4597983,138.542602 75.2516456,141.970014 71.1587974,142.10505 C67.0659491,142.240087 63.6385367,139.031934 63.5041967,134.939086" id="Fill-62" fill="#F9BF64"></path>
                        <path d="M64.1998807,134.916133 C64.3216056,138.624642 67.4270648,141.531731 71.1358445,141.409366 C74.8443234,141.287012 77.7515072,138.181465 77.6297741,134.472706 C77.5074169,130.764147 74.4018195,127.857111 70.6931143,127.979473 C66.9845544,128.10183 64.0775187,131.207428 64.1998807,134.916133 Z M62.8085087,134.96192 C62.6607981,130.484921 66.1701981,126.735816 70.6472086,126.588105 C75.1243261,126.44039 78.8734314,129.94979 79.0211462,134.426919 C79.1681009,138.904088 75.6586195,142.653028 71.1817502,142.800735 C66.7044993,142.948453 62.9554569,139.438892 62.8085087,134.96192 Z" id="Stroke-64" fill="#32383D" fill-rule="nonzero"></path>
                        <path d="M33.5551276,123.422799 C35.4644274,119.800489 39.9498549,118.411844 43.5721649,120.321144 C47.1944748,122.23114 48.5831197,126.715175 46.6738199,130.338181 C44.7638241,133.961187 40.2790926,135.349136 36.6567826,133.439836 C33.0344727,131.529841 31.6458278,127.045109 33.5551276,123.422799" id="Fill-66" fill="#FC3D4B"></path>
                        <path d="M34.1708883,123.747363 C32.4408275,127.029622 33.6991298,131.093406 36.9813468,132.824076 C40.2638971,134.55429 44.3275108,133.296235 46.0580335,130.013666 C47.7880882,126.730788 46.5299185,122.667627 43.2476007,120.936905 C39.9652644,119.206803 35.9008827,120.46523 34.1708883,123.747363 Z M32.9393668,123.098235 C35.027879,119.135925 39.934269,117.616792 43.8968216,119.705432 C47.8592105,121.794747 49.3780567,126.699742 47.2895576,130.662789 C45.2004395,134.625566 40.2948612,136.144284 36.3321259,134.055548 C32.3698141,131.966274 30.8508288,127.060594 32.9393668,123.098235 Z" id="Stroke-68" fill="#32383D" fill-rule="nonzero"></path>
                        <path d="M12.4306013,96.4354069 C15.883768,94.2344568 20.4673404,95.2486201 22.6689865,98.7017868 C24.8699365,102.154953 23.8557733,106.738526 20.4026066,108.939476 C16.9494399,111.141122 12.3658675,110.126263 10.1642214,106.673792 C7.96327133,103.220625 8.97743458,98.637053 12.4306013,96.4354069" id="Fill-70" fill="#F9BF64"></path>
                        <path d="M10.7511067,106.299534 C12.7462187,109.428133 16.8995959,110.347399 20.0284866,108.352503 C23.1572313,106.35833 24.0764993,102.205143 22.082067,99.0759909 C20.0872047,95.9471537 15.9339834,95.0279094 12.8047633,97.0223532 C9.67594595,99.0172348 8.7567246,103.170461 10.7511067,106.299534 Z M12.0563972,95.8484874 C15.8339608,93.440776 20.8477215,94.5504714 23.2559596,98.3276668 C25.6636456,102.105191 24.5538888,107.118993 20.7768106,109.526395 C16.9997233,111.934565 11.9857964,110.824832 9.57724823,107.047912 C7.1695905,103.270433 8.27928592,98.2566718 12.0563972,95.8484874 Z" id="Stroke-72" fill="#32383D" fill-rule="nonzero"></path>
                        <path d="M8.04826057,65.1826125 C12.1383246,64.9800582 15.6179417,68.1318298 15.8204959,72.2218938 C16.0230501,76.3119578 12.8719746,79.7915749 8.78191058,79.9941292 C4.69184658,80.1959873 1.2122295,77.0449118 1.00967527,72.9548478 C0.807121046,68.8647838 3.95819657,65.3851667 8.04826057,65.1826125" id="Fill-74" fill="#FC3D4B"></path>
                        <path d="M8.08268983,65.8778231 C4.37661656,66.0613608 1.52134461,69.2142722 1.70488589,72.9204185 C1.88841948,76.6264094 5.04128165,79.4818317 8.74748133,79.2989185 C12.4535546,79.1153809 15.3088265,75.9624694 15.1252853,72.2563231 C14.9417397,68.5500897 11.788676,65.6942897 8.08268983,65.8778231 Z M8.01383132,64.4874019 C12.4877586,64.2658374 16.294133,67.7133554 16.5157065,72.1874646 C16.7372768,76.6615097 13.2903312,80.4677721 8.81622181,80.6893456 C4.34212272,80.9101572 0.536025215,77.4631255 0.314464648,72.989277 C0.092894341,68.5152319 3.53983996,64.7089695 8.01383132,64.4874019 Z" id="Stroke-76" fill="#32383D" fill-rule="nonzero"></path>
                        <path d="M19.0594841,34.4647422 C22.7124208,36.3141806 24.1755444,40.775246 22.32541,44.4288787 C20.4759716,48.0825115 16.0149062,49.5449391 12.3612734,47.6955007 C8.7076407,45.8460623 7.24521312,41.3843008 9.09534758,37.7306681 C10.944786,34.0770353 15.4058514,32.6153038 19.0594841,34.4647422" id="Fill-78" fill="#F9BF64"></path>
                        <path d="M9.71633156,38.0451233 C8.03990493,41.355719 9.36498457,45.3986456 12.6756345,47.074469 C15.9863185,48.7503096 20.0285758,47.4251265 21.704426,44.1144235 C23.3806701,40.8041882 22.0554387,36.7617635 18.7450992,35.0857618 C15.4342362,33.4098467 11.3920849,34.7346117 9.71633156,38.0451233 Z M19.3738452,33.8437106 C23.3701785,35.8670066 24.9700253,40.7470808 22.9464416,44.7432398 C20.9234004,48.7398311 16.0435591,50.3396015 12.0469124,48.3165323 C8.05020841,46.2934341 6.45056608,41.4127942 8.47431593,37.416307 C10.4972888,33.4198506 15.3770634,31.820573 19.3738452,33.8437106 Z" id="Stroke-80" fill="#32383D" fill-rule="nonzero"></path>
                        <path d="M43.9151845,12.9371261 C46.1732117,16.3534014 45.2349193,20.9536793 41.8179478,23.2117065 C38.4023685,25.4697337 33.8027867,24.5307452 31.5447595,21.1144698 C29.2860363,17.6981944 30.2250247,13.0979165 33.6413001,10.8398894 C37.0575755,8.58255825 41.6578534,9.52154673 43.9151845,12.9371261" id="Fill-82" fill="#FC3D4B"></path>
                        <path d="M43.334501,13.3209356 C41.2891303,10.2260748 37.1206461,9.37517265 34.0251097,11.4205729 C30.9294451,13.4666886 30.0787863,17.6351313 32.125443,20.7306602 C34.171496,23.8262298 38.3392267,24.6770578 41.4341927,22.630987 C44.5301115,20.5851201 45.3807461,16.416796 43.334501,13.3209356 Z M42.2018118,23.7923541 C38.4655098,26.2624099 33.434077,25.2352601 30.9641304,21.4983617 C28.4934425,17.761494 29.5203679,12.7293007 33.2575729,10.2591514 C36.9945634,7.78990518 42.0266057,8.81707923 44.4958773,12.5533304 C46.9660503,16.2905876 45.9391543,21.3226171 42.2018118,23.7923541 Z" id="Stroke-84" fill="#32383D" fill-rule="nonzero"></path>
                    </g>
                </g>
            </g>
        </g>
    </g>
</svg>