<?xml version="1.0" encoding="UTF-8"?>
<svg width="110px" height="123px" viewBox="0 0 110 123" version="1.1" xmlns="http://www.w3.org/2000/svg" xmlns:xlink="http://www.w3.org/1999/xlink">
    <!-- Generator: Sketch 52.6 (67491) - http://www.bohemiancoding.com/sketch -->
    <title>Comp-spinner</title>
    <desc>Created with Sketch.</desc>
    <g id="Page-1" stroke="none" stroke-width="1" fill="none" fill-rule="evenodd">
        <g id="Instincts-2017" transform="translate(-942.000000, -4583.000000)">
            <g id="Group-62" transform="translate(110.000000, 4476.000000)">
                <g id="Comp-spinner" transform="translate(832.000000, 107.000000)">
                    <g id="Group-17" transform="translate(6.619999, 40.497350)">
                        <path d="M94.8555293,42.3908058 C94.5984143,42.3886983 94.3546469,42.2397684 94.2450569,41.9903809 L79.8655882,6.76493272 C79.7173608,6.42703031 79.8712082,6.03292791 80.2084081,5.88329545 C80.5477155,5.73506799 80.9418179,5.88821295 81.0907479,6.22681786 L95.4695141,41.4515636 C95.6184441,41.7901685 95.4652991,42.1856759 95.1273967,42.3339034 C95.0381792,42.3725408 94.9461518,42.3901033 94.8555293,42.3908058" id="Fill-1" fill="#32383D"></path>
                        <path d="M83.470747,58.7301085 C83.1834246,58.7301085 82.9157722,58.5425411 82.8293647,58.2510037 L69.7115856,8.46624677 C69.6062107,8.11078186 69.8092331,7.73845696 70.163293,7.63518949 C70.5180554,7.52981452 70.8903803,7.73143196 70.9936478,8.08478937 L84.1128319,57.8702488 C84.2175043,58.2243087 84.0151844,58.5980386 83.6611245,58.702711 C83.5978995,58.720976 83.5346745,58.7301085 83.470747,58.7301085" id="Fill-3" fill="#32383D"></path>
                        <polygon id="Fill-5" fill="#32383D" points="48.4774047 77.0199722 49.8824044 77.0199722 49.8824044 0.108887471 48.4774047 0.108887471"></polygon>
                        <polygon id="Fill-7" fill="#529DF7" points="12.4588342 81.4899785 86.4671897 81.4899785 86.4671897 75.2911202 12.4588342 75.2911202"></polygon>
                        <path d="M11.7563344,82.1924784 L11.7563344,74.5886204 L87.1696895,74.5886204 L87.1696895,82.1924784 L11.7563344,82.1924784 Z M85.7646899,80.7874787 L85.7646899,75.99362 L13.161334,75.99362 L13.161334,80.7874787 L85.7646899,80.7874787 Z" id="Stroke-8" fill="#32383D" fill-rule="nonzero"></path>
                        <path d="M0.647845329,39.2288542 C0.557925353,39.2190192 0.468005377,39.1895142 0.384407899,39.1431492 C0.0647704829,38.9583917 -0.045521988,38.5488343 0.138532964,38.2298994 L18.7765556,7.16184511 C18.9606105,6.8401002 19.3694654,6.73121273 19.6905078,6.91456518 C20.0101452,7.09932263 20.1211402,7.50817752 19.9363828,7.82781494 L1.29836016,38.8958693 C1.16207519,39.1326117 0.903555262,39.2555492 0.647845329,39.2288542" id="Fill-9" fill="#32383D"></path>
                        <path d="M25.5811093,55.194989 C25.5487943,55.194989 25.5157768,55.193584 25.4820568,55.1886665 C25.1167569,55.134574 24.8645595,54.7938616 24.9193544,54.4271567 L32.4009775,4.01647244 C32.45507,3.65047004 32.7950799,3.39757011 33.1610823,3.45166259 C33.5263822,3.50645758 33.7792821,3.84576499 33.7237846,4.21317239 L26.2428641,54.6245591 C26.1922841,54.957544 25.9070692,55.194989 25.5811093,55.194989" id="Fill-10" fill="#32383D"></path>
                        <path d="M39.5522148,38.6793588 C39.5458923,38.6793588 39.5402723,38.6793588 39.5367598,38.6786563 C39.1665424,38.6617963 38.880625,38.3491839 38.897485,37.979669 L40.7562995,4.68047527 C40.7731595,4.31658036 41.0773419,4.03347294 41.4405343,4.04190294 C41.4447493,4.04190294 41.4496668,4.04190294 41.4552868,4.04260544 C41.8248017,4.05946543 42.1107192,4.37207785 42.0938592,4.74159275 L40.2350447,38.040084 C40.2181847,38.4046814 39.9140022,38.6884913 39.5522148,38.6793588" id="Fill-11" fill="#32383D"></path>
                        <path d="M9.78856217,58.3143691 C9.72603969,58.3143691 9.66211221,58.3052366 9.59818472,58.2869717 C9.24482732,58.1822992 9.04250737,57.8085693 9.14788234,57.4552119 L27.9453724,6.04346541 C28.0507474,5.688703 28.4237748,5.48708556 28.7778347,5.59105553 C29.1332996,5.697133 29.334917,6.0701604 29.2288396,6.42351781 L10.430647,57.8359668 C10.343537,58.1260992 10.0779921,58.3143691 9.78856217,58.3143691" id="Fill-12" fill="#32383D"></path>
                        <path d="M68.9913126,43.6743433 C68.6653527,43.6919057 68.3681952,43.4685108 68.3014578,43.1390384 L61.3235271,4.53316106 C61.2497646,4.17137365 61.4836971,3.81942124 61.8468895,3.74495626 C62.2100819,3.67259878 62.5613318,3.90653122 62.6343918,4.26902113 L69.6130249,42.8734935 C69.6867874,43.2352809 69.4521525,43.5893408 69.0903651,43.6609958 C69.0573476,43.6680208 69.0243301,43.6736408 68.9913126,43.6743433" id="Fill-13" fill="#32383D"></path>
                        <path d="M59.1686792,53.2274275 C58.8068918,53.2478 58.4935768,52.9752301 58.4654769,52.6113351 L54.6825154,4.1669479 C54.6530104,3.7981355 54.9283903,3.47568808 55.2965002,3.44758809 C55.3014177,3.44758809 55.3077402,3.44618309 55.3119552,3.44618309 C55.6730401,3.4251081 55.98776,3.69838053 56.0151575,4.06227543 L59.7988215,52.5066627 C59.8283265,52.8761776 59.5529466,53.1979225 59.1834317,53.226725 C59.1799192,53.226725 59.1735967,53.226725 59.1686792,53.2274275" id="Fill-14" fill="#32383D"></path>
                    </g>
                    <g id="Group-64" transform="translate(0.000000, 0.157360)">
                        <path d="M56.3694197,49.8971484 C56.7038096,49.9119009 57.0367945,49.9119009 57.3746969,49.8929334 C60.0533287,49.7475159 62.599188,48.6712862 65.2356698,48.2329263 C68.8451139,47.6372065 71.7801581,49.8823959 74.9280598,51.414548 C76.7117068,52.2807302 78.3885739,52.7219001 80.3190434,52.3039127 C82.3562928,51.8634454 84.3970548,50.9010206 86.3752943,52.1268828 C88.0177388,53.1441025 89.351786,54.4662072 91.378498,54.0854523 C93.1389625,53.7587899 94.6795446,52.4767277 96.3824041,51.9231578 C98.0381962,51.3871505 99.6448133,51.9386128 101.303415,51.6829029 C104.620619,51.175698 106.684564,45.1313896 107.834556,42.0979954 C112.088193,30.8825859 101.922318,19.2421639 94.5741696,13.7401854 C83.4269025,5.39097509 69.4036012,2.16439344 56.3630972,1.35370866 C43.3204856,2.16439344 29.2992918,5.39097509 18.1513222,13.7401854 C10.8045792,19.2421639 0.638704345,30.8825859 4.89234073,42.0979954 C5.81823548,44.5412898 7.29208009,47.9203139 9.43751453,49.3267185 C11.9545714,50.9775931 15.147433,50.6663857 17.7937498,52.1894053 C19.7129793,53.2944375 21.6062163,54.7746046 23.8788032,54.0636748 C25.9034077,53.4279124 27.4299398,51.6723654 29.6730217,51.7938979 C31.3920387,51.8859254 32.9220833,52.4591652 34.6677954,52.2217203 C36.294785,52.0011353 37.8353671,51.3450005 39.3359067,50.6488232 C42.7964207,49.0457186 46.1627999,47.526914 49.9822914,48.5230587 C52.0904933,49.0745211 54.1993977,49.8030134 56.3694197,49.8971484" id="Fill-20" fill="#FC3D4B"></path>
                        <path d="M51.1738452,49.5774439 C50.4654214,49.3794545 50.1804886,49.3010391 49.8050057,49.2028203 C46.8132325,48.4225491 44.5322308,49.0158131 39.6315619,51.2860782 C37.5806551,52.2375991 36.2463925,52.7166232 34.7624749,52.9178106 C33.8748836,53.0385373 33.0761838,52.9890174 31.8885128,52.7998599 C31.7597649,52.7793546 31.6733632,52.7651427 31.4211749,52.7232849 C30.5452065,52.577893 30.1363818,52.5222096 29.6350153,52.4953688 C28.6933926,52.4443508 27.9582884,52.7210885 26.5530016,53.5318228 C25.3109441,54.2503864 24.7874908,54.5146519 24.088542,54.7341341 C22.2090132,55.3221041 20.8821193,54.8680094 18.2718123,53.2913656 C17.994888,53.1241014 17.929132,53.08449 17.8031541,53.0094253 C17.6721936,52.9313918 17.5549856,52.8625543 17.4433341,52.7982688 C16.5188151,52.2661856 15.600126,51.9763745 13.8732566,51.5930159 C13.7179269,51.5586216 13.7179269,51.5586216 13.5618586,51.5242284 C11.2587575,51.0165973 10.2332128,50.6887152 9.05237767,49.914235 C7.09175765,48.6289824 5.65946343,46.1047478 4.23549573,42.3471152 C2.19805571,36.9750706 3.18339729,31.196514 6.56549608,25.4215384 C9.25944906,20.8215804 13.4009228,16.4200997 17.7302023,13.1779008 C27.9303975,5.53852087 41.114418,1.59765963 56.3195163,0.652561958 C71.6109256,1.59775948 84.7962488,5.53890408 94.9952221,13.1778503 C99.3250068,16.4198076 103.466993,20.8213802 106.161216,25.4215226 C109.543464,31.1964069 110.528861,36.9750181 108.491435,42.3470253 C108.551132,42.1895607 107.976793,43.7187215 107.795166,44.1878222 C107.487739,44.9818337 107.202498,45.6753501 106.905338,46.3379848 C105.308467,49.898827 103.605552,52.0415674 101.410456,52.3771998 C100.757949,52.4777982 100.257455,52.4771275 99.16618,52.4181955 C98.9523019,52.4066455 98.8588409,52.4018059 98.7422333,52.3965508 C97.7960045,52.3539076 97.1982398,52.3974496 96.5995869,52.5912429 C96.0460857,52.7711765 95.5841729,52.9913389 94.6014136,53.5137841 C93.110094,54.3066708 92.434198,54.6040534 91.5082062,54.7758737 C90.0746249,55.0451982 88.9594151,54.6724969 87.4495504,53.6826074 C87.2635238,53.5606456 87.0769857,53.4344169 86.7120353,53.1861871 C86.4212797,52.9894631 86.214114,52.8533767 86.0052602,52.7240266 C84.8951568,52.0361252 83.9636342,52.0819529 81.6763948,52.689654 C81.2486552,52.8033009 81.0523705,52.854159 80.807892,52.9127548 C80.6899326,52.941027 80.5771941,52.9668304 80.4677046,52.9905027 C78.5198193,53.412261 76.7459939,53.0783354 74.6206201,52.046202 C74.0793571,51.7827576 73.6328846,51.5477099 72.7177558,51.0528964 C72.5353172,50.9542368 72.4507495,50.908533 72.3535738,50.8561385 C69.1413249,49.1241818 67.4624707,48.577408 65.3508906,48.9259127 C64.4891199,49.0691967 63.7940818,49.2377227 62.2390452,49.6550761 C59.8706252,50.2907333 58.8023872,50.5189612 57.4140684,50.594329 C57.0620213,50.6140905 56.7069184,50.6152133 56.3387156,50.5989769 C54.8515882,50.5344421 53.6861763,50.279587 51.1738452,49.5774439 Z M18.5724263,14.3024819 C8.46564512,21.871454 2.09685547,32.7462411 5.54925403,41.8490559 C6.86871818,45.3309196 8.19852419,47.6745319 9.82279158,48.739294 C10.8137365,49.3892299 11.7256521,49.6807831 13.8642785,50.1521621 C14.0205869,50.1866079 14.0205869,50.1866079 14.1777484,50.2214078 C16.0357848,50.633885 17.0615669,50.9574799 18.1442773,51.5806061 C18.2626381,51.6487545 18.3857398,51.7210535 18.5223391,51.8024469 C18.6517364,51.879549 18.718496,51.919765 18.998219,52.0887196 C21.274958,53.463886 22.3104083,53.8182418 23.6683384,53.3934431 C24.2363903,53.2150645 24.6950669,52.9835015 25.6512299,52.4302769 C27.4778551,51.376209 28.4177961,51.0223583 29.7105762,51.0924026 C30.2797564,51.1228736 30.7251261,51.1835346 31.6512273,51.3372474 C31.9001856,51.3785692 31.9849141,51.3925058 32.1094985,51.412348 C33.1726881,51.5816797 33.851575,51.6237711 34.5734149,51.5255893 C35.8820307,51.348169 37.1081392,50.9079741 39.040616,50.0113991 C44.2267045,47.6089115 46.747253,46.953344 50.1600694,47.8434258 C50.5462638,47.9444463 50.8358732,48.0241487 51.5520211,48.2242968 C53.9611802,48.8976056 55.055983,49.1370114 56.3998653,49.1953086 C56.723055,49.2095668 57.0314443,49.2085955 57.3366157,49.1914665 C58.5960831,49.1230926 59.6006703,48.9084636 61.8673029,48.3001249 C63.4739861,47.8689102 64.1986003,47.6932129 65.1212735,47.5398033 C67.6361769,47.1247317 69.5486543,47.7475926 73.0203655,49.6194442 C73.1182538,49.6722229 73.203483,49.7182842 73.386013,49.8169934 C74.283863,50.3024642 74.7179485,50.5309906 75.2349387,50.7826213 C77.0994386,51.6880677 78.5673712,51.9644084 80.1705882,51.6172781 C80.2696188,51.5958671 80.3722412,51.572379 80.4804204,51.546451 C80.7100857,51.4914055 80.8988977,51.4424836 81.3156147,51.3317653 C83.9617896,50.6286979 85.1934846,50.5681028 86.7451814,51.5296479 C86.9731829,51.6708567 87.19429,51.8161012 87.4993697,52.0225168 C87.8672536,52.2727016 88.04387,52.3922163 88.2198907,52.5076181 C89.4549929,53.3173693 90.2492576,53.5828112 91.2503335,53.3947426 C91.9881065,53.2578454 92.5783549,52.9981463 93.9026992,52.2940343 C94.9964926,51.7125607 95.5082367,51.468647 96.1660472,51.2548049 C96.9603316,50.9976819 97.7054964,50.9434031 98.8054875,50.9929758 C98.9276662,50.9984819 99.0238834,51.0034642 99.2419436,51.0152401 C100.23732,51.0689933 100.67119,51.0695747 101.197236,50.9884737 C102.7471,50.7514975 104.214029,48.9056926 105.623347,45.7630721 C105.909329,45.1253655 106.185673,44.4534807 106.484945,43.6805291 C106.663168,43.2202217 107.232729,41.703811 107.17806,41.847955 C110.629721,32.7452668 104.260273,21.8703257 94.1530327,14.3024573 C84.2113365,6.85620957 71.2978098,2.99195795 56.3630936,2.05757309 C41.4275202,2.99186074 28.5152914,6.85582794 18.5724263,14.3024819 Z" id="Stroke-22" fill="#32383D" fill-rule="nonzero"></path>
                        <path d="M57.3683042,31.5896519 C35.7966423,31.5896519 16.6380674,34.3434512 3.88839824,36.7881506 C3.90947323,38.5507226 4.22068065,40.3308571 4.89227048,42.0983467 C5.22033789,42.9687439 5.62076278,43.9543512 6.09354516,44.9280159 C18.5010969,42.5865841 36.9353945,39.9704747 57.3683042,39.9704747 C79.8792082,39.9704747 96.7799488,43.1612289 106.455479,45.6178708 C107.014669,44.3238661 107.469888,43.0600689 107.834486,42.0983467 C108.409131,40.5802446 108.714016,39.054415 108.803233,37.5370154 C98.6401683,34.9209061 81.0467629,31.5896519 57.3683042,31.5896519" id="Fill-24" fill="#F9BF64"></path>
                        <path d="M57.3683042,30.8871521 C77.5130046,30.8871521 94.8311631,33.2150161 108.978357,36.8566937 L109.538469,37.0008741 L109.504522,37.5782486 C109.408377,39.2134717 109.075598,40.8039441 108.491365,42.3473755 C108.470034,42.4036415 108.024178,43.5930855 107.873883,43.985027 C107.602915,44.6916586 107.356215,45.3044344 107.100342,45.8965413 L106.862858,46.4460955 L106.282598,46.2987659 C92.797561,42.8748805 76.3575619,40.6729746 57.3683042,40.6729746 C39.8054967,40.6729746 22.4212067,42.5617182 6.2238148,45.6183317 L5.69615448,45.7179066 L5.46160501,45.2348671 C5.02768155,44.3412298 4.62862452,43.3906689 4.23557825,42.3478688 C3.55287082,40.55112 3.20865118,38.6952392 3.18594864,36.7965497 L3.17892204,36.2088924 L3.75610664,36.0982195 C20.5358052,32.8807777 38.7461305,30.8871521 57.3683042,30.8871521 Z M57.3683042,32.2921518 C39.0599327,32.2921518 21.1440369,34.2300235 4.60910691,37.3658719 C4.68642645,38.896968 4.99598329,40.3934946 5.54962635,41.8505782 C5.85835604,42.6696704 6.16932542,43.4260456 6.49685465,44.1375092 C22.6224414,41.1247162 39.9028622,39.2679749 57.3683042,39.2679749 C76.2051373,39.2679749 92.5597079,41.4223366 106.042951,44.7895616 C106.211258,44.3827757 106.380828,43.9545116 106.562026,43.4819786 C106.710033,43.0960056 107.15456,41.91011 107.17748,41.8496513 C107.641848,40.6228807 107.932009,39.3640004 108.057192,38.0715374 C94.1265308,34.5421866 77.1203896,32.2921518 57.3683042,32.2921518 Z" id="Stroke-26" fill="#32383D" fill-rule="nonzero"></path>
                        <path d="M18.1511115,13.7403961 C16.2789495,15.1404783 14.22203,16.9444978 12.2690805,19.0358398 C24.2888524,17.0435503 40.1337357,15.1840333 57.3681637,15.1840333 C75.9900288,15.1840333 90.7980224,17.3589727 100.890837,19.5086221 C98.8093302,17.2163652 96.5866208,15.2465557 94.5739589,13.7403961 C93.4176442,12.8749164 92.226907,12.0642316 91.0115823,11.3062343 C81.8587122,9.93706215 70.5674327,8.89876742 57.3681637,8.89876742 C44.3339821,8.89876742 32.1863553,9.90825965 21.811838,11.2437118 C20.5634958,12.0213791 19.3397412,12.8496264 18.1511115,13.7403961" id="Fill-28" fill="#F9BF64"></path>
                        <path d="M21.4403889,10.6474471 L21.5703206,10.5665049 C33.4545806,9.03671218 45.4066706,8.19626761 57.3681637,8.19626761 C69.4784352,8.19626761 80.7461489,9.06031826 91.1155124,10.6114649 L91.3833488,10.7101675 C92.6340233,11.4902124 93.8392331,12.3129828 94.9948617,13.177949 C97.1833236,14.8156671 99.4124549,16.8355652 101.410912,19.0363632 L102.875894,20.6496727 L100.744496,20.1957103 C88.1141109,17.5055887 73.5837345,15.8865331 57.3681637,15.8865331 C42.1739566,15.8865331 26.9681948,17.311531 12.3839533,19.7288839 L10.3451511,20.0668175 L11.7556405,18.5563761 C13.6368769,16.5418291 15.7040838,14.6931991 17.7301065,13.1780254 C18.9004723,12.3009563 20.1341448,11.461185 21.4403889,10.6474471 Z M18.5723987,14.3025554 C17.1308118,15.3806357 15.6653336,16.6352873 14.2653346,18.0004937 C28.2744849,15.7796291 42.8230993,14.4815335 57.3681637,14.4815335 C72.7493091,14.4815335 86.6297631,15.9298795 98.829224,18.3660207 C97.3191302,16.8599062 95.7236428,15.4781795 94.1530059,14.3028058 C93.067544,13.490358 91.9363842,12.7157257 90.763107,11.9794348 C80.5013399,10.4519853 69.3514661,9.60126724 57.3681637,9.60126724 C45.5215175,9.60126724 33.6804145,10.4302872 22.0537588,11.9209062 C20.8286896,12.6886346 19.6709994,13.4792542 18.5723987,14.3025554 Z" id="Stroke-30" fill="#32383D" fill-rule="nonzero"></path>
                        <path d="M9.40688554,84.2729933 C8.17680836,86.4310728 5.42933158,87.1834501 3.27125215,85.9533729 C1.11317272,84.7225932 0.360795418,81.9751164 1.59087259,79.817037 C2.82165227,77.6589576 5.56842655,76.9072828 7.72650598,78.1373599 C9.88528791,79.3681396 10.6369627,82.1149139 9.40688554,84.2729933" id="Fill-32" fill="#FC3D4B"></path>
                        <path d="M8.79656625,83.9251193 C9.83467481,82.1038346 9.20007472,79.7861328 7.37863193,78.7476792 C5.55744159,77.7096245 3.23964135,78.3440682 2.20119188,80.164911 C1.16321949,81.9859568 1.79813884,84.3045217 3.6191262,85.3430536 C5.44017677,86.3810287 7.75863807,85.7460875 8.79656625,83.9251193 Z M10.0172048,84.6208674 C8.5950161,87.1159923 5.41855211,87.9859089 2.92322818,86.5636067 C0.428201794,85.140662 -0.441625913,81.9642712 0.980638782,79.469013 C2.4035344,76.9740728 5.57918563,76.1048123 8.07444448,77.5270774 C10.5700179,78.9498709 11.4395261,82.1255099 10.0172048,84.6208674 Z" id="Stroke-34" fill="#32383D" fill-rule="nonzero"></path>
                        <path d="M35.8336641,100.578646 C34.6035869,102.736726 31.8568126,103.489806 29.6987332,102.259026 C27.5399513,101.028949 26.787574,98.2814719 28.0183536,96.1233925 C29.2484308,93.965313 31.9952051,93.2129357 34.1532845,94.4437154 C36.3120665,95.6737926 37.0644438,98.4205668 35.8336641,100.578646" id="Fill-36" fill="#FC3D4B"></path>
                        <path d="M35.2233448,100.230772 C36.2619334,98.4096854 35.6271168,96.0920457 33.8052605,95.0539492 C31.984418,94.0154999 29.6666798,94.6501602 28.6285874,96.4714164 C27.5900533,98.2924078 28.2249555,100.610727 30.0467572,101.648792 C31.8674009,102.687128 34.1852245,102.052078 35.2233448,100.230772 Z M29.3509446,102.869394 C26.8550128,101.447208 25.9850572,98.2706016 27.4080343,95.7755184 C28.8303407,93.2801872 32.0062708,92.4105304 34.5010731,93.8333474 C36.9970124,95.2555374 37.8669246,98.431406 36.4439406,100.926595 C35.0215459,103.421988 31.8456034,104.292129 29.3509446,102.869394 Z" id="Stroke-38" fill="#32383D" fill-rule="nonzero"></path>
                        <path d="M19.5279409,102.265629 C18.2978637,104.423709 15.5503869,105.176789 13.3923075,103.946009 C11.2335256,102.715932 10.4818508,99.9684549 11.7119279,97.8103755 C12.9427076,95.6522961 15.6894819,94.8999188 17.8475613,96.1306985 C20.0063432,97.3607756 20.758018,100.10755 19.5279409,102.265629" id="Fill-40" fill="#F9BF64"></path>
                        <path d="M18.9176216,101.917755 C19.9557329,100.096466 19.321111,97.7788677 17.4995373,96.7409323 C15.6786995,95.7024857 13.3608579,96.3371241 12.3222472,98.1582496 C11.2841049,99.9795935 11.9188123,102.297871 13.7403315,103.335775 C15.5610296,104.374142 17.8795323,103.739006 18.9176216,101.917755 Z M20.1382602,102.613503 C18.7159048,105.108921 15.5392351,105.979145 13.0445189,104.556377 C10.5488794,103.134358 9.67923139,99.9579571 11.1016941,97.4623515 C12.5247565,94.9671189 15.7006134,94.097551 18.1953499,95.5203305 C20.6910219,96.9423681 21.5606189,100.11808 20.1382602,102.613503 Z" id="Stroke-42" fill="#32383D" fill-rule="nonzero"></path>
                        <path d="M49.8911771,84.2729933 C48.6603975,86.4310728 45.9136232,87.1834501 43.7555437,85.9533729 C41.5967618,84.7225932 40.845087,81.9751164 42.0751642,79.817037 C43.3052414,77.6589576 46.0520156,76.9072828 48.2100951,78.1373599 C50.368877,79.3681396 51.1212543,82.1149139 49.8911771,84.2729933" id="Fill-44" fill="#F9BF64"></path>
                        <path d="M47.862221,78.7476792 C46.0410259,77.7096217 43.7233293,78.3440873 42.6854835,80.164911 C41.6473438,81.9862503 42.2820295,84.3046311 44.1034178,85.3430536 C45.9243841,86.3809807 48.2422313,85.7461786 49.2809006,83.9250443 C50.3188355,82.10397 49.6838378,79.786232 47.862221,78.7476792 Z M50.5014964,84.6208674 C49.0784477,87.1160762 45.9027455,87.9858529 43.4076052,86.5636554 C40.9120643,85.1408804 40.0425051,81.9645529 41.4648449,79.4691629 C42.8869846,76.9741241 46.062709,76.1047749 48.5580336,77.5270774 C51.0537255,78.9499385 51.9237501,82.1256285 50.5014964,84.6208674 Z" id="Stroke-46" fill="#32383D" fill-rule="nonzero"></path>
                        <path d="M80.2537109,85.9592739 C79.0236337,88.1173533 76.2768594,88.8704331 74.11878,87.6403559 C71.9599981,86.4095763 71.2076208,83.6620995 72.4384004,81.5040201 C73.6684776,79.3459406 76.4152519,78.5942658 78.5733313,79.824343 C80.7321133,81.0544202 81.4844906,83.8018969 80.2537109,85.9592739" id="Fill-48" fill="#F9BF64"></path>
                        <path d="M79.6433916,85.6113998 C80.6819998,83.7908714 80.0470651,81.4726171 78.2254573,80.4346623 C76.4042622,79.3966048 74.0865656,80.0310704 73.0486343,81.852044 C72.0101028,83.6730307 72.6449831,85.991453 74.466654,87.0300366 C76.2874512,88.0678673 78.6053189,87.4326216 79.6433916,85.6113998 Z M73.7708415,88.2506385 C71.2750082,86.8276968 70.4051415,83.6511635 71.8280811,81.156146 C73.2502208,78.6611071 76.4259452,77.7917579 78.9211199,79.213975 C81.416986,80.6361232 82.2870317,83.8126865 80.8639631,86.3072657 C79.4416554,88.8024513 76.2658897,89.6727835 73.7708415,88.2506385 Z" id="Stroke-50" fill="#32383D" fill-rule="nonzero"></path>
                        <path d="M106.681192,87.6462569 C105.450412,89.8043364 102.703638,90.5574162 100.545559,89.3266365 C98.3867766,88.0965593 97.6351018,85.3490825 98.865179,83.1910031 C100.095256,81.0329237 102.84203,80.2805464 105.00011,81.5113261 C107.158892,82.7414032 107.911269,85.4881775 106.681192,87.6462569" id="Fill-52" fill="#F9BF64"></path>
                        <path d="M104.652086,82.1215599 C102.831243,81.0831106 100.513505,81.7177708 99.4754983,83.5388772 C98.4373559,85.3602211 99.0720634,87.6784983 100.893583,88.7164027 C102.714196,89.7547216 105.032085,89.1197248 106.070915,87.2983079 C107.108853,85.4772288 106.473833,83.1595944 104.652086,82.1215599 Z M107.291511,87.994131 C105.868296,90.4896322 102.692388,91.3597164 100.19777,89.9370045 C97.7021304,88.5149854 96.8324824,85.3385847 98.2548597,82.8431291 C99.677166,80.3477978 102.853096,79.4781411 105.347898,80.9009581 C107.843689,82.3230632 108.713802,85.4988264 107.291511,87.994131 Z" id="Stroke-54" fill="#32383D" fill-rule="nonzero"></path>
                        <path d="M70.1326555,98.3298741 C68.9025784,100.487954 66.1558041,101.240331 63.9977247,100.010254 C61.8389427,98.7801765 61.0865654,96.0319972 62.3173451,93.8739178 C63.5474223,91.7158384 66.2941966,90.9641636 68.452276,92.1942407 C70.6110579,93.4250204 71.3634352,96.1717947 70.1326555,98.3298741" id="Fill-56" fill="#FC3D4B"></path>
                        <path d="M69.5223363,97.9820001 C70.5609221,96.160918 69.9261274,93.8431747 68.1044019,92.80456 C66.2832069,91.7665025 63.9655102,92.4009681 62.9275789,94.2219418 C61.8890137,96.0429876 62.5240014,98.3619855 64.3455987,99.3999344 C66.1665948,100.437878 68.484377,99.8030228 69.5223363,97.9820001 Z M63.6499361,100.620622 C61.1540367,99.1984545 60.2840301,96.0211594 61.7070258,93.5260437 C63.1291655,91.0310049 66.3048899,90.1616557 68.8002145,91.5839582 C71.2960553,93.0069042 72.1658786,96.1826995 70.7429321,98.6778231 C69.320704,101.172923 66.1449672,102.042757 63.6499361,100.620622 Z" id="Stroke-58" fill="#32383D" fill-rule="nonzero"></path>
                        <path d="M95.4356451,103.952612 C94.2048655,106.110692 91.4580912,106.863069 89.3000118,105.632992 C87.1412298,104.402915 86.389555,101.655438 87.6196322,99.4973586 C88.8497094,97.3392791 91.5964836,96.5869018 93.7545631,97.816979 C95.913345,99.0477587 96.6657223,101.794533 95.4356451,103.952612" id="Fill-60" fill="#FC3D4B"></path>
                        <path d="M93.406689,98.4272983 C91.585693,97.3893542 89.2679107,98.0242099 88.2299515,99.8452326 C87.1918091,101.666577 87.8265166,103.984854 89.6478858,105.022673 C91.4688521,106.0606 93.7866993,105.425798 94.8253686,103.604663 C95.8633035,101.783589 95.2283058,99.4658511 93.406689,98.4272983 Z M96.0459644,104.300486 C94.6229157,106.795695 91.4472135,107.665472 88.9522232,106.24336 C86.4565837,104.821341 85.5869357,101.64494 87.0093129,99.1494845 C88.4315201,96.6543271 91.6072956,95.7844615 94.1025016,97.2066965 C96.5981935,98.6295576 97.4682181,101.805248 96.0459644,104.300486 Z" id="Stroke-62" fill="#32383D" fill-rule="nonzero"></path>
                    </g>
                </g>
            </g>
        </g>
    </g>
</svg>