<?xml version="1.0" encoding="UTF-8"?>
<svg width="119px" height="156px" viewBox="0 0 119 156" version="1.1" xmlns="http://www.w3.org/2000/svg" xmlns:xlink="http://www.w3.org/1999/xlink">
    <!-- Generator: Sketch 52.6 (67491) - http://www.bohemiancoding.com/sketch -->
    <title>Comp-Funhouse</title>
    <desc>Created with Sketch.</desc>
    <g id="Page-1" stroke="none" stroke-width="1" fill="none" fill-rule="evenodd">
        <g id="Instincts-2017" transform="translate(-359.000000, -4549.000000)">
            <g id="Group-62" transform="translate(110.000000, 4476.000000)">
                <g id="Comp-Funhouse" transform="translate(249.000000, 73.000000)">
                    <path d="M112.956198,33.9844936 C112.956198,33.9844936 111.033579,135.010256 111.247743,148.465554 L17.2699652,152.951462 C17.2699652,152.951462 7.23157735,38.4697953 6.80446355,35.4793919 L112.956198,33.9844936 Z" id="Fill-1" fill="#529DF7"></path>
                    <path d="M7.48149561,36.0766134 C7.90290995,40.1711045 9.76328123,60.9223167 12.6345385,93.3924549 C12.6672432,93.7623105 12.6672432,93.7623105 12.6999464,94.1321835 C13.8365369,106.987321 15.0502901,120.760659 16.2613628,134.533994 C16.685238,139.354659 17.0785015,143.830992 17.4311727,147.848215 C17.5546078,149.254245 17.6641521,150.502456 17.7585582,151.578502 C17.7882183,151.916609 17.8086815,152.149877 17.8233996,152.317658 L110.633623,147.887482 C110.570235,141.602696 110.829156,121.541365 111.318493,91.9520847 C111.37242,88.6912299 111.428682,85.3443976 111.487038,81.9228517 C111.675726,70.8595541 111.877891,59.4982765 112.080056,48.4651447 C112.150814,44.6035491 112.216518,41.058796 112.275483,37.9091528 C112.296121,36.8067713 112.314442,35.8325179 112.330237,34.9961762 C112.333932,34.8006378 112.336065,34.6877812 112.337726,34.5999593 L7.48149561,36.0766134 Z M113.562784,33.9960375 C113.552151,34.5566944 113.552151,34.5566944 113.543412,35.0190871 C113.527619,35.8553636 113.509299,36.8295507 113.488662,37.9318649 C113.4297,41.0813523 113.363999,44.6259453 113.293244,48.4873745 C113.091088,59.5200276 112.888932,70.880807 112.700253,81.9435434 C112.641901,85.3648855 112.585642,88.7115091 112.531719,91.9721486 C112.026312,122.533109 111.766625,142.943632 111.854362,148.455899 L111.863715,149.043538 L16.716517,153.585267 L16.6655884,153.004458 C16.6454611,152.774917 16.6454611,152.774917 16.5498098,151.684551 C16.4554057,150.608527 16.3458633,149.360338 16.2224302,147.95433 C15.8697637,143.93716 15.4765051,139.460883 15.052635,134.640276 C13.8415781,120.867121 12.6278413,107.093969 11.49127,94.239049 C11.4585674,93.8691833 11.4585674,93.8691833 11.4258634,93.4993351 C8.32586104,58.4423915 6.38461396,36.8306884 6.20386296,35.5651746 L6.10635313,34.8824673 L113.574717,33.3690273 L113.562784,33.9960375 Z" id="Stroke-3" fill="#32383D" fill-rule="nonzero"></path>
                    <polygon id="Fill-5" fill="#F9BF64" points="17.5279794 155.094015 14.5539568 121.151208 111.803038 117.28777 111.803038 155.043659"></polygon>
                    <path d="M17.8259227,154.266421 L110.938449,154.216686 L110.938449,117.698445 L14.9559868,121.511564 L17.8259227,154.266421 Z M13.6361412,120.34965 L112.151841,116.435892 L112.151841,155.42943 L16.7142503,155.480407 L13.6361412,120.34965 Z" id="Stroke-7" fill="#32383D" fill-rule="nonzero"></path>
                    <polygon id="Fill-9" fill="#F9BF64" points="9.20710004 81.4537035 10.1681061 86.7398435 112.956319 84.0964702 113.810547 78.0895756"></polygon>
                    <path d="M8.48433321,80.8699388 L114.51288,77.4599786 L113.484746,84.6897771 L9.66415434,87.3596998 L8.48433321,80.8699388 Z M9.92986687,82.0374682 L10.6720579,86.1199872 L112.427893,83.5031632 L113.108214,78.7191726 L9.92986687,82.0374682 Z" id="Stroke-11" fill="#32383D" fill-rule="nonzero"></path>
                    <polygon id="Fill-13" fill="#F9BF64" points="2.96001462 32.5957671 4.08118835 37.4020108 114.130943 35.7997273 116.052955 31.154258"></polygon>
                    <path d="M2.19775863,31.9987379 L116.965374,30.535883 L114.538933,36.4005472 L3.60137523,38.0157567 L2.19775863,31.9987379 Z M4.56100148,36.7882648 L113.722953,35.1989074 L115.140537,31.7726329 L3.7222706,33.1927962 L4.56100148,36.7882648 Z" id="Stroke-15" fill="#32383D" fill-rule="nonzero"></path>
                    <path d="M17.1101008,5.05032414 L1.30446326,32.5955244 L117.494586,31.1540153 C117.494586,31.1540153 97.5039608,5.68432119 95.1960902,0.87868419 C95.1960902,0.87868419 20.1860483,5.21109851 17.1101008,5.05032414" id="Fill-17" fill="#FC3D4B"></path>
                    <path d="M16.7694399,4.42499447 L17.1417685,4.44445543 C18.4266849,4.51161576 32.9615724,3.7672661 56.070875,2.48574801 C56.8131758,2.44458398 57.5623868,2.40297183 58.3182325,2.3609281 C66.5292039,1.90419482 75.1967731,1.41483444 83.77771,0.925473629 C86.7810431,0.754197054 89.5590195,0.59515468 92.0437382,0.452424712 C92.9133837,0.402469571 93.6842522,0.358121829 94.3478563,0.319891258 C95.0199348,0.281151678 95.0199348,0.281151678 95.1611071,0.272997876 L95.5669869,0.249555153 L95.7429887,0.616040356 C96.634819,2.47308247 100.370648,7.73609312 106.039413,15.2628777 C106.264222,15.56137 106.491518,15.8626818 106.721209,16.1666989 C109.182124,19.4239471 111.819146,22.8620651 114.456211,26.2654232 C115.379216,27.4566396 116.236278,28.5583993 117.005403,29.5437675 C117.274565,29.8886059 117.513498,30.1942497 117.719453,30.4573324 C117.842971,30.6151133 117.928086,30.7236924 117.971835,30.7794322 L118.730027,31.7454303 L0.249318886,33.2153574 L16.7694399,4.42499447 Z M2.35960764,31.9756913 L116.261441,30.5625718 C116.192852,30.4747645 116.121985,30.384007 116.048894,30.2903664 C115.278915,29.3039039 114.420975,28.201016 113.497055,27.0086179 C110.857192,23.6016488 108.217285,20.1597698 105.753067,16.8981494 C105.52301,16.5936487 105.295346,16.2918485 105.070166,15.9928624 C99.652975,8.80010945 96.0230049,3.71110789 94.8364428,1.50713367 C94.7363622,1.51290281 94.6023927,1.520625 94.4176447,1.53127414 C93.7539743,1.56950853 92.9830385,1.61386015 92.1133245,1.66381922 C89.6284447,1.80655845 86.8503024,1.96561032 83.8467961,2.13689677 C75.2653348,2.62628748 66.5972211,3.11567861 58.3856229,3.57244675 C57.6297094,3.61449425 56.8804299,3.65611021 56.13806,3.69727807 C34.1658906,4.91573685 20.1801357,5.63753065 17.4595431,5.66035015 L2.35960764,31.9756913 Z" id="Stroke-19" fill="#32383D" fill-rule="nonzero"></path>
                    <polygon id="Fill-21" fill="#FC3D4B" points="79.7953007 124.825351 92.4000115 124.247777 92.4000115 147.341044 82.2967072 148.015082"></polygon>
                    <path d="M82.8374431,147.370963 L91.7933158,146.773475 L91.7933158,124.882909 L80.4677034,125.401872 L82.8374431,147.370963 Z M93.0067072,123.612644 L93.0067072,147.908612 L81.7559714,148.659202 L79.122898,124.24883 L93.0067072,123.612644 Z" id="Stroke-23" fill="#32383D" fill-rule="nonzero"></path>
                    <polygon id="Fill-25" fill="#FC3D4B" points="96.9907569 146.543785 96.5854841 124.785855 107.425924 124.330833 106.697889 146.17916"></polygon>
                    <path d="M106.110352,145.594106 L106.797778,124.964429 L97.2031127,125.36716 L97.585833,145.914308 L106.110352,145.594106 Z M95.9678555,124.20455 L108.054069,123.697237 L107.285426,146.764215 L96.3956808,147.173261 L95.9678555,124.20455 Z" id="Stroke-27" fill="#32383D" fill-rule="nonzero"></path>
                    <polygon id="Fill-29" fill="#FC3D4B" points="46.906385 126.701133 35.0958389 127.036029 35.9834348 148.394146 46.1267809 148.317702"></polygon>
                    <path d="M47.5360084,126.07634 L46.7121491,148.920004 L35.4016112,149.005244 L34.4641408,126.447002 L47.5360084,126.07634 Z M35.727537,127.625056 L36.5652583,147.783048 L45.5414128,147.715401 L46.2767616,127.325926 L35.727537,127.625056 Z" id="Stroke-31" fill="#32383D" fill-rule="nonzero"></path>
                    <polygon id="Fill-33" fill="#FC3D4B" points="31.5416939 148.29392 30.2943274 127.535825 19.0898704 127.896202 21.5111931 148.660971"></polygon>
                    <path d="M32.1845515,148.877497 L20.9734736,149.28775 L18.4108289,127.311033 L30.8645399,126.910475 L32.1845515,148.877497 Z M29.7241149,128.161175 L19.7689119,128.481371 L22.0489127,148.034192 L30.8988362,147.710342 L29.7241149,128.161175 Z" id="Stroke-35" fill="#32383D" fill-rule="nonzero"></path>
                    <polygon id="Fill-37" fill="#7F5F34" points="54.8721788 151.777688 53.103054 122.714535 73.8696427 122.087818 73.8696427 150.654694"></polygon>
                    <path d="M73.2629469,150.082803 L73.2629469,122.7131 L53.7466379,123.302084 L55.4409558,151.136311 L73.2629469,150.082803 Z M52.4594701,122.126986 L74.4763384,121.462537 L74.4763384,151.226586 L54.3034018,152.419065 L52.4594701,122.126986 Z" id="Stroke-39" fill="#32383D" fill-rule="nonzero"></path>
                    <path d="M72.2199156,138.640723 C72.2199156,139.348737 71.6465881,139.922065 70.9385742,139.922065 C70.2311669,139.922065 69.6566261,139.348737 69.6566261,138.640723 C69.6566261,137.933316 70.2311669,137.359382 70.9385742,137.359382 C71.6465881,137.359382 72.2199156,137.933316 72.2199156,138.640723" id="Fill-41" fill="#FFBD5C"></path>
                    <g id="Group-38" transform="translate(53.638645, 88.433694)">
                        <polygon id="Fill-59" fill="#F9BF64" points="4.57806543 24.3691314 1.88372962 1.83281125 15.390597 1.37900283 14.8931065 24.3691314"></polygon>
                        <path d="M14.2993972,23.7624357 L14.7701723,2.00688616 L2.56458557,2.4169737 L5.11654801,23.7624357 L14.2993972,23.7624357 Z M1.20287367,1.2486488 L16.0110217,0.751119504 L15.4868158,24.9758272 L4.03958285,24.9758272 L1.20287367,1.2486488 Z" id="Stroke-65" fill="#32383D" fill-rule="nonzero"></path>
                        <polygon id="Fill-67" fill="#FC3D4B" points="1.77391769 25.4332151 1.14902107 22.191033 18.0345771 22.191033 17.4090738 25.4332151"></polygon>
                        <path d="M18.7696496,21.5845193 L17.2996258,21.5845193 L1.88348694,21.5845193 L0.414069846,21.5845193 L0.691936498,23.0272418 L1.08325525,25.056639 L1.27254433,26.0400928 L2.2748057,26.0400928 L16.9089138,26.0400928 L17.9105685,26.0400928 L18.0998575,25.056639 L18.4911763,23.0272418 L18.7696496,21.5845193 Z M17.2996258,22.7979108 L16.9089138,24.8267014 L2.2748057,24.8267014 L1.88348694,22.7979108 L17.2996258,22.7979108 Z" id="Fill-69" fill="#32383D"></path>
                    </g>
                    <g id="Group-38-Copy" transform="translate(53.638645, 44.144905)">
                        <polygon id="Fill-59" fill="#F9BF64" points="4.57806543 24.3691314 1.88372962 1.83281125 15.390597 1.37900283 14.8931065 24.3691314"></polygon>
                        <path d="M14.2993972,23.7624357 L14.7701723,2.00688616 L2.56458557,2.4169737 L5.11654801,23.7624357 L14.2993972,23.7624357 Z M1.20287367,1.2486488 L16.0110217,0.751119504 L15.4868158,24.9758272 L4.03958285,24.9758272 L1.20287367,1.2486488 Z" id="Stroke-65" fill="#32383D" fill-rule="nonzero"></path>
                        <polygon id="Fill-67" fill="#FC3D4B" points="1.77391769 25.4332151 1.14902107 22.191033 18.0345771 22.191033 17.4090738 25.4332151"></polygon>
                        <path d="M18.7696496,21.5845193 L17.2996258,21.5845193 L1.88348694,21.5845193 L0.414069846,21.5845193 L0.691936498,23.0272418 L1.08325525,25.056639 L1.27254433,26.0400928 L2.2748057,26.0400928 L16.9089138,26.0400928 L17.9105685,26.0400928 L18.0998575,25.056639 L18.4911763,23.0272418 L18.7696496,21.5845193 Z M17.2996258,22.7979108 L16.9089138,24.8267014 L2.2748057,24.8267014 L1.88348694,22.7979108 L17.2996258,22.7979108 Z" id="Fill-69" fill="#32383D"></path>
                    </g>
                    <g id="Group-37" transform="translate(86.400215, 87.826998)">
                        <polygon id="Fill-61" fill="#F9BF64" points="4.70844434 24.2298947 2.01410854 1.69357458 15.5215826 1.23976616 15.0234854 24.2298947"></polygon>
                        <path d="M5.24692692,23.623199 L14.4297918,23.623199 L14.901141,1.86764909 L2.69496461,2.27773802 L5.24692692,23.623199 Z M1.33325247,1.10941114 L16.1420243,0.611883229 L15.617179,24.8365905 L4.16996176,24.8365905 L1.33325247,1.10941114 Z" id="Stroke-71" fill="#32383D" fill-rule="nonzero"></path>
                        <polygon id="Fill-73" fill="#FC3D4B" points="1.90362924 24.777377 1.27933932 21.5345882 18.165502 21.5345882 17.5406054 24.777377"></polygon>
                        <path d="M18.9000286,20.9280138 L17.4306115,20.9280138 L2.01386586,20.9280138 L0.544448762,20.9280138 L0.822315414,22.371343 L1.21363417,24.4001336 L1.40292324,25.3841941 L2.40518461,25.3841941 L17.0398994,25.3841941 L18.0415541,25.3841941 L18.2308431,24.4001336 L18.6221619,22.371343 L18.9000286,20.9280138 Z M17.4306115,22.1414053 L17.0398994,24.1708026 L2.40518461,24.1708026 L2.01386586,22.1414053 L17.4306115,22.1414053 Z" id="Fill-75" fill="#32383D"></path>
                    </g>
                    <g id="Group-37-Copy" transform="translate(86.400215, 43.538209)">
                        <polygon id="Fill-61" fill="#F9BF64" points="4.70844434 24.2298947 2.01410854 1.69357458 15.5215826 1.23976616 15.0234854 24.2298947"></polygon>
                        <path d="M5.24692692,23.623199 L14.4297918,23.623199 L14.901141,1.86764909 L2.69496461,2.27773802 L5.24692692,23.623199 Z M1.33325247,1.10941114 L16.1420243,0.611883229 L15.617179,24.8365905 L4.16996176,24.8365905 L1.33325247,1.10941114 Z" id="Stroke-71" fill="#32383D" fill-rule="nonzero"></path>
                        <polygon id="Fill-73" fill="#FC3D4B" points="1.90362924 24.777377 1.27933932 21.5345882 18.165502 21.5345882 17.5406054 24.777377"></polygon>
                        <path d="M18.9000286,20.9280138 L17.4306115,20.9280138 L2.01386586,20.9280138 L0.544448762,20.9280138 L0.822315414,22.371343 L1.21363417,24.4001336 L1.40292324,25.3841941 L2.40518461,25.3841941 L17.0398994,25.3841941 L18.0415541,25.3841941 L18.2308431,24.4001336 L18.6221619,22.371343 L18.9000286,20.9280138 Z M17.4306115,22.1414053 L17.0398994,24.1708026 L2.40518461,24.1708026 L2.01386586,22.1414053 L17.4306115,22.1414053 Z" id="Fill-75" fill="#32383D"></path>
                    </g>
                    <g id="Group-39" transform="translate(20.877075, 89.040390)">
                        <polygon id="Fill-63" fill="#F9BF64" points="4.23382626 24.2524032 1.53949045 1.71608299 15.0463578 1.26227457 14.5488673 24.2524032"></polygon>
                        <path d="M13.955158,23.6457074 L14.4259331,1.8901579 L2.22034641,2.30024544 L4.77230884,23.6457074 L13.955158,23.6457074 Z M0.858634503,1.13192054 L15.6667826,0.634391242 L15.1425766,24.8590989 L3.69534368,24.8590989 L0.858634503,1.13192054 Z" id="Stroke-77" fill="#32383D" fill-rule="nonzero"></path>
                        <polygon id="Fill-79" fill="#FC3D4B" points="1.42907183 25.8343016 0.804781907 22.5915129 17.6909446 22.5915129 17.066048 25.8343016"></polygon>
                        <path d="M18.4254105,21.9849992 L16.9559934,21.9849992 L1.53924778,21.9849992 L0.0698306803,21.9849992 L0.347697332,23.4283283 L0.739016088,25.4571189 L0.928305161,26.4411794 L1.93056653,26.4411794 L16.5652813,26.4411794 L17.566936,26.4411794 L17.7562251,25.4571189 L18.1469371,23.4277216 L18.4254105,21.9849992 Z M16.9559934,23.1983906 L16.5652813,25.2277879 L1.93056653,25.2277879 L1.53924778,23.1983906 L16.9559934,23.1983906 Z" id="Fill-81" fill="#32383D"></path>
                    </g>
                    <g id="Group-39-Copy" transform="translate(20.877075, 44.751600)">
                        <polygon id="Fill-63" fill="#F9BF64" points="4.23382626 24.2524032 1.53949045 1.71608299 15.0463578 1.26227457 14.5488673 24.2524032"></polygon>
                        <path d="M13.955158,23.6457074 L14.4259331,1.8901579 L2.22034641,2.30024544 L4.77230884,23.6457074 L13.955158,23.6457074 Z M0.858634503,1.13192054 L15.6667826,0.634391242 L15.1425766,24.8590989 L3.69534368,24.8590989 L0.858634503,1.13192054 Z" id="Stroke-77" fill="#32383D" fill-rule="nonzero"></path>
                        <polygon id="Fill-79" fill="#FC3D4B" points="1.42907183 25.8343016 0.804781907 22.5915129 17.6909446 22.5915129 17.066048 25.8343016"></polygon>
                        <path d="M18.4254105,21.9849992 L16.9559934,21.9849992 L1.53924778,21.9849992 L0.0698306803,21.9849992 L0.347697332,23.4283283 L0.739016088,25.4571189 L0.928305161,26.4411794 L1.93056653,26.4411794 L16.5652813,26.4411794 L17.566936,26.4411794 L17.7562251,25.4571189 L18.1469371,23.4277216 L18.4254105,21.9849992 Z M16.9559934,23.1983906 L16.5652813,25.2277879 L1.93056653,25.2277879 L1.53924778,23.1983906 L16.9559934,23.1983906 Z" id="Fill-81" fill="#32383D"></path>
                    </g>
                </g>
            </g>
        </g>
    </g>
</svg>