<?xml version="1.0" encoding="UTF-8"?>
<svg width="128px" height="128px" viewBox="0 0 128 128" version="1.1" xmlns="http://www.w3.org/2000/svg" xmlns:xlink="http://www.w3.org/1999/xlink">
    <!-- Generator: Sketch 52.5 (67469) - http://www.bohemiancoding.com/sketch -->
    <title>crackers-comp</title>
    <desc>Created with Sketch.</desc>
    <defs>
        <linearGradient x1="50.0000055%" y1="100%" x2="50.0000055%" y2="1.8680436e-05%" id="linearGradient-1">
            <stop stop-color="#E6D6C6" offset="0%"></stop>
            <stop stop-color="#93E8FD" offset="100%"></stop>
        </linearGradient>
        <circle id="path-2" cx="64" cy="64" r="64"></circle>
        <polygon id="path-4" points="0.0082 0.791 4.4952 0.791 4.4952 30.6575 0.0082 30.6575"></polygon>
        <polygon id="path-6" points="0.0507 0.9614 4.9287 0.9614 4.9287 25 0.0507 25"></polygon>
    </defs>
    <g id="Page-1" stroke="none" stroke-width="1" fill="none" fill-rule="evenodd">
        <g id="Instincts-2017" transform="translate(-415.000000, -4260.000000)">
            <g id="Group-70" transform="translate(110.000000, 4215.000000)">
                <g id="crackers-comp" transform="translate(305.000000, 45.000000)">
                    <g id="Fill-5">
                        <mask id="mask-3" fill="white">
                            <use xlink:href="#path-2"></use>
                        </mask>
                        <use id="Mask" fill="url(#linearGradient-1)" xlink:href="#path-2"></use>
                        <g id="Group-87" mask="url(#mask-3)">
                            <g transform="translate(19.000000, 25.000000)">
                                <path d="M47.4474,50.4623 C47.4474,50.4623 47.0454,49.7653 46.3414,48.5453 C46.1714,48.2363 45.9574,47.9103 45.7284,47.5533 C45.5014,47.1963 45.2554,46.8103 44.9914,46.3973 C44.7374,45.9793 44.4214,45.5633 44.1104,45.1103 C43.9534,44.8853 43.7914,44.6553 43.6264,44.4193 C43.4624,44.1823 43.2924,43.9413 43.1044,43.7053 C42.7384,43.2273 42.3574,42.7303 41.9634,42.2143 C41.5584,41.7083 41.1204,41.1993 40.6814,40.6683 C40.5714,40.5363 40.4604,40.4033 40.3484,40.2693 C40.2314,40.1393 40.1144,40.0083 39.9964,39.8773 C39.7594,39.6153 39.5184,39.3503 39.2764,39.0823 C38.8004,38.5373 38.2744,38.0173 37.7514,37.4803 C37.2354,36.9343 36.6764,36.4153 36.1154,35.8833 C35.5634,35.3433 34.9684,34.8363 34.3804,34.3133 L33.9364,33.9213 L33.4794,33.5433 C33.1744,33.2913 32.8674,33.0393 32.5594,32.7863 C32.2564,32.5283 31.9344,32.2913 31.6194,32.0463 L30.6704,31.3163 C30.0224,30.8483 29.3794,30.3753 28.7244,29.9233 C28.0624,29.4833 27.4174,29.0243 26.7474,28.6123 C26.4154,28.4023 26.0844,28.1933 25.7564,27.9853 C25.4224,27.7853 25.0894,27.5873 24.7594,27.3903 C24.1014,26.9883 23.4314,26.6283 22.7814,26.2613 C22.4574,26.0753 22.1244,25.9113 21.8014,25.7373 C21.4754,25.5683 21.1584,25.3923 20.8354,25.2343 C20.1894,24.9173 19.5634,24.5963 18.9404,24.3133 C17.7054,23.7243 16.5114,23.2233 15.4094,22.7713 C14.3014,22.3303 13.2774,21.9463 12.3624,21.6333 C11.4484,21.3193 10.6464,21.0643 9.9834,20.8713 C9.3204,20.6733 8.7984,20.5373 8.4444,20.4473 C8.2684,20.4053 8.1344,20.3733 8.0444,20.3513 C7.9594,20.3313 7.9154,20.3213 7.9154,20.3213 L7.8924,20.3163 C7.3674,20.1983 7.0374,19.6753 7.1564,19.1493 C7.2754,18.6243 7.7984,18.2943 8.3234,18.4133 C8.3344,18.4153 8.3474,18.4193 8.3584,18.4213 C8.3584,18.4213 8.4124,18.4363 8.5164,18.4633 C8.6144,18.4913 8.7594,18.5323 8.9494,18.5863 C9.3234,18.6963 9.8654,18.8603 10.5454,19.0903 C11.2254,19.3173 12.0434,19.6123 12.9714,19.9703 C13.9004,20.3283 14.9344,20.7613 16.0514,21.2553 C17.1644,21.7613 18.3644,22.3203 19.6024,22.9693 C20.2274,23.2823 20.8544,23.6333 21.4994,23.9833 C21.8234,24.1553 22.1404,24.3483 22.4664,24.5323 C22.7894,24.7223 23.1204,24.9023 23.4444,25.1043 C24.0934,25.5033 24.7604,25.8963 25.4134,26.3293 C25.7424,26.5433 26.0724,26.7573 26.4044,26.9733 C26.7304,27.1973 27.0584,27.4223 27.3884,27.6493 C28.0524,28.0923 28.6924,28.5843 29.3474,29.0573 C29.9944,29.5413 30.6304,30.0453 31.2674,30.5453 L32.2034,31.3223 C32.5134,31.5823 32.8294,31.8353 33.1274,32.1083 C33.4284,32.3763 33.7294,32.6443 34.0304,32.9103 L34.4784,33.3113 L34.9124,33.7253 C35.4884,34.2763 36.0704,34.8123 36.6074,35.3793 C37.1534,35.9383 37.6974,36.4843 38.1984,37.0543 C38.7074,37.6173 39.2164,38.1623 39.6764,38.7293 C39.9104,39.0083 40.1414,39.2853 40.3714,39.5583 C40.4844,39.6953 40.5974,39.8313 40.7114,39.9663 C40.8184,40.1053 40.9254,40.2443 41.0314,40.3813 C41.4534,40.9333 41.8744,41.4613 42.2614,41.9863 C42.6384,42.5193 43.0034,43.0333 43.3524,43.5273 C43.5324,43.7723 43.6934,44.0213 43.8484,44.2653 C44.0064,44.5083 44.1594,44.7453 44.3084,44.9773 C44.6034,45.4433 44.9034,45.8713 45.1434,46.3013 C45.3914,46.7253 45.6254,47.1223 45.8404,47.4893 C46.0544,47.8563 46.2564,48.1903 46.4144,48.5043 C47.0724,49.7503 47.4474,50.4623 47.4474,50.4623" id="Fill-1" fill="#F9BF64"></path>
                                <path d="M78.5411,70.0624 C78.5411,70.0624 78.2531,69.6164 77.7481,68.8344 C77.4931,68.4564 77.1741,68.0334 76.8131,67.5254 C76.6171,67.2794 76.4081,67.0184 76.1881,66.7424 C76.0781,66.6044 75.9651,66.4624 75.8491,66.3174 C75.7261,66.1784 75.6001,66.0354 75.4721,65.8904 C75.3431,65.7444 75.2121,65.5954 75.0781,65.4434 C75.0111,65.3684 74.9431,65.2914 74.8751,65.2144 C74.8041,65.1404 74.7311,65.0654 74.6581,64.9894 C74.3651,64.6904 74.0681,64.3724 73.7501,64.0594 C73.4251,63.7524 73.0911,63.4374 72.7491,63.1154 C72.3941,62.8074 72.0301,62.4934 71.6601,62.1724 C71.2771,61.8684 70.8931,61.5534 70.4931,61.2444 C70.0861,60.9474 69.6821,60.6334 69.2581,60.3404 C68.4111,59.7524 67.5341,59.1734 66.6281,58.6424 L65.9481,58.2414 C65.7181,58.1144 65.4881,57.9874 65.2591,57.8604 C64.8031,57.6014 64.3331,57.3724 63.8731,57.1314 C63.4101,56.8984 62.9441,56.6784 62.4841,56.4604 C62.0191,56.2544 61.5641,56.0374 61.1051,55.8504 C60.8781,55.7534 60.6511,55.6584 60.4271,55.5634 C60.2011,55.4744 59.9771,55.3854 59.7551,55.2974 C59.3121,55.1174 58.8721,54.9624 58.4461,54.8024 C57.5901,54.4964 56.7741,54.2224 56.0131,53.9924 C54.4931,53.5244 53.2031,53.2094 52.2961,53.0114 C51.3881,52.8124 50.8611,52.7324 50.8611,52.7324 C50.8611,52.7324 51.3921,52.7814 52.3111,52.9284 C53.2301,53.0754 54.5401,53.3164 56.0941,53.6984 C56.8711,53.8854 57.7071,54.1144 58.5881,54.3734 C59.0251,54.5084 59.4791,54.6404 59.9361,54.7954 C60.1641,54.8714 60.3951,54.9484 60.6291,55.0254 C60.8611,55.1084 61.0961,55.1914 61.3311,55.2754 C61.8061,55.4374 62.2781,55.6314 62.7621,55.8124 C63.2401,56.0064 63.7261,56.2034 64.2091,56.4134 C64.6901,56.6304 65.1821,56.8354 65.6601,57.0734 C65.9011,57.1884 66.1441,57.3044 66.3851,57.4204 L67.1021,57.7894 C68.0591,58.2784 68.9901,58.8194 69.8951,59.3744 C70.3491,59.6504 70.7831,59.9494 71.2221,60.2324 C71.6511,60.5274 72.0681,60.8304 72.4821,61.1234 C72.8851,61.4324 73.2801,61.7374 73.6681,62.0364 C74.0431,62.3514 74.4101,62.6594 74.7671,62.9584 C75.1181,63.2664 75.4471,63.5804 75.7721,63.8764 C75.8531,63.9514 75.9341,64.0254 76.0131,64.0994 C76.0891,64.1754 76.1641,64.2514 76.2391,64.3274 C76.3891,64.4784 76.5351,64.6264 76.6791,64.7714 C76.8231,64.9164 76.9641,65.0594 77.1021,65.1984 C77.2321,65.3444 77.3601,65.4864 77.4851,65.6254 C77.7341,65.9034 77.9711,66.1674 78.1931,66.4154 C78.6151,66.9394 79.0001,67.4004 79.2871,67.7774 C79.8361,68.5284 80.1491,68.9584 80.1491,68.9584 C80.4671,69.3934 80.3711,70.0034 79.9371,70.3214 C79.5011,70.6394 78.8911,70.5434 78.5721,70.1084 C78.5621,70.0944 78.5511,70.0774 78.5411,70.0624" id="Fill-3" fill="#F9BF64"></path>
                                <path d="M30.6397,79.6898 C30.6397,79.6898 30.8267,79.2528 31.1537,78.4888 C31.3177,78.1068 31.5157,77.6428 31.7437,77.1108 C31.8577,76.8448 31.9787,76.5618 32.1067,76.2628 C32.2467,75.9648 32.3937,75.6518 32.5477,75.3248 C32.8557,74.6728 33.1897,73.9658 33.5427,73.2188 C33.9107,72.4798 34.3197,71.7138 34.7307,70.9168 C35.1297,70.1128 35.6097,69.3168 36.0717,68.4958 C36.1877,68.2908 36.3047,68.0858 36.4217,67.8798 L36.5977,67.5698 L36.7857,67.2668 C37.0377,66.8618 37.2907,66.4558 37.5437,66.0488 C38.0347,65.2288 38.5897,64.4468 39.1137,63.6658 C39.2467,63.4728 39.3717,63.2748 39.5117,63.0868 C39.6507,62.8988 39.7877,62.7118 39.9247,62.5268 C40.1987,62.1558 40.4677,61.7888 40.7337,61.4288 C41.0127,61.0778 41.2867,60.7338 41.5557,60.3968 C41.6907,60.2288 41.8237,60.0618 41.9537,59.8978 C42.0867,59.7338 42.2267,59.5798 42.3607,59.4238 C42.6277,59.1138 42.8897,58.8128 43.1417,58.5208 C43.4057,58.2388 43.6607,57.9658 43.9047,57.7048 C44.0277,57.5748 44.1447,57.4448 44.2647,57.3238 C44.3867,57.2038 44.5057,57.0858 44.6217,56.9718 C44.8567,56.7448 45.0687,56.5208 45.2857,56.3268 C45.4997,56.1308 45.7007,55.9478 45.8857,55.7788 C46.0747,55.6128 46.2527,55.4658 46.4107,55.3308 C46.5677,55.1938 46.7157,55.0818 46.8427,54.9818 C46.9697,54.8818 47.0777,54.7968 47.1687,54.7328 C47.3487,54.6008 47.4477,54.5348 47.4477,54.5348 C47.4477,54.5348 47.3527,54.6068 47.1827,54.7498 C47.0957,54.8198 46.9937,54.9108 46.8737,55.0188 C46.7537,55.1268 46.6137,55.2478 46.4657,55.3938 C46.3177,55.5388 46.1497,55.6948 45.9737,55.8718 C45.7997,56.0518 45.6127,56.2468 45.4117,56.4548 C45.2097,56.6598 45.0127,56.8968 44.7957,57.1358 C44.6877,57.2568 44.5777,57.3808 44.4647,57.5068 C44.3527,57.6348 44.2447,57.7718 44.1317,57.9078 C43.9067,58.1818 43.6717,58.4678 43.4297,58.7628 C43.1987,59.0678 42.9587,59.3828 42.7137,59.7068 C42.5917,59.8688 42.4637,60.0288 42.3427,60.1998 C42.2237,60.3708 42.1027,60.5438 41.9807,60.7178 C41.7377,61.0678 41.4887,61.4248 41.2357,61.7888 C40.9957,62.1608 40.7527,62.5398 40.5067,62.9228 C40.3837,63.1148 40.2597,63.3078 40.1357,63.5018 C40.0107,63.6938 39.8997,63.8978 39.7797,64.0968 C39.3127,64.9008 38.8167,65.7028 38.3847,66.5428 C38.1617,66.9588 37.9397,67.3738 37.7167,67.7878 L37.5517,68.0978 L37.3977,68.4138 C37.2947,68.6238 37.1937,68.8328 37.0917,69.0418 C36.6897,69.8788 36.2697,70.6888 35.9277,71.5048 C35.5747,72.3148 35.2197,73.0918 34.9077,73.8368 C34.6107,74.5858 34.3297,75.2948 34.0717,75.9488 C33.9427,76.2758 33.8187,76.5888 33.7017,76.8868 C33.5917,77.1928 33.4897,77.4828 33.3927,77.7558 C33.1997,78.3018 33.0317,78.7768 32.8927,79.1688 C32.6147,79.9528 32.4557,80.3998 32.4557,80.3998 C32.2767,80.9088 31.7187,81.1738 31.2097,80.9948 C30.7017,80.8148 30.4367,80.2568 30.6167,79.7488 C30.6227,79.7298 30.6317,79.7078 30.6397,79.6898" id="Fill-5" fill="#F9BF64"></path>
                                <path d="M80.9132,20.2626 C80.9132,20.2626 80.7692,20.3226 80.5002,20.4356 C80.3652,20.4916 80.1992,20.5606 80.0042,20.6426 C79.8112,20.7256 79.5752,20.8146 79.3512,20.9306 C78.8882,21.1616 78.3202,21.4116 77.6762,21.7836 C77.0232,22.1286 76.3132,22.5706 75.5412,23.0576 C75.1612,23.3136 74.7632,23.5756 74.3552,23.8556 C73.9552,24.1466 73.5412,24.4476 73.1152,24.7566 C72.6992,25.0806 72.2712,25.4146 71.8352,25.7546 C71.4092,26.1106 70.9682,26.4666 70.5292,26.8426 C69.6562,27.5976 68.7672,28.3966 67.8902,29.2396 C67.4512,29.6616 67.0082,30.0856 66.5772,30.5266 C66.3592,30.7456 66.1422,30.9646 65.9242,31.1836 L65.2832,31.8546 C64.4252,32.7486 63.5952,33.6696 62.7842,34.5836 C61.9792,35.5026 61.1992,36.4176 60.4612,37.3186 C59.7212,38.2186 59.0202,39.1006 58.3662,39.9456 C57.7112,40.7896 57.1042,41.5976 56.5522,42.3486 C54.3402,45.3566 53.0082,47.4646 53.0082,47.4646 C53.0082,47.4646 54.2342,45.2946 56.3022,42.1746 C56.8182,41.3956 57.3872,40.5556 58.0022,39.6776 C58.6162,38.7976 59.2752,37.8786 59.9752,36.9386 C60.6712,35.9976 61.4112,35.0386 62.1762,34.0746 C62.9462,33.1146 63.7382,32.1446 64.5602,31.1996 L65.1752,30.4896 C65.3852,30.2566 65.5942,30.0246 65.8032,29.7926 C66.2172,29.3246 66.6452,28.8736 67.0692,28.4236 C67.9172,27.5246 68.7822,26.6666 69.6372,25.8516 C70.0662,25.4456 70.5002,25.0586 70.9192,24.6736 C71.3502,24.3016 71.7722,23.9366 72.1842,23.5826 C72.6082,23.2416 73.0202,22.9096 73.4202,22.5886 C73.8272,22.2776 74.2282,21.9846 74.6112,21.6996 C75.3922,21.1506 76.1132,20.6516 76.7862,20.2536 C77.4362,19.8336 78.0652,19.5136 78.5662,19.2366 C78.8202,19.0916 79.0362,18.9996 79.2282,18.9056 C79.4202,18.8136 79.5822,18.7366 79.7142,18.6736 C79.9772,18.5486 80.1182,18.4806 80.1182,18.4806 C80.6042,18.2486 81.1862,18.4556 81.4192,18.9416 C81.6502,19.4286 81.4442,20.0106 80.9582,20.2426 C80.9442,20.2486 80.9312,20.2556 80.9172,20.2606 L80.9132,20.2626 Z" id="Fill-7" fill="#F9BF64"></path>
                                <path d="M72.9884,13.2552 C72.9884,13.2552 72.7454,13.4632 72.3194,13.8262 C72.2134,13.9172 72.0944,14.0182 71.9664,14.1282 C71.8384,14.2372 71.6944,14.3552 71.5644,14.4842 C71.2934,14.7422 70.9874,15.0332 70.6524,15.3502 C70.3194,15.6722 69.9724,16.0522 69.5954,16.4382 C69.5034,16.5362 69.4084,16.6352 69.3124,16.7352 C69.2194,16.8392 69.1274,16.9442 69.0324,17.0512 C68.8434,17.2642 68.6504,17.4822 68.4544,17.7032 C68.2554,17.9222 68.0614,18.1532 67.8694,18.3902 C67.6744,18.6252 67.4764,18.8632 67.2784,19.1032 C66.8824,19.5852 66.5014,20.0932 66.1074,20.5922 C65.7284,21.1022 65.3464,21.6112 64.9814,22.1202 C64.6234,22.6342 64.2584,23.1322 63.9274,23.6312 C63.7604,23.8792 63.5954,24.1222 63.4344,24.3612 C63.2774,24.6022 63.1244,24.8382 62.9734,25.0682 C62.6724,25.5262 62.3994,25.9672 62.1434,26.3732 C61.1314,28.0012 60.5184,29.1262 60.5184,29.1262 C60.5184,29.1262 61.0204,27.9482 61.8774,26.2242 C62.0934,25.7952 62.3244,25.3272 62.5834,24.8402 C62.7114,24.5952 62.8424,24.3442 62.9764,24.0882 C63.1164,23.8332 63.2584,23.5732 63.4014,23.3092 C63.6854,22.7762 64.0034,22.2412 64.3154,21.6892 C64.6344,21.1422 64.9694,20.5922 65.3024,20.0402 C65.6524,19.4982 65.9894,18.9462 66.3444,18.4192 C66.5234,18.1552 66.7014,17.8942 66.8764,17.6352 C67.0504,17.3762 67.2244,17.1212 67.4074,16.8782 C67.5874,16.6312 67.7624,16.3902 67.9354,16.1532 C68.0224,16.0342 68.1074,15.9172 68.1924,15.8012 C68.2814,15.6892 68.3684,15.5772 68.4554,15.4672 C68.8064,15.0292 69.1224,14.6092 69.4454,14.2322 C69.7734,13.8552 70.0744,13.5102 70.3424,13.2042 C70.4744,13.0452 70.6024,12.9192 70.7194,12.7972 C70.8374,12.6762 70.9454,12.5652 71.0424,12.4642 C71.4314,12.0622 71.6544,11.8322 71.6544,11.8322 C72.0304,11.4442 72.6484,11.4342 73.0364,11.8092 C73.4234,12.1852 73.4334,12.8032 73.0574,13.1902 C73.0364,13.2132 73.0144,13.2342 72.9914,13.2532 L72.9884,13.2552 Z" id="Fill-9" fill="#F9BF64"></path>
                                <path d="M47.3165,1.7557 C47.3165,1.7557 47.4615,2.3537 47.7125,3.3997 C47.7755,3.6607 47.8455,3.9507 47.9205,4.2657 C47.9595,4.4227 47.9995,4.5877 48.0405,4.7577 C48.0795,4.9287 48.1105,5.1127 48.1475,5.2997 C48.2925,6.0487 48.4545,6.8947 48.6315,7.8167 C48.7925,8.7367 48.9295,9.7337 49.0935,10.7857 C49.1805,11.3117 49.2395,11.8547 49.3055,12.4097 C49.3715,12.9637 49.4385,13.5297 49.5065,14.1057 C49.5825,14.6807 49.6275,15.2687 49.6825,15.8617 C49.7365,16.4557 49.7915,17.0557 49.8455,17.6617 C49.9415,18.8737 50.0145,20.1057 50.0965,21.3357 C50.1485,22.5687 50.2195,23.7987 50.2545,25.0117 C50.2855,26.2247 50.3295,27.4177 50.3345,28.5717 C50.3395,29.1497 50.3465,29.7167 50.3525,30.2727 C50.3515,30.8277 50.3495,31.3717 50.3485,31.9007 C50.3515,32.9587 50.3265,33.9587 50.3145,34.8817 C50.2755,36.7267 50.2215,38.2627 50.1705,39.3387 C50.1235,40.4137 50.0815,41.0267 50.0815,41.0267 C50.0815,41.0267 50.0925,40.4117 50.0875,39.3367 C50.0855,38.2607 50.0615,36.7247 50.0095,34.8827 C49.9755,33.9617 49.9515,32.9637 49.8965,31.9097 C49.8715,31.3827 49.8455,30.8407 49.8205,30.2877 C49.7865,29.7347 49.7525,29.1697 49.7165,28.5957 C49.6555,27.4467 49.5525,26.2617 49.4625,25.0577 C49.3685,23.8537 49.2365,22.6337 49.1245,21.4137 C48.9815,20.1957 48.8495,18.9777 48.6945,17.7827 C48.6105,17.1867 48.5275,16.5947 48.4445,16.0097 C48.3605,15.4257 48.2885,14.8467 48.1855,14.2837 C48.0895,13.7187 47.9955,13.1637 47.9035,12.6197 C47.8105,12.0767 47.7275,11.5437 47.6155,11.0317 C47.4025,10.0057 47.2185,9.0297 47.0185,8.1417 C46.8035,7.2627 46.6075,6.4567 46.4325,5.7417 C46.3875,5.5637 46.3505,5.3907 46.3035,5.2237 C46.2545,5.0557 46.2065,4.8937 46.1615,4.7377 C46.0695,4.4267 45.9855,4.1417 45.9095,3.8837 C45.6055,2.8517 45.4325,2.2617 45.4325,2.2617 L45.4315,2.2597 C45.2805,1.7427 45.5765,1.1997 46.0925,1.0477 C46.6095,0.8967 47.1525,1.1927 47.3045,1.7097 C47.3085,1.7237 47.3135,1.7417 47.3165,1.7557" id="Fill-11" fill="#F9BF64"></path>
                                <g id="Group-15" stroke-width="1" fill="none" transform="translate(53.000000, 0.209300)">
                                    <mask id="mask-5" fill="white">
                                        <use xlink:href="#path-4"></use>
                                    </mask>
                                    <g id="Clip-14"></g>
                                    <path d="M4.4952,1.7915 C4.4952,1.7915 4.4832,2.2475 4.4632,3.0455 C4.4532,3.4445 4.4402,3.9285 4.4272,4.4845 C4.4182,5.0385 4.3672,5.6805 4.3352,6.3695 C4.2942,7.0615 4.2662,7.8125 4.1912,8.5975 C4.1212,9.3835 4.0672,10.2145 3.9742,11.0705 C3.8772,11.9255 3.7922,12.8105 3.6762,13.7065 C3.6152,14.1535 3.5552,14.6045 3.4932,15.0575 C3.4332,15.5095 3.3742,15.9635 3.2972,16.4165 C3.1492,17.3205 3.0182,18.2275 2.8492,19.1125 C2.7672,19.5565 2.6872,19.9965 2.6082,20.4305 C2.5202,20.8635 2.4332,21.2905 2.3482,21.7105 C2.1832,22.5525 1.9902,23.3595 1.8202,24.1265 C1.6392,24.8915 1.4662,25.6135 1.2922,26.2765 C1.1192,26.9395 0.9572,27.5465 0.8022,28.0815 C0.6542,28.6185 0.5092,29.0815 0.3952,29.4635 C0.1582,30.2275 0.0082,30.6575 0.0082,30.6575 C0.0082,30.6575 0.1292,30.2175 0.3142,29.4415 C0.4012,29.0525 0.5162,28.5825 0.6272,28.0385 C0.7462,27.4955 0.8662,26.8805 0.9942,26.2095 C1.1232,25.5395 1.2472,24.8105 1.3772,24.0395 C1.4942,23.2655 1.6332,22.4535 1.7392,21.6065 C1.7962,21.1845 1.8532,20.7545 1.9122,20.3195 C1.9622,19.8845 2.0132,19.4435 2.0622,18.9985 C2.1742,18.1115 2.2422,17.2045 2.3282,16.3005 C2.3742,15.8495 2.4022,15.3955 2.4322,14.9445 C2.4632,14.4945 2.4932,14.0445 2.5232,13.5995 C2.5792,12.7085 2.6032,11.8295 2.6432,10.9805 C2.6792,10.1315 2.6772,9.3105 2.6942,8.5325 C2.7162,7.7525 2.6942,7.0215 2.6882,6.3455 C2.6842,6.0085 2.6812,5.6845 2.6772,5.3765 C2.6752,5.0705 2.6712,4.7785 2.6562,4.4995 C2.6332,3.9435 2.6122,3.4595 2.5962,3.0605 C2.5622,2.2635 2.5442,1.8075 2.5442,1.8075 C2.5212,1.2695 2.9392,0.8135 3.4782,0.7915 C4.0162,0.7695 4.4722,1.1875 4.4942,1.7265 C4.4952,1.7475 4.4952,1.7705 4.4952,1.7915" id="Fill-13" fill="#F9BF64" mask="url(#mask-5)"></path>
                                </g>
                                <path d="M34.1251,14.8197 C34.1251,14.8197 34.3021,15.0397 34.6101,15.4247 C34.7651,15.6177 34.9521,15.8517 35.1671,16.1197 C35.2211,16.1877 35.2761,16.2567 35.3331,16.3277 C35.3891,16.4037 35.4461,16.4827 35.5061,16.5627 C35.6231,16.7227 35.7471,16.8917 35.8761,17.0677 C36.1301,17.4207 36.4231,17.7947 36.6881,18.2087 C36.9601,18.6217 37.2591,19.0467 37.5431,19.5027 C37.8211,19.9627 38.1181,20.4307 38.3991,20.9177 C38.6711,21.4117 38.9631,21.9027 39.2231,22.4107 C39.4791,22.9217 39.7531,23.4217 39.9831,23.9337 C40.1031,24.1867 40.2211,24.4387 40.3371,24.6867 C40.4461,24.9387 40.5541,25.1877 40.6591,25.4327 C40.8771,25.9187 41.0571,26.4027 41.2371,26.8547 C41.4071,27.3127 41.5661,27.7447 41.7001,28.1477 C41.8361,28.5507 41.9561,28.9207 42.0521,29.2527 C42.1541,29.5817 42.2281,29.8737 42.2941,30.1117 C42.4171,30.5907 42.4731,30.8667 42.4731,30.8667 C42.4731,30.8667 42.3881,30.5977 42.2141,30.1367 C42.1221,29.9077 42.0201,29.6277 41.8821,29.3127 C41.7521,28.9957 41.5941,28.6427 41.4171,28.2607 C41.2421,27.8777 41.0391,27.4687 40.8231,27.0387 C40.5971,26.6117 40.3701,26.1587 40.1051,25.7047 C39.9761,25.4767 39.8451,25.2447 39.7111,25.0097 C39.5711,24.7797 39.4291,24.5467 39.2861,24.3117 C39.0081,23.8377 38.6871,23.3787 38.3851,22.9107 C38.0791,22.4447 37.7431,21.9987 37.4311,21.5497 C37.1061,21.1087 36.7701,20.6877 36.4551,20.2737 C36.1341,19.8637 35.8011,19.4867 35.4981,19.1187 C35.1981,18.7467 34.8881,18.4297 34.6131,18.1237 C34.4761,17.9727 34.3431,17.8277 34.2181,17.6897 C34.1541,17.6207 34.0941,17.5537 34.0341,17.4887 C33.9701,17.4237 33.9071,17.3617 33.8471,17.2997 C33.6041,17.0567 33.3931,16.8447 33.2191,16.6697 C32.8701,16.3197 32.6711,16.1197 32.6711,16.1197 C32.2901,15.7377 32.2911,15.1197 32.6731,14.7387 C33.0561,14.3577 33.6741,14.3587 34.0551,14.7407 C34.0791,14.7657 34.1041,14.7927 34.1251,14.8197" id="Fill-16" fill="#F9BF64"></path>
                                <path d="M10.1397,32.4442 C10.1397,32.4442 10.2657,32.4552 10.5017,32.4742 C10.7427,32.4972 11.0797,32.5172 11.5347,32.5672 C11.7647,32.5962 12.0207,32.6282 12.2977,32.6632 C12.4367,32.6812 12.5807,32.6992 12.7307,32.7192 C12.8767,32.7432 13.0287,32.7692 13.1847,32.7952 C13.4967,32.8502 13.8307,32.8992 14.1787,32.9692 C14.5257,33.0412 14.8907,33.1162 15.2707,33.1952 C15.6477,33.2862 16.0397,33.3802 16.4467,33.4782 C16.8527,33.5752 17.2657,33.6992 17.6927,33.8142 C18.5437,34.0552 19.4327,34.3342 20.3427,34.6442 C20.7997,34.7962 21.2557,34.9682 21.7217,35.1332 C22.1857,35.3052 22.6507,35.4882 23.1197,35.6672 C23.5857,35.8582 24.0547,36.0502 24.5257,36.2432 C24.9927,36.4452 25.4647,36.6392 25.9287,36.8512 C26.3937,37.0602 26.8597,37.2672 27.3187,37.4852 C27.7787,37.6982 28.2347,37.9172 28.6837,38.1382 C29.5857,38.5752 30.4617,39.0272 31.3067,39.4692 C32.9927,40.3622 34.5367,41.2412 35.8467,42.0202 C38.4637,43.5782 40.1317,44.7342 40.1317,44.7342 C40.1317,44.7342 38.3967,43.6802 35.6987,42.2862 C34.3487,41.5902 32.7597,40.8082 31.0357,40.0242 C30.1707,39.6362 29.2757,39.2402 28.3577,38.8612 C27.8997,38.6692 27.4357,38.4802 26.9677,38.2972 C26.5017,38.1092 26.0307,37.9322 25.5587,37.7542 C25.0887,37.5722 24.6127,37.4102 24.1417,37.2382 C23.6667,37.0762 23.1957,36.9152 22.7267,36.7562 C22.2547,36.6082 21.7877,36.4552 21.3257,36.3152 C20.8597,36.1812 20.4037,36.0392 19.9497,35.9182 C19.0437,35.6692 18.1637,35.4502 17.3267,35.2662 C16.9077,35.1812 16.5007,35.0852 16.1047,35.0152 C15.7087,34.9442 15.3267,34.8772 14.9597,34.8122 C14.5917,34.7582 14.2397,34.7072 13.9047,34.6592 C13.5697,34.6122 13.2497,34.5862 12.9517,34.5512 C12.8017,34.5342 12.6577,34.5192 12.5177,34.5042 C12.3797,34.4952 12.2477,34.4862 12.1197,34.4772 C11.8667,34.4602 11.6337,34.4442 11.4227,34.4302 C10.9937,34.4082 10.6347,34.4092 10.4007,34.4012 C10.1627,34.3952 10.0357,34.3922 10.0357,34.3922 C9.4967,34.3802 9.0707,33.9342 9.0817,33.3952 C9.0947,32.8562 9.5407,32.4292 10.0797,32.4412 C10.0987,32.4412 10.1207,32.4432 10.1397,32.4442" id="Fill-18" fill="#F9BF64"></path>
                                <path d="M0.8868,44.7323 C0.8868,44.7323 1.2718,44.6973 1.9458,44.6353 C2.1148,44.6193 2.3008,44.6023 2.5038,44.5843 C2.7078,44.5663 2.9388,44.5593 3.1798,44.5453 C3.6618,44.5243 4.2138,44.4813 4.7998,44.4713 C5.3858,44.4623 6.0218,44.4403 6.6928,44.4403 C7.3628,44.4463 8.0688,44.4403 8.7978,44.4573 C9.5268,44.4793 10.2808,44.4863 11.0438,44.5223 C11.8078,44.5553 12.5828,44.5813 13.3578,44.6283 C14.1318,44.6703 14.9058,44.7143 15.6658,44.7693 C16.4278,44.8173 17.1758,44.8763 17.8998,44.9333 C18.6228,44.9863 19.3218,45.0533 19.9848,45.1083 C20.6468,45.1703 21.2728,45.2293 21.8508,45.2833 C24.1598,45.5113 25.6958,45.6993 25.6958,45.6993 C25.6958,45.6993 24.1498,45.6323 21.8318,45.5873 C21.2528,45.5793 20.6258,45.5693 19.9618,45.5603 C19.2978,45.5573 18.5988,45.5453 17.8748,45.5493 C17.1508,45.5503 16.4038,45.5503 15.6438,45.5633 C14.8848,45.5683 14.1138,45.5843 13.3428,45.6043 C12.5728,45.6173 11.8028,45.6523 11.0448,45.6793 C10.2878,45.7033 9.5448,45.7553 8.8248,45.7903 C8.1058,45.8313 7.4128,45.8913 6.7558,45.9373 C6.0998,45.9893 5.4838,46.0593 4.9128,46.1133 C4.3418,46.1683 3.8368,46.2493 3.3808,46.3043 C3.1538,46.3353 2.9448,46.3573 2.7448,46.3903 C2.5438,46.4253 2.3598,46.4573 2.1928,46.4853 C1.5268,46.6003 1.1458,46.6663 1.1458,46.6663 L1.1418,46.6673 C0.6108,46.7583 0.1058,46.4013 0.0148,45.8703 C-0.0772,45.3393 0.2798,44.8343 0.8108,44.7423 C0.8348,44.7383 0.8628,44.7343 0.8868,44.7323" id="Fill-20" fill="#F9BF64"></path>
                                <path d="M11.5479,70.5682 C11.5479,70.5682 11.8709,70.2742 12.4379,69.7572 C12.7209,69.5002 13.0649,69.1862 13.4589,68.8272 C13.8849,68.4802 14.3649,68.0892 14.8899,67.6632 C15.1529,67.4542 15.4189,67.2202 15.7109,67.0102 C16.0019,66.7992 16.3029,66.5812 16.6109,66.3562 C16.9209,66.1322 17.2369,65.9012 17.5619,65.6662 C17.8929,65.4402 18.2369,65.2202 18.5839,64.9912 C18.9309,64.7632 19.2839,64.5322 19.6419,64.2982 C20.0039,64.0722 20.3779,63.8562 20.7509,63.6312 C21.1259,63.4102 21.4989,63.1812 21.8809,62.9632 C22.2679,62.7522 22.6549,62.5412 23.0429,62.3302 C23.8119,61.8962 24.6079,61.5162 25.3819,61.1262 C25.7669,60.9262 26.1599,60.7522 26.5459,60.5732 C26.9319,60.3962 27.3129,60.2212 27.6869,60.0492 C28.0669,59.8872 28.4399,59.7292 28.8039,59.5732 C29.1679,59.4162 29.5259,59.2662 29.8779,59.1302 C30.2299,58.9922 30.5699,58.8572 30.9009,58.7262 C31.2329,58.5992 31.5559,58.4852 31.8639,58.3702 C32.4799,58.1372 33.0539,57.9512 33.5589,57.7762 C34.0679,57.6102 34.5099,57.4662 34.8769,57.3572 C35.6099,57.1322 36.0349,57.0242 36.0349,57.0242 C36.0349,57.0242 35.6189,57.1612 34.9039,57.4362 C34.5459,57.5702 34.1149,57.7452 33.6209,57.9442 C33.1309,58.1542 32.5739,58.3792 31.9789,58.6522 C31.6799,58.7882 31.3669,58.9232 31.0469,59.0732 C30.7289,59.2252 30.3999,59.3822 30.0619,59.5442 C29.7219,59.7022 29.3779,59.8762 29.0269,60.0572 C28.6779,60.2362 28.3189,60.4192 27.9559,60.6052 C27.5979,60.8012 27.2329,61.0002 26.8639,61.2022 C26.4959,61.4042 26.1199,61.6032 25.7539,61.8262 C25.0179,62.2652 24.2609,62.6932 23.5349,63.1722 C23.1689,63.4052 22.8039,63.6392 22.4389,63.8722 C22.0799,64.1122 21.7299,64.3622 21.3779,64.6052 C21.0279,64.8492 20.6779,65.0862 20.3389,65.3312 C20.0069,65.5842 19.6789,65.8332 19.3559,66.0792 C19.0339,66.3252 18.7129,66.5622 18.4079,66.8042 C18.1099,67.0542 17.8179,67.2992 17.5329,67.5382 C17.2489,67.7762 16.9739,68.0072 16.7059,68.2312 C16.4379,68.4532 16.2059,68.6902 15.9689,68.9052 C15.5029,69.3402 15.0759,69.7392 14.6969,70.0932 C14.3279,70.4792 14.0069,70.8162 13.7419,71.0922 C13.2139,71.6472 12.9109,71.9642 12.9109,71.9642 C12.5389,72.3542 11.9209,72.3682 11.5309,71.9962 C11.1409,71.6242 11.1259,71.0062 11.4979,70.6162 C11.5139,70.6002 11.5309,70.5832 11.5479,70.5682" id="Fill-22" fill="#F9BF64"></path>
                                <path d="M20.6563,54.892 C20.6563,54.892 21.9693,54.734 23.9393,54.497 C24.1863,54.469 24.4413,54.434 24.7093,54.408 C24.9783,54.384 25.2573,54.359 25.5423,54.333 C26.1133,54.282 26.7163,54.227 27.3383,54.171 C27.9613,54.114 28.6023,54.055 29.2553,54.019 C29.9073,53.977 30.5693,53.934 31.2313,53.892 C31.8923,53.844 32.5553,53.815 33.2083,53.788 C33.8593,53.759 34.5013,53.731 35.1213,53.704 C35.7423,53.687 36.3433,53.67 36.9123,53.655 C37.4803,53.64 38.0173,53.623 38.5143,53.621 C39.5083,53.607 40.3353,53.6 40.9143,53.604 C41.4923,53.608 41.8233,53.61 41.8233,53.61 C41.8233,53.61 41.4943,53.639 40.9173,53.688 C40.3413,53.737 39.5183,53.82 38.5333,53.925 C38.0403,53.973 37.5073,54.039 36.9433,54.106 C36.3803,54.174 35.7863,54.246 35.1723,54.319 C34.5583,54.403 33.9253,54.49 33.2813,54.578 C32.6373,54.665 31.9843,54.753 31.3333,54.862 C30.6823,54.965 30.0313,55.067 29.3903,55.169 C28.7483,55.264 28.1223,55.381 27.5173,55.493 C26.9133,55.604 26.3283,55.711 25.7743,55.813 C25.4983,55.864 25.2283,55.913 24.9683,55.961 C24.7083,56.012 24.4543,56.07 24.2123,56.121 C22.2723,56.538 20.9793,56.816 20.9793,56.816 L20.9773,56.816 C20.4513,56.93 19.9313,56.594 19.8183,56.067 C19.7053,55.539 20.0403,55.02 20.5673,54.907 C20.5963,54.9 20.6273,54.895 20.6563,54.892" id="Fill-24" fill="#F9BF64"></path>
                                <g id="Group-28" stroke-width="1" fill="none" transform="translate(43.000000, 58.209300)">
                                    <mask id="mask-7" fill="white">
                                        <use xlink:href="#path-6"></use>
                                    </mask>
                                    <g id="Clip-27"></g>
                                    <path d="M0.0597,24.0284 C0.0597,24.0284 0.0577,23.6614 0.0547,23.0184 C0.0537,22.8574 0.0527,22.6794 0.0517,22.4864 C0.0517,22.3894 0.0507,22.2884 0.0507,22.1834 C0.0567,22.0744 0.0627,21.9624 0.0687,21.8454 C0.0937,21.3804 0.1217,20.8564 0.1537,20.2834 C0.2057,19.7214 0.2747,19.1194 0.3407,18.4804 C0.4157,17.8434 0.5297,17.1784 0.6277,16.4874 C0.7397,15.8004 0.8807,15.0954 1.0107,14.3774 C1.1637,13.6644 1.3167,12.9404 1.4817,12.2194 C1.6617,11.5034 1.8207,10.7814 2.0147,10.0814 C2.2027,9.3804 2.3837,8.6894 2.5807,8.0274 C2.7687,7.3624 2.9647,6.7244 3.1527,6.1204 C3.3337,5.5144 3.5297,4.9484 3.6967,4.4234 C4.0467,3.3774 4.3507,2.5094 4.5747,1.9064 C4.7937,1.3024 4.9287,0.9614 4.9287,0.9614 C4.9287,0.9614 4.8227,1.3124 4.6537,1.9324 C4.4817,2.5504 4.2507,3.4394 3.9897,4.5074 C3.8667,5.0434 3.7197,5.6204 3.5897,6.2364 C3.4537,6.8514 3.3127,7.4994 3.1807,8.1734 C3.0397,8.8444 2.9167,9.5434 2.7887,10.2514 C2.6567,10.9584 2.5577,11.6824 2.4397,12.4024 C2.3357,13.1244 2.2467,13.8474 2.1547,14.5584 C2.0857,15.2714 2.0047,15.9714 1.9527,16.6494 C1.9127,17.3274 1.8557,17.9824 1.8347,18.6024 C1.8227,19.2224 1.8037,19.8094 1.7977,20.3464 C1.8137,20.8754 1.8267,21.3594 1.8387,21.7884 C1.8417,21.8954 1.8437,21.9984 1.8467,22.0984 C1.8557,22.2024 1.8647,22.3024 1.8727,22.3994 C1.8897,22.5924 1.9057,22.7694 1.9187,22.9294 C1.9757,23.5694 2.0077,23.9354 2.0077,23.9354 L2.0077,23.9384 C2.0557,24.4754 1.6587,24.9484 1.1217,24.9964 C0.5837,25.0434 0.1107,24.6464 0.0627,24.1094 C0.0607,24.0824 0.0597,24.0544 0.0597,24.0284" id="Fill-26" fill="#F9BF64" mask="url(#mask-7)"></path>
                                </g>
                                <path d="M61.8126,78.892 C61.8126,78.892 61.7936,78.796 61.7586,78.617 C61.7426,78.527 61.7206,78.416 61.6956,78.286 C61.6826,78.221 61.6686,78.151 61.6546,78.077 C61.6376,78.009 61.6206,77.936 61.6016,77.86 C61.5646,77.707 61.5236,77.538 61.4786,77.354 C61.4306,77.168 61.3656,76.961 61.3036,76.743 C61.2436,76.523 61.1666,76.291 61.0836,76.047 C61.0016,75.802 60.9166,75.544 60.8146,75.279 C60.6206,74.745 60.3886,74.169 60.1266,73.566 C59.8666,72.963 59.5756,72.33 59.2546,71.684 C59.0966,71.36 58.9326,71.031 58.7586,70.702 C58.5896,70.37 58.4126,70.038 58.2296,69.704 C57.8696,69.034 57.4846,68.362 57.0936,67.692 C55.5226,65.018 53.7756,62.436 52.4136,60.538 C51.0526,58.637 50.0816,57.414 50.0816,57.414 C50.0816,57.414 51.1446,58.557 52.6546,60.35 C54.1646,62.142 56.1176,64.589 57.9146,67.165 C58.3626,67.81 58.8046,68.46 59.2246,69.112 C59.4366,69.436 59.6436,69.761 59.8426,70.085 C60.0456,70.407 60.2396,70.729 60.4276,71.049 C60.8066,71.685 61.1586,72.313 61.4776,72.917 C61.7966,73.521 62.0856,74.102 62.3346,74.649 C62.4646,74.92 62.5776,75.187 62.6836,75.441 C62.7926,75.694 62.8946,75.935 62.9786,76.168 C63.0656,76.401 63.1506,76.613 63.2216,76.82 C63.2916,77.031 63.3536,77.225 63.4116,77.4 C63.4396,77.487 63.4656,77.57 63.4916,77.648 C63.5116,77.722 63.5306,77.79 63.5476,77.854 C63.5836,77.982 63.6136,78.091 63.6376,78.179 C63.6866,78.355 63.7116,78.449 63.7116,78.449 C63.8556,78.969 63.5506,79.506 63.0306,79.65 C62.5106,79.793 61.9736,79.488 61.8306,78.968 C61.8236,78.944 61.8176,78.92 61.8126,78.896 L61.8126,78.892 Z" id="Fill-29" fill="#F9BF64"></path>
                                <path d="M47.6485,75.4667 C47.6485,75.4667 47.6425,75.2597 47.6325,74.8987 C47.6275,74.7177 47.6215,74.4987 47.6145,74.2467 C47.6105,73.9927 47.5905,73.7157 47.5975,73.3957 C47.6065,73.0747 47.6155,72.7287 47.6255,72.3617 C47.6375,71.9957 47.6415,71.6087 47.6635,71.2157 C47.6895,70.8257 47.7165,70.4227 47.7445,70.0127 C47.7745,69.6037 47.7945,69.1877 47.8375,68.7747 C47.8775,68.3617 47.9165,67.9477 47.9555,67.5407 C47.9905,67.1337 48.0355,66.7347 48.0815,66.3487 C48.1675,65.5767 48.2515,64.8577 48.3345,64.2417 C48.4115,63.6267 48.4855,63.1147 48.5365,62.7567 C48.5885,62.3987 48.6195,62.1947 48.6195,62.1947 C48.6195,62.1947 48.6195,62.4007 48.6205,62.7627 C48.6235,63.1237 48.6245,63.6397 48.6385,64.2587 C48.6465,64.8777 48.6695,65.5997 48.6975,66.3717 C48.7095,66.7587 48.7235,67.1567 48.7485,67.5617 C48.7695,67.9657 48.7925,68.3767 48.8135,68.7867 C48.8305,69.1977 48.8725,69.6067 48.9025,70.0087 C48.9345,70.4107 48.9655,70.8057 48.9965,71.1887 C49.0325,71.5687 49.0825,71.9267 49.1215,72.2697 C49.1615,72.6097 49.2005,72.9317 49.2355,73.2297 C49.2725,73.5267 49.3355,73.8117 49.3755,74.0577 C49.4195,74.3057 49.4575,74.5217 49.4895,74.6997 C49.5525,75.0557 49.5885,75.2587 49.5885,75.2587 L49.5895,75.2677 C49.6845,75.7997 49.3305,76.3077 48.7985,76.4027 C48.2665,76.4967 47.7575,76.1427 47.6635,75.6107 C47.6555,75.5647 47.6505,75.5127 47.6485,75.4667" id="Fill-31" fill="#F9BF64"></path>
                                <path d="M87.0968,46.6429 C87.0968,46.6429 86.7808,46.5449 86.2278,46.3719 C85.9508,46.2859 85.6148,46.1819 85.2298,46.0609 C85.0348,45.9959 84.8358,45.9509 84.6238,45.8959 C84.4118,45.8429 84.1898,45.7869 83.9568,45.7279 C83.7238,45.6689 83.4808,45.6069 83.2298,45.5429 C82.9798,45.4749 82.7078,45.4349 82.4358,45.3769 C82.1608,45.3219 81.8798,45.2669 81.5918,45.2089 C81.4488,45.1809 81.3028,45.1519 81.1558,45.1219 C81.0068,45.0999 80.8578,45.0779 80.7068,45.0549 C80.4048,45.0099 80.0978,44.9639 79.7858,44.9179 C79.6308,44.8949 79.4738,44.8719 79.3168,44.8489 C79.1588,44.8269 78.9988,44.8149 78.8398,44.7969 C78.2008,44.7389 77.5498,44.6489 76.8968,44.6239 C76.5698,44.6039 76.2428,44.5849 75.9168,44.5659 C75.5908,44.5469 75.2658,44.5499 74.9428,44.5409 C74.6198,44.5379 74.2988,44.5229 73.9828,44.5289 C73.6658,44.5349 73.3528,44.5399 73.0448,44.5459 C72.7368,44.5479 72.4338,44.5639 72.1378,44.5809 C71.8408,44.5969 71.5508,44.6129 71.2678,44.6279 C70.7048,44.6799 70.1688,44.7109 69.6788,44.7749 C69.4328,44.8039 69.1978,44.8309 68.9738,44.8579 C68.7498,44.8899 68.5378,44.9199 68.3388,44.9489 C67.9408,45.0059 67.5958,45.0699 67.3108,45.1209 C66.7428,45.2269 66.4198,45.3069 66.4198,45.3069 C66.4198,45.3069 66.7338,45.1979 67.2908,45.0389 C67.5718,44.9629 67.9098,44.8659 68.3038,44.7719 C68.5008,44.7259 68.7098,44.6749 68.9318,44.6219 C69.1538,44.5749 69.3868,44.5259 69.6308,44.4739 C70.1178,44.3639 70.6528,44.2839 71.2148,44.1789 C71.4978,44.1369 71.7888,44.0939 72.0868,44.0499 C72.3838,44.0059 72.6888,43.9609 72.9998,43.9309 C73.3108,43.8959 73.6268,43.8609 73.9478,43.8259 C74.2678,43.7889 74.5928,43.7749 74.9208,43.7479 C75.2488,43.7269 75.5798,43.6929 75.9128,43.6819 C76.2458,43.6709 76.5808,43.6599 76.9148,43.6479 C77.5848,43.6129 78.2548,43.6429 78.9168,43.6429 C79.0818,43.6449 79.2468,43.6429 79.4098,43.6499 C79.5748,43.6589 79.7378,43.6679 79.8988,43.6769 C80.2228,43.6949 80.5428,43.7119 80.8578,43.7289 C81.0158,43.7389 81.1718,43.7479 81.3258,43.7569 C81.4808,43.7729 81.6338,43.7889 81.7848,43.8049 C82.0868,43.8359 82.3828,43.8669 82.6708,43.8969 C82.9598,43.9309 83.2408,43.9469 83.5128,43.9939 C83.7848,44.0369 84.0488,44.0789 84.3018,44.1189 C84.5558,44.1589 84.7988,44.1969 85.0308,44.2339 C85.2608,44.2709 85.4848,44.3019 85.6778,44.3489 C86.0728,44.4329 86.4168,44.5059 86.7008,44.5659 C87.2668,44.6869 87.5908,44.7559 87.5908,44.7559 C88.1178,44.8679 88.4548,45.3869 88.3428,45.9139 C88.2298,46.4419 87.7108,46.7779 87.1838,46.6659 C87.1548,46.6599 87.1248,46.6519 87.0968,46.6429" id="Fill-33" fill="#F9BF64"></path>
                                <path d="M79.0362,49.8036 C79.0362,49.8036 78.8152,49.7136 78.4292,49.5566 C78.2362,49.4786 78.0022,49.3836 77.7322,49.2746 C77.4732,49.1856 77.1802,49.0856 76.8592,48.9756 C76.5442,48.8586 76.1792,48.7606 75.7952,48.6506 C75.6032,48.5956 75.4062,48.5396 75.2042,48.4826 C75.0002,48.4336 74.7912,48.3846 74.5782,48.3346 C74.3652,48.2846 74.1492,48.2336 73.9302,48.1816 C73.7082,48.1396 73.4832,48.0956 73.2582,48.0526 C73.0312,48.0116 72.8042,47.9606 72.5732,47.9256 C72.3422,47.8896 72.1092,47.8536 71.8782,47.8186 C71.4132,47.7386 70.9452,47.6956 70.4842,47.6366 C70.0222,47.5856 69.5662,47.5496 69.1252,47.5116 C68.6822,47.4876 68.2542,47.4496 67.8482,47.4406 C67.4402,47.4226 67.0552,47.4116 66.6992,47.4096 C66.3432,47.4016 66.0162,47.4096 65.7262,47.4096 C65.4372,47.4166 65.1842,47.4206 64.9762,47.4296 C64.5602,47.4456 64.3232,47.4646 64.3232,47.4646 C64.3232,47.4646 64.5562,47.4146 64.9682,47.3466 C65.1742,47.3106 65.4252,47.2746 65.7132,47.2296 C66.0012,47.1926 66.3262,47.1426 66.6822,47.1056 C67.0392,47.0616 67.4272,47.0226 67.8372,46.9876 C68.2472,46.9456 68.6812,46.9276 69.1302,46.8936 C69.5792,46.8756 70.0452,46.8516 70.5182,46.8446 C70.9922,46.8436 71.4752,46.8266 71.9582,46.8456 C72.1992,46.8516 72.4412,46.8586 72.6822,46.8646 C72.9232,46.8696 73.1622,46.8916 73.4002,46.9046 C73.6392,46.9196 73.8752,46.9336 74.1092,46.9486 C74.3432,46.9726 74.5732,46.9966 74.8002,47.0196 C75.0272,47.0436 75.2512,47.0666 75.4702,47.0896 C75.6872,47.1216 75.9002,47.1546 76.1082,47.1846 C76.5232,47.2486 76.9172,47.3016 77.2862,47.3866 C77.6542,47.4626 77.9922,47.5326 78.2922,47.5946 C78.5732,47.6686 78.8182,47.7326 79.0192,47.7856 C79.4232,47.8916 79.6532,47.9526 79.6532,47.9526 C80.1762,48.0906 80.4872,48.6246 80.3492,49.1466 C80.2132,49.6696 79.6782,49.9806 79.1562,49.8436 C79.1172,49.8326 79.0792,49.8206 79.0422,49.8056 L79.0362,49.8036 Z" id="Fill-35" fill="#F9BF64"></path>
                                <path d="M43.9845,7.263 C43.9845,7.263 44.1795,8.05 44.4725,9.229 C44.5085,9.377 44.5465,9.53 44.5875,9.689 C44.6225,9.852 44.6595,10.02 44.6975,10.192 C44.7725,10.537 44.8515,10.901 44.9335,11.277 C45.0135,11.653 45.1055,12.04 45.1755,12.435 C45.2515,12.829 45.3285,13.229 45.4045,13.629 C45.4425,13.829 45.4805,14.029 45.5185,14.228 C45.5525,14.428 45.5865,14.627 45.6205,14.825 C45.6865,15.22 45.7525,15.608 45.8155,15.984 C45.8795,16.359 45.9285,16.724 45.9825,17.069 C46.0335,17.415 46.0855,17.74 46.1235,18.042 C46.2915,19.248 46.3755,20.055 46.3755,20.055 C46.3755,20.055 46.1715,19.27 45.8255,18.107 C45.7435,17.815 45.6425,17.502 45.5415,17.169 C45.4365,16.838 45.3335,16.487 45.2145,16.127 C45.0965,15.767 44.9745,15.396 44.8505,15.018 C44.7885,14.83 44.7255,14.639 44.6635,14.449 C44.5955,14.26 44.5285,14.069 44.4615,13.879 C44.3275,13.499 44.1935,13.119 44.0605,12.745 C43.9335,12.369 43.7885,12.01 43.6555,11.659 C43.5215,11.309 43.3925,10.971 43.2705,10.65 C43.2095,10.49 43.1495,10.334 43.0915,10.183 C43.0285,10.032 42.9675,9.886 42.9095,9.745 C42.4425,8.623 42.1315,7.875 42.1315,7.875 C41.9235,7.376 42.1605,6.803 42.6585,6.596 C43.1575,6.388 43.7305,6.624 43.9375,7.122 C43.9565,7.167 43.9725,7.218 43.9845,7.263" id="Fill-37" fill="#F9BF64"></path>
                                <path d="M32.172,3.4046 C32.161,3.3956 32.321,3.5336 32.554,3.7566 C32.79,3.9826 33.121,4.3176 33.525,4.7536 C33.93,5.1886 34.397,5.7326 34.914,6.3686 C35.434,7.0036 35.985,7.7416 36.568,8.5576 C37.147,9.3776 37.742,10.2846 38.343,11.2596 C38.934,12.2406 39.541,13.2836 40.112,14.3906 C40.697,15.4896 41.247,16.6536 41.788,17.8406 C42.311,19.0366 42.822,20.2586 43.282,21.4986 C43.512,22.1186 43.746,22.7376 43.952,23.3626 C44.058,23.6746 44.164,23.9856 44.27,24.2956 C44.375,24.6046 44.466,24.9186 44.564,25.2286 C44.758,25.8486 44.951,26.4636 45.117,27.0786 C45.288,27.6916 45.468,28.2936 45.612,28.8956 C45.76,29.4956 45.921,30.0816 46.051,30.6616 C46.181,31.2416 46.309,31.8096 46.433,32.3616 C46.549,32.9156 46.65,33.4566 46.754,33.9786 C46.806,34.2386 46.856,34.4956 46.905,34.7476 C46.948,35.0006 46.99,35.2496 47.031,35.4926 C47.113,35.9786 47.193,36.4456 47.267,36.8886 C47.34,37.3316 47.393,37.7556 47.451,38.1516 C47.565,38.9446 47.665,39.6356 47.723,40.2076 C47.855,41.3496 47.929,42.0026 47.929,42.0026 C47.929,42.0026 47.824,41.3546 47.64,40.2196 C47.556,39.6516 47.423,38.9666 47.274,38.1816 C47.197,37.7886 47.125,37.3696 47.031,36.9306 C46.937,36.4926 46.837,36.0326 46.733,35.5516 C46.68,35.3116 46.627,35.0666 46.572,34.8166 C46.512,34.5686 46.449,34.3156 46.387,34.0576 C46.259,33.5436 46.134,33.0106 45.992,32.4656 C45.843,31.9236 45.691,31.3656 45.534,30.7956 C45.379,30.2256 45.193,29.6516 45.019,29.0636 C44.848,28.4746 44.642,27.8856 44.444,27.2876 C44.252,26.6866 44.033,26.0876 43.813,25.4836 C43.701,25.1816 43.597,24.8766 43.479,24.5746 C43.36,24.2736 43.241,23.9716 43.122,23.6696 C42.892,23.0616 42.632,22.4626 42.378,21.8626 C41.868,20.6626 41.309,19.4856 40.742,18.3366 C40.157,17.1966 39.568,16.0836 38.946,15.0366 C38.338,13.9826 37.699,12.9956 37.083,12.0706 C36.456,11.1516 35.839,10.3016 35.246,9.5376 C34.649,8.7786 34.086,8.0946 33.564,7.5136 C33.043,6.9316 32.577,6.4376 32.181,6.0496 C31.785,5.6606 31.467,5.3666 31.249,5.1776 C31.027,4.9846 30.934,4.9126 30.924,4.9046 C30.51,4.5596 30.453,3.9446 30.798,3.5306 C31.143,3.1166 31.758,3.0606 32.172,3.4046" id="Fill-39" fill="#EE3E58"></path>
                                <path d="M68.8936,2.4613 C68.8936,2.4613 68.5276,3.1283 67.8856,4.2963 C67.5646,4.8803 67.1756,5.5893 66.7286,6.4033 C66.2966,7.2193 65.8336,8.1453 65.3146,9.1533 C65.0576,9.6583 64.7896,10.1843 64.5106,10.7293 C64.2476,11.2813 63.9736,11.8533 63.6926,12.4413 C63.1316,13.6173 62.5286,14.8533 61.9596,16.1573 C61.3796,17.4563 60.7656,18.7923 60.1986,20.1753 C59.9086,20.8643 59.6166,21.5583 59.3226,22.2553 C59.0296,22.9533 58.7586,23.6623 58.4756,24.3673 C58.1966,25.0743 57.9166,25.7803 57.6386,26.4843 C57.3726,27.1923 57.1076,27.8983 56.8446,28.5993 C56.3076,29.9963 55.8326,31.3903 55.3506,32.7313 C55.1086,33.4023 54.8946,34.0693 54.6716,34.7183 C54.4556,35.3693 54.2316,36.0033 54.0346,36.6263 C53.6356,37.8713 53.2506,39.0463 52.9236,40.1393 C52.5846,41.2303 52.2936,42.2343 52.0356,43.1253 C51.7786,44.0163 51.5636,44.7963 51.3886,45.4393 C51.0396,46.7243 50.8616,47.4643 50.8616,47.4643 C50.8616,47.4643 51.0106,46.7183 51.3066,45.4183 C51.4566,44.7693 51.6396,43.9813 51.8616,43.0793 C52.0836,42.1773 52.3346,41.1603 52.6306,40.0563 C52.9146,38.9483 53.2526,37.7573 53.6016,36.4943 C53.7746,35.8623 53.9716,35.2193 54.1636,34.5583 C54.3606,33.8993 54.5476,33.2213 54.7636,32.5403 C55.1936,31.1763 55.6136,29.7593 56.0956,28.3373 C56.3306,27.6243 56.5686,26.9043 56.8066,26.1833 C57.0576,25.4653 57.3096,24.7453 57.5616,24.0253 C57.8186,23.3063 58.0616,22.5823 58.3276,21.8703 C58.5946,21.1573 58.8606,20.4483 59.1236,19.7443 C59.6386,18.3313 60.2026,16.9623 60.7336,15.6323 C61.2526,14.2963 61.8106,13.0283 62.3296,11.8203 C62.5886,11.2163 62.8406,10.6283 63.0846,10.0603 C63.3446,9.4973 63.5956,8.9523 63.8356,8.4303 C64.3216,7.3873 64.7566,6.4223 65.1606,5.5813 C65.5746,4.7513 65.9346,4.0263 66.2316,3.4303 C66.8266,2.2373 67.1656,1.5563 67.1656,1.5563 C67.4066,1.0733 67.9926,0.8783 68.4736,1.1183 C68.9556,1.3583 69.1526,1.9443 68.9126,2.4263 C68.9076,2.4373 68.8996,2.4513 68.8936,2.4613" id="Fill-41" fill="#EE3E58"></path>
                                <path d="M55.1534,48.8783 C55.1534,48.8783 55.5734,48.3653 56.3084,47.4673 C56.6654,47.0103 57.1504,46.4983 57.6844,45.8893 C57.8194,45.7383 57.9594,45.5823 58.1014,45.4213 C58.2464,45.2623 58.4044,45.1073 58.5614,44.9433 C58.8784,44.6173 59.2104,44.2743 59.5574,43.9173 C59.9074,43.5623 60.2934,43.2133 60.6804,42.8413 C60.8774,42.6563 61.0764,42.4683 61.2784,42.2773 C61.4874,42.0953 61.7004,41.9103 61.9164,41.7223 C62.7694,40.9603 63.7134,40.2053 64.7074,39.4453 C64.9594,39.2603 65.2134,39.0733 65.4684,38.8853 C65.7244,38.6973 65.9794,38.5033 66.2504,38.3273 C66.5164,38.1473 66.7854,37.9653 67.0544,37.7833 C67.3254,37.6003 67.5954,37.4153 67.8784,37.2463 C68.1574,37.0733 68.4384,36.8993 68.7194,36.7243 L69.1434,36.4633 L69.5784,36.2173 C70.1574,35.8883 70.7364,35.5513 71.3364,35.2523 L72.2274,34.7903 C72.5304,34.6463 72.8334,34.5033 73.1344,34.3603 C73.7334,34.0653 74.3504,33.8143 74.9564,33.5503 C75.2574,33.4143 75.5674,33.3033 75.8714,33.1813 C76.1764,33.0643 76.4784,32.9403 76.7834,32.8293 C77.3954,32.6183 77.9954,32.3873 78.5984,32.2053 C78.8984,32.1103 79.1974,32.0153 79.4924,31.9213 C79.7904,31.8373 80.0854,31.7533 80.3774,31.6703 C80.5234,31.6283 80.6694,31.5873 80.8134,31.5463 C80.9594,31.5093 81.1034,31.4723 81.2484,31.4363 C81.5364,31.3633 81.8204,31.2923 82.1004,31.2203 C83.2304,30.9643 84.3034,30.7393 85.3054,30.5853 C86.3064,30.4243 87.2304,30.3083 88.0534,30.2343 C88.8764,30.1543 89.5984,30.1173 90.1954,30.0963 C90.7924,30.0743 91.2664,30.0803 91.5924,30.0853 C91.7584,30.0903 91.8864,30.0953 91.9724,30.0983 C92.0664,30.1033 92.1154,30.1063 92.1154,30.1063 C92.6534,30.1353 93.0654,30.5963 93.0364,31.1343 C93.0064,31.6723 92.5464,32.0843 92.0074,32.0543 C91.9944,32.0543 91.9814,32.0533 91.9674,32.0513 L91.9364,32.0483 C91.9364,32.0483 91.9024,32.0453 91.8374,32.0383 C91.7624,32.0323 91.6524,32.0243 91.5074,32.0123 C91.2144,31.9953 90.7774,31.9683 90.2144,31.9633 C89.6524,31.9573 88.9664,31.9613 88.1774,32.0013 C87.3894,32.0353 86.4994,32.1063 85.5304,32.2153 C84.5604,32.3193 83.5164,32.4893 82.4144,32.6863 C82.1394,32.7423 81.8614,32.7993 81.5804,32.8573 C81.4384,32.8853 81.2974,32.9143 81.1544,32.9433 C81.0124,32.9773 80.8704,33.0103 80.7274,33.0443 C80.4404,33.1113 80.1504,33.1793 79.8584,33.2483 C79.5674,33.3263 79.2744,33.4043 78.9784,33.4833 C78.3844,33.6333 77.7944,33.8303 77.1884,34.0083 C76.8874,34.1023 76.5894,34.2093 76.2864,34.3103 C75.9844,34.4153 75.6764,34.5093 75.3784,34.6283 C74.7764,34.8583 74.1634,35.0743 73.5654,35.3363 C73.2634,35.4623 72.9624,35.5883 72.6604,35.7153 L71.7674,36.1273 C71.1674,36.3923 70.5864,36.6963 70.0034,36.9923 L69.5654,37.2143 L69.1374,37.4513 C68.8534,37.6103 68.5704,37.7683 68.2884,37.9253 C68.0024,38.0793 67.7284,38.2483 67.4554,38.4163 C67.1814,38.5833 66.9094,38.7503 66.6374,38.9153 C66.3644,39.0753 66.1044,39.2553 65.8434,39.4283 C65.5834,39.6023 65.3244,39.7753 65.0674,39.9463 C64.0524,40.6503 63.0864,41.3543 62.2064,42.0693 C61.9834,42.2453 61.7644,42.4193 61.5494,42.5903 C61.3404,42.7703 61.1334,42.9473 60.9314,43.1213 C60.5304,43.4733 60.1314,43.8013 59.7674,44.1383 C59.4064,44.4773 59.0594,44.8023 58.7304,45.1123 C58.5674,45.2683 58.4024,45.4153 58.2524,45.5673 C58.1024,45.7203 57.9574,45.8693 57.8164,46.0123 C57.2574,46.5933 56.7504,47.0813 56.3724,47.5223 C55.5964,48.3853 55.1534,48.8783 55.1534,48.8783" id="Fill-43" fill="#EE3E58"></path>
                                <path d="M6.9474,54.4686 C6.9474,54.4686 7.5244,54.3546 8.5344,54.1546 C9.0394,54.0546 9.6514,53.9336 10.3554,53.7946 C11.0644,53.6656 11.8774,53.5396 12.7564,53.3916 C13.1954,53.3196 13.6534,53.2446 14.1284,53.1666 C14.6024,53.1026 15.0934,53.0356 15.5964,52.9686 C16.6044,52.8336 17.6654,52.6786 18.7694,52.5726 C19.8714,52.4556 21.0084,52.3196 22.1694,52.2356 C22.7484,52.1876 23.3324,52.1386 23.9184,52.0906 C24.5044,52.0406 25.0934,52.0146 25.6824,51.9766 C26.2714,51.9416 26.8604,51.9066 27.4474,51.8726 C28.0344,51.8486 28.6194,51.8256 29.1994,51.8026 C30.3594,51.7466 31.5024,51.7386 32.6064,51.7116 C33.7124,51.6976 34.7804,51.6966 35.7924,51.6996 C36.8044,51.7146 37.7614,51.7206 38.6444,51.7516 C39.5274,51.7726 40.3374,51.8076 41.0524,51.8396 C41.7694,51.8716 42.3934,51.9086 42.9084,51.9406 C43.9354,52.0066 44.5214,52.0616 44.5214,52.0616 C44.5214,52.0616 43.9334,52.0366 42.9044,52.0246 C42.3904,52.0196 41.7654,52.0146 41.0504,52.0186 C40.3334,52.0246 39.5254,52.0306 38.6434,52.0566 C37.7624,52.0716 36.8084,52.1146 35.8014,52.1526 C34.7924,52.2006 33.7294,52.2576 32.6324,52.3286 C31.5344,52.4126 30.3994,52.4786 29.2494,52.5946 C28.6754,52.6476 28.0944,52.7006 27.5134,52.7536 C26.9324,52.8186 26.3504,52.8836 25.7674,52.9476 C25.1854,53.0166 24.6014,53.0726 24.0234,53.1516 C23.4454,53.2306 22.8694,53.3076 22.2984,53.3856 C21.1534,53.5286 20.0354,53.7216 18.9514,53.8936 C17.8664,54.0546 16.8264,54.2626 15.8384,54.4476 C15.3444,54.5396 14.8644,54.6306 14.4004,54.7176 C13.9404,54.8176 13.4964,54.9146 13.0694,55.0076 C12.2174,55.1976 11.4374,55.3586 10.7444,55.5216 C10.0494,55.6976 9.4434,55.8496 8.9444,55.9756 C7.9464,56.2276 7.3764,56.3716 7.3764,56.3716 C6.8534,56.5036 6.3224,56.1876 6.1904,55.6646 C6.0584,55.1426 6.3754,54.6126 6.8974,54.4796 C6.9134,54.4756 6.9314,54.4716 6.9474,54.4686" id="Fill-45" fill="#EE3E58"></path>
                                <path d="M69.3731,78.2582 C69.3731,78.2582 68.4121,76.7562 66.9711,74.5032 C66.6111,73.9392 66.2211,73.3292 65.8081,72.6832 C65.4041,72.0282 64.9361,71.3822 64.4641,70.6982 C63.9901,70.0172 63.5001,69.3122 63.0021,68.5962 C62.7531,68.2382 62.5021,67.8772 62.2501,67.5142 C62.1221,67.3342 62.0001,67.1492 61.8681,66.9712 L61.4651,66.4422 C60.9281,65.7352 60.3901,65.0292 59.8601,64.3332 C59.5961,63.9852 59.3331,63.6392 59.0731,63.2982 C58.8131,62.9572 58.5311,62.6422 58.2681,62.3202 C57.7321,61.6822 57.2151,61.0652 56.7251,60.4792 C56.4851,60.1802 56.2251,59.9172 55.9811,59.6532 C55.7371,59.3892 55.5011,59.1352 55.2731,58.8912 C55.0461,58.6472 54.8281,58.4132 54.6211,58.1902 C54.4101,57.9722 54.1961,57.7792 54.0031,57.5902 C53.8081,57.4022 53.6241,57.2262 53.4551,57.0642 C53.2861,56.9012 53.1321,56.7502 52.9791,56.6282 C52.6831,56.3782 52.4511,56.1772 52.2891,56.0452 C52.1211,55.9202 52.0321,55.8542 52.0321,55.8542 C52.0321,55.8542 52.1261,55.9142 52.3021,56.0282 C52.4731,56.1482 52.7171,56.3322 53.0331,56.5632 C53.1941,56.6752 53.3581,56.8152 53.5381,56.9662 C53.7201,57.1182 53.9151,57.2812 54.1241,57.4562 C54.3311,57.6322 54.5591,57.8132 54.7861,58.0172 C55.0091,58.2262 55.2431,58.4452 55.4871,58.6742 C55.7321,58.9042 55.9871,59.1432 56.2511,59.3902 C56.5131,59.6392 56.7951,59.8872 57.0551,60.1702 C57.5881,60.7242 58.1491,61.3082 58.7301,61.9122 C59.0181,62.2182 59.3251,62.5162 59.6091,62.8412 C59.8941,63.1652 60.1811,63.4942 60.4711,63.8252 C61.0511,64.4882 61.6411,65.1622 62.2291,65.8362 L62.6721,66.3412 C62.8171,66.5112 62.9531,66.6892 63.0941,66.8622 C63.3731,67.2102 63.6511,67.5572 63.9281,67.9012 C64.4791,68.5902 65.0231,69.2682 65.5501,69.9242 C66.0731,70.5822 66.5981,71.2112 67.0411,71.8322 C67.4971,72.4482 67.9281,73.0302 68.3261,73.5682 C69.9181,75.7172 70.9781,77.1502 70.9781,77.1502 L70.9791,77.1512 C71.3011,77.5842 71.2091,78.1962 70.7761,78.5162 C70.3431,78.8372 69.7311,78.7462 69.4111,78.3132 C69.3971,78.2962 69.3851,78.2762 69.3731,78.2582" id="Fill-47" fill="#EE3E58"></path>
                                <path d="M83.0938,55.3505 C83.0938,55.3505 82.9958,55.2825 82.8148,55.1545 C82.6318,55.0285 82.3638,54.8325 82.0258,54.6035 C81.8608,54.5015 81.6768,54.3885 81.4778,54.2655 C81.2778,54.1425 81.0678,54.0035 80.8168,53.8745 C80.5728,53.7415 80.3118,53.5995 80.0358,53.4495 C79.7528,53.3135 79.4548,53.1705 79.1448,53.0205 C78.9898,52.9435 78.8288,52.8725 78.6618,52.8045 C78.4958,52.7345 78.3268,52.6635 78.1558,52.5905 C77.8148,52.4385 77.4478,52.3115 77.0748,52.1725 C76.7038,52.0275 76.3128,51.9045 75.9128,51.7755 C75.5168,51.6395 75.1018,51.5285 74.6808,51.4095 C73.8388,51.1725 72.9548,50.9695 72.0508,50.7855 C71.5988,50.6925 71.1388,50.6195 70.6788,50.5345 C70.2158,50.4655 69.7518,50.3895 69.2848,50.3285 C68.3518,50.2095 67.4138,50.1045 66.4878,50.0395 C65.5608,49.9645 64.6458,49.9275 63.7598,49.8975 C62.8728,49.8765 62.0148,49.8685 61.1998,49.8825 C60.3858,49.8905 59.6158,49.9235 58.9058,49.9555 C56.0618,50.1005 54.1788,50.3915 54.1788,50.3915 C54.1788,50.3915 56.0378,49.9795 58.8798,49.6525 C59.5908,49.5735 60.3618,49.4915 61.1788,49.4305 C61.9968,49.3635 62.8618,49.3165 63.7568,49.2795 C64.6528,49.2525 65.5788,49.2305 66.5218,49.2465 C67.4648,49.2525 68.4238,49.2975 69.3818,49.3585 C69.8618,49.3895 70.3398,49.4365 70.8178,49.4765 C71.2938,49.5325 71.7698,49.5785 72.2398,49.6435 C73.1808,49.7735 74.1058,49.9235 74.9938,50.1125 C75.4378,50.2075 75.8758,50.2965 76.2998,50.4115 C76.7248,50.5195 77.1418,50.6215 77.5418,50.7485 C77.9428,50.8695 78.3358,50.9785 78.7068,51.1165 C78.8948,51.1815 79.0778,51.2455 79.2578,51.3075 C79.4398,51.3685 79.6148,51.4335 79.7848,51.5045 C80.1268,51.6425 80.4538,51.7755 80.7658,51.9015 C81.0718,52.0425 81.3618,52.1775 81.6338,52.3045 C81.9068,52.4235 82.1608,52.5655 82.3968,52.6915 C82.6318,52.8175 82.8478,52.9335 83.0428,53.0385 C83.4078,53.2535 83.6798,53.4255 83.8718,53.5415 C84.0628,53.6575 84.1638,53.7195 84.1638,53.7195 C84.6238,54.0005 84.7698,54.6015 84.4888,55.0615 C84.2068,55.5215 83.6068,55.6665 83.1468,55.3855 C83.1288,55.3745 83.1108,55.3625 83.0938,55.3505" id="Fill-49" fill="#EE3E58"></path>
                                <path d="M74.5138,28.8944 C74.5138,28.8944 73.6878,29.5164 72.4488,30.4474 C71.8288,30.9134 71.1068,31.4574 70.3308,32.0404 C69.9448,32.3314 69.5438,32.6314 69.1378,32.9374 C68.7428,33.2534 68.3418,33.5744 67.9408,33.8954 C67.1368,34.5394 66.3328,35.1834 65.5788,35.7874 C65.3908,35.9384 65.2058,36.0874 65.0248,36.2334 C64.8468,36.3834 64.6728,36.5304 64.5038,36.6734 C64.1648,36.9594 63.8448,37.2304 63.5488,37.4804 C63.2528,37.7304 62.9818,37.9594 62.7418,38.1624 C62.4988,38.3644 62.2948,38.5474 62.1248,38.6964 C61.7848,38.9954 61.5918,39.1654 61.5918,39.1654 C61.5918,39.1654 61.7638,38.9734 62.0668,38.6364 C62.2168,38.4684 62.3998,38.2614 62.6158,38.0334 C62.8308,37.8034 63.0738,37.5434 63.3378,37.2604 C63.6028,36.9764 63.8898,36.6684 64.1938,36.3444 C64.3458,36.1814 64.5018,36.0144 64.6608,35.8434 C64.8258,35.6764 64.9928,35.5064 65.1618,35.3324 C65.8438,34.6394 66.5718,33.9004 67.2998,33.1604 C67.6638,32.7904 68.0298,32.4194 68.3888,32.0554 C68.7558,31.7044 69.1178,31.3574 69.4688,31.0234 C70.1688,30.3534 70.8228,29.7284 71.3828,29.1924 C72.5038,28.1214 73.2508,27.4074 73.2508,27.4074 C73.6418,27.0344 74.2598,27.0484 74.6328,27.4384 C75.0058,27.8284 74.9928,28.4464 74.6018,28.8194 C74.5758,28.8454 74.5418,28.8724 74.5138,28.8944" id="Fill-51" fill="#EE3E58"></path>
                                <path d="M74.5421,19.1781 C74.5421,19.1781 73.8741,19.7091 72.8711,20.5051 C72.6221,20.7051 72.3451,20.9181 72.0651,21.1501 C71.7861,21.3821 71.4921,21.6271 71.1881,21.8811 C70.8831,22.1351 70.5671,22.3971 70.2471,22.6631 C69.9321,22.9371 69.6101,23.2151 69.2901,23.4931 C68.9701,23.7731 68.6491,24.0531 68.3341,24.3281 C68.0241,24.6101 67.7201,24.8871 67.4251,25.1551 C67.1281,25.4221 66.8441,25.6831 66.5801,25.9361 C66.3141,26.1871 66.0631,26.4251 65.8301,26.6441 C65.3751,27.0921 64.9911,27.4621 64.7321,27.7301 C64.4691,27.9951 64.3231,28.1511 64.3231,28.1511 C64.3231,28.1511 64.4451,27.9761 64.6681,27.6761 C64.8871,27.3721 65.2151,26.9511 65.6041,26.4411 C65.8031,26.1891 66.0201,25.9171 66.2471,25.6291 C66.4751,25.3391 66.7201,25.0391 66.9771,24.7311 C67.2321,24.4211 67.4961,24.1011 67.7651,23.7761 C68.0401,23.4561 68.3191,23.1311 68.5991,22.8061 C68.8791,22.4811 69.1601,22.1571 69.4371,21.8381 C69.7201,21.5231 69.9991,21.2141 70.2691,20.9141 C70.5401,20.6141 70.8021,20.3241 71.0501,20.0491 C71.2991,19.7741 71.5391,19.5271 71.7581,19.2931 C72.6371,18.3621 73.2231,17.7411 73.2231,17.7411 C73.5941,17.3481 74.2121,17.3301 74.6051,17.7011 C74.9981,18.0721 75.0161,18.6911 74.6461,19.0831 C74.6141,19.1161 74.5761,19.1501 74.5421,19.1781" id="Fill-53" fill="#EE3E58"></path>
                                <path d="M19.2608,13.0169 C19.2608,13.0169 19.4248,13.0939 19.7328,13.2379 C19.8858,13.3099 20.0748,13.3989 20.2978,13.5029 C20.4088,13.5549 20.5298,13.6109 20.6568,13.6709 C20.7878,13.7429 20.9268,13.8199 21.0738,13.8999 C21.3668,14.0639 21.6928,14.2449 22.0458,14.4409 C22.3918,14.6439 22.7398,14.8819 23.1258,15.1259 C23.3158,15.2519 23.5198,15.3699 23.7128,15.5129 C23.9068,15.6539 24.1078,15.7989 24.3138,15.9489 C24.5198,16.0979 24.7298,16.2499 24.9458,16.4069 C25.1568,16.5669 25.3658,16.7409 25.5828,16.9129 C26.0168,17.2599 26.4708,17.6179 26.9118,18.0179 C27.3608,18.4109 27.8278,18.8109 28.2798,19.2529 C28.5078,19.4699 28.7398,19.6899 28.9758,19.9129 C29.2118,20.1339 29.4348,20.3729 29.6688,20.6069 C29.9008,20.8429 30.1348,21.0809 30.3718,21.3209 C30.6018,21.5679 30.8328,21.8169 31.0668,22.0679 C31.2988,22.3199 31.5328,22.5739 31.7688,22.8299 C31.9978,23.0919 32.2288,23.3549 32.4608,23.6199 C32.9308,24.1449 33.3818,24.6969 33.8408,25.2479 L34.1858,25.6619 L34.5228,26.0849 C34.7468,26.3679 34.9728,26.6509 35.1988,26.9349 C35.6478,27.5049 36.0808,28.0889 36.5248,28.6659 C36.9518,29.2539 37.3878,29.8359 37.8078,30.4259 C38.2228,31.0189 38.6478,31.6019 39.0458,32.1949 C39.4498,32.7849 39.8508,33.3709 40.2338,33.9569 C40.6228,34.5389 40.9968,35.1209 41.3638,35.6929 C42.0988,36.8379 42.7858,37.9579 43.4318,39.0239 C44.0708,40.0949 44.6668,41.1099 45.2028,42.0549 C47.3558,45.8329 48.6188,48.4399 48.6188,48.4399 C48.6188,48.4399 47.2458,45.8879 44.9418,42.2119 C44.3668,41.2909 43.7298,40.3049 43.0478,39.2659 C42.3618,38.2309 41.6298,37.1439 40.8508,36.0369 C40.4628,35.4819 40.0658,34.9199 39.6548,34.3579 C39.2488,33.7909 38.8268,33.2269 38.4018,32.6589 C37.9818,32.0859 37.5348,31.5259 37.0998,30.9549 C36.6578,30.3889 36.2028,29.8299 35.7548,29.2659 C35.2928,28.7139 34.8388,28.1539 34.3718,27.6099 C34.1378,27.3399 33.9038,27.0689 33.6698,26.7999 L33.3208,26.3959 L32.9638,26.0019 C32.4888,25.4789 32.0218,24.9549 31.5378,24.4579 C31.2998,24.2079 31.0628,23.9589 30.8268,23.7119 C30.5848,23.4709 30.3458,23.2319 30.1078,22.9949 C29.8688,22.7589 29.6318,22.5249 29.3978,22.2929 C29.1568,22.0679 28.9178,21.8459 28.6828,21.6259 C28.4458,21.4079 28.2178,21.1839 27.9798,20.9779 C27.7418,20.7709 27.5078,20.5679 27.2768,20.3669 C26.8208,19.9559 26.3528,19.5889 25.9058,19.2289 C25.4638,18.8599 25.0138,18.5369 24.5858,18.2229 C24.3708,18.0669 24.1648,17.9079 23.9558,17.7639 C23.7448,17.6239 23.5388,17.4879 23.3378,17.3549 C23.1378,17.2219 22.9418,17.0919 22.7518,16.9659 C22.5628,16.8379 22.3668,16.7369 22.1848,16.6249 C21.8158,16.4129 21.4718,16.1999 21.1518,16.0299 C20.8308,15.8679 20.5368,15.7199 20.2718,15.5859 C20.1388,15.5189 20.0128,15.4559 19.8948,15.3959 C19.7648,15.3419 19.6428,15.2909 19.5298,15.2429 C19.3018,15.1479 19.1098,15.0679 18.9518,15.0019 C18.6398,14.8709 18.4728,14.8019 18.4728,14.8019 L18.4708,14.8009 C17.9738,14.5929 17.7398,14.0209 17.9478,13.5239 C18.1558,13.0269 18.7268,12.7919 19.2238,12.9999 C19.2358,13.0049 19.2498,13.0119 19.2608,13.0169" id="Fill-55" fill="#EE3E58"></path>
                                <path d="M25.4181,10.0218 C25.4181,10.0218 25.5711,10.1628 25.8401,10.4088 C25.9751,10.5338 26.1371,10.6768 26.3251,10.8568 C26.5151,11.0468 26.7281,11.2608 26.9611,11.4948 C27.1991,11.7258 27.4191,11.9888 27.6701,12.2598 C27.9211,12.5288 28.1661,12.8268 28.4211,13.1328 C28.6811,13.4358 28.9321,13.7618 29.1871,14.0908 C29.4461,14.4168 29.6891,14.7628 29.9391,15.1028 C30.1891,15.4418 30.4201,15.7948 30.6561,16.1338 C30.8841,16.4798 31.1081,16.8188 31.3181,17.1508 C31.7361,17.8178 32.1121,18.4458 32.4191,18.9928 C32.7291,19.5378 32.9741,19.9988 33.1411,20.3228 C33.3091,20.6468 33.3971,20.8348 33.3971,20.8348 C33.3971,20.8348 32.9341,20.1428 32.1661,19.1618 C31.7851,18.6688 31.3251,18.1068 30.8211,17.5178 C30.5691,17.2238 30.3011,16.9258 30.0311,16.6228 C29.7531,16.3268 29.4801,16.0198 29.1891,15.7268 C28.8991,15.4348 28.6181,15.1358 28.3221,14.8608 C28.0311,14.5818 27.7471,14.3058 27.4581,14.0558 C27.1741,13.8008 26.9001,13.5528 26.6271,13.3358 C26.3571,13.1188 26.1071,12.8958 25.8681,12.7258 C25.6321,12.5488 25.4161,12.3868 25.2241,12.2438 C25.0231,12.1008 24.8331,11.9768 24.6851,11.8748 C24.3831,11.6708 24.2101,11.5538 24.2101,11.5538 L24.2091,11.5528 C23.7621,11.2508 23.6451,10.6428 23.9471,10.1948 C24.2501,9.7478 24.8581,9.6298 25.3061,9.9328 C25.3441,9.9598 25.3841,9.9918 25.4181,10.0218" id="Fill-57" fill="#EE3E58"></path>
                                <path d="M18.836,17.8255 C18.836,17.8255 19.031,17.9455 19.373,18.1555 C19.544,18.2605 19.751,18.3875 19.989,18.5335 C20.228,18.6835 20.502,18.8715 20.797,19.0665 C20.944,19.1645 21.098,19.2665 21.257,19.3735 C21.414,19.4815 21.57,19.5965 21.733,19.7135 C22.058,19.9515 22.406,20.1895 22.747,20.4615 C23.091,20.7315 23.454,20.9965 23.803,21.2935 C24.155,21.5845 24.517,21.8745 24.862,22.1835 C25.036,22.3365 25.211,22.4885 25.385,22.6395 C25.554,22.7955 25.723,22.9515 25.891,23.1055 C26.229,23.4095 26.547,23.7235 26.858,24.0245 C27.168,24.3255 27.458,24.6265 27.735,24.9085 C28.007,25.1975 28.268,25.4645 28.497,25.7225 C29.429,26.7405 29.987,27.4685 29.987,27.4685 C29.987,27.4685 29.337,26.8205 28.286,25.9425 C28.026,25.7195 27.734,25.4905 27.431,25.2435 C27.121,25.0025 26.799,24.7465 26.456,24.4925 C26.112,24.2395 25.761,23.9745 25.392,23.7215 C25.209,23.5945 25.024,23.4655 24.839,23.3355 C24.65,23.2115 24.462,23.0865 24.273,22.9605 C23.898,22.7065 23.51,22.4715 23.133,22.2365 C22.759,21.9965 22.374,21.7875 22.01,21.5725 C21.649,21.3555 21.282,21.1725 20.943,20.9875 C20.773,20.8975 20.608,20.8055 20.448,20.7235 C20.287,20.6455 20.131,20.5695 19.982,20.4965 C19.682,20.3515 19.416,20.2155 19.165,20.1005 C18.91,19.9875 18.688,19.8885 18.504,19.8075 C18.138,19.6455 17.929,19.5525 17.929,19.5525 C17.435,19.3335 17.212,18.7565 17.431,18.2625 C17.649,17.7685 18.227,17.5465 18.721,17.7645 C18.759,17.7825 18.801,17.8045 18.836,17.8255" id="Fill-59" fill="#EE3E58"></path>
                                <path d="M9.9522,48.6215 C9.9522,48.6215 10.4812,48.5625 11.4082,48.4595 C11.8712,48.4085 12.4332,48.3465 13.0792,48.2745 C13.2412,48.2575 13.4072,48.2395 13.5792,48.2205 C13.7542,48.2075 13.9322,48.1945 14.1172,48.1815 C14.4852,48.1535 14.8732,48.1255 15.2762,48.0955 C16.0842,48.0425 16.9592,47.9545 17.8812,47.9345 C18.3412,47.9165 18.8142,47.8995 19.2992,47.8815 C19.7832,47.8685 20.2762,47.8325 20.7792,47.8395 C21.7852,47.8405 22.8242,47.8215 23.8792,47.8385 C24.4052,47.8535 24.9372,47.8685 25.4712,47.8845 C26.0042,47.9015 26.5392,47.9075 27.0732,47.9455 C27.6072,47.9775 28.1422,48.0095 28.6752,48.0405 C28.9402,48.0575 29.2062,48.0685 29.4702,48.0915 C29.7342,48.1145 29.9982,48.1375 30.2602,48.1605 C30.7842,48.2065 31.3052,48.2525 31.8182,48.2975 C32.3322,48.3505 32.8382,48.4135 33.3352,48.4695 C34.3322,48.5735 35.2892,48.7245 36.1982,48.8505 C36.6522,48.9125 37.0922,48.9955 37.5182,49.0635 C37.9432,49.1365 38.3552,49.1985 38.7482,49.2785 C39.1412,49.3535 39.5182,49.4255 39.8762,49.4935 C40.2342,49.5635 40.5722,49.6405 40.8892,49.7065 C41.5262,49.8375 42.0762,49.9785 42.5302,50.0835 C43.4352,50.3095 43.9452,50.4625 43.9452,50.4625 C43.9452,50.4625 43.4272,50.3395 42.5132,50.1645 C42.0532,50.0865 41.4982,49.9775 40.8562,49.8845 C40.5362,49.8355 40.1962,49.7785 39.8362,49.7295 C39.4752,49.6825 39.0972,49.6315 38.7012,49.5795 C38.3062,49.5225 37.8932,49.4845 37.4662,49.4365 C37.0392,49.3925 36.5982,49.3355 36.1432,49.2995 C35.2322,49.2255 34.2752,49.1315 33.2802,49.0845 C32.7832,49.0575 32.2792,49.0225 31.7672,49.0005 C31.2562,48.9845 30.7382,48.9685 30.2172,48.9535 C29.9552,48.9445 29.6932,48.9365 29.4312,48.9285 C29.1692,48.9215 28.9042,48.9255 28.6402,48.9235 C28.1122,48.9225 27.5832,48.9215 27.0532,48.9215 C26.5232,48.9135 25.9932,48.9375 25.4662,48.9505 C24.9382,48.9655 24.4132,48.9805 23.8922,48.9965 C22.8512,49.0385 21.8282,49.1165 20.8392,49.1715 C20.3442,49.1935 19.8582,49.2565 19.3842,49.2965 C18.9082,49.3415 18.4442,49.3855 17.9922,49.4285 C17.0852,49.4995 16.2422,49.6355 15.4602,49.7315 C15.0692,49.7825 14.6952,49.8315 14.3392,49.8785 C14.1612,49.9015 13.9882,49.9245 13.8192,49.9465 C13.6492,49.9745 13.4842,50.0015 13.3242,50.0285 C12.6842,50.1375 12.1272,50.2315 11.6672,50.3085 C10.7482,50.4645 10.2232,50.5535 10.2232,50.5535 C9.6912,50.6435 9.1872,50.2855 9.0982,49.7545 C9.0082,49.2225 9.3662,48.7195 9.8972,48.6295 C9.9152,48.6255 9.9352,48.6235 9.9522,48.6215" id="Fill-61" fill="#EE3E58"></path>
                                <path d="M17.6495,40.0629 C17.6495,40.0629 18.0495,40.1399 18.7525,40.2749 C19.1045,40.3459 19.5265,40.4179 20.0205,40.5259 C20.5155,40.6389 21.0745,40.7679 21.6835,40.9069 C21.9895,40.9739 22.3015,41.0539 22.6245,41.1409 C22.9465,41.2259 23.2795,41.3139 23.6225,41.4039 C24.3095,41.5759 25.0235,41.7949 25.7645,42.0099 C26.5065,42.2189 27.2625,42.4699 28.0345,42.7129 C28.8065,42.9509 29.5785,43.2319 30.3565,43.4919 C31.1315,43.7589 31.8995,44.0469 32.6595,44.3189 C33.4125,44.6079 34.1565,44.8819 34.8695,45.1669 C36.2975,45.7279 37.6215,46.2749 38.7485,46.7609 C39.8755,47.2449 40.8065,47.6639 41.4565,47.9629 C42.1055,48.2609 42.4725,48.4399 42.4725,48.4399 C42.4725,48.4399 42.0935,48.2889 41.4235,48.0409 C40.7545,47.7909 39.7955,47.4419 38.6375,47.0449 C37.4815,46.6459 36.1255,46.2009 34.6655,45.7489 C33.9365,45.5199 33.1775,45.3029 32.4105,45.0719 C31.6375,44.8589 30.8565,44.6309 30.0695,44.4249 C29.2815,44.2249 28.4995,44.0039 27.7185,43.8269 C26.9405,43.6449 26.1775,43.4519 25.4325,43.3019 C24.6885,43.1459 23.9725,42.9819 23.2875,42.8649 C22.9455,42.8009 22.6135,42.7399 22.2925,42.6809 C21.9695,42.6189 21.6605,42.5629 21.3635,42.5219 C20.7695,42.4319 20.2265,42.3489 19.7445,42.2749 C19.2595,42.2059 18.8215,42.1649 18.4685,42.1209 C17.7585,42.0379 17.3535,41.9909 17.3535,41.9909 L17.3515,41.9909 C16.8165,41.9289 16.4325,41.4439 16.4955,40.9089 C16.5565,40.3739 17.0425,39.9899 17.5775,40.0519 C17.6005,40.0549 17.6265,40.0589 17.6495,40.0629" id="Fill-63" fill="#EE3E58"></path>
                                <path d="M8.877,25.453 C8.877,25.453 9.157,25.544 9.648,25.703 C9.896,25.786 10.19,25.874 10.537,25.996 C10.884,26.121 11.275,26.262 11.703,26.415 C12.131,26.566 12.575,26.752 13.056,26.937 C13.535,27.119 14.03,27.336 14.546,27.55 C15.063,27.761 15.586,28.003 16.121,28.238 C16.657,28.472 17.19,28.733 17.73,28.981 C18.266,29.234 18.797,29.497 19.321,29.752 C19.842,30.016 20.356,30.268 20.848,30.526 C21.834,31.035 22.745,31.524 23.522,31.953 C25.075,32.807 26.085,33.418 26.085,33.418 C26.085,33.418 25.018,32.915 23.389,32.227 C22.574,31.882 21.621,31.491 20.594,31.088 C20.081,30.884 19.546,30.687 19.006,30.48 C18.462,30.282 17.911,30.077 17.357,29.882 C16.802,29.693 16.251,29.492 15.7,29.317 C15.151,29.14 14.614,28.956 14.088,28.803 C13.563,28.645 13.059,28.484 12.573,28.356 C12.091,28.225 11.634,28.087 11.214,27.987 C10.796,27.884 10.412,27.789 10.071,27.705 C9.73,27.623 9.416,27.562 9.166,27.507 C8.661,27.399 8.372,27.337 8.372,27.337 L8.371,27.337 C7.844,27.224 7.507,26.705 7.62,26.178 C7.732,25.65 8.252,25.314 8.779,25.427 C8.813,25.433 8.846,25.443 8.877,25.453" id="Fill-65" fill="#EE3E58"></path>
                                <path d="M1.6017,36.7396 C1.6017,36.7396 1.8727,36.7276 2.3457,36.7076 C2.5847,36.6996 2.8637,36.6786 3.2067,36.6776 C3.5507,36.6786 3.9397,36.6796 4.3637,36.6816 C4.7877,36.6816 5.2307,36.7176 5.7057,36.7366 C6.1807,36.7506 6.6767,36.8076 7.1917,36.8476 C7.7057,36.8836 8.2327,36.9596 8.7687,37.0186 C9.3047,37.0786 9.8447,37.1696 10.3857,37.2446 C10.9247,37.3306 11.4627,37.4246 11.9917,37.5176 C12.5187,37.6216 13.0387,37.7116 13.5367,37.8226 C14.5367,38.0286 15.4617,38.2476 16.2517,38.4456 C17.8317,38.8416 18.8677,39.1656 18.8677,39.1656 C18.8677,39.1656 17.8017,38.9596 16.1947,38.7446 C15.3907,38.6376 14.4517,38.5246 13.4447,38.4326 C12.9417,38.3796 12.4197,38.3486 11.8917,38.3046 C11.3627,38.2716 10.8267,38.2396 10.2897,38.2156 C9.7517,38.2016 9.2157,38.1726 8.6887,38.1736 C8.1617,38.1756 7.6427,38.1576 7.1427,38.1796 C6.6427,38.1976 6.1597,38.1966 5.7047,38.2346 C5.2497,38.2676 4.8137,38.2816 4.4267,38.3266 C4.0397,38.3676 3.6857,38.4066 3.3717,38.4406 C3.0567,38.4756 2.7637,38.5316 2.5327,38.5656 C2.0647,38.6386 1.7967,38.6806 1.7967,38.6806 L1.7947,38.6806 C1.2617,38.7646 0.7617,38.4006 0.6777,37.8676 C0.5947,37.3346 0.9587,36.8346 1.4927,36.7506 C1.5287,36.7446 1.5657,36.7416 1.6017,36.7396" id="Fill-67" fill="#EE3E58"></path>
                                <path d="M26.0352,68.8666 C26.0352,68.8666 26.2782,68.6126 26.7062,68.1666 C26.9212,67.9446 27.1742,67.6726 27.4802,67.3646 C27.7972,67.0576 28.1542,66.7126 28.5432,66.3356 C28.9282,65.9506 29.3672,65.5776 29.8192,65.1616 C30.2682,64.7456 30.7632,64.3296 31.2712,63.8976 C31.7742,63.4596 32.3122,63.0306 32.8572,62.5916 C33.3962,62.1466 33.9652,61.7216 34.5252,61.2876 C35.0852,60.8536 35.6622,60.4416 36.2212,60.0246 C36.7882,59.6196 37.3452,59.2196 37.8892,58.8426 C38.4362,58.4686 38.9622,58.1016 39.4702,57.7686 C39.9732,57.4296 40.4552,57.1176 40.9012,56.8316 C41.3452,56.5426 41.7602,56.2896 42.1222,56.0596 C42.4892,55.8356 42.8092,55.6396 43.0732,55.4796 C43.6012,55.1606 43.9082,54.9866 43.9082,54.9866 C43.9082,54.9866 43.6182,55.1866 43.1192,55.5496 C42.8712,55.7316 42.5692,55.9536 42.2232,56.2076 C41.8832,56.4686 41.4922,56.7556 41.0772,57.0806 C40.6582,57.4036 40.2082,57.7546 39.7372,58.1346 C39.2622,58.5076 38.7722,58.9166 38.2632,59.3336 C37.7562,59.7546 37.2392,60.1986 36.7142,60.6466 C36.1972,61.1066 35.6632,61.5616 35.1482,62.0376 C34.6342,62.5136 34.1102,62.9796 33.6192,63.4626 C33.1222,63.9406 32.6312,64.4066 32.1762,64.8776 C31.7162,65.3436 31.2682,65.7906 30.8662,66.2346 C30.4632,66.6756 30.0612,67.0806 29.7302,67.4746 C29.3922,67.8646 29.0832,68.2206 28.8072,68.5366 C28.5362,68.8616 28.3032,69.1606 28.1092,69.3986 C27.7222,69.8796 27.5012,70.1536 27.5012,70.1536 L27.5002,70.1546 C27.1622,70.5746 26.5482,70.6406 26.1282,70.3036 C25.7072,69.9646 25.6402,69.3496 25.9792,68.9296 C25.9962,68.9086 26.0152,68.8866 26.0352,68.8666" id="Fill-69" fill="#EE3E58"></path>
                                <path d="M9.8917,61.3983 L11.9277,60.6753 C12.2277,60.5633 12.5767,60.4613 12.9377,60.3483 C13.2977,60.2363 13.6787,60.1183 14.0737,59.9963 C14.2697,59.9363 14.4687,59.8743 14.6707,59.8123 C14.8737,59.7563 15.0787,59.7003 15.2867,59.6443 C15.6987,59.5313 16.1187,59.4163 16.5377,59.3013 C16.9547,59.1823 17.3797,59.0883 17.7937,58.9833 C18.2087,58.8823 18.6177,58.7833 19.0117,58.6863 C19.8067,58.5133 20.5427,58.3373 21.1807,58.2133 C21.8167,58.0823 22.3467,57.9783 22.7187,57.9103 C23.0907,57.8433 23.3037,57.8043 23.3037,57.8043 C23.3037,57.8043 23.0987,57.8723 22.7407,57.9913 C22.3807,58.1103 21.8717,58.2883 21.2627,58.5063 C20.6527,58.7183 19.9497,58.9963 19.1937,59.2763 C18.8187,59.4263 18.4317,59.5813 18.0377,59.7383 C17.6457,59.8993 17.2447,60.0493 16.8517,60.2253 C16.4567,60.3963 16.0637,60.5663 15.6757,60.7333 C15.4827,60.8173 15.2897,60.9003 15.1007,60.9823 C14.9147,61.0703 14.7317,61.1563 14.5507,61.2413 C14.1917,61.4113 13.8437,61.5753 13.5137,61.7313 C13.1847,61.8883 12.8747,62.0263 12.5877,62.1843 C11.4397,62.7843 10.6737,63.1853 10.6737,63.1853 L10.6717,63.1863 C10.1937,63.4373 9.6027,63.2523 9.3527,62.7733 C9.1017,62.2943 9.2877,61.7043 9.7657,61.4533 C9.8047,61.4323 9.8507,61.4133 9.8917,61.3983" id="Fill-71" fill="#EE3E58"></path>
                                <path d="M53.2091,77.8143 C53.2091,77.8143 53.1691,76.9223 53.1081,75.5853 C53.0931,75.2503 53.0781,74.8873 53.0481,74.5113 C53.0221,74.1323 52.9931,73.7333 52.9651,73.3203 C52.9331,72.9073 52.9111,72.4793 52.8691,72.0433 C52.8281,71.6083 52.7871,71.1663 52.7461,70.7243 C52.7051,70.2813 52.6661,69.8373 52.6131,69.4033 C52.5641,68.9683 52.5161,68.5403 52.4691,68.1253 C52.4261,67.7093 52.3661,67.3113 52.3191,66.9313 C52.2691,66.5513 52.2271,66.1913 52.1771,65.8613 C52.0811,65.2003 52.0011,64.6473 51.9371,64.2633 C51.8731,63.8773 51.8371,63.6573 51.8371,63.6573 C51.8371,63.6573 51.9031,63.8703 52.0191,64.2443 C52.1351,64.6173 52.2891,65.1533 52.4751,65.7983 C52.5691,66.1203 52.6601,66.4713 52.7631,66.8413 C52.8611,67.2133 52.9761,67.6033 53.0751,68.0103 C53.1791,68.4173 53.2861,68.8373 53.3951,69.2643 C53.5071,69.6913 53.6061,70.1273 53.7081,70.5643 C53.8111,71.0013 53.9121,71.4373 54.0131,71.8673 C54.1151,72.2963 54.1961,72.7263 54.2861,73.1383 C54.3721,73.5523 54.4561,73.9533 54.5361,74.3323 C54.6191,74.7133 54.6841,75.0693 54.7431,75.3983 C54.9851,76.7153 55.1471,77.5933 55.1471,77.5933 C55.2451,78.1243 54.8941,78.6343 54.3621,78.7323 C53.8321,78.8303 53.3221,78.4783 53.2251,77.9473 C53.2171,77.9053 53.2111,77.8563 53.2091,77.8143" id="Fill-73" fill="#EE3E58"></path>
                                <path d="M38.7765,73.4452 C38.7765,73.4452 38.8195,73.2802 38.8955,72.9902 C38.9335,72.8462 38.9795,72.6702 39.0325,72.4682 C39.0915,72.2612 39.1725,72.0162 39.2535,71.7582 C39.2945,71.6282 39.3375,71.4922 39.3815,71.3532 C39.4325,71.2182 39.4845,71.0792 39.5385,70.9372 C39.6455,70.6522 39.7545,70.3512 39.8905,70.0492 C40.0215,69.7462 40.1515,69.4322 40.3075,69.1242 C40.3825,68.9682 40.4585,68.8122 40.5345,68.6552 C40.6115,68.5002 40.6975,68.3472 40.7785,68.1932 C40.9385,67.8832 41.1125,67.5812 41.2865,67.2872 C41.4535,66.9892 41.6405,66.7092 41.8105,66.4332 C41.9885,66.1622 42.1615,65.9012 42.3315,65.6582 C42.5035,65.4172 42.6645,65.1882 42.8215,64.9832 C43.4395,64.1562 43.9085,63.6572 43.9085,63.6572 C43.9085,63.6572 43.5365,64.2322 43.0805,65.1442 C42.9635,65.3702 42.8475,65.6212 42.7235,65.8842 C42.6015,66.1482 42.4805,66.4302 42.3565,66.7212 C42.2415,67.0162 42.1105,67.3152 42.0025,67.6282 C41.8865,67.9392 41.7745,68.2552 41.6755,68.5752 C41.6255,68.7352 41.5705,68.8922 41.5245,69.0522 C41.4795,69.2122 41.4355,69.3722 41.3915,69.5302 C41.2975,69.8442 41.2295,70.1592 41.1585,70.4622 C41.0825,70.7622 41.0335,71.0582 40.9825,71.3372 C40.9565,71.4762 40.9315,71.6112 40.9085,71.7412 C40.8915,71.8702 40.8755,71.9942 40.8605,72.1132 C40.8305,72.3532 40.7985,72.5632 40.7785,72.7622 C40.7625,72.9702 40.7485,73.1512 40.7365,73.3002 C40.7135,73.5982 40.7005,73.7692 40.7005,73.7692 C40.6595,74.3082 40.1875,74.7122 39.6485,74.6702 C39.1095,74.6282 38.7065,74.1572 38.7475,73.6182 C38.7525,73.5612 38.7625,73.4992 38.7765,73.4452" id="Fill-75" fill="#EE3E58"></path>
                                <path d="M68.0792,67.8856 C68.0792,67.8856 68.0472,67.8266 67.9852,67.7176 C67.9252,67.6116 67.8342,67.4386 67.7232,67.2496 C67.6672,67.1596 67.6052,67.0616 67.5392,66.9536 C67.5062,66.8986 67.4712,66.8426 67.4352,66.7836 C67.3942,66.7246 67.3522,66.6626 67.3082,66.5996 C67.2212,66.4736 67.1322,66.3356 67.0292,66.1956 C66.9252,66.0556 66.8152,65.9086 66.7012,65.7556 C66.4632,65.4546 66.1992,65.1306 65.9032,64.7976 C65.6092,64.4656 65.2862,64.1226 64.9402,63.7756 C64.5952,63.4286 64.2252,63.0816 63.8412,62.7336 C63.4532,62.3906 63.0552,62.0466 62.6432,61.7136 C61.0062,60.3746 59.2302,59.1846 57.8652,58.3496 C56.4992,57.5126 55.5442,57.0246 55.5442,57.0246 C55.5442,57.0246 56.5482,57.4016 58.0092,58.0816 C59.4712,58.7606 61.3882,59.7486 63.2152,60.9226 C63.6732,61.2146 64.1232,61.5206 64.5622,61.8286 C64.9992,62.1416 65.4242,62.4586 65.8272,62.7796 C66.2292,63.0996 66.6112,63.4226 66.9662,63.7406 C67.3202,64.0576 67.6432,64.3746 67.9392,64.6726 C68.0842,64.8246 68.2232,64.9716 68.3542,65.1116 C68.4842,65.2526 68.6012,65.3946 68.7162,65.5236 C68.7712,65.5886 68.8262,65.6526 68.8792,65.7136 C68.9312,65.7786 68.9812,65.8426 69.0292,65.9036 C69.1252,66.0256 69.2132,66.1376 69.2932,66.2396 C69.4422,66.4386 69.5402,66.5826 69.6162,66.6866 C69.6892,66.7886 69.7282,66.8436 69.7282,66.8436 C70.0422,67.2816 69.9412,67.8916 69.5022,68.2056 C69.0632,68.5196 68.4532,68.4186 68.1392,67.9806 C68.1172,67.9496 68.0972,67.9176 68.0792,67.8856" id="Fill-77" fill="#EE3E58"></path>
                                <path d="M81.878,61.8993 C81.878,61.8993 81.734,61.7723 81.483,61.5483 C81.357,61.4363 81.204,61.3003 81.029,61.1443 C80.941,61.0673 80.849,60.9843 80.75,60.8983 C80.652,60.8173 80.55,60.7323 80.443,60.6453 C80.229,60.4673 79.995,60.2753 79.749,60.0733 C79.491,59.8783 79.22,59.6723 78.939,59.4603 C78.66,59.2403 78.354,59.0473 78.051,58.8313 C77.748,58.6133 77.425,58.4223 77.107,58.2173 C76.791,58.0083 76.457,57.8353 76.137,57.6433 C75.812,57.4623 75.484,57.2953 75.168,57.1333 C74.847,56.9843 74.538,56.8273 74.236,56.7063 C73.937,56.5743 73.649,56.4633 73.38,56.3643 C73.112,56.2673 72.863,56.1843 72.641,56.1173 C72.417,56.0493 72.221,55.9963 72.059,55.9583 C71.732,55.8793 71.541,55.8543 71.541,55.8543 C71.541,55.8543 71.733,55.8493 72.071,55.8753 C72.24,55.8873 72.444,55.9093 72.678,55.9413 C72.912,55.9723 73.176,56.0153 73.461,56.0703 C73.747,56.1273 74.057,56.1923 74.38,56.2773 C74.707,56.3523 75.042,56.4603 75.396,56.5603 C75.743,56.6723 76.104,56.7903 76.465,56.9213 C76.822,57.0633 77.196,57.1883 77.552,57.3493 C77.91,57.5063 78.277,57.6513 78.621,57.8243 C78.967,57.9953 79.319,58.1473 79.641,58.3253 C79.966,58.4993 80.28,58.6663 80.579,58.8253 C80.874,58.9983 81.153,59.1623 81.41,59.3133 C81.54,59.3893 81.663,59.4613 81.781,59.5313 C81.893,59.6023 81.998,59.6693 82.097,59.7323 C82.295,59.8573 82.467,59.9683 82.608,60.0583 C82.893,60.2393 83.055,60.3433 83.055,60.3433 C83.51,60.6333 83.645,61.2383 83.354,61.6943 C83.064,62.1493 82.458,62.2833 82.002,61.9933 C81.96,61.9663 81.915,61.9323 81.878,61.8993" id="Fill-79" fill="#EE3E58"></path>
                                <path d="M75.5802,55.8529 C75.5802,55.8529 75.4182,55.7519 75.1352,55.5759 C74.9922,55.4869 74.8202,55.3799 74.6232,55.2569 C74.4322,55.1509 74.2162,55.0319 73.9812,54.9009 C73.8622,54.8369 73.7422,54.7659 73.6112,54.6989 C73.4762,54.6339 73.3382,54.5669 73.1952,54.4979 C73.0532,54.4289 72.9052,54.3569 72.7552,54.2849 C72.6042,54.2119 72.4452,54.1499 72.2862,54.0799 C71.9662,53.9419 71.6352,53.7989 71.2892,53.6749 C71.1162,53.6099 70.9422,53.5449 70.7682,53.4789 C70.5922,53.4199 70.4142,53.3609 70.2362,53.3009 C69.8822,53.1769 69.5202,53.0739 69.1652,52.9699 C68.8092,52.8619 68.4532,52.7809 68.1112,52.6889 C67.7662,52.6099 67.4322,52.5289 67.1122,52.4659 C66.7942,52.4009 66.4912,52.3409 66.2102,52.2949 C65.6482,52.1959 65.1772,52.1349 64.8452,52.0969 C64.5142,52.0589 64.3232,52.0459 64.3232,52.0459 C64.3232,52.0459 64.5132,52.0279 64.8482,52.0129 C65.1832,51.9989 65.6612,51.9829 66.2372,51.9909 C66.5252,51.9919 66.8382,52.0029 67.1682,52.0169 C67.4992,52.0279 67.8472,52.0559 68.2082,52.0789 C68.5672,52.1169 68.9422,52.1399 69.3202,52.1919 C69.6982,52.2389 70.0842,52.2859 70.4672,52.3529 C70.6582,52.3849 70.8512,52.4159 71.0422,52.4479 C71.2322,52.4869 71.4222,52.5249 71.6102,52.5629 C71.9882,52.6339 72.3562,52.7259 72.7132,52.8169 C72.8912,52.8629 73.0682,52.9009 73.2382,52.9519 C73.4092,53.0029 73.5752,53.0529 73.7372,53.1009 C73.9002,53.1499 74.0592,53.1979 74.2122,53.2439 C74.3652,53.2929 74.5142,53.3499 74.6562,53.3999 C74.9422,53.5039 75.2042,53.5999 75.4362,53.6839 C75.6512,53.7739 75.8382,53.8529 75.9922,53.9169 C76.3012,54.0459 76.4762,54.1209 76.4762,54.1209 C76.9752,54.3299 77.2102,54.9029 77.0012,55.4009 C76.7922,55.8999 76.2182,56.1339 75.7202,55.9249 C75.6732,55.9059 75.6222,55.8789 75.5802,55.8529" id="Fill-81" fill="#EE3E58"></path>
                                <path d="M84.586,39.2977 C84.586,39.2977 84.355,39.2767 83.951,39.2387 C83.749,39.2197 83.504,39.1967 83.222,39.1707 C82.95,39.1537 82.65,39.1457 82.318,39.1297 C82.152,39.1237 81.98,39.1117 81.799,39.1087 C81.616,39.1097 81.428,39.1107 81.233,39.1117 C81.039,39.1127 80.839,39.1137 80.635,39.1147 C80.431,39.1147 80.222,39.1317 80.01,39.1407 C79.584,39.1597 79.144,39.1787 78.697,39.2247 C78.474,39.2447 78.248,39.2647 78.022,39.2847 C77.796,39.3127 77.569,39.3397 77.342,39.3677 C76.888,39.4187 76.436,39.4917 75.989,39.5637 C75.542,39.6287 75.107,39.7247 74.683,39.7997 C74.262,39.8907 73.853,39.9747 73.468,40.0687 C73.083,40.1617 72.718,40.2497 72.385,40.3427 C71.715,40.5207 71.163,40.6937 70.777,40.8187 C70.393,40.9447 70.176,41.0267 70.176,41.0267 C70.176,41.0267 70.38,40.9167 70.746,40.7407 C71.113,40.5657 71.64,40.3197 72.286,40.0537 C72.607,39.9167 72.96,39.7807 73.334,39.6357 C73.708,39.4907 74.107,39.3527 74.521,39.2047 C74.938,39.0717 75.365,38.9167 75.809,38.7907 C76.25,38.6587 76.7,38.5237 77.156,38.4107 C77.384,38.3517 77.611,38.2927 77.839,38.2337 C78.067,38.1827 78.296,38.1317 78.523,38.0807 C78.974,37.9727 79.425,37.8937 79.861,37.8147 C80.08,37.7767 80.294,37.7317 80.506,37.7027 C80.719,37.6737 80.926,37.6447 81.128,37.6167 C81.33,37.5897 81.527,37.5627 81.718,37.5367 C81.911,37.5147 82.101,37.5007 82.281,37.4837 C82.643,37.4527 82.98,37.4207 83.271,37.4007 C83.553,37.3897 83.799,37.3807 84.002,37.3727 C84.407,37.3567 84.64,37.3477 84.64,37.3477 C85.179,37.3267 85.633,37.7467 85.654,38.2867 C85.675,38.8257 85.254,39.2807 84.715,39.3007 C84.673,39.3027 84.626,39.3007 84.586,39.2977" id="Fill-83" fill="#EE3E58"></path>
                                <path d="M53.9825,13.8685 C53.9825,13.8685 53.9595,14.8255 53.9235,16.2605 C53.9085,16.6215 53.8675,17.0245 53.8365,17.4435 C53.8035,17.8625 53.7685,18.3045 53.7325,18.7615 C53.6985,19.2185 53.6275,19.6775 53.5745,20.1505 C53.5165,20.6205 53.4595,21.0985 53.4005,21.5775 C53.3285,22.0525 53.2555,22.5285 53.1835,22.9955 C53.1105,23.4635 53.0475,23.9235 52.9645,24.3665 C52.8855,24.8085 52.8105,25.2375 52.7385,25.6425 C52.6705,26.0495 52.5895,26.4305 52.5215,26.7835 C52.3855,27.4895 52.2625,28.0745 52.1735,28.4835 C52.0845,28.8925 52.0325,29.1265 52.0325,29.1265 C52.0325,29.1265 52.0535,28.8885 52.0905,28.4715 C52.1275,28.0545 52.1745,27.4595 52.2185,26.7435 C52.2425,26.3865 52.2725,25.9995 52.2895,25.5895 C52.3085,25.1805 52.3295,24.7485 52.3505,24.3015 C52.3775,23.8555 52.3795,23.3925 52.3935,22.9245 C52.4055,22.4565 52.4165,21.9805 52.4275,21.5045 C52.4245,21.0295 52.4215,20.5545 52.4195,20.0865 C52.4115,19.6205 52.4235,19.1585 52.3995,18.7195 C52.3785,18.2815 52.3575,17.8585 52.3385,17.4575 C52.3165,17.0555 52.3085,16.6825 52.2795,16.3285 C52.1315,14.9015 52.0335,13.9505 52.0335,13.9505 L52.0325,13.9455 C51.9775,13.4085 52.3675,12.9275 52.9045,12.8715 C53.4415,12.8165 53.9215,13.2065 53.9775,13.7435 C53.9815,13.7845 53.9835,13.8295 53.9825,13.8685" id="Fill-85" fill="#EE3E58"></path>
                            </g>
                        </g>
                    </g>
                </g>
            </g>
        </g>
    </g>
</svg>