<?xml version="1.0" encoding="UTF-8"?>
<svg width="64px" height="64px" viewBox="0 0 64 64" version="1.1" xmlns="http://www.w3.org/2000/svg" xmlns:xlink="http://www.w3.org/1999/xlink">
    <!-- Generator: Sketch 61.2 (89653) - https://sketch.com -->
    <title>Dance</title>
    <desc>Created with Sketch.</desc>
    <g id="Page-1" stroke="none" stroke-width="1" fill="none" fill-rule="evenodd">
        <g id="Instincts-2017" transform="translate(-112.000000, -5433.000000)">
            <g id="Dance" transform="translate(112.000000, 5433.000000)">
                <circle id="Oval-Copy-3" fill="#E6E6E6" fill-rule="nonzero" cx="32" cy="32" r="32"></circle>
                <g id="download-(3)-copy" transform="translate(14.000000, 18.000000)">
                    <g id="Group" transform="translate(0.450000, 0.900000)" fill="#FC3D4B">
                        <path d="M0.753093145,4.75666089 L0.546668347,4.46996371 C-0.352415323,3.22082903 -0.0771350806,1.47316815 1.16134294,0.5664 L1.16134294,0.5664 C2.39982097,-0.340368145 4.1328127,-0.0628064516 5.0318256,1.18632823 L5.2382504,1.4730254 L0.753093145,4.75666089 Z" id="Path"></path>
                        <path d="M34.3469069,4.75666089 L34.5533317,4.46996371 C35.4524153,3.2209004 35.1772058,1.47309677 33.9386571,0.5664 L33.9386571,0.5664 C32.700179,-0.340368145 30.9671873,-0.0628064516 30.0681744,1.18632823 L29.8617496,1.4730254 L34.3469069,4.75666089 Z" id="Path"></path>
                        <rect id="Rectangle" x="10.7729401" y="24.274194" width="13.5536244" height="2.24376048"></rect>
                    </g>
                    <polyline id="Path" fill="#529DF7" points="14.85 25.2 31.0021669 4.5 32.4 5.77138691 23.2367169 25.2"></polyline>
                    <polyline id="Path" fill="#F9BF64" points="21.15 25.2 4.99776269 4.5 3.6 5.77138691 12.7632831 25.2"></polyline>
                    <polygon id="Path" fill="#9AD14B" points="14.4 24.75 21.15 24.75 17.7750359 20.7"></polygon>
                    <g id="Group" fill="#333333" fill-rule="nonzero">
                        <path d="M32.4781875,5.10232036 C32.1886406,4.95936881 31.8411563,5.08369639 31.7014453,5.37952268 L22.7080547,24.4366608 L21.5830547,24.4366608 L18.7443281,20.8008162 L31.2838594,4.74012371 C31.48425,4.48334304 31.4433281,4.10906598 31.1921719,3.9039866 C30.9411563,3.69897912 30.5751094,3.74090103 30.3745781,3.9976817 L17.9999297,19.8473985 L5.722875,4.12315979 C5.52248438,3.86645103 5.1564375,3.82445722 4.90528125,4.02946469 C4.65419531,4.23440026 4.61320313,4.60882113 4.81366406,4.8656018 L17.2554609,20.801032 L14.416875,24.4368046 L13.2919453,24.4368046 L4.29855469,5.37945077 C4.15884375,5.08348067 3.81107813,4.95936881 3.52188281,5.10224845 C3.23261719,5.24505619 3.1111875,5.60070928 3.25082813,5.89653557 L12.0001641,24.4365889 L11.2665234,24.4365889 C10.9452656,24.4365889 10.6848281,24.7029332 10.6848281,25.0314773 L10.6848281,26.697208 L5.43529688,26.697208 C5.11403906,26.697208 4.85360156,26.9635523 4.85360156,27.2920964 C4.85360156,27.6206405 5.11403906,27.8869848 5.43529688,27.8869848 L30.5647031,27.8869848 C30.8860313,27.8869848 31.1463984,27.6206405 31.1463984,27.2920964 C31.1463984,26.9635523 30.8860313,26.697208 30.5647031,26.697208 L25.3151016,26.697208 L25.3151016,25.0314773 C25.3151016,24.7029332 25.0547344,24.4365889 24.7334063,24.4365889 L23.9998359,24.4365889 L32.7491719,5.89653557 C32.8888828,5.60078119 32.7674531,5.24512809 32.4781875,5.10232036 Z M17.9999297,21.7543059 L20.0941875,24.4366608 L15.9056719,24.4366608 L17.9999297,21.7543059 Z M24.1517813,26.6972799 L11.8482188,26.6972799 L11.8482188,25.6264376 L24.1517813,25.6264376 L24.1517813,26.6972799 Z" id="Shape"></path>
                        <path d="M6.341625,2.15261443 C6.3658125,1.9968634 6.32854687,1.8374451 6.23784375,1.7098817 L6.0328125,1.42095851 C5.50940625,0.683693814 4.7368125,0.198967268 3.85692187,0.0560157216 C2.9773125,-0.0869358247 2.09559375,0.129145361 1.37467969,0.66442268 C-0.113554688,1.76927706 -0.445359375,3.90628763 0.634921875,5.42813196 L0.840023437,5.71698325 C0.953789062,5.87726443 1.13125781,5.96247448 1.31125781,5.96247448 C1.42966406,5.96247448 1.54926562,5.92558608 1.65241406,5.84893299 L6.10882031,2.54062577 C6.23376563,2.44808119 6.3174375,2.30843737 6.341625,2.15261443 Z M1.44977344,4.52929175 C0.904570313,3.55847242 1.15263281,2.29944897 2.0581875,1.62726031 C2.44272656,1.34178866 2.88878906,1.20444588 3.331125,1.20444588 C3.93039844,1.20444588 4.52257031,1.4567683 4.94472656,1.93480747 L1.44977344,4.52929175 Z" id="Shape"></path>
                        <path d="M34.6253203,0.664494588 C33.9044062,0.129217268 33.0226172,-0.0867920103 32.1430078,0.0562314433 C31.2631875,0.199111082 30.4904531,0.683909536 29.9671172,1.42117423 L29.7620156,1.71002552 C29.6713828,1.83766082 29.6341172,1.99700722 29.6582344,2.15275825 C29.6824922,2.30850928 29.7661641,2.448225 29.8909687,2.54084149 L34.3473047,5.84914871 C34.4505234,5.9258018 34.5700547,5.9626183 34.6886016,5.9626183 C34.8684609,5.9626183 35.046,5.87748015 35.1597656,5.71712706 L35.3648672,5.42827577 C36.4453594,3.90635954 36.1135547,1.76934897 34.6253203,0.664494588 Z M34.5503672,4.52936366 L31.0552734,1.93466366 C31.3865156,1.55866082 31.8299766,1.31158763 32.3255391,1.23112345 C32.8987266,1.13814742 33.4724062,1.27879794 33.9418828,1.62733222 C34.4113594,1.97586649 34.7199609,2.49043454 34.8109453,3.07633454 C34.8895547,3.5831366 34.7973047,4.09087345 34.5503672,4.52936366 Z" id="Shape"></path>
                    </g>
                </g>
            </g>
        </g>
    </g>
</svg>