<?xml version="1.0" encoding="UTF-8"?>
<svg width="84px" height="84px" viewBox="0 0 84 84" version="1.1" xmlns="http://www.w3.org/2000/svg" xmlns:xlink="http://www.w3.org/1999/xlink">
    <!-- Generator: Sketch 61.2 (89653) - https://sketch.com -->
    <title>icon/dual-tone/discoverable</title>
    <desc>Created with Sketch.</desc>
    <defs>
        <linearGradient x1="50%" y1="0%" x2="50%" y2="100%" id="linearGradient-1">
            <stop stop-color="#E3E5E8" offset="0%"></stop>
            <stop stop-color="#C2C6CC" offset="100%"></stop>
        </linearGradient>
        <linearGradient x1="50%" y1="0%" x2="50%" y2="100%" id="linearGradient-2">
            <stop stop-color="#A5ADB7" offset="0%"></stop>
            <stop stop-color="#6C7580" offset="100%"></stop>
        </linearGradient>
    </defs>
    <g id="icon/dual-tone/discoverable" stroke="none" stroke-width="1" fill="none" fill-rule="evenodd">
        <g id="v2/icon/timeline">
            <rect id="Rectangle" x="0" y="0" width="84" height="84"></rect>
            <path d="M54.691774,54.1712803 C55.2440587,54.1712803 55.691774,54.6189955 55.691774,55.1712803 L55.691774,55.1712803 L55.691774,69 C55.691774,69.5522847 55.2440587,70 54.691774,70 L54.691774,70 L30.4357186,70 C29.8834339,70 29.4357186,69.5522847 29.4357186,69 L29.4357186,69 L29.4357186,55.1712803 C29.4357186,54.6189955 29.8834339,54.1712803 30.4357186,54.1712803 L30.4357186,54.1712803 Z M70.2204168,34.0614187 C70.7727015,34.0614187 71.2204168,34.5091339 71.2204168,35.0614187 L71.2204168,35.0614187 L71.2204168,48.8719723 C71.2204168,49.4242571 70.7727015,49.8719723 70.2204168,49.8719723 L70.2204168,49.8719723 L30.4357186,49.8719723 C29.8834339,49.8719723 29.4357186,49.4242571 29.4357186,48.8719723 L29.4357186,48.8719723 L29.4357186,35.0614187 C29.4357186,34.5091339 29.8834339,34.0614187 30.4357186,34.0614187 L30.4357186,34.0614187 Z M60.7336809,14 C61.2859657,14 61.7336809,14.4477153 61.7336809,15 L61.7336809,15 L61.7336809,28.8287197 C61.7336809,29.3810045 61.2859657,29.8287197 60.7336809,29.8287197 L60.7336809,29.8287197 L30.4357186,29.8287197 C29.8834339,29.8287197 29.4357186,29.3810045 29.4357186,28.8287197 L29.4357186,28.8287197 L29.4357186,15 C29.4357186,14.4477153 29.8834339,14 30.4357186,14 L30.4357186,14 Z" id="Combined-Shape" fill="url(#linearGradient-1)"></path>
            <path d="M24.524819,21.865917 C24.5269442,19.1170447 22.4128812,16.8296987 19.6723502,16.6157068 C16.9318191,16.4017148 14.4883333,18.3331886 14.0637478,21.0490735 C13.6391623,23.7649583 15.3765555,26.3500461 18.0516356,26.982699 L18.0516356,36.8650519 C15.682667,37.4277933 14.0103372,39.5439161 14.0103372,41.9788062 C14.0103372,44.4136963 15.682667,46.5298192 18.0516356,47.0925606 L18.0516356,56.9688581 C15.4529826,57.5834352 13.72666,60.0469947 14.0360318,62.6993504 C14.3454036,65.3517062 16.5923708,67.3518196 19.2627082,67.3518196 C21.9330457,67.3518196 24.1800128,65.3517062 24.4893847,62.6993504 C24.7987565,60.0469947 23.0724338,57.5834352 20.4737809,56.9688581 L20.4737809,47.0925606 C22.8427494,46.5298192 24.5150792,44.4136963 24.5150792,41.9788062 C24.5150792,39.5439161 22.8427494,37.4277933 20.4737809,36.8650519 L20.4737809,26.982699 C22.8451991,26.4195885 24.5207205,24.3032723 24.524819,21.865917 Z" id="Shape" fill="url(#linearGradient-2)" fill-rule="nonzero"></path>
        </g>
    </g>
</svg>