<?xml version="1.0" encoding="UTF-8"?>
<svg width="24px" height="24px" viewBox="0 0 24 24" version="1.1" xmlns="http://www.w3.org/2000/svg" xmlns:xlink="http://www.w3.org/1999/xlink">
    <!-- Generator: Sketch 61.2 (89653) - https://sketch.com -->
    <title>icon/download</title>
    <desc>Created with Sketch.</desc>
    <g id="icon/download" stroke="none" stroke-width="1" fill="none" fill-rule="evenodd">
        <g id="Group-4">
            <rect id="Rectangle" x="0" y="0" width="24" height="24"></rect>
            <path fill="#fff" d="M18.5,18 C19.3284271,18 20,18.6715729 20,19.5 C20,20.3284271 19.3284271,21 18.5,21 L5.5,21 C4.67157288,21 4,20.3284271 4,19.5 C4,18.6715729 4.67157288,18 5.5,18 L18.5,18 Z M12,3 C12.8628248,3 13.5623808,3.70171085 13.5623808,4.56719342 L13.5623808,4.56719342 L13.5623808,10.6480345 L15.3138097,8.89121066 C15.326504,8.87808541 15.3391984,8.86515607 15.3522833,8.85261852 C15.9729391,8.25140394 16.9621214,8.26864307 17.5614897,8.89121066 C18.1608581,9.51377824 18.1436719,10.5060076 17.5230161,11.1072221 L17.5230161,11.1072221 L13.1061656,15.5392451 C12.9616454,15.6840146 12.7901741,15.7992033 12.6015166,15.8777589 C12.2169756,16.040747 11.7830244,16.040747 11.3984834,15.8777589 C11.2098259,15.7990074 11.0383546,15.6840146 10.8938344,15.5392451 L10.8938344,15.5392451 L6.47698389,11.1072221 C6.46389895,11.0946846 6.45120461,11.0817553 6.43851027,11.06863 C5.83914193,10.4460624 5.85632812,9.45383309 6.47698389,8.85261852 C7.09763966,8.25140394 8.086822,8.26864307 8.68619034,8.89121066 L8.68619034,8.89121066 L10.4376192,10.6480345 L10.4376192,4.56719342 C10.4376192,3.70171085 11.1371752,3 12,3 Z" id="Combined-Shape" class="fill-color" fill-rule="nonzero"></path>
        </g>
    </g>
</svg>