<?xml version="1.0" encoding="UTF-8"?>
<svg width="84px" height="84px" viewBox="0 0 84 84" version="1.1" xmlns="http://www.w3.org/2000/svg" xmlns:xlink="http://www.w3.org/1999/xlink">
    <!-- Generator: Sketch 61.2 (89653) - https://sketch.com -->
    <title>icon/dual-tone/efficiency</title>
    <desc>Created with Sketch.</desc>
    <defs>
        <linearGradient x1="50%" y1="0%" x2="50%" y2="100%" id="linearGradient-1">
            <stop stop-color="#E3E5E8" offset="0%"></stop>
            <stop stop-color="#C2C6CC" offset="100%"></stop>
        </linearGradient>
        <linearGradient x1="50%" y1="0%" x2="50%" y2="100%" id="linearGradient-2">
            <stop stop-color="#A5ADB7" offset="0%"></stop>
            <stop stop-color="#6C7580" offset="100%"></stop>
        </linearGradient>
    </defs>
    <g id="icon/dual-tone/efficiency" stroke="none" stroke-width="1" fill="none" fill-rule="evenodd">
        <g id="v2/icon/timeline-copy-4">
            <rect id="Rectangle" x="0" y="0" width="84" height="84"></rect>
            <g id="lightening-(1)" transform="translate(4.000000, 12.000000)">
                <polygon id="Path" fill="url(#linearGradient-1)" points="76.5333333 0 50.0484848 0 34.4537879 26.1818182 44.9083333 26.1818182 31.9272727 59.9272727 75.3136364 16.4848485 64.6848485 16.4848485"></polygon>
                <path d="M31.4761908,20 L29,25 L1,25 C0.44771525,25 5.45703585e-12,24.5522847 5.45696821e-12,24 L5.45696821e-12,21 C5.45690058e-12,20.4477153 0.44771525,20 1,20 L31.4761908,20 Z M36.8815293,10 L34.5114922,15 L8,15 C7.44771525,15 7,14.5522847 7,14 L7,11 C7,10.4477153 7.44771525,10 8,10 L36.8815293,10 Z M41.754866,0 L39,5 L16,5 C15.4477153,5 15,4.55228475 15,4 L15,1 C15,0.44771525 15.4477153,1.01453063e-16 16,0 L41.754866,0 Z" id="Combined-Shape" fill="url(#linearGradient-2)" fill-rule="nonzero"></path>
            </g>
        </g>
    </g>
</svg>