<?xml version="1.0" encoding="UTF-8"?>
<svg width="84px" height="84px" viewBox="0 0 84 84" version="1.1" xmlns="http://www.w3.org/2000/svg" xmlns:xlink="http://www.w3.org/1999/xlink">
    <!-- Generator: Sketch 61.2 (89653) - https://sketch.com -->
    <title>icon/dual-tone/engagement</title>
    <desc>Created with Sketch.</desc>
    <defs>
        <linearGradient x1="50%" y1="0%" x2="50%" y2="100%" id="linearGradient-1">
            <stop stop-color="#A5ADB7" offset="0%"></stop>
            <stop stop-color="#6C7580" offset="100%"></stop>
        </linearGradient>
        <linearGradient x1="50%" y1="0%" x2="50%" y2="100%" id="linearGradient-2">
            <stop stop-color="#E3E5E8" offset="0%"></stop>
            <stop stop-color="#C2C6CC" offset="100%"></stop>
        </linearGradient>
    </defs>
    <g id="icon/dual-tone/engagement" stroke="none" stroke-width="1" fill="none" fill-rule="evenodd">
        <g id="v2/icon/timeline-copy-5">
            <rect id="Rectangle" x="0" y="0" width="84" height="84"></rect>
            <g id="Group-12" transform="translate(42.000000, 42.412109) scale(-1, 1) translate(-42.000000, -42.412109) translate(7.000000, 15.000000)">
                <path d="M3.23638916,20.6390329 C5.45913703,22.3117015 8.00979621,23.3627268 10.585022,24.3400522 C9.08699039,26.6071268 8.203125,29.3169352 8.203125,32.2376963 C8.203125,40.1657816 14.7672272,46.593165 22.6953125,46.593165 C23.3992005,46.593165 24.0726471,46.4842173 24.7498322,46.3859507 C26.4011383,49.0092417 28.4893036,51.3222452 30.9230042,53.2261606 C28.3712769,54.2275187 25.6021881,54.79629 22.6953125,54.79629 C10.2368164,54.79629 1.16573418e-14,44.6961924 1.16573418e-14,32.2376963 C1.16573418e-14,27.9903361 1.19575504,24.0313668 3.23638916,20.6390329 Z M16.5392303,0.430826789 C20.429306,-0.979619481 24.4155121,1.20147196 25.8377075,5.10276282 C27.6887513,10.1944681 23.8312531,15.2829691 20.2840423,21.6676279 C19.7921753,22.5525613 18.7176514,22.9520364 17.7584839,22.5846048 C10.5396271,19.8363444 4.52507016,18.4162851 2.72369385,13.4661051 C1.27159115,9.4772288 3.08044434,5.27953579 6.83914191,3.90967804 C8.95401008,3.14650974 11.0133362,3.53316745 12.5535583,4.35187775 C13.2045746,2.7379557 14.4222259,1.20147196 16.5392303,0.430826789 Z" id="Combined-Shape" fill="url(#linearGradient-1)" fill-rule="nonzero"></path>
                <path d="M39.9704743,10.9223886 C40.5606079,13.4201761 41.7611694,15.9046121 43.2287598,18.5407205 C37.299652,20.3063151 32.9492188,25.7355447 32.9492188,32.2376963 C32.9492188,40.1657816 39.3766022,46.593165 47.3046875,46.593165 C55.2327728,46.593165 61.796875,40.1657816 61.796875,32.2376963 C61.796875,29.3169352 60.7768249,26.6076608 59.2782593,24.3405862 C61.8721771,23.355784 64.5446014,22.3090311 66.7636108,20.6390329 C68.804779,24.0313668 70,27.9903361 70,32.2376963 C70,44.6961924 59.7631836,54.79629 47.3046875,54.79629 C34.8461914,54.79629 24.7460938,44.6961924 24.7460938,32.2376963 C24.7460938,22.3501536 31.1174011,13.9697213 39.9704743,10.9223886 Z M44.1622925,5.10489905 C45.5908966,1.18277991 49.5925903,-0.97481286 53.4613037,0.430826789 C55.5783081,1.20147196 56.7959595,2.7379557 57.4464417,4.35187775 C58.9845277,3.53476966 61.0422516,3.13422638 63.158722,3.90967804 C66.9200897,5.27900177 68.7284088,9.47669464 67.2763062,13.4661051 C65.4252624,18.5535379 59.1137695,19.9682565 52.2415161,22.5846048 C51.2818146,22.9525706 50.2072907,22.5520273 49.7159577,21.6676279 C45.9674072,14.9198099 42.3609162,10.0572153 44.1622925,5.10489905 Z" id="Combined-Shape" fill="url(#linearGradient-2)"></path>
            </g>
        </g>
    </g>
</svg>