<?xml version="1.0" encoding="UTF-8"?>
<svg width="64px" height="64px" viewBox="0 0 64 64" version="1.1" xmlns="http://www.w3.org/2000/svg" xmlns:xlink="http://www.w3.org/1999/xlink">
    <!-- Generator: Sketch 61.2 (89653) - https://sketch.com -->
    <title>Fine Arts</title>
    <desc>Created with Sketch.</desc>
    <g id="Page-1" stroke="none" stroke-width="1" fill="none" fill-rule="evenodd">
        <g id="Instincts-2017" transform="translate(-376.000000, -5433.000000)">
            <g id="Fine-Arts" transform="translate(376.000000, 5433.000000)">
                <circle id="Oval-Copy-3" fill="#E6E6E6" fill-rule="nonzero" cx="32" cy="32" r="32"></circle>
                <g id="download-(6)" transform="translate(16.000000, 16.000000)">
                    <path d="M29.4013255,18.3748616 L26.5445302,22.6931774 C24.7959454,25.3357661 23.5806316,28.2863158 22.958846,31.3795867 L9.93253801,31.3795867 L9.67447953,29.2471891 C9.55103314,28.2289903 8.99468226,27.3104094 8.14234698,26.739961 C7.52573879,26.3264561 7.01405068,25.7611852 6.65631189,25.0918051 C5.57860429,23.0747446 3.9877115,21.3447485 2.00851462,20.0951891 L1.72070175,19.913731 C0.557411306,19.1796023 0.234604288,17.627384 1.00965302,16.4909162 L1.04683041,16.4366472 C1.55259259,15.6950955 2.38191033,15.3232593 3.20374269,15.3701053 C3.68424172,15.3968655 4.16318129,15.5679688 4.57150877,15.8922105 C5.5897076,16.6999454 6.8214269,17.6772242 7.85671735,18.4976218 C7.94373489,18.5667992 8.0359922,18.6210682 8.12968421,18.6604912 C8.32973099,18.7452632 8.53950877,18.766846 8.73880702,18.7363431 C9.30775828,18.6493255 9.79274854,18.1368889 9.71758285,17.4652632 L8.86375049,9.86922417 L10.4710487,9.61185185 L13.5227135,9.12243275 L14.1831735,13.4169201 C14.2248421,13.683961 14.6145809,13.6646238 14.6301754,13.3953372 L15.0065029,6.66055361 L16.5758752,6.80633138 L19.8692554,7.11273294 L19.5464483,12.9706043 C19.5196881,13.445115 20.1883197,13.5760468 20.3430175,13.1253021 L21.5151657,9.70024172 L22.8836803,10.2134269 L25.7315556,11.2814659 L24.0714854,16.3442651 C23.8981988,16.8745419 24.5779961,17.2606004 24.9439064,16.8388616 L25.8527563,15.7916569 L29.4013255,18.3748616 Z" id="Path" fill="#F9BF64"></path>
                    <path d="M26.542347,8.80854581 L25.7316179,11.2815906 L22.8837427,10.2135517 L21.5152281,9.70036647 L22.3066199,7.38950487 C22.4382378,7.00569201 22.6621131,6.68219883 22.9454971,6.43374659 C23.3508304,6.07825341 23.8759298,5.87814425 24.4203665,5.87814425 C24.7134191,5.87814425 25.0123977,5.93615595 25.3002105,6.05960234 C25.5590175,6.17044834 25.7866355,6.3251462 25.9777622,6.51178168 C26.3756725,6.89927485 26.6158908,7.42362573 26.6493879,7.97847953 C26.6665419,8.25219493 26.6322963,8.53333333 26.542347,8.80854581 Z" id="Path" fill="#B3B3B3"></path>
                    <path d="M20.0261988,4.27009747 L19.8692554,7.11279532 L16.5758752,6.80639376 L15.0065029,6.66061598 L15.1552749,3.9994386 C15.165692,3.81124366 15.197692,3.62978558 15.2482183,3.45649903 C15.469848,2.6874386 16.0574503,2.0819961 16.8019337,1.82693177 C17.0496374,1.74215984 17.3151189,1.696 17.5903314,1.696 C17.6230799,1.696 17.6557661,1.69674854 17.6885146,1.69824561 C17.9250526,1.70791423 18.1518596,1.75107992 18.3653177,1.82244055 C18.6159532,1.9057154 18.848,2.02922417 19.0540351,2.18392203 C19.6349006,2.62050682 20.0119766,3.30847563 20.0291306,4.07753606 C20.0306277,4.14141131 20.0299415,4.20541131 20.0261988,4.27009747 Z" id="Path" fill="#529DF7"></path>
                    <path d="M13.5227135,9.12243275 L10.4710487,9.61185185 L8.86375049,9.86922417 L8.71497856,8.54755556 L8.408577,5.8245614 C8.39890838,5.7382924 8.39441715,5.65277193 8.39441715,5.56793762 C8.39441715,4.49540741 9.15081481,3.55087719 10.2255906,3.33667057 C10.5208889,3.27716179 10.8138791,3.27791033 11.0920858,3.33074464 C12.0128499,3.50328265 12.7714932,4.23815984 12.9232593,5.2228616 L13.5227135,9.12243275 Z" id="Path" fill="#FC3D4B"></path>
                    <g id="Group" transform="translate(13.847953, 0.499025)" fill="#2BA5F7">
                        <path d="M1.51410526,0.0589473684 C2.25415984,0.0589473684 2.86477973,0.612304094 2.95404288,1.32778168 C2.20955945,1.58290838 1.62195712,2.1882885 1.40032749,2.95734893 C0.651352827,2.90008577 0.0623157895,2.27380897 0.0623157895,1.51073684 C0.0622534113,0.708990253 0.712296296,0.0589473684 1.51410526,0.0589473684 Z" id="Path"></path>
                        <path d="M6.57166472,0.728327485 C7.37341131,0.728327485 8.02351657,1.37837037 8.02351657,2.18017934 C8.02351657,2.9819883 7.37347368,3.63203119 6.57166472,3.63203119 C6.43630409,3.63203119 6.30537232,3.6134425 6.18117739,3.57851072 C6.16408577,2.80945029 5.78700975,2.12148148 5.20608187,1.68489669 C5.40918519,1.12698635 5.94395322,0.728327485 6.57166472,0.728327485 Z" id="Path"></path>
                    </g>
                    <g id="Group" transform="translate(22.892788, 3.368421)" fill="#B3B3B3">
                        <path d="M1.69194542,0.0188382066 L2.407423,2.69118129 C2.11961014,2.56773489 1.8205692,2.5097232 1.52757895,2.5097232 C0.9831423,2.5097232 0.458042885,2.70976998 0.0527095517,3.06532554 C-0.321434698,1.27725536 1.69194542,0.0188382066 1.69194542,0.0188382066 Z" id="Path"></path>
                        <path d="M4.78895906,1.2839922 C4.78895906,1.2839922 5.34530994,3.59260819 3.82577778,4.60637817 L3.75660039,4.61012086 C3.70750877,3.78897466 3.20474074,3.03332554 2.407423,2.69118129 L4.78895906,1.2839922 Z" id="Path"></path>
                    </g>
                    <path d="M30.5601248,13.4980117 C31.3053567,14.1666433 31.4482027,15.2808421 30.8955945,16.1160858 L29.4013879,18.374924 L25.8528811,15.7918441 L27.6862378,13.6780351 C28.4255439,12.8264483 29.7197037,12.7453567 30.5593762,13.4980741 L30.5601248,13.4980741 L30.5601248,13.4980117 Z" id="Path" fill="#F9BF64"></path>
                    <polygon id="Path" fill="#F7B239" points="8.408577 5.8245614 8.71504094 8.54749318 5.73030799 7.58955166"></polygon>
                    <g id="Group" fill="#333333">
                        <path d="M30.9321481,13.0827602 C30.4136608,12.6179181 29.7454659,12.3859961 29.0504483,12.4295361 C28.3554932,12.4731384 27.7214815,12.7867758 27.2651228,13.3126862 L24.6736842,16.2993528 L27.0726862,8.98245614 C27.1460429,8.75870565 27.1897076,8.53252242 27.2063626,8.30814815 C27.8668226,7.78610526 28.253193,6.98454581 28.3262378,5.97345809 C28.3826901,5.19204678 28.230425,4.54861598 28.224,4.52154386 C28.1825809,4.34956725 28.0620039,4.20746979 27.8991345,4.13847953 C27.7362651,4.06955166 27.5503158,4.08196491 27.3979883,4.17197661 L25.6489045,5.20533333 L25.1236803,3.2428538 C25.0779571,3.072 24.9538869,2.93289669 24.789271,2.86808577 C24.6245926,2.80321248 24.4390799,2.82024172 24.2890604,2.91405848 C24.2654815,2.92877973 23.7063236,3.28152827 23.1994386,3.87904873 C22.5679844,4.62334503 22.2796725,5.43238986 22.3537154,6.23700585 C22.1003353,6.51614815 21.902846,6.84606628 21.7787758,7.20848343 L20.1622456,11.9303236 L20.5620897,4.68310331 C21.6038674,4.60968421 22.4292554,3.73925926 22.4292554,2.67901754 C22.4292554,1.5708694 21.5277661,0.669380117 20.4196179,0.669380117 C19.8036959,0.669380117 19.2329357,0.954697856 18.8574815,1.41723197 C18.502425,1.25180507 18.1144327,1.15699025 17.7106589,1.14083431 C17.5325068,1.1337232 17.3574737,1.14345419 17.186308,1.16703314 C16.8654347,0.473263158 16.1622456,0 15.3619961,0 C14.253848,0 13.3523587,0.901489279 13.3523587,2.00963743 C13.3523587,2.84169981 13.8700975,3.56909162 14.6065965,3.87025341 C14.6037271,3.90275244 14.6004834,3.93518908 14.5986121,3.96793762 L14.250729,10.185731 L13.4741832,5.13815205 C13.3554152,4.36591033 12.9374191,3.69397271 12.2971072,3.24609747 C11.6568577,2.79822222 10.882308,2.63597661 10.116117,2.78917739 C8.7782924,3.05677973 7.84935673,4.20391423 7.83688109,5.53300585 L5.42334503,7.12364912 C5.2440078,7.24173099 5.14850682,7.45231969 5.17757505,7.66509162 C5.20670565,7.87780117 5.35535283,8.05495517 5.55976608,8.120577 L8.20073294,8.96823392 L9.16304094,17.5276413 C9.2042729,17.8936764 8.94178558,18.0693957 8.86038207,18.1145575 C8.77910331,18.1596569 8.49153996,18.2889045 8.20335283,18.0604756 C7.16824951,17.2399532 5.93653021,16.2632982 4.91826901,15.4550019 C4.27128265,14.9414425 3.43192203,14.7180039 2.61589084,14.8420117 C1.79561793,14.9665809 1.05556335,15.4332943 0.58585575,16.1222612 L0.548803119,16.1765302 C0.0880155945,16.8523353 -0.0741052632,17.6656218 0.0921325536,18.4664951 C0.258432749,19.2673684 0.730947368,19.9487875 1.42272125,20.3854347 L1.71078363,20.5672047 C3.58156725,21.7478363 5.12168421,23.4033528 6.1645848,25.3546667 C6.56324366,26.1006472 7.13986745,26.7398986 7.83201559,27.2033684 C8.54618324,27.6815595 9.01576608,28.4508694 9.12043665,29.3141832 L9.37899415,31.4471423 C9.41292788,31.7272203 9.65058869,31.9378713 9.93272515,31.9378713 L22.9590331,31.9378713 C23.2247018,31.9378713 23.4535673,31.750425 23.5059025,31.4899961 C24.11777,28.4459415 25.2965302,25.58977 27.0094347,23.0009513 L31.3610604,16.4240468 C32.0609435,15.3658635 31.876616,13.9295439 30.9321481,13.0827602 Z M26.0125068,8.63482261 L25.3829864,10.5547602 L22.2185419,9.36814035 L22.8342144,7.5697154 C22.9869786,7.12352437 23.3084133,6.77233528 23.7394464,6.58089669 C24.1704795,6.38939571 24.6466121,6.38633918 25.0800156,6.57203899 C25.8842573,6.91680312 26.285037,7.80357115 26.0125068,8.63482261 Z M26.9441871,6.90969201 C26.7986589,6.60447563 26.5970526,6.32576998 26.3465419,6.08892008 L27.2223938,5.57149318 C27.2272593,5.98075634 27.1711813,6.48233918 26.9441871,6.90969201 Z M24.5255984,5.32416374 C24.1950565,5.31175049 23.8628928,5.35753606 23.5458869,5.46176998 C23.6904172,5.02031969 23.9900195,4.64249513 24.2688499,4.3648499 L24.5255984,5.32416374 Z M20.4195556,1.78501365 C20.9125302,1.78501365 21.3135595,2.18604288 21.3135595,2.67901754 C21.3135595,3.13306823 20.973037,3.50833528 20.5340819,3.5648499 C20.4315945,3.03045614 20.1842027,2.5328655 19.8082495,2.11936062 C19.793653,2.10326706 19.7783704,2.08817154 19.763462,2.07251462 C19.9299493,1.89348928 20.1662378,1.78501365 20.4195556,1.78501365 Z M17.6659961,2.25559454 C18.1734425,2.27592982 18.641154,2.49406628 18.9828616,2.86989474 C19.3244444,3.2457232 19.497232,3.73189864 19.4692865,4.23909552 L19.3443431,6.50354776 L15.5936686,6.15504094 L15.712499,4.03037817 C15.769575,3.01093177 16.646924,2.21536062 17.6659961,2.25559454 Z M14.4679922,2.00963743 C14.4679922,1.51666277 14.8690214,1.11563353 15.3619961,1.11563353 C15.6768187,1.11563353 15.9575205,1.28024951 16.1168967,1.53125926 C15.6072671,1.82206628 15.1878363,2.25808967 14.9191111,2.78449903 C14.649575,2.62948928 14.4679922,2.33818324 14.4679922,2.00963743 Z M10.3348772,3.88329045 C10.7995945,3.79040936 11.2693645,3.88877973 11.6576686,4.16043665 C12.0459727,4.43203119 12.2994776,4.83954776 12.3715244,5.30794542 L12.8870799,8.65939961 L9.35235867,9.22604288 L8.96293177,5.76205848 C8.86244055,4.86749318 9.45216374,4.05982066 10.3348772,3.88329045 Z M7.00980897,7.41420663 L7.95596101,6.79073684 L8.06412476,7.75254581 L7.00980897,7.41420663 Z M26.0789396,22.3850916 C24.3704639,24.9672982 23.1696218,27.8035712 22.5062924,30.8219883 L10.4270097,30.8219883 L10.2278986,29.1796959 C10.084117,27.9935127 9.43706823,26.9352671 8.45267836,26.276117 C7.91210916,25.9141988 7.46111501,25.4136764 7.14847563,24.8286316 C6.01462768,22.7071501 4.34014815,20.9072281 2.30612086,19.6235478 L2.01805848,19.4417778 C1.58465497,19.1683119 1.28867057,18.7413957 1.18443665,18.2395634 C1.08026511,17.7377934 1.18181676,17.2283509 1.47044055,16.8050526 L1.50749318,16.7507836 C1.80765692,16.3104561 2.26077193,16.0242651 2.78337622,15.9449201 C3.30167641,15.8660741 3.81355166,16.0024951 4.2245614,16.3287953 C5.24307212,17.1372788 6.47497856,18.1140585 7.51026901,18.9347057 C7.62947368,19.0292086 7.75722417,19.1049981 7.88984016,19.1640078 C8.68148148,19.578386 9.72538012,19.7999532 10.822425,20.0323743 C12.27646,20.34046 13.9244912,20.689653 15.1779805,21.5406784 C16.5706979,22.4862066 17.3001481,23.9535906 17.4080624,26.0266043 C17.4235322,26.3243977 17.6698635,26.5554464 17.9646004,26.5554464 C17.9743314,26.5554464 17.9842495,26.5551969 17.9940429,26.5546979 C18.3017544,26.538729 18.5381053,26.2763041 18.5221365,25.9685926 C18.2354464,20.4625965 14.0843665,19.5831267 11.0535361,18.9410058 C10.6545029,18.8564211 10.2635789,18.7733333 9.89579727,18.6833216 C10.1861053,18.3351891 10.3253957,17.8815127 10.2715634,17.4030097 L9.47711501,10.3358129 L13.0566862,9.7619961 L13.6320624,13.5018168 C13.694191,13.9055283 14.0360234,14.1839844 14.4432904,14.16446 C14.8512437,14.1446862 15.1639454,13.8343548 15.1867758,13.4265887 L15.5312281,7.26955166 L19.2827135,7.61818324 L18.9891618,12.9396647 C18.9623392,13.4273372 19.2907602,13.849076 19.7701365,13.9424561 C20.2496998,14.035961 20.7122339,13.7682963 20.8703626,13.3062612 L21.8570604,10.424078 L25.0351033,11.6157505 L23.54177,16.1705419 C23.3812086,16.6601481 23.5820663,17.1796959 24.0304405,17.4338246 C24.4786277,17.6879532 25.0276803,17.5936374 25.3653957,17.2043977 L25.9385263,16.5438752 L28.6414971,18.5120312 L26.0789396,22.3850916 Z M30.4305653,15.8081248 L29.257731,17.5807251 L26.6723431,15.698152 L27.5670955,14.6669162 C27.608577,14.9340195 27.8388772,15.1385575 28.1176452,15.1385575 C28.425731,15.1385575 28.6754932,14.8887953 28.6754932,14.5807096 C28.6754932,14.2759298 28.430846,14.0286004 28.1273138,14.023423 C28.3845614,13.7379181 28.7356257,13.5670019 29.1203743,13.5428616 C29.5143548,13.518347 29.8934893,13.6497154 30.18754,13.9133255 C30.7229942,14.3936374 30.8276023,15.2081715 30.4305653,15.8081248 Z" id="Shape" fill-rule="nonzero"></path>
                        <circle id="Oval" cx="9.93241326" cy="6.13900975" r="1"></circle>
                        <circle id="Oval" cx="16.5147446" cy="4.20522417" r="1"></circle>
                        <circle id="Oval" cx="18.522885" cy="4.31681871" r="1"></circle>
                        <circle id="Oval" cx="23.6176842" cy="7.99844055" r="1"></circle>
                        <circle id="Oval" cx="25.1052164" cy="8.63064327" r="1"></circle>
                        <circle id="Oval" cx="29.5306355" cy="15.5104561" r="1"></circle>
                    </g>
                </g>
            </g>
        </g>
    </g>
</svg>