<?xml version="1.0" encoding="UTF-8"?>
<svg width="167px" height="124px" viewBox="0 0 167 124" version="1.1" xmlns="http://www.w3.org/2000/svg" xmlns:xlink="http://www.w3.org/1999/xlink">
    <!-- Generator: Sketch 52.6 (67491) - http://www.bohemiancoding.com/sketch -->
    <title>fountain-comp</title>
    <desc>Created with Sketch.</desc>
    <g id="Page-1" stroke="none" stroke-width="1" fill="none" fill-rule="evenodd">
        <g id="Instincts-2017" transform="translate(-482.000000, -4865.000000)">
            <g id="Group-68" transform="translate(110.000000, 4798.000000)">
                <g id="Group-67" transform="translate(1.000000, 45.000000)">
                    <g id="Group-61">
                        <g id="fountain-comp" transform="translate(371.000000, 22.000000)">
                            <g id="Group-83">
                                <path d="M35.2987511,91.3323424 L29.5666824,91.3074226 C29.6203105,78.9718627 39.4535963,68.9882302 51.565575,69.0410584 C60.2746208,69.0787599 68.0151028,74.3474161 71.4890238,82.3158775 C72.7369427,85.1815102 73.3843378,88.2958139 73.3720393,91.4955409 L67.6396022,91.4728658 C67.649102,89.0714006 67.1652671,86.7439058 66.2340651,84.6055586 C63.6545081,78.6885851 57.942804,74.8008421 51.5406673,74.7731272 C42.6254073,74.7342419 35.3387477,82.1323114 35.2987511,91.3323424 Z" id="Stroke-1" fill="#529DF7" fill-rule="nonzero"></path>
                                <path d="M99.6125009,91.6103515 L93.8804322,91.5854294 C93.9340611,79.2507987 103.768333,69.2671936 115.880282,69.3200218 C124.589025,69.3577266 132.329213,74.6260842 135.802399,82.5939798 C137.051755,85.4603465 137.699152,88.5743442 137.685874,91.7754303 L131.953384,91.750903 C131.96366,89.3493704 131.480103,87.0234473 130.547756,84.8843863 C127.968466,78.967193 122.25718,75.0798074 115.855372,75.0520905 C106.940008,75.0132048 99.6524965,82.4113769 99.6125009,91.6103515 Z" id="Stroke-3" fill="#529DF7" fill-rule="nonzero"></path>
                                <path d="M165.189542,114.909861 C165.17139,119.055141 161.796125,122.401746 157.650845,122.383594 L9.32261249,121.740641 C5.17637694,121.723444 1.83072789,118.348179 1.84792426,114.202899 L1.84887962,114.11023 C1.86703134,109.96495 5.24229636,106.618345 9.38757655,106.637452 L157.716765,107.27945 C161.862045,107.296646 165.208649,110.671911 165.190498,114.818147 L165.189542,114.909861 Z" id="Fill-5" fill="#88BA40"></path>
                                <path d="M164.234198,114.905678 L164.235153,114.813965 C164.250994,111.195565 161.330502,108.249803 157.71263,108.234795 L9.38317303,107.592796 C5.76595729,107.576123 2.82006678,110.496484 2.80418266,114.120078 L2.80326985,114.206862 C2.78826009,117.825048 5.70849117,120.770289 9.32675359,120.785296 L157.655029,121.428249 C161.272509,121.44409 164.218355,118.523514 164.234198,114.905678 Z M157.646704,123.338939 L9.31865022,122.695986 C4.6452211,122.676603 0.873191718,118.872269 0.892621215,114.193051 L0.893534964,114.106046 C0.913998492,109.432823 4.71922714,105.66057 9.39171146,105.682107 L157.720728,106.324104 C162.393883,106.343491 166.166303,110.148553 166.1458,114.828098 L166.144873,114.917013 C166.122813,119.588661 162.318458,123.359396 157.646704,123.338939 Z" id="Stroke-7" fill="#32383D" fill-rule="nonzero"></path>
                                <polygon id="Fill-9" fill="#FC3D4B" points="145.575937 106.01781 21.5528609 105.480901 21.5987179 94.8124649 145.621794 95.3503291"></polygon>
                                <path d="M144.662343,96.301531 L22.5499563,95.7719531 L22.5123122,104.529692 L144.624699,105.058329 L144.662343,96.301531 Z M20.5934096,106.43211 L20.6474795,93.8529768 L146.581246,94.3991273 L146.527175,106.977291 L20.5934096,106.43211 Z" id="Stroke-11" fill="#32383D" fill-rule="nonzero"></path>
                                <path d="M30.5891705,105.519593 L30.6044561,102.091783 C30.6092329,101.089617 29.5592991,100.273745 28.2600179,100.268013 C26.9607367,100.262281 25.9050707,101.07051 25.900294,102.071721 L25.8850083,105.49953 L30.5891705,105.519593 Z" id="Fill-13" fill="#F9BF64"></path>
                                <path d="M40.6502881,105.563444 L40.6655737,102.135634 C40.6693951,101.133468 39.6204167,100.317596 38.3211355,100.311864 C37.0218543,100.306132 35.965233,101.113405 35.9614116,102.115572 L35.9461259,105.543381 L40.6502881,105.563444 Z" id="Fill-15" fill="#F9BF64"></path>
                                <path d="M50.7113101,105.606339 L50.7256404,102.179485 C50.7304172,101.177319 49.6804834,100.360491 48.3821575,100.354759 C47.081921,100.349027 46.026255,101.157256 46.0214783,102.159422 L46.0061926,105.586276 L50.7113101,105.606339 Z" id="Fill-17" fill="#F9BF64"></path>
                                <path d="M60.7714724,105.65019 L60.786758,102.22238 C60.7915348,101.221169 59.741601,100.404342 58.4423198,100.39861 C57.1430386,100.392878 56.0864173,101.201107 56.0825959,102.203273 L56.0673102,105.630127 L60.7714724,105.65019 Z" id="Fill-19" fill="#F9BF64"></path>
                                <path d="M70.8324944,105.69404 L70.8477801,102.266231 C70.8516015,101.264065 69.8016677,100.448193 68.5033418,100.44246 C67.2040607,100.436728 66.1474393,101.244002 66.1426626,102.246168 L66.1283323,105.673978 L70.8324944,105.69404 Z" id="Fill-21" fill="#F9BF64"></path>
                                <path d="M80.8926567,105.736936 L80.9079423,102.310082 C80.9127191,101.307916 79.8627853,100.492043 78.5635041,100.486311 C77.2642229,100.480579 76.2085569,101.287853 76.2037802,102.290019 L76.1884945,105.716873 L80.8926567,105.736936 Z" id="Fill-23" fill="#F9BF64"></path>
                                <path d="M90.9537743,105.780787 L90.9690599,102.352977 C90.9738367,101.351766 89.9239029,100.534939 88.6246217,100.529207 C87.3253405,100.523474 86.2687192,101.331704 86.2648978,102.33387 L86.2496121,105.760724 L90.9537743,105.780787 Z" id="Fill-25" fill="#F9BF64"></path>
                                <path d="M101.014796,105.824637 L101.030082,102.396828 C101.033903,101.394662 99.9839696,100.578789 98.6856438,100.573057 C97.3863626,100.567325 96.3297413,101.375555 96.3249645,102.376765 L96.3106342,105.804575 L101.014796,105.824637 Z" id="Fill-27" fill="#F9BF64"></path>
                                <path d="M111.074959,105.868488 L111.090244,102.440679 C111.095021,101.438512 110.045087,100.62264 108.745806,100.616908 C107.446525,100.611176 106.390859,101.41845 106.386082,102.420616 L106.370796,105.848426 L111.074959,105.868488 Z" id="Fill-29" fill="#F9BF64"></path>
                                <path d="M121.135981,105.911383 L121.151266,102.484529 C121.156043,101.482363 120.106109,100.665536 118.806828,100.659803 C117.507547,100.654071 116.450926,101.462301 116.447104,102.464467 L116.431818,105.891321 L121.135981,105.911383 Z" id="Fill-31" fill="#F9BF64"></path>
                                <path d="M131.197098,105.955234 L131.212384,102.527425 C131.216205,101.525259 130.166271,100.709386 128.867946,100.703654 C127.568664,100.697922 126.512043,101.506151 126.507266,102.507362 L126.491981,105.935172 L131.197098,105.955234 Z" id="Fill-33" fill="#F9BF64"></path>
                                <path d="M141.25726,105.999085 L141.272546,102.571275 C141.277323,101.569109 140.227389,100.753237 138.928108,100.747505 C137.628827,100.741773 136.573161,101.549047 136.568384,102.551213 L136.553098,105.979022 L141.25726,105.999085 Z" id="Fill-35" fill="#F9BF64"></path>
                                <polygon id="Fill-37" fill="#FC3D4B" points="62.449838 89.9624202 62.4813646 82.3291433 104.826467 82.5116159 104.79303 90.1448928"></polygon>
                                <path d="M61.5308831,81.3689172 L61.5222849,83.2796248 L61.4984011,89.0031495 L61.4898029,90.9138571 L63.4005105,90.9214999 L103.83395,91.097285 L105.744658,91.1049279 L105.753256,89.1942202 L105.778095,83.4716509 L105.786693,81.5609433 L103.875985,81.5523451 L63.4415907,81.3775154 L61.5308831,81.3689172 Z M63.4329926,83.288223 L103.867387,83.4630527 L103.842548,89.1865774 L63.4091087,89.0107923 L63.4329926,83.288223 Z" id="Fill-39" fill="#32383D"></path>
                                <polygon id="Fill-41" fill="#FC3D4B" points="72.239444 79.0449235 72.2652386 72.7883114 95.1048821 72.8876682 95.0781322 79.1433249"></polygon>
                                <path d="M71.3148526,71.8293272 L71.3062544,73.7400348 L71.2881027,78.084984 L71.2795045,79.9956916 L73.1902121,80.0042898 L94.1181927,80.094093 L96.0289003,80.1026912 L96.0374985,78.1919836 L96.0556502,73.8460791 L96.0642484,71.9353715 L94.1535408,71.928684 L73.2255602,71.8369701 L71.3148526,71.8293272 Z M73.216962,73.7476777 L94.1449426,73.8393916 L94.1267909,78.1833854 L73.1988103,78.0935822 L73.216962,73.7476777 Z" id="Fill-43" fill="#32383D"></path>
                                <path d="M87.6790125,60.763464 C87.6866553,59.0113451 88.044913,57.4302346 88.5885093,56.0287305 L78.9212841,55.9876503 C79.4534162,57.3929758 79.7982989,58.9779077 79.7906561,60.7290713 C79.7629508,67.1461828 75.0578333,71.4041948 73.5655706,72.5936103 C73.4213122,72.7082527 73.5063387,72.9346716 73.6897666,72.9356269 L83.659839,72.9786179 L83.7028299,72.9786179 L93.6729023,73.0225641 C93.8563302,73.0235195 93.9432674,72.7971006 93.8009197,72.6815028 C92.3182106,71.4787124 87.6513072,67.1796202 87.6790125,60.763464" id="Fill-45" fill="#F9BF64"></path>
                                <path d="M94.4031714,71.9398871 C95.2545739,72.6312945 94.7423744,73.9835011 93.6686913,73.9779087 L83.7028299,73.9339717 L73.6847909,73.8909678 C72.6106842,73.8853735 72.1114221,72.5289307 72.9701083,71.8465323 C76.2367101,69.2428708 78.8149551,65.4398412 78.8353113,60.7249017 C78.8419753,59.1980336 78.5609514,57.7338793 78.0278363,56.3259579 L77.5357536,55.0264002 L89.9814654,55.0792874 L89.4792108,56.3742037 C88.9342718,57.7791696 88.641023,59.2401039 88.6343573,60.7676103 C88.6140075,65.4820981 91.1598593,69.3088754 94.4031714,71.9398871 Z M86.7236676,60.7593388 C86.7293466,59.4574256 86.9147855,58.1975432 87.2623707,56.9784576 L80.2396932,56.9486152 C80.5769627,58.1701737 80.7516805,59.431883 80.746001,60.7331959 C80.7259823,65.3699234 78.6097955,69.1571231 75.6975087,71.9889234 L83.659839,72.023264 L91.6741791,72.0583913 C88.787561,69.2023779 86.7036474,65.3957443 86.7236676,60.7593388 Z" id="Stroke-47" fill="#32383D" fill-rule="nonzero"></path>
                                <path d="M86.7712052,23.5420682 L81.0391425,23.5157945 L81.0506002,21.0161978 C81.0604283,18.591557 79.1045716,16.6187239 76.6809044,16.6083219 C74.2580293,16.5979208 72.2850717,18.5540782 72.2746697,20.9771585 L72.1648041,46.3771503 L66.4327348,46.3523567 L66.5426001,20.9524582 C66.5665916,15.36378 71.1168577,10.8522605 76.7055085,10.8762519 C82.294755,10.90024 86.8053324,15.4499681 86.7826694,21.040952 L86.7712052,23.5420682 Z" id="Stroke-49" fill="#529DF7" fill-rule="nonzero"></path>
                                <path d="M86.80209,28.0572008 L81.0699736,28.0486268 L81.0805057,21.0149383 C81.1044994,15.4257345 85.6554395,10.9143679 91.2436888,10.9396845 C96.8328392,10.962345 101.344947,15.514033 101.319623,21.1026916 L101.209757,46.5036387 L95.477688,46.478846 L95.5875563,21.0773082 C95.5985342,18.6546684 93.6426036,16.6815806 91.2190849,16.6717544 C88.7958495,16.6607765 86.8229776,18.616493 86.8125989,21.0315289 L86.80209,28.0572008 Z" id="Stroke-51" fill="#529DF7" fill-rule="nonzero"></path>
                                <path d="M105.004137,46.519995 L99.2720656,46.495736 L99.2787547,44.915203 C99.311456,37.4217473 105.412053,31.3732122 112.906445,31.4047065 C120.399512,31.4386172 126.447019,37.5389325 126.415525,45.0318557 L126.21299,91.7257286 L120.480922,91.7008657 L120.683455,45.0073782 C120.701643,40.6798984 117.208605,37.156358 112.88143,37.1367747 C108.553334,37.1185864 105.029711,40.6121394 105.010825,44.9398398 L105.004137,46.519995 Z" id="Stroke-53" fill="#529DF7" fill-rule="nonzero"></path>
                                <path d="M68.3704265,46.3613108 L62.6383549,46.3370517 L62.645044,44.7565187 C62.6639296,40.4289225 59.1707719,36.9052616 54.8435118,36.8863745 C50.5149279,36.8674876 46.9915546,40.3605765 46.9733659,44.6887884 L46.7708308,91.381706 L41.0387619,91.3568426 L41.2412952,44.6643126 C41.2727878,37.1703063 47.37393,31.1216051 54.8685265,31.1543062 C62.3614789,31.1870106 68.4098133,37.2881608 68.3771139,44.7811556 L68.3704265,46.3613108 Z" id="Stroke-55" fill="#529DF7" fill-rule="nonzero"></path>
                                <path d="M87.3898269,8.90007611 C87.3812287,10.7658821 85.8612608,12.2724751 83.9954548,12.2638769 C82.1296488,12.2562341 80.6230558,10.7372215 80.631654,8.8714155 C80.6402522,7.00465415 82.1583094,5.49806119 84.0250708,5.50570402 C85.8918321,5.5143022 87.3974697,7.03427012 87.3898269,8.90007611" id="Fill-57" fill="#529DF7"></path>
                                <path d="M88.1157047,1.85061587 C88.1109279,2.86806768 87.2826362,3.69062731 86.2651844,3.68585054 C85.2467772,3.68107377 84.4251729,2.85278202 84.4299497,1.83437485 C84.4337711,0.816923044 85.2630182,-0.00468123368 86.28047,9.55353812e-05 C87.2988772,0.00391695063 88.1204815,0.833164059 88.1157047,1.85061587" id="Fill-59" fill="#529DF7"></path>
                                <path d="M79.1162718,5.48545052 C79.1105397,6.8965081 77.961249,8.03528984 76.5501915,8.02955772 C75.1391339,8.02287024 74.0003521,6.87453496 74.0051289,5.46347738 C74.0118164,4.05146444 75.1601517,2.9126827 76.5721646,2.91841482 C77.9832222,2.92414695 79.1229593,4.07343758 79.1162718,5.48545052" id="Fill-61" fill="#529DF7"></path>
                                <path d="M19.1912263,95.9324262 C18.3763095,95.9286048 17.6129818,95.6085613 17.0388142,95.0305722 C16.4646465,94.4516278 16.1512905,93.6844787 16.1551119,92.8705172 C16.1617994,91.1967374 17.529866,89.8344028 19.2046012,89.8344028 L148.046482,90.3923295 C148.861399,90.3961509 149.625682,90.7171498 150.198894,91.2951388 C150.772107,91.8740832 151.086418,92.6412323 151.082597,93.4551938 C151.075909,95.1280183 149.707843,96.4903528 148.033107,96.4903528 L19.1912263,95.9324262 Z" id="Fill-63" fill="#F9BF64"></path>
                                <path d="M19.2033593,88.8792401 C17.0050902,88.8792401 15.209025,90.6676624 15.2004268,92.8668869 C15.1899179,95.0737542 16.9783403,96.8784176 19.1861629,96.8879711 L148.01658,97.4458977 C150.232045,97.4458977 152.02811,95.6574754 152.037664,93.4592063 C152.042441,92.38921 151.629728,91.3822671 150.877864,90.6227608 C150.12409,89.8622992 149.120013,89.4419435 148.050973,89.4371667 L19.221511,88.8792401 L19.2176896,88.8792401 L19.2033593,88.8792401 Z M19.2033593,90.7899477 L19.2129128,90.7899477 L148.042374,91.3478743 C149.198352,91.3536065 150.132688,92.29463 150.126956,93.4506081 C150.12218,94.6037201 149.185933,95.5351901 148.034732,95.5351901 L148.025178,95.5351901 L19.1947611,94.9772635 C18.038783,94.9724867 17.1054023,94.0314632 17.1111344,92.8754851 C17.1149559,91.722373 18.0521579,90.7899477 19.2033593,90.7899477 Z" id="Fill-65" fill="#32383D"></path>
                                <path d="M63.2485137,83.4288511 C61.9501879,83.4221636 60.8992987,82.3626762 60.9059862,81.0653057 C60.910763,79.7746227 61.9664289,78.7227782 63.2590226,78.7227782 L104.06505,78.900474 C104.693673,78.9023847 105.283126,79.1498213 105.72641,79.5959716 C106.168739,80.0421218 106.410444,80.6334858 106.408533,81.2621086 C106.401845,82.5547023 105.347135,83.6055915 104.056452,83.6055915 L63.2485137,83.4288511 Z" id="Fill-67" fill="#F9BF64"></path>
                                <path d="M63.2577807,77.767711 C61.4426084,77.767711 59.9579886,79.2456433 59.9493904,81.0617709 C59.9417476,82.8855414 61.4196799,84.3758933 63.2434504,84.3844915 L104.04088,84.5602766 C105.871337,84.5602766 107.355002,83.0823442 107.3636,81.267172 C107.371243,79.4424462 105.893311,77.9520943 104.06954,77.9454068 L63.2730663,77.767711 L63.2682896,77.767711 L63.2577807,77.767711 Z M63.2577807,79.6784186 L63.2644682,79.6784186 L104.061897,79.8561144 C104.833823,79.8580251 105.455759,80.4876033 105.452892,81.2585738 C105.449071,82.028589 104.82427,82.649569 104.05521,82.649569 L104.048522,82.649569 L63.2520486,82.4737839 C62.481078,82.4699624 61.857232,81.842295 61.860098,81.0703691 C61.8639195,80.3003539 62.4887209,79.6784186 63.2577807,79.6784186 Z" id="Fill-69" fill="#32383D"></path>
                                <path d="M58.895253,45.5375126 C58.3277729,45.5346466 57.7965961,45.3120491 57.3972583,44.9098452 C56.9979204,44.5076412 56.7791443,43.9735985 56.7820104,43.408029 C56.7867872,42.2424974 57.7392749,41.2947864 58.9038512,41.2947864 L108.737017,41.509741 C109.907325,41.5145177 110.855036,42.4708269 110.850259,43.6411353 C110.845483,44.8057116 109.892995,45.754378 108.727463,45.754378 L58.895253,45.5375126 Z" id="Fill-71" fill="#FC3D4B"></path>
                                <path d="M58.9036601,40.3390504 C57.2136392,40.3390504 55.8341083,41.7128492 55.8264655,43.4028701 C55.8188227,45.0986231 57.1935768,46.4857968 58.8902852,46.4924843 L108.715808,46.7083943 C110.418248,46.7083943 111.797779,45.3345955 111.805422,43.64553 C111.809244,42.8239257 111.492066,42.0491337 110.913122,41.4654126 C110.335133,40.880736 109.563207,40.5578264 108.741602,40.5549604 L58.9170351,40.3390504 L58.9132137,40.3390504 L58.9036601,40.3390504 Z M58.9036601,42.249758 L58.9084369,42.249758 L108.733004,42.465668 C109.377868,42.4685341 109.897581,42.992068 109.894714,43.6369318 C109.891848,44.2789295 109.370225,44.7976867 108.728227,44.7976867 L108.723451,44.7976867 L58.8988834,44.5817767 C58.2540195,44.5789106 57.7343071,44.0553767 57.7371731,43.4114683 C57.7400392,42.7685152 58.2616624,42.249758 58.9036601,42.249758 Z" id="Fill-73" fill="#32383D"></path>
                                <path d="M67.8470138,55.3831024 C65.4538525,55.3725935 63.208771,54.4306147 61.5244823,52.7319956 C59.8392381,51.0314658 58.9173217,48.7787415 58.9278306,46.3855802 L58.9326074,45.4311818 L108.675014,45.6461364 L108.671193,46.6014902 C108.65113,51.5196516 104.632912,55.5216287 99.7147509,55.5216287 C99.7137955,55.5216287 67.8470138,55.3831024 67.8470138,55.3831024" id="Fill-75" fill="#F9BF64"></path>
                                <path d="M57.9800241,44.4711467 L57.9714259,46.3818543 C57.9599616,49.0291398 58.9812349,51.5235686 60.8451302,53.4046602 C62.7090254,55.2847965 65.1948561,56.3261322 67.8421415,56.3385518 L99.6716644,56.4761227 C105.157306,56.4761227 109.603523,52.0490132 109.628362,46.6054071 L109.635049,44.6946995 L107.724342,44.6870567 L59.8907317,44.4797449 L57.9800241,44.4711467 Z M59.8820645,46.3904525 L107.717654,46.5977643 C107.697592,51.0057668 104.118836,54.5654151 99.7146553,54.5654151 L99.6793073,54.5654151 L67.8507397,54.4278441 C63.4312729,54.4077817 59.8639818,50.8099193 59.8820645,46.3904525 Z" id="Fill-77" fill="#32383D"></path>
                                <path d="M90.8100891,32.9369691 C90.8100891,36.9838478 87.5294041,40.2645328 83.4825253,40.2645328 C79.4366019,40.2645328 76.155917,36.9838478 76.155917,32.9369691 C76.155917,28.8910457 79.4366019,25.6103607 83.4825253,25.6103607 C87.5294041,25.6103607 90.8100891,28.8910457 90.8100891,32.9369691" id="Fill-79" fill="#F9BF64"></path>
                                <path d="M89.8547353,32.9369691 C89.8547353,29.4185446 87.0016483,26.5657145 83.4825253,26.5657145 C79.9642293,26.5657145 77.1112708,29.418673 77.1112708,32.9369691 C77.1112708,36.456092 79.9641008,39.309179 83.4825253,39.309179 C87.0017767,39.309179 89.8547353,36.4562205 89.8547353,32.9369691 Z M91.7654429,32.9369691 C91.7654429,37.5114752 88.0570314,41.2198866 83.4825253,41.2198866 C78.9088076,41.2198866 75.2005631,37.5113082 75.2005631,32.9369691 C75.2005631,28.3634183 78.9089746,24.6550069 83.4825253,24.6550069 C88.0568644,24.6550069 91.7654429,28.3632514 91.7654429,32.9369691 Z" id="Stroke-81" fill="#32383D" fill-rule="nonzero"></path>
                            </g>
                        </g>
                    </g>
                </g>
            </g>
        </g>
    </g>
</svg>