<?xml version="1.0" encoding="UTF-8"?>
<svg width="24px" height="24px" viewBox="0 0 24 24" version="1.1" xmlns="http://www.w3.org/2000/svg" xmlns:xlink="http://www.w3.org/1999/xlink">
    <!-- Generator: Sketch 61.2 (89653) - https://sketch.com -->
    <title>icon/hamburger</title>
    <desc>Created with Sketch.</desc>
    <g id="icon/hamburger" stroke="none" stroke-width="1" fill="none" fill-rule="evenodd">
        <g id="Group-4">
            <rect id="Rectangle" x="0" y="0" width="24" height="24"></rect>
            <g id="Group" transform="translate(4.000000, 3.500000)" fill="#f2f2f2" class="fill-color" fill-rule="nonzero">
                <path d="M14.5,14 C15.3284271,14 16,14.6715729 16,15.5 C16,16.3284271 15.3284271,17 14.5,17 L4.5,17 C3.67157288,17 3,16.3284271 3,15.5 C3,14.6715729 3.67157288,14 4.5,14 L14.5,14 Z M14.5,7 C15.3284271,7 16,7.67157288 16,8.5 C16,9.32842712 15.3284271,10 14.5,10 L6.5,10 C5.67157288,10 5,9.32842712 5,8.5 C5,7.67157288 5.67157288,7 6.5,7 L14.5,7 Z M14.5,1.33226763e-15 C15.3284271,1.18008804e-15 16,0.671572875 16,1.5 C16,2.32842712 15.3284271,3 14.5,3 L1.5,3 C0.671572875,3 1.01453063e-16,2.32842712 0,1.5 C-1.01453063e-16,0.671572875 0.671572875,1.48444722e-15 1.5,1.33226763e-15 L14.5,1.33226763e-15 Z" id="Combined-Shape"></path>
            </g>
        </g>
    </g>
</svg>