<?xml version="1.0" encoding="UTF-8"?>
<svg width="40px" height="40px" viewBox="0 0 40 40" version="1.1" xmlns="http://www.w3.org/2000/svg" xmlns:xlink="http://www.w3.org/1999/xlink">
    <!-- Generator: Sketch 61.2 (89653) - https://sketch.com -->
    <title>icon/dual-tone/height</title>
    <desc>Created with Sketch.</desc>
    <defs>
        <linearGradient x1="50%" y1="0%" x2="50%" y2="100%" id="linearGradient-1">
            <stop stop-color="#E3E5E8" offset="0%"></stop>
            <stop stop-color="#C2C6CC" offset="100%"></stop>
        </linearGradient>
        <linearGradient x1="50%" y1="0%" x2="50%" y2="100%" id="linearGradient-2">
            <stop stop-color="#A5ADB7" offset="0%"></stop>
            <stop stop-color="#6C7580" offset="100%"></stop>
        </linearGradient>
    </defs>
    <g id="icon/dual-tone/height" stroke="none" stroke-width="1" fill="none" fill-rule="evenodd">
        <g id="Group-9">
            <rect id="Rectangle" x="0" y="0" width="40" height="40"></rect>
            <g>
                <rect id="Rectangle" x="0" y="0" width="40" height="40"></rect>
                <g id="Group-10" transform="translate(14.000000, 4.000000)">
                    <path d="M0.476983893,10.1072221 L4.8938344,14.5392451 C5.03835462,14.6840146 5.20982591,14.7990074 5.39848339,14.8777589 C5.78302437,15.040747 6.21697563,15.040747 6.60151661,14.8777589 C6.79017409,14.7992033 6.96164538,14.6840146 7.1061656,14.5392451 L11.5230161,10.1072221 C12.1436719,9.50600757 12.1608581,8.51377824 11.5614897,7.89121066 C10.9621214,7.26864307 9.97293906,7.25140394 9.35228329,7.85261852 C9.33919835,7.86515607 9.32650401,7.87808541 9.31380966,7.89121066 L7.56238079,9.64803448 L7.56238079,1.56719342 C7.56238079,0.701710853 6.86282479,-5.32907052e-15 6,-5.32907052e-15 C5.13717521,-5.32907052e-15 4.43761921,0.701710853 4.43761921,1.56719342 L4.43761921,9.64803448 L2.68619034,7.89121066 C2.086822,7.26864307 1.09763966,7.25140394 0.476983893,7.85261852 C-0.143671878,8.45383309 -0.160858067,9.44606243 0.438510266,10.06863 C0.451204609,10.0817553 0.463898953,10.0946846 0.476983893,10.1072221 Z" id="Path" fill="url(#linearGradient-1)" transform="translate(6.000000, 7.500000) rotate(-180.000000) translate(-6.000000, -7.500000) "></path>
                    <path d="M0.476983893,27.1072221 L4.8938344,31.5392451 C5.03835462,31.6840146 5.20982591,31.7990074 5.39848339,31.8777589 C5.78302437,32.040747 6.21697563,32.040747 6.60151661,31.8777589 C6.79017409,31.7992033 6.96164538,31.6840146 7.1061656,31.5392451 L11.5230161,27.1072221 C12.1436719,26.5060076 12.1608581,25.5137782 11.5614897,24.8912107 C10.9621214,24.2686431 9.97293906,24.2514039 9.35228329,24.8526185 C9.33919835,24.8651561 9.32650401,24.8780854 9.31380966,24.8912107 L7.56238079,26.6480345 L7.56238079,18.5671934 C7.56238079,17.7017109 6.86282479,17 6,17 C5.13717521,17 4.43761921,17.7017109 4.43761921,18.5671934 L4.43761921,26.6480345 L2.68619034,24.8912107 C2.086822,24.2686431 1.09763966,24.2514039 0.476983893,24.8526185 C-0.143671878,25.4538331 -0.160858067,26.4460624 0.438510266,27.06863 C0.451204609,27.0817553 0.463898953,27.0946846 0.476983893,27.1072221 Z" id="Path" fill="url(#linearGradient-2)" fill-rule="nonzero" transform="translate(6.000000, 24.500000) rotate(-360.000000) translate(-6.000000, -24.500000) "></path>
                </g>
            </g>
        </g>
    </g>
</svg>