<?xml version="1.0" encoding="UTF-8"?>
<svg width="32px" height="32px" viewBox="0 0 32 32" version="1.1" xmlns="http://www.w3.org/2000/svg" xmlns:xlink="http://www.w3.org/1999/xlink">
    <!-- Generator: Sketch 61.2 (89653) - https://sketch.com -->
    <title>icon/social/instagram</title>
    <desc>Created with Sketch.</desc>
    <g id="icon/social/instagram" stroke="none" stroke-width="1" fill="none" fill-rule="evenodd">
        <g id="instagram" class="fill-color" fill-rule="nonzero">
            <path d="M5.72387694,0.547851562 C12.5678711,-0.182617188 19.4321289,-0.182617188 26.2763672,0.547851562 C29.0056152,0.838867188 31.1608887,2.99462888 31.4521484,5.72363281 C32.1826172,12.5678711 32.1826172,19.4321289 31.4521484,26.2761231 C31.1608887,29.0053711 29.0056152,31.1608887 26.2763672,31.4521484 C19.4321289,32.1826172 12.5676269,32.1826172 5.72363281,31.4521484 C2.99462887,31.1608887 0.839111312,29.0053711 0.547851562,26.2761231 C-0.182617188,19.4321289 -0.182617188,12.5676269 0.547851562,5.72363281 C0.839111312,2.99462888 2.99462887,0.839111313 5.72387694,0.547851562 Z M20.8652344,6.16723631 C17.6398926,6.05102537 14.4042969,6.05688475 11.1784668,6.16772462 C8.49926756,6.26000975 6.62548825,8.060791 6.14526369,10.7075195 C6.11702475,10.8632812 6.09255643,11.0197211 6.07001411,11.1765137 L6.07001411,11.1765137 L5.94311525,12.1188965 L5.94311525,19.8779297 C5.9799805,20.1293945 6.03417969,20.3798828 6.05102538,20.6325684 C6.24609375,23.5539551 8.262207,25.7180176 11.1787109,25.8276367 C14.4038086,25.9487305 17.6401368,25.9458007 20.8654785,25.8293457 C23.7819824,25.7241211 25.8930664,23.5651856 25.9841309,20.6481934 C26.0810547,17.5507812 26.0810547,14.4458007 25.9841309,11.3483887 C25.8930664,8.4313965 23.78125,6.27221681 20.8652344,6.16723631 Z M11.6301269,7.91113281 C14.5625,7.84960937 17.4980469,7.84912112 20.4304199,7.91113281 C22.7407226,7.96020506 24.1633301,9.37182619 24.2172851,11.6804199 C24.2841797,14.5578613 24.2841797,17.4389649 24.2172851,20.3161621 C24.1633301,22.6252441 22.7416993,24.0046387 20.4304199,24.090332 C18.9562988,24.1447754 17.4787598,24.1005859 16.0026856,24.1005859 C14.545166,24.1005859 13.0859375,24.1445312 11.6303711,24.090332 C9.33740238,24.0053711 7.91162113,22.6542969 7.84936525,20.3713379 C7.77026369,17.4577637 7.77026369,14.5390625 7.84936525,11.6254882 C7.91162113,9.34228512 9.33740238,7.9592285 11.6301269,7.91113281 Z M16,10.8747559 C13.1694336,10.8747559 10.8745118,13.1694336 10.8745118,16 C10.8745118,18.8308106 13.1694336,21.1254882 16,21.1254882 C18.8308106,21.1254882 21.1254883,18.8308106 21.1254883,16 C21.1254883,13.1694336 18.8308106,10.8747559 16,10.8747559 Z M16,12.6391601 C17.8562012,12.6391601 19.3608399,14.1437988 19.3608399,16 C19.3608399,17.8562012 17.8562012,19.3608399 16,19.3608399 C14.1437988,19.3608399 12.6391601,17.8562012 12.6391601,16 C12.6391601,14.1437988 14.1437988,12.6391601 16,12.6391601 Z M21.4248047,9.42138675 C20.7514649,9.42138675 20.2053223,9.96728513 20.2053223,10.6408691 C20.2053223,11.314209 20.7514649,11.8601074 21.4248047,11.8601074 C22.0981445,11.8601074 22.644043,11.314209 22.644043,10.6408691 C22.644043,9.96728513 22.0981445,9.42138675 21.4248047,9.42138675 Z" fill="#6c7580" id="Combined-Shape"></path>
        </g>
    </g>
</svg>