<?xml version="1.0" encoding="UTF-8"?>
<svg width="32px" height="32px" viewBox="0 0 32 32" version="1.1" xmlns="http://www.w3.org/2000/svg" xmlns:xlink="http://www.w3.org/1999/xlink">
    <!-- Generator: Sketch 61.2 (89653) - https://sketch.com -->
    <title>icon/social/linkedin-colored</title>
    <desc>Created with Sketch.</desc>
    <defs>
        <linearGradient x1="33.2019533%" y1="14.05981%" x2="58.4948073%" y2="68.1747744%" id="linearGradient-1">
            <stop stop-color="#0077B5" offset="0%"></stop>
            <stop stop-color="#0066B2" offset="100%"></stop>
        </linearGradient>
        <linearGradient x1="73.8335045%" y1="62.7852419%" x2="-89.8948936%" y2="-25.0447696%" id="linearGradient-2">
            <stop stop-color="#0066B2" stop-opacity="0" offset="0%"></stop>
            <stop stop-color="#07485E" offset="100%"></stop>
        </linearGradient>
        <linearGradient x1="49.9996672%" y1="5.89265095%" x2="49.9996672%" y2="110.601705%" id="linearGradient-3">
            <stop stop-color="#0066B2" stop-opacity="0" offset="0%"></stop>
            <stop stop-color="#07485E" offset="100%"></stop>
        </linearGradient>
        <linearGradient x1="43.8060959%" y1="43.9656984%" x2="-3.71819188%" y2="-3.42307306%" id="linearGradient-4">
            <stop stop-color="#0066B2" stop-opacity="0" offset="0%"></stop>
            <stop stop-color="#07485E" offset="100%"></stop>
        </linearGradient>
        <linearGradient x1="79.5478324%" y1="72.7838767%" x2="-29.0442255%" y2="28.6941477%" id="linearGradient-5">
            <stop stop-color="#0066B2" stop-opacity="0" offset="0%"></stop>
            <stop stop-color="#07485E" offset="100%"></stop>
        </linearGradient>
        <linearGradient x1="86.4524255%" y1="93.5984227%" x2="3.18796416%" y2="7.29863912%" id="linearGradient-6">
            <stop stop-color="#0066B2" stop-opacity="0" offset="0%"></stop>
            <stop stop-color="#07485E" offset="100%"></stop>
        </linearGradient>
    </defs>
    <g id="icon/social/linkedin-colored" stroke="none" stroke-width="1" fill="none" fill-rule="evenodd">
        <g id="linkedin-(6)" fill-rule="nonzero">
            <path d="M26.2763672,31.4521484 C19.4323731,32.1826172 12.5676269,32.1826172 5.72363281,31.4521484 C2.99462888,31.1608887 0.839111313,29.0053711 0.547851563,26.2761231 C-0.182617188,19.4321289 -0.182617188,12.5676269 0.547851563,5.72363281 C0.839111313,2.99462887 2.99462888,0.839111312 5.72363281,0.547851562 C12.5676269,-0.182617188 19.4321289,-0.182617188 26.2761231,0.547851562 C29.0053711,0.839111312 31.1608887,2.99462887 31.4521484,5.72363281 C32.1826172,12.5676269 32.1826172,19.4321289 31.4521484,26.2761231 C31.1608887,29.0053711 29.0056153,31.1608887 26.2763672,31.4521484 Z" id="Path" fill="url(#linearGradient-1)"></path>
            <path d="M29.7116699,6.8811035 C29.4533691,4.45947263 27.5407715,2.54663087 25.1188965,2.28808594 C19.0456543,1.64013675 12.9543457,1.64013675 6.8811035,2.28808594 C4.45947263,2.54663087 2.54663088,4.45947263 2.28808594,6.8811035 C1.64013675,12.9543457 1.64013675,19.0456543 2.28808594,25.1186524 C2.54663088,27.5405274 4.45947263,29.4533691 6.8811035,29.7116699 C12.9543457,30.3598633 19.0456543,30.3598633 25.1186524,29.7116699 C27.5405274,29.4533691 29.4533691,27.5405274 29.7116699,25.1186524 C30.3598633,19.0456543 30.3598633,12.9543457 29.7116699,6.8811035 L29.7116699,6.8811035 Z" id="Path" fill="url(#linearGradient-2)"></path>
            <path d="M0.479492187,25.612793 C0.501464875,25.8339844 0.524169937,26.0551758 0.547851562,26.2763672 C0.839111312,29.0053711 2.99462887,31.1608887 5.72387694,31.4521484 C12.5678711,32.1826172 19.4323731,32.1826172 26.2763672,31.4521484 C29.0056153,31.1608887 31.1608887,29.0053711 31.4521484,26.2763672 C31.4758301,26.0551758 31.4985351,25.8339844 31.5207519,25.612793 L0.479492187,25.612793 Z" id="Path" fill="url(#linearGradient-3)"></path>
            <path d="M31.1071778,27.7231445 L10.4567871,7.07250975 C9.9956055,6.47070313 9.2700195,6.08227538 8.45336913,6.08227538 C7.06030275,6.08227538 5.93090819,7.21142575 5.93090819,8.60449219 C5.93090819,9.42138675 6.31958006,10.1469726 6.92138675,10.6079101 L27.5,31.1867676 C29.1633301,30.6333008 30.4890137,29.3552246 31.1071778,27.7231445 L31.1071778,27.7231445 Z" id="Path" fill="url(#linearGradient-4)"></path>
            <path d="M10.5720215,12.7814941 L6.33447263,12.7814941 L6.33447263,25.9177246 L12.347168,31.9304199 C16.9912109,32.1062012 21.6384278,31.9472656 26.2761231,31.4521484 C27.0869141,31.3657226 27.8464356,31.1135254 28.5222168,30.7316894 L10.5720215,12.7814941 Z" id="Path" fill="url(#linearGradient-5)"></path>
            <path d="M24.9631348,13.8818359 C24.1879883,13.0319824 23.0720215,12.4987793 21.831543,12.4987793 C19.8693847,12.4987793 18.6030274,13.1879883 17.8493653,13.8278809 L17.019043,12.7814941 L13.1145019,12.7814941 L13.1145019,25.9177246 L19.1452637,31.9484863 C21.5236816,31.8710938 23.9011231,31.7055664 26.2763672,31.4521484 C29.0056153,31.1608887 31.1608887,29.0053711 31.4521484,26.2763672 C31.6469726,24.4516601 31.7893066,22.6254883 31.8801269,20.7988281 L24.9631348,13.8818359 Z" id="Path" fill="url(#linearGradient-6)"></path>
            <g id="Group" transform="translate(5.875000, 6.062500)" fill="#FFFFFF">
                <polygon id="Path" points="0.459716813 6.71899413 4.6970215 6.71899413 4.6970215 19.8552246 0.459716813 19.8552246"></polygon>
                <path d="M15.956543,6.43627931 C12.8513184,6.43627931 11.4873047,8.16210938 11.144043,8.6875 L11.144043,6.71899413 L7.23950194,6.71899413 L7.23950194,19.8552246 L11.4770508,19.8552246 L11.4770508,13.2568359 C11.4770508,11.3500976 12.3547363,9.86694338 14.0195313,9.86694338 C15.684082,9.86694338 15.956543,11.7131348 15.956543,13.9833984 L15.956543,19.8552246 L20.1940918,19.8552246 L20.1940918,10.6738281 C20.1940918,8.33349613 18.296875,6.43627931 15.956543,6.43627931 L15.956543,6.43627931 Z" id="Path"></path>
                <path d="M5.10058594,2.54223631 C5.10058594,3.93530275 3.97143556,5.06445313 2.57836913,5.06445313 C1.18530275,5.06445313 0.0559081875,3.93530275 0.0559081875,2.54223631 C0.0559081875,1.14916994 1.18530275,0.019775375 2.57836913,0.019775375 C3.97143556,0.019775375 5.10058594,1.14916994 5.10058594,2.54223631 Z" id="Path"></path>
            </g>
        </g>
    </g>
</svg>