<?xml version="1.0" encoding="UTF-8"?>
<svg width="32px" height="32px" viewBox="0 0 32 32" version="1.1" xmlns="http://www.w3.org/2000/svg" xmlns:xlink="http://www.w3.org/1999/xlink">
    <!-- Generator: Sketch 61.2 (89653) - https://sketch.com -->
    <title>icon/social/linkedin</title>
    <desc>Created with Sketch.</desc>
    <g id="icon/social/linkedin" stroke="none" stroke-width="1" fill="none" fill-rule="evenodd">
        <g id="linkedin-(6)">
            <path d="M26.2761231,0.547851562 C29.0053711,0.839111312 31.1608887,2.99462887 31.4521484,5.72363281 C32.1826172,12.5676269 32.1826172,19.4321289 31.4521484,26.2761231 C31.1608887,29.0053711 29.0056152,31.1608887 26.2763672,31.4521484 C19.4323731,32.1826172 12.5676269,32.1826172 5.72363281,31.4521484 C2.99462887,31.1608887 0.839111312,29.0053711 0.547851562,26.2761231 C-0.182617188,19.4321289 -0.182617188,12.5676269 0.547851562,5.72363281 C0.839111312,2.99462887 2.99462887,0.839111312 5.72363281,0.547851562 C12.5676269,-0.182617188 19.4321289,-0.182617188 26.2761231,0.547851562 Z M10.5720215,12.7814941 L6.33471681,12.7814941 L6.33471681,25.9177246 L10.5720215,25.9177246 L10.5720215,12.7814941 Z M21.831543,12.4987793 C18.7263184,12.4987793 17.3623047,14.2246094 17.019043,14.75 L17.019043,14.75 L17.019043,12.7814941 L13.1145019,12.7814941 L13.1145019,25.9177246 L17.3520507,25.9177246 L17.3520507,19.3193359 L17.3554051,19.1167117 C17.4157465,17.3085498 18.2891933,15.9294434 19.8945312,15.9294434 C21.559082,15.9294434 21.831543,17.7756348 21.831543,20.0458984 L21.831543,20.0458984 L21.831543,25.9177246 L26.0690918,25.9177246 L26.0690918,16.7363281 L26.0639058,16.5248318 C25.9537021,14.2827555 24.1009558,12.4987793 21.831543,12.4987793 Z M8.45336912,6.08227538 C7.06030275,6.08227538 5.93090819,7.21166994 5.93090819,8.60473631 C5.93090819,9.99780275 7.06030275,11.1269531 8.45336912,11.1269531 C9.84643556,11.1269531 10.9755859,9.99780275 10.9755859,8.60473631 C10.9755859,7.21166994 9.84643556,6.08227538 8.45336912,6.08227538 Z" id="Combined-Shape" fill="#6c7580" class="fill-color" fill-rule="nonzero"></path>
            <g id="Group" transform="translate(5.875000, 6.062500)"></g>
        </g>
    </g>
</svg>