<?xml version="1.0" encoding="UTF-8"?>
<svg width="128px" height="128px" viewBox="0 0 128 128" version="1.1" xmlns="http://www.w3.org/2000/svg" xmlns:xlink="http://www.w3.org/1999/xlink">
    <!-- Generator: Sketch 52.5 (67469) - http://www.bohemiancoding.com/sketch -->
    <title>roads-comp</title>
    <desc>Created with Sketch.</desc>
    <defs>
        <linearGradient x1="50.0000055%" y1="100%" x2="50.0000055%" y2="1.8680436e-05%" id="linearGradient-1">
            <stop stop-color="#E6D6C6" offset="0%"></stop>
            <stop stop-color="#93E8FD" offset="100%"></stop>
        </linearGradient>
        <circle id="path-2" cx="64" cy="64" r="64"></circle>
    </defs>
    <g id="Page-1" stroke="none" stroke-width="1" fill="none" fill-rule="evenodd">
        <g id="Instincts-2017" transform="translate(-1023.000000, -4260.000000)">
            <g id="Group-70" transform="translate(110.000000, 4215.000000)">
                <g id="roads-comp" transform="translate(913.000000, 45.000000)">
                    <g id="Fill-5">
                        <mask id="mask-3" fill="white">
                            <use xlink:href="#path-2"></use>
                        </mask>
                        <use id="Mask" fill="url(#linearGradient-1)" xlink:href="#path-2"></use>
                        <polygon fill="#C1BCB8" mask="url(#mask-3)" points="-3 131 128 131 128 55 -3 55"></polygon>
                        <polygon fill="#626474" mask="url(#mask-3)" points="-3 131 128 131 128 64 -3 64"></polygon>
                        <polygon fill="#493E4A" mask="url(#mask-3)" points="-3 131 128 131 128 74 -3 74"></polygon>
                        <g id="Group-26" mask="url(#mask-3)" fill="#60565F" fill-rule="nonzero">
                            <g transform="translate(5.000000, 90.000000)">
                                <polygon id="Stroke-18" points="0 8 0 0 23 0 23 8"></polygon>
                                <polygon id="Stroke-20" points="40 8 40 0 75 0 75 8"></polygon>
                                <polygon id="Stroke-22" points="94 8 94 0 118 0 118 8"></polygon>
                            </g>
                        </g>
                    </g>
                </g>
            </g>
        </g>
    </g>
</svg>