<?xml version="1.0" encoding="UTF-8"?>
<svg width="64px" height="64px" viewBox="0 0 64 64" version="1.1" xmlns="http://www.w3.org/2000/svg" xmlns:xlink="http://www.w3.org/1999/xlink">
    <!-- Generator: Sketch 61.2 (89653) - https://sketch.com -->
    <title>Saaral</title>
    <desc>Created with Sketch.</desc>
    <g id="Page-1" stroke="none" stroke-width="1" fill="none" fill-rule="evenodd">
        <g id="Instincts-2017" transform="translate(-820.000000, -5433.000000)">
            <g id="Saaral" transform="translate(820.000000, 5433.000000)">
                <circle id="Oval-Copy-3" fill="#E6E6E6" fill-rule="nonzero" cx="32" cy="32" r="32"></circle>
                <g id="download-(12)" transform="translate(17.000000, 19.000000)">
                    <path d="M17.038875,14.8226875 C16.434625,15.389 15.9553125,15.8521875 15.6465625,16.161 C14.324375,17.4831875 14.142625,19.357625 14.2015625,20.6124375 C14.2380625,21.406875 14.3706875,21.952125 14.3706875,21.952125 C14.3706875,21.952125 18.0024375,22.8356875 20.1618125,20.6763125 C20.3786875,20.4594375 20.6713125,20.159125 21.022875,19.7899375 L21.0235625,23.9143125 C21.0235625,25.18175 19.996125,26.209875 18.7273125,26.209875 L3.139375,26.209875 C4.58225,26.209875 5.752125,25.04 5.752125,23.597125 L5.752125,21.818125 L5.752125,2.8355625 C5.752125,1.568125 6.78025,0.54 8.0476875,0.54 C9.49125,0.54 10.661125,1.709875 10.661125,3.15275 L10.661125,4.93175 L21.0229375,4.93175 L21.0229375,11.26675 C19.4825,12.5776875 18.0768125,13.8514375 17.038875,14.8226875 Z" id="Path" fill="#F9BF64"></path>
                    <path d="M21.0229375,19.7899375 C20.6713125,20.1590625 20.3786875,20.4594375 20.161875,20.6763125 C18.0025,22.8356875 14.37075,21.952125 14.37075,21.952125 C14.37075,21.952125 14.238125,21.4068125 14.201625,20.6124375 C14.1426875,19.357625 14.3244375,17.4831875 15.646625,16.161 C15.9554375,15.8521875 16.43475,15.3890625 17.0389375,14.8226875 C18.076875,13.8514375 19.4825625,12.5776875 21.0229375,11.26675 C24.8575,8.004875 29.52925,4.5128125 31.4493125,4.8735 C31.9791875,7.698875 24.167625,16.483125 21.0229375,19.7899375 Z" id="Path" fill="#2BA5F7"></path>
                    <path d="M3.139375,26.209875 C1.6965,26.209875 0.526625,25.04 0.526625,23.597125 L0.526625,21.818125 L5.752125,21.818125 L5.752125,23.597125 C5.752125,25.04 4.58225,26.209875 3.139375,26.209875 Z" id="Path" fill="#E09B2D"></path>
                    <path d="M25.9311875,3.15275 L25.9311875,4.93175 L21.0229375,4.93175 L10.6610625,4.93175 L10.6610625,3.15275 C10.6610625,1.709875 9.4911875,0.54 8.047625,0.54 L23.31775,0.54 C24.7613125,0.54 25.9311875,1.709875 25.9311875,3.15275 Z" id="Path" fill="#E09B2D"></path>
                    <g id="Group" fill="#333333">
                        <path d="M8.5469375,9.5598125 L18.2280625,9.5598125 C18.51875,9.5598125 18.754375,9.324125 18.754375,9.0335 C18.754375,8.7428125 18.5186875,8.5071875 18.2280625,8.5071875 L8.5469375,8.5071875 C8.25625,8.5071875 8.020625,8.742875 8.020625,9.0335 C8.020625,9.3241875 8.25625,9.5598125 8.5469375,9.5598125 Z" id="Path"></path>
                        <path d="M8.5469375,12.4545625 L18.2280625,12.4545625 C18.51875,12.4545625 18.754375,12.218875 18.754375,11.92825 C18.754375,11.637625 18.5186875,11.4019375 18.2280625,11.4019375 L8.5469375,11.4019375 C8.25625,11.4019375 8.020625,11.637625 8.020625,11.92825 C8.020625,12.218875 8.25625,12.4545625 8.5469375,12.4545625 Z" id="Path"></path>
                        <path d="M31.9668125,4.7763125 C31.9268125,4.562875 31.759875,4.396 31.5465,4.3559375 C30.0293125,4.071625 27.184875,5.6150625 22.8515,9.07525 C22.41675,9.4224375 21.9809375,9.7785625 21.5490625,10.137625 L21.5490625,5.457875 L25.931,5.457875 C26.2216875,5.457875 26.4573125,5.2221875 26.4573125,4.9315625 L26.4573125,3.153 C26.4573125,1.4220625 25.0490625,0.01375 23.3180625,0.01375 L8.0479375,0.01375 C6.4919375,0.01375 5.2260625,1.279625 5.2260625,2.835625 L5.2260625,21.291875 L0.5263125,21.291875 C0.235625,21.291875 0,21.5275625 0,21.8181875 L0,23.5968125 C0,25.327875 1.4083125,26.7361875 3.139375,26.7361875 L18.72775,26.7361875 C20.2838125,26.7361875 21.5496875,25.47025 21.5496875,23.9141875 L21.5490625,20 C23.0363125,18.428875 25.282875,15.9316875 27.2475,13.471375 C30.707625,9.1380625 32.251375,6.2939375 31.9668125,4.7763125 Z M23.318125,1.0665 C24.468625,1.0665 25.4046875,2.0025625 25.4046875,3.1530625 L25.4046875,4.40525 L11.1871875,4.40525 L11.1871875,3.153 C11.1871875,2.3528125 10.886125,1.6215 10.3915,1.0664375 C10.3915,1.0665 23.318125,1.0665 23.318125,1.0665 Z M3.139375,25.6835 C1.9888125,25.6835 1.0526875,24.7474375 1.0526875,23.5968125 L1.0526875,22.3445625 L5.2260625,22.3445625 L5.2260625,23.5969375 C5.2260625,24.7474375 4.2900625,25.6835 3.1395625,25.6835 L3.139375,25.6835 Z M18.72775,25.6835 L5.48225,25.6835 C5.977125,25.128375 6.2786875,24.3974375 6.2786875,23.5969375 L6.2786875,2.8356875 C6.2786875,1.860125 7.0723125,1.0665 8.047875,1.0665 C9.198375,1.0665 10.1344375,2.0025625 10.1344375,3.1530625 L10.1344375,4.9315625 C10.1344375,5.22225 10.370125,5.457875 10.66075,5.457875 L20.4963125,5.457875 L20.4963125,11.0253125 C19.122125,12.2 17.839375,13.3565 16.8309375,14.2964375 L8.5470625,14.2964375 C8.256375,14.2964375 8.02075,14.532125 8.02075,14.82275 C8.02075,15.1134375 8.2564375,15.3490625 8.5470625,15.3490625 L15.7216875,15.3490625 C15.5544375,15.5113125 15.4039375,15.6591875 15.27425,15.788875 C14.8450625,16.2180625 14.52475,16.695875 14.287375,17.190875 L8.5470625,17.190875 C8.256375,17.190875 8.02075,17.4265625 8.02075,17.7171875 C8.02075,18.007875 8.2564375,18.2435 8.5470625,18.2435 L13.903,18.2435 C13.7331875,18.8866875 13.6705625,19.5224375 13.663,20.0859375 L8.5470625,20.0859375 C8.256375,20.0859375 8.02075,20.321625 8.02075,20.61225 C8.02075,20.9029375 8.2564375,21.1385625 8.5470625,21.1385625 L13.7098125,21.1385625 C13.7365,21.4006875 13.769875,21.619125 13.7985,21.779625 L11.5703125,24.0078125 C11.36475,24.213375 11.36475,24.546625 11.5703125,24.752125 C11.6730625,24.854875 11.8078125,24.9063125 11.9424375,24.9063125 C12.077125,24.9063125 12.211875,24.8549375 12.3145625,24.752125 L14.543375,22.5233125 C14.8674375,22.5803125 15.430625,22.6573125 16.111,22.6573125 C16.229875,22.6573125 16.3525625,22.6549375 16.4779375,22.64975 C18.1325625,22.5808125 19.5201875,22.039 20.496375,21.0835 L20.4968125,23.914 C20.497,24.8898125 19.70325,25.6835 18.72775,25.6835 Z M19.7894375,20.304125 C18.995625,21.0979375 17.8761875,21.532875 16.4619375,21.597 C16.1049375,21.613125 15.7729375,21.60225 15.4866875,21.580375 L28.891375,8.1756875 C29.0969375,7.970125 29.0969375,7.636875 28.891375,7.431375 C28.6858125,7.2258125 28.3525625,7.2258125 28.1470625,7.431375 L14.7420625,20.836375 C14.6545625,19.692625 14.745375,17.806625 16.018625,16.533375 C17.27525,15.27675 20.4198125,12.364125 23.5083125,9.8979375 C25.1928125,8.5528125 29.089375,5.5875 30.94,5.3828125 C30.7353125,7.2334375 27.77,11.13 26.424875,12.8145625 C23.9586875,15.9029375 21.0460625,19.0475 19.7894375,20.304125 Z" id="Shape" fill-rule="nonzero"></path>
                    </g>
                </g>
            </g>
        </g>
    </g>
</svg>