<?xml version="1.0" encoding="UTF-8"?>
<svg width="64px" height="64px" viewBox="0 0 64 64" version="1.1" xmlns="http://www.w3.org/2000/svg" xmlns:xlink="http://www.w3.org/1999/xlink">
    <!-- Generator: Sketch 61.2 (89653) - https://sketch.com -->
    <title>Sponsors</title>
    <desc>Created with Sketch.</desc>
    <g id="Page-1" stroke="none" stroke-width="1" fill="none" fill-rule="evenodd">
        <g id="Instincts-2017" transform="translate(-552.000000, -5315.000000)">
            <g id="Sponsors" transform="translate(552.000000, 5315.000000)">
                <circle id="Oval-Copy-2" fill="#E6E6E6" fill-rule="nonzero" cx="32" cy="32" r="32"></circle>
                <g id="Group-92" transform="translate(13.000000, 18.000000)">
                    <polygon id="Fill-84" fill="#7CB342" points="37.0944485 10.5277273 21.0296606 27.1268182 13.3179636 19.662697 29.383903 3.06360606"></polygon>
                    <path d="M36.3990013,11.2463045 L21.0296606,27.1268182 L21.0296606,27.1268182 L13.3179636,19.662697 L28.6884301,3.78215838 C29.0724699,3.38525547 29.7055505,3.37492246 30.102396,3.75902154 C30.1024158,3.75904068 30.1024356,3.75905983 30.1023979,3.7591383 L36.3759536,9.83219503 C36.7726518,10.2163798 36.7829689,10.8493961 36.3990013,11.2463045 Z" id="Stroke-86" stroke="#424242"></path>
                    <path d="M27.1569879,10.8403636 C27.1569879,10.8403636 28.2635939,9.61169697 29.3771091,10.4039394 C30.4894727,11.1961818 29.2999576,12.7691515 29.2999576,12.7691515 L32.1971697,12.6781818 L32.5472303,12.6493939" id="Stroke-88" stroke="#424242" stroke-width="0.5"></path>
                    <line x1="28.3433939" y1="11.7113697" x2="29.8737576" y2="10.0128848" id="Stroke-90" stroke="#424242" stroke-width="0.5"></line>
                    <line x1="26.5419636" y1="11.3205455" x2="28.9900848" y2="8.60181818" id="Stroke-92" stroke="#424242" stroke-width="0.5"></line>
                    <path d="M17.7886061,8.80333333 L9.39248395,17.9807313 L0.725725479,9.67713377 C0.326935377,9.29505407 0.313388921,8.66203402 0.695468624,8.26324392 C0.696632043,8.26202961 0.697798524,8.26081825 0.698968055,8.25960983 L7.99733729,0.718573925 C8.38141532,0.321708059 9.01449566,0.311355387 9.41135308,0.695442139 C9.41135599,0.695444954 9.41135889,0.695447769 9.41135336,0.69545931 L17.7886061,8.80333333 L17.7886061,8.80333333 Z" id="Stroke-96" stroke="#424242" fill="#FC3D4B"></path>
                    <polygon id="Fill-98" fill="#FFFFFF" points="18.5488364 26.8002485 9.09835152 17.7044303 17.340897 9.14061212 28.7385939 20.1087939 20.4937455 28.6726121"></polygon>
                    <path d="M9.79181445,16.983938 L17.340897,9.14061212 L17.340897,9.14061212 L28.0180407,19.4153943 C28.416149,19.7981845 28.428306,20.4312327 28.045352,20.8291833 C28.0452994,20.8292379 28.0452469,20.8292926 28.0450304,20.8291894 L21.187309,27.9522166 C20.8042075,28.3499568 20.1712263,28.3620086 19.7732622,27.9791397 L9.81883473,18.3979027 C9.42093561,18.0149026 9.40883843,17.3818603 9.79181445,16.983938 Z" id="Stroke-100" stroke="#424242"></path>
                    <path d="M24.283051,13.0912577 L22.9556848,14.4700545 L22.9556848,14.4700545 L17.3742909,9.09938788 L18.7028009,7.71943216 C19.0858546,7.32159711 19.7188854,7.30956161 20.1167845,7.69254879 L24.2561609,11.6773179 C24.6540628,12.0603225 24.6661101,12.6933729 24.2830871,13.091257 C24.2830812,13.0912631 24.2830753,13.0912693 24.283051,13.0912577 Z" id="Stroke-104" stroke="#424242" fill="#FFFFFF"></path>
                    <line x1="26.7083576" y1="22.608503" x2="21.1753273" y2="16.8348061" id="Fill-106" fill="#FFF59D"></line>
                    <line x1="26.4780545" y1="22.3782" x2="20.9450242" y2="16.8348061" id="Stroke-108" stroke="#424242" stroke-linecap="round"></line>
                    <line x1="24.751703" y1="24.5657333" x2="19.2186727" y2="18.7920364" id="Fill-110" fill="#FFF59D"></line>
                    <line x1="24.5214" y1="24.4505818" x2="18.9883697" y2="18.7920364" id="Stroke-112" stroke="#424242" stroke-linecap="round"></line>
                    <line x1="22.793897" y1="26.5230788" x2="17.2608667" y2="20.7493818" id="Fill-114" fill="#FFF59D"></line>
                    <line x1="22.5635939" y1="26.5230788" x2="17.0305636" y2="20.7493818" id="Stroke-116" stroke="#424242" stroke-linecap="round"></line>
                </g>
            </g>
        </g>
    </g>
</svg>