<?xml version="1.0" encoding="UTF-8"?>
<svg width="160px" height="150px" viewBox="0 0 160 150" version="1.1" xmlns="http://www.w3.org/2000/svg" xmlns:xlink="http://www.w3.org/1999/xlink">
    <!-- Generator: Sketch 52.6 (67491) - http://www.bohemiancoding.com/sketch -->
    <title>clock-tower-comp</title>
    <desc>Created with Sketch.</desc>
    <g id="Page-1" stroke="none" stroke-width="1" fill="none" fill-rule="evenodd">
        <g id="Instincts-2017" transform="translate(-1117.000000, -4852.000000)">
            <g id="Group-68" transform="translate(110.000000, 4798.000000)">
                <g id="Group-67" transform="translate(1.000000, 45.000000)">
                    <g id="Group-59" transform="translate(634.000000, 0.000000)">
                        <g id="clock-tower-comp" transform="translate(372.000000, 9.000000)">
                            <g id="Group-23">
                                <polygon id="Fill-1" fill="#F9BF64" points="60 134 96 134 96 1 60 1"></polygon>
                                <path d="M59,134 L59,0 L97,0 L97,134 L59,134 Z M60.6504517,132.376181 L95.3495483,132.376181 L95.3495483,1.62381925 L60.6504517,1.62381925 L60.6504517,132.376181 Z" id="Stroke-2" fill="#32383D" fill-rule="nonzero"></path>
                                <path d="M77,3.81642174 C77,3.36552446 77.4477153,3 78,3 C78.5522847,3 79,3.36552446 79,3.81642174 L79,9.18357826 C79,9.63447554 78.5522847,10 78,10 C77.4477153,10 77,9.63447554 77,9.18357826 L77,3.81642174 Z" id="Stroke-4" fill="#1C1A1A" fill-rule="nonzero"></path>
                                <path d="M92.1835783,18 C92.6344755,18 93,18.4477153 93,19 C93,19.5522847 92.6344755,20 92.1835783,20 L86.8164217,20 C86.3655245,20 86,19.5522847 86,19 C86,18.4477153 86.3655245,18 86.8164217,18 L92.1835783,18 Z" id="Stroke-5" fill="#1C1A1A" fill-rule="nonzero"></path>
                                <path d="M79,32.1835783 C79,32.6344755 78.5522847,33 78,33 C77.4477153,33 77,32.6344755 77,32.1835783 L77,26.8164217 C77,26.3655245 77.4477153,26 78,26 C78.5522847,26 79,26.3655245 79,26.8164217 L79,32.1835783 Z" id="Stroke-6" fill="#1C1A1A" fill-rule="nonzero"></path>
                                <path d="M63.8164217,20 C63.3655245,20 63,19.5522847 63,19 C63,18.4477153 63.3655245,18 63.8164217,18 L69.1835783,18 C69.6344755,18 70,18.4477153 70,19 C70,19.5522847 69.6344755,20 69.1835783,20 L63.8164217,20 Z" id="Stroke-7" fill="#1C1A1A" fill-rule="nonzero"></path>
                                <g id="Group-22" transform="translate(0.000000, 5.000000)">
                                    <polygon id="Stroke-8" fill="#1C1A1A" fill-rule="nonzero" points="88.5203377 0.724849647 91.3011695 3.70572047 78.399178 15.7909747 68.0863928 15.7909747 68.0863928 11.7105149 76.7922468 11.7105149"></polygon>
                                    <path d="M133.830356,127.807511 L21.3604175,127.807511 C19.7543557,127.807511 18.4520773,126.50258 18.4520773,124.893247 C18.4520773,123.283098 19.7543557,121.978167 21.3604175,121.978167 L133.830356,121.978167 C135.437232,121.978167 136.738696,123.283098 136.738696,124.893247 C136.738696,126.50258 135.437232,127.807511 133.830356,127.807511" id="Fill-10" fill="#FC3D4B"></path>
                                    <path d="M133.830356,126.99142 C134.987116,126.99142 135.924263,126.052183 135.924263,124.893247 C135.924263,123.733586 134.987207,122.794259 133.830356,122.794259 L21.3604175,122.794259 C20.2040639,122.794259 19.2665103,123.733904 19.2665103,124.893247 C19.2665103,126.051865 20.2041546,126.99142 21.3604175,126.99142 L133.830356,126.99142 Z M133.830356,128.623603 L21.3604175,128.623603 C19.3045568,128.623603 17.6376443,126.953296 17.6376443,124.893247 C17.6376443,122.832544 19.3043956,121.162075 21.3604175,121.162075 L133.830356,121.162075 C135.886946,121.162075 137.553129,122.832297 137.553129,124.893247 C137.553129,126.953542 135.886785,128.623603 133.830356,128.623603 Z" id="Stroke-12" fill="#32383D" fill-rule="nonzero"></path>
                                    <path d="M140.940763,133.63653 L14.2508247,133.63653 C12.6447629,133.63653 11.3416701,132.331599 11.3416701,130.722266 C11.3416701,129.112932 12.6447629,127.807185 14.2508247,127.807185 L140.940763,127.807185 C142.547639,127.807185 143.849103,129.112932 143.849103,130.722266 C143.849103,132.331599 142.547639,133.63653 140.940763,133.63653" id="Fill-14" fill="#529DF7"></path>
                                    <path d="M140.940763,132.820438 C142.097524,132.820438 143.03467,131.881201 143.03467,130.722266 C143.03467,129.563104 142.097298,128.623277 140.940763,128.623277 L14.2508247,128.623277 C13.0945618,128.623277 12.1561031,129.563647 12.1561031,130.722266 C12.1561031,131.880657 13.094336,132.820438 14.2508247,132.820438 L140.940763,132.820438 Z M140.940763,134.452622 L14.2508247,134.452622 C12.1948791,134.452622 10.5272371,132.782229 10.5272371,130.722266 C10.5272371,128.662217 12.194964,126.991093 14.2508247,126.991093 L140.940763,126.991093 C142.997107,126.991093 144.663536,128.661885 144.663536,130.722266 C144.663536,132.782561 142.997192,134.452622 140.940763,134.452622 Z" id="Stroke-16" fill="#32383D" fill-rule="nonzero"></path>
                                    <path d="M158.715926,144.000245 L1.00016289,144.000245 L1.00016289,136.829245 C1.00016289,134.708222 2.71535876,132.989532 4.8320701,132.989532 L154.884019,132.989532 C157.00073,132.989532 158.715926,134.708222 158.715926,136.829245 L158.715926,144.000245 Z" id="Fill-18" fill="#88BA40"></path>
                                    <path d="M157.901493,136.829245 C157.901493,135.158937 156.550931,133.805624 154.884019,133.805624 L4.8320701,133.805624 C3.16515768,133.805624 1.81459588,135.158937 1.81459588,136.829245 L1.81459588,143.184153 L157.901493,143.184153 L157.901493,136.829245 Z M0.185729897,144.816337 L0.185729897,136.829245 C0.185729897,134.257507 2.26555984,132.17344 4.8320701,132.17344 L154.884019,132.17344 C157.450529,132.17344 159.530359,134.257507 159.530359,136.829245 L159.530359,144.816337 L0.185729897,144.816337 Z" id="Stroke-20" fill="#32383D" fill-rule="nonzero"></path>
                                </g>
                            </g>
                        </g>
                    </g>
                </g>
            </g>
        </g>
    </g>
</svg>