<?xml version="1.0" encoding="UTF-8"?>
<svg width="85px" height="114px" viewBox="0 0 85 114" version="1.1" xmlns="http://www.w3.org/2000/svg" xmlns:xlink="http://www.w3.org/1999/xlink">
    <!-- Generator: Sketch 52.6 (67491) - http://www.bohemiancoding.com/sketch -->
    <title>Comp-food-stall</title>
    <desc>Created with Sketch.</desc>
    <defs>
        <polygon id="path-1" points="0.364 0.0593125 5.00856364 0.0593125 5.00856364 5.5099375 0.364 5.5099375"></polygon>
        <polygon id="path-3" points="0.195809091 0.0395 6.04080909 0.0395 6.04080909 4.311875 0.195809091 4.311875"></polygon>
        <polygon id="path-5" points="0.313536364 0.059 6.99344545 0.059 6.99344545 5.561875 0.313536364 5.561875"></polygon>
        <polygon id="path-7" points="0.0257727273 0.512375 4.79054545 0.512375 4.79054545 5.561875 0.0257727273 5.561875"></polygon>
        <polygon id="path-9" points="0.530409091 0.368375 7.37513636 0.368375 7.37513636 4.936875 0.530409091 4.936875"></polygon>
        <polygon id="path-11" points="0.297563636 0.025 6.28256364 0.025 6.28256364 3.061875 0.297563636 3.061875"></polygon>
    </defs>
    <g id="Page-1" stroke="none" stroke-width="1" fill="none" fill-rule="evenodd">
        <g id="Instincts-2017" transform="translate(-1233.000000, -4595.000000)">
            <g id="Group-62" transform="translate(110.000000, 4476.000000)">
                <g id="Comp-food-stall" transform="translate(1123.000000, 119.000000)">
                    <polygon id="Fill-1" fill="#F9BF64" points="6 69 10 69 10 32 6 32"></polygon>
                    <path d="M5,71 L5,32 L10,32 L10,71 L5,71 Z M8.6845567,69.7218981 L8.6845567,33.2781019 L6.3154433,33.2781019 L6.3154433,69.7218981 L8.6845567,69.7218981 Z" id="Stroke-2" fill="#32383D" fill-rule="nonzero"></path>
                    <polygon id="Fill-3" fill="#F9BF64" points="75 69 79 69 79 32 75 32"></polygon>
                    <path d="M74,71 L74,32 L79,32 L79,71 L74,71 Z M77.6982557,69.7218981 L77.6982557,33.2781019 L75.3017443,33.2781019 L75.3017443,69.7218981 L77.6982557,69.7218981 Z" id="Stroke-4" fill="#32383D" fill-rule="nonzero"></path>
                    <polygon id="Fill-5" fill="#529DF7" points="37 72 64 72 64 46 37 46"></polygon>
                    <path d="M36,72 L36,45 L64,45 L64,72 L36,72 Z M37.2541151,70.7272556 L62.7458849,70.7272556 L62.7458849,46.2727444 L37.2541151,46.2727444 L37.2541151,70.7272556 Z" id="Stroke-6" fill="#32383D" fill-rule="nonzero"></path>
                    <polygon id="Fill-7" fill="#FFFFFF" points="40 69 61 69 61 49 40 49"></polygon>
                    <path d="M39,70 L39,48 L62,48 L62,70 L39,70 Z M60.7071752,68.7032507 L60.7071752,49.2967493 L40.2928248,49.2967493 L40.2928248,68.7032507 L60.7071752,68.7032507 Z" id="Stroke-8" fill="#32383D" fill-rule="nonzero"></path>
                    <g id="Group-53" transform="translate(40.000000, 53.000000)">
                        <path d="M3.22190909,8.203 C3.22190909,8.883 2.67018182,9.43425 1.98927273,9.43425 C1.309,9.43425 0.757272727,8.883 0.757272727,8.203 C0.757272727,7.523 1.309,6.97175 1.98927273,6.97175 C2.67018182,6.97175 3.22190909,7.523 3.22190909,8.203" id="Fill-9" fill="#F9BF64"></path>
                        <path d="M3.22190909,8.9824375 C3.22190909,10.4730625 4.431,11.6805625 5.92327273,11.6805625 C7.41554545,11.6805625 8.62463636,10.4730625 8.62463636,8.9824375 C8.62463636,7.4918125 7.41554545,6.2836875 5.92327273,6.2836875 C4.431,6.2836875 3.22190909,7.4918125 3.22190909,8.9824375" id="Fill-11" fill="#F9BF64"></path>
                        <g id="Group-15" transform="translate(0.000000, 9.375000)">
                            <mask id="mask-2" fill="white">
                                <use xlink:href="#path-1"></use>
                            </mask>
                            <g id="Clip-14"></g>
                            <path d="M5.00856364,2.7843125 C5.00856364,4.2893125 3.78738182,5.5099375 2.28047273,5.5099375 C0.773563636,5.5099375 -0.447618182,4.2893125 -0.447618182,2.7843125 C-0.447618182,1.2793125 0.773563636,0.0593125 2.28047273,0.0593125 C3.78738182,0.0593125 5.00856364,1.2793125 5.00856364,2.7843125" id="Fill-13" fill="#F9BF64" mask="url(#mask-2)"></path>
                        </g>
                        <path d="M7.78145455,10.7158125 C7.78145455,12.2333125 9.01345455,13.4633125 10.5318182,13.4633125 C12.0514545,13.4633125 13.2828182,12.2333125 13.2828182,10.7158125 C13.2828182,9.1983125 12.0514545,7.9683125 10.5318182,7.9683125 C9.01345455,7.9683125 7.78145455,9.1983125 7.78145455,10.7158125" id="Fill-16" fill="#F9BF64"></path>
                        <g id="Group-20" transform="translate(5.727273, 10.625000)">
                            <mask id="mask-4" fill="white">
                                <use xlink:href="#path-3"></use>
                            </mask>
                            <g id="Clip-19"></g>
                            <path d="M6.04080909,2.9595 C6.04080909,4.571375 4.73244545,5.878875 3.11862727,5.878875 C1.50417273,5.878875 0.195809091,4.571375 0.195809091,2.9595 C0.195809091,1.347 1.50417273,0.0395 3.11862727,0.0395 C4.73244545,0.0395 6.04080909,1.347 6.04080909,2.9595" id="Fill-18" fill="#F9BF64" mask="url(#mask-4)"></path>
                        </g>
                        <g id="Group-23" transform="translate(11.454545, 9.375000)">
                            <mask id="mask-6" fill="white">
                                <use xlink:href="#path-5"></use>
                            </mask>
                            <g id="Clip-22"></g>
                            <path d="M0.313536364,3.39525 C0.313536364,5.23775 1.80962727,6.732125 3.65380909,6.732125 C5.49799091,6.732125 6.99344545,5.23775 6.99344545,3.39525 C6.99344545,1.55275 5.49799091,0.059 3.65380909,0.059 C1.80962727,0.059 0.313536364,1.55275 0.313536364,3.39525" id="Fill-21" fill="#F9BF64" mask="url(#mask-6)"></path>
                        </g>
                        <path d="M18.4479909,7.7379375 C18.4479909,8.6591875 17.7002636,9.4060625 16.7781727,9.4060625 C15.8560818,9.4060625 15.1083545,8.6591875 15.1083545,7.7379375 C15.1083545,6.8160625 15.8560818,6.0698125 16.7781727,6.0698125 C17.7002636,6.0698125 18.4479909,6.8160625 18.4479909,7.7379375" id="Fill-24" fill="#F9BF64"></path>
                        <g id="Group-28" transform="translate(15.909091, 9.375000)">
                            <mask id="mask-8" fill="white">
                                <use xlink:href="#path-7"></use>
                            </mask>
                            <g id="Clip-27"></g>
                            <path d="M0.0257727273,3.931125 C0.0257727273,5.81925 1.55813636,7.349875 3.44813636,7.349875 C5.33813636,7.349875 6.8705,5.81925 6.8705,3.931125 C6.8705,2.043 5.33813636,0.512375 3.44813636,0.512375 C1.55813636,0.512375 0.0257727273,2.043 0.0257727273,3.931125" id="Fill-26" fill="#F9BF64" mask="url(#mask-8)"></path>
                        </g>
                        <g id="Group-31" transform="translate(0.000000, 10.000000)">
                            <mask id="mask-10" fill="white">
                                <use xlink:href="#path-9"></use>
                            </mask>
                            <g id="Clip-30"></g>
                            <path d="M0.530409091,3.787125 C0.530409091,5.67525 2.06213636,7.205875 3.95277273,7.205875 C5.84277273,7.205875 7.37513636,5.67525 7.37513636,3.787125 C7.37513636,1.899 5.84277273,0.368375 3.95277273,0.368375 C2.06213636,0.368375 0.530409091,1.899 0.530409091,3.787125" id="Fill-29" fill="#F9BF64" mask="url(#mask-10)"></path>
                        </g>
                        <g id="Group-34" transform="translate(8.909091, 11.875000)">
                            <mask id="mask-12" fill="white">
                                <use xlink:href="#path-11"></use>
                            </mask>
                            <g id="Clip-33"></g>
                            <path d="M6.28256364,3.014375 C6.28256364,4.665 4.94238182,6.003125 3.28974545,6.003125 C1.63710909,6.003125 0.297563636,4.665 0.297563636,3.014375 C0.297563636,1.363125 1.63710909,0.025 3.28974545,0.025 C4.94238182,0.025 6.28256364,1.363125 6.28256364,3.014375" id="Fill-32" fill="#F9BF64" mask="url(#mask-12)"></path>
                        </g>
                        <path d="M6.16076364,3.1578125 C6.16076364,3.7671875 5.66694545,4.2609375 5.05730909,4.2609375 C4.44703636,4.2609375 3.95258182,3.7671875 3.95258182,3.1578125 C3.95258182,2.5484375 4.44703636,2.0546875 5.05730909,2.0546875 C5.66694545,2.0546875 6.16076364,2.5484375 6.16076364,3.1578125" id="Fill-35" fill="#F9BF64"></path>
                        <path d="M9.39228182,3.3684375 C9.39228182,3.6890625 9.13264545,3.9484375 8.81191818,3.9484375 C8.49182727,3.9484375 8.23219091,3.6890625 8.23219091,3.3684375 C8.23219091,3.0484375 8.49182727,2.7890625 8.81191818,2.7890625 C9.13264545,2.7890625 9.39228182,3.0484375 9.39228182,3.3684375" id="Fill-37" fill="#F9BF64"></path>
                        <path d="M6.41677273,5.9306875 C6.41677273,6.3188125 6.10177273,6.6338125 5.71295455,6.6338125 C5.3235,6.6338125 5.0085,6.3188125 5.0085,5.9306875 C5.0085,5.5419375 5.3235,5.2275625 5.71295455,5.2275625 C6.10177273,5.2275625 6.41677273,5.5419375 6.41677273,5.9306875" id="Fill-39" fill="#F9BF64"></path>
                        <path d="M14.1258727,5.021875 C14.1258727,5.671875 13.5983273,6.199375 12.9466909,6.199375 C12.2963273,6.199375 11.7681455,5.671875 11.7681455,5.021875 C11.7681455,4.37125 12.2963273,3.84375 12.9466909,3.84375 C13.5983273,3.84375 14.1258727,4.37125 14.1258727,5.021875" id="Fill-41" fill="#F9BF64"></path>
                        <path d="M10.5320091,6.3939375 C10.5320091,6.9201875 10.1050091,7.3464375 9.57873636,7.3464375 C9.05182727,7.3464375 8.62482727,6.9201875 8.62482727,6.3939375 C8.62482727,5.8676875 9.05182727,5.4414375 9.57873636,5.4414375 C10.1050091,5.4414375 10.5320091,5.8676875 10.5320091,6.3939375" id="Fill-43" fill="#F9BF64"></path>
                        <path d="M17.1547727,3.4923125 C17.1547727,3.7841875 16.9180455,4.0198125 16.6265909,4.0198125 C16.3345,4.0198125 16.0984091,3.7841875 16.0984091,3.4923125 C16.0984091,3.2010625 16.3345,2.9648125 16.6265909,2.9648125 C16.9180455,2.9648125 17.1547727,3.2010625 17.1547727,3.4923125" id="Fill-45" fill="#F9BF64"></path>
                        <path d="M14.8299455,7.8886875 C14.8299455,8.0830625 14.6721273,8.2399375 14.4774,8.2399375 C14.2839455,8.2399375 14.1261273,8.0830625 14.1261273,7.8886875 C14.1261273,7.6936875 14.2839455,7.5368125 14.4774,7.5368125 C14.6721273,7.5368125 14.8299455,7.6936875 14.8299455,7.8886875" id="Fill-47" fill="#F9BF64"></path>
                        <path d="M19.6269182,5.8159375 C19.6269182,6.1415625 19.3628273,6.4046875 19.0370091,6.4046875 C18.7124636,6.4046875 18.4477364,6.1415625 18.4477364,5.8159375 C18.4477364,5.4903125 18.7124636,5.2278125 19.0370091,5.2278125 C19.3628273,5.2278125 19.6269182,5.4903125 19.6269182,5.8159375" id="Fill-49" fill="#F9BF64"></path>
                        <path d="M10.9254091,1.2688125 C10.9254091,1.6913125 10.5824091,2.0344375 10.1585909,2.0344375 C9.73540909,2.0344375 9.39240909,1.6913125 9.39240909,1.2688125 C9.39240909,0.8456875 9.73540909,0.5025625 10.1585909,0.5025625 C10.5824091,0.5025625 10.9254091,0.8456875 10.9254091,1.2688125" id="Fill-51" fill="#F9BF64"></path>
                    </g>
                    <polygon id="Fill-54" fill="#FC3D4B" points="68 49 32 49 33.0551063 45 66.9448937 45"></polygon>
                    <path d="M67.6244521,45.3737836 L34.3755479,45.3737836 L33.6260568,48.6262164 L68.3739432,48.6262164 L67.6244521,45.3737836 Z M32,50 L33.3826409,44 L68.6173591,44 L70,50 L32,50 Z" id="Stroke-55" fill="#32383D" fill-rule="nonzero"></path>
                    <polygon id="Fill-56" fill="#FC3D4B" points="1 114 83 114 83 70 1 70"></polygon>
                    <g id="Group-89">
                        <path d="M0.631791045,113.632768 L0.631791045,68.5334689 L83.9577985,68.5334689 L83.9577985,113.632768 L0.631791045,113.632768 Z M1.90044776,112.367232 L82.6891418,112.367232 L82.6891418,69.7990056 L1.90044776,69.7990056 L1.90044776,112.367232 Z" id="Stroke-57" fill="#32383D" fill-rule="nonzero"></path>
                        <path d="M18.8517313,35.5963571 C15.2703134,35.5963571 12.356209,32.6894192 12.356209,29.116809 L12.356209,27.4039051 L25.3466194,27.4039051 L25.3466194,29.116809 C25.3466194,32.6894192 22.4331493,35.5963571 18.8517313,35.5963571" id="Fill-59" fill="#DB9E4D"></path>
                        <path d="M25.9811381,26.7709469 L24.7124813,26.7709469 L12.9907276,26.7709469 L11.7220709,26.7709469 L11.7220709,28.0364836 L11.7220709,29.1166192 C11.7220709,33.0385175 14.9203545,36.2289356 18.8512873,36.2289356 C22.7828545,36.2289356 25.9811381,33.0385175 25.9811381,29.1166192 L25.9811381,28.0364836 L25.9811381,26.7709469 Z M24.7124813,28.0364836 L24.7124813,29.1166192 C24.7124813,32.3462689 22.0882649,34.9633989 18.8512873,34.9633989 C15.6143097,34.9633989 12.9907276,32.3462689 12.9907276,29.1166192 L12.9907276,28.0364836 L24.7124813,28.0364836 Z" id="Fill-60" fill="#32383D"></path>
                        <polygon id="Fill-61" fill="#F9BF64" points="17.1767239 1.32986215 12.9901567 28.0390147 24.7125448 28.0390147 27.2244851 1.32986215"></polygon>
                        <path d="M16.6338723,0.697093785 L27.9211094,0.697093785 L25.290148,28.6717831 L12.2489367,28.6717831 L16.6338723,0.697093785 Z M17.7195754,1.96263051 L13.7313768,27.4062463 L24.1349415,27.4062463 L26.5278607,1.96263051 L17.7195754,1.96263051 Z" id="Stroke-62" fill="#32383D" fill-rule="nonzero"></path>
                        <path d="M30.5732313,35.5963571 C26.9918134,35.5963571 24.0783433,32.6894192 24.0783433,29.116809 L24.0783433,28.8795209 L25.1408433,27.6658712 L37.0681194,27.3887186 L37.0681194,29.116809 C37.0681194,32.6894192 34.1546493,35.5963571 30.5732313,35.5963571" id="Fill-63" fill="#D12237"></path>
                        <path d="M37.7025746,26.7413333 L36.4047388,26.7717062 L25.4048507,27.0260791 L24.8460075,27.0393672 L24.4787313,27.4595254 L23.7568657,28.2840226 L23.4435075,28.6421695 L23.4435075,29.1167458 C23.4435075,33.0386441 26.641791,36.2290621 30.5733582,36.2290621 C34.504291,36.2290621 37.7025746,33.0386441 37.7025746,29.1167458 L37.7025746,28.0366102 L37.7025746,26.7413333 Z M36.4339179,28.0366102 L36.4339179,29.1167458 C36.4339179,32.3457627 33.8097015,34.9635254 30.5733582,34.9635254 C27.3363806,34.9635254 24.7121642,32.3457627 24.7121642,29.1167458 L25.4346642,28.2916158 L36.4339179,28.0366102 Z" id="Fill-64" fill="#32383D"></path>
                        <polygon id="Fill-65" fill="#FC3D4B" points="27.2244216 1.32986215 24.7124813 28.0390147 36.4342351 28.0390147 37.2715485 1.32986215"></polygon>
                        <path d="M26.6468184,0.697093785 L37.9260238,0.697093785 L37.0490367,28.6717831 L24.015857,28.6717831 L26.6468184,0.697093785 Z M25.4091057,27.4062463 L35.8194335,27.4062463 L36.6170732,1.96263051 L27.8020249,1.96263051 L25.4091057,27.4062463 Z" id="Stroke-66" fill="#32383D" fill-rule="nonzero"></path>
                        <path d="M7.12966045,36.1352226 C3.54824254,36.1352226 0.634772388,33.2282847 0.634772388,29.6563073 L0.634772388,29.5177311 L1.23928731,28.2072678 L13.6245485,27.9288497 L13.6245485,29.6563073 C13.6245485,33.2282847 10.7110784,36.1352226 7.12966045,36.1352226" id="Fill-67" fill="#D12237"></path>
                        <path d="M14.2590672,27.2814011 L12.9618657,27.3105085 L1.62134328,27.5655141 L0.829067164,27.5838644 L0.497947761,28.300791 L0.11608209,29.1265537 L0,29.3783955 L0,29.6561808 C0,33.5774463 3.19828358,36.7678644 7.12985075,36.7678644 C11.0607836,36.7678644 14.2590672,33.5774463 14.2590672,29.6561808 L14.2590672,28.5760452 L14.2590672,27.2814011 Z M12.9904104,28.5760452 L12.9904104,29.6561808 C12.9904104,32.884565 10.366194,35.5023277 7.12985075,35.5023277 C3.89223881,35.5023277 1.26865672,32.884565 1.26865672,29.6561808 L1.64988806,28.8304181 L12.9904104,28.5760452 Z" id="Fill-68" fill="#32383D"></path>
                        <polygon id="Fill-69" fill="#FC3D4B" points="7.12966045 1.32986215 1.26910075 28.0390147 12.9902201 28.0390147 17.1767873 1.32986215"></polygon>
                        <path d="M6.61915768,0.697093785 L17.9180074,0.697093785 L13.5330717,28.6717831 L0.480912137,28.6717831 L6.61915768,0.697093785 Z M2.05728936,27.4062463 L12.4473686,27.4062463 L16.4355673,1.96263051 L7.64016321,1.96263051 L2.05728936,27.4062463 Z" id="Stroke-70" fill="#32383D" fill-rule="nonzero"></path>
                        <path d="M54.0167388,35.5963571 C50.4353209,35.5963571 47.5218507,32.6894192 47.5218507,29.116809 L47.5218507,27.4039051 L60.5116269,27.4039051 L60.5116269,29.116809 C60.5116269,32.6894192 57.5981567,35.5963571 54.0167388,35.5963571" id="Fill-71" fill="#D12237"></path>
                        <path d="M61.1467164,26.7709469 L59.8780597,26.7709469 L48.156306,26.7709469 L46.8876493,26.7709469 L46.8876493,28.0364836 L46.8876493,29.1166192 C46.8876493,33.0385175 50.0859328,36.2289356 54.0168657,36.2289356 C57.9477985,36.2289356 61.1467164,33.0385175 61.1467164,29.1166192 L61.1467164,28.0364836 L61.1467164,26.7709469 Z M59.8780597,28.0364836 L59.8780597,29.1166192 C59.8780597,32.3462689 57.2538433,34.9633989 54.0168657,34.9633989 C50.7798881,34.9633989 48.156306,32.3462689 48.156306,29.1166192 L48.156306,28.0364836 L59.8780597,28.0364836 Z" id="Fill-72" fill="#32383D"></path>
                        <polygon id="Fill-73" fill="#FC3D4B" points="47.3184851 1.32986215 48.1557985 28.0390147 59.8775522 28.0390147 57.3662463 1.32986215"></polygon>
                        <path d="M46.6640098,0.697093785 L57.9438631,0.697093785 L60.5741601,28.6717831 L47.5409969,28.6717831 L46.6640098,0.697093785 Z M48.7706001,27.4062463 L59.1809443,27.4062463 L56.7886294,1.96263051 L47.9729604,1.96263051 L48.7706001,27.4062463 Z" id="Stroke-74" fill="#32383D" fill-rule="nonzero"></path>
                        <path d="M77.4602463,35.5963571 C73.8788284,35.5963571 70.9653582,32.6894192 70.9653582,29.116809 L70.9653582,27.3880859 L82.4086418,27.6639729 L83.9551343,28.7959955 L83.9551343,29.116809 C83.9551343,32.6894192 81.0416642,35.5963571 77.4602463,35.5963571" id="Fill-75" fill="#D12237"></path>
                        <path d="M70.3308396,26.7400678 L70.3308396,28.0366102 L70.3308396,29.1167458 C70.3308396,33.0386441 73.5291231,36.2290621 77.460056,36.2290621 C81.3916231,36.2290621 84.5899067,33.0386441 84.5899067,29.1167458 L84.5899067,28.4757514 L84.0716604,28.0967232 L82.944459,27.2715932 L82.6234888,27.0362034 L82.2244963,27.0260791 L71.629944,26.7717062 L70.3308396,26.7400678 Z M71.5994963,28.0366102 L82.1940485,28.2916158 L83.32125,29.1167458 C83.32125,32.3457627 80.6970336,34.9635254 77.460056,34.9635254 C74.2237127,34.9635254 71.5994963,32.3457627 71.5994963,29.1167458 L71.5994963,28.0366102 Z" id="Fill-76" fill="#32383D"></path>
                        <polygon id="Fill-77" fill="#FC3D4B" points="71.5994963 28.0389514 83.32125 28.0389514 77.460056 1.32979887 67.4129291 1.32979887"></polygon>
                        <path d="M71.0566447,28.6717198 L66.671709,0.697030508 L77.9705469,0.697030508 L84.1094569,28.6717198 L71.0566447,28.6717198 Z M82.5330431,27.4061831 L76.949565,1.96256723 L68.1541492,1.96256723 L72.1423478,27.4061831 L82.5330431,27.4061831 Z" id="Stroke-78" fill="#32383D" fill-rule="nonzero"></path>
                        <path d="M42.2952388,35.5963571 C38.7138209,35.5963571 35.7997164,32.6894192 35.7997164,29.116809 L35.7997164,28.7510689 L37.6982612,27.6589107 L47.2690075,27.6589107 L48.7901269,28.8010576 L48.7901269,29.116809 C48.7901269,32.6894192 45.8766567,35.5963571 42.2952388,35.5963571" id="Fill-79" fill="#DB9E4D"></path>
                        <path d="M47.4813806,27.0262056 L47.0576493,27.0262056 L37.8675,27.0262056 L37.5281343,27.0262056 L37.233806,27.1957876 L35.7995896,28.0209175 L35.1652612,28.3860249 L35.1652612,29.1168723 C35.1652612,33.0387706 38.3635448,36.2291887 42.2951119,36.2291887 C46.2260448,36.2291887 49.4243284,33.0387706 49.4243284,29.1168723 L49.4243284,28.4860023 L48.919403,28.1063412 L47.8207463,27.2805785 L47.4813806,27.0262056 Z M47.0576493,28.2917424 L48.1556716,29.1168723 C48.1556716,32.3458893 45.5320896,34.963652 42.2951119,34.963652 C39.0581343,34.963652 36.4339179,32.3458893 36.4339179,29.1168723 L37.8675,28.2917424 L47.0576493,28.2917424 Z" id="Fill-80" fill="#32383D"></path>
                        <polygon id="Fill-81" fill="#F9BF64" points="37.2714216 1.32986215 36.4341082 28.0390147 48.1558619 28.0390147 47.3185485 1.32986215"></polygon>
                        <path d="M36.65662,0.697093785 L47.9333501,0.697093785 L48.8103372,28.6717831 L35.7796329,28.6717831 L36.65662,0.697093785 Z M37.8862232,1.96263051 L37.0885835,27.4062463 L47.5013866,27.4062463 L46.7037469,1.96263051 L37.8862232,1.96263051 Z" id="Stroke-82" fill="#32383D" fill-rule="nonzero"></path>
                        <path d="M65.7388097,35.5963571 C62.1573918,35.5963571 59.2432873,32.6894192 59.2432873,29.116809 L59.2432873,28.7789107 L60.9191828,27.6589107 L70.4867575,27.6589107 L72.2336978,28.7694192 L72.2336978,29.116809 C72.2336978,32.6894192 69.3202276,35.5963571 65.7388097,35.5963571" id="Fill-83" fill="#DB9E4D"></path>
                        <path d="M70.6715373,27.0262056 L70.3017239,27.0262056 L61.112209,27.0262056 L60.725903,27.0262056 L60.4055672,27.2407141 L59.1711642,28.0658441 L58.6091493,28.4417085 L58.6091493,29.1168723 C58.6091493,33.0387706 61.8067985,36.2291887 65.739,36.2291887 C69.6699328,36.2291887 72.8682164,33.0387706 72.8682164,29.1168723 L72.8682164,28.4227254 L72.2814627,28.0500249 L70.9836269,27.2242621 L70.6715373,27.0262056 Z M70.3017239,28.2917424 L71.5995597,29.1168723 C71.5995597,32.3458893 68.9753433,34.963652 65.739,34.963652 C62.5013881,34.963652 59.877806,32.3458893 59.877806,29.1168723 L61.112209,28.2917424 L70.3017239,28.2917424 Z" id="Fill-84" fill="#32383D"></path>
                        <polygon id="Fill-85" fill="#F9BF64" points="57.3661194 1.32986215 59.8774254 28.0390147 71.5991791 28.0390147 67.4132463 1.32986215"></polygon>
                        <path d="M56.6695115,0.697093785 L67.9561105,0.697093785 L72.3403818,28.6717831 L59.2998085,28.6717831 L56.6695115,0.697093785 Z M58.0627273,1.96263051 L60.4550422,27.4062463 L70.8579764,27.4062463 L66.870382,1.96263051 L58.0627273,1.96263051 Z" id="Stroke-86" fill="#32383D" fill-rule="nonzero"></path>
                        <path d="M72.7417948,102.769907 L11.847541,102.769907 C11.847541,100.323625 9.85955597,98.3405288 7.40724254,98.3405288 L7.40724254,83.8254554 C9.85955597,83.8254554 11.847541,81.8423593 11.847541,79.3960768 L72.7417948,79.3960768 C72.7417948,81.8423593 74.7304142,83.8254554 77.1820933,83.8254554 L77.1820933,98.3405288 C74.7304142,98.3405288 72.7417948,100.323625 72.7417948,102.769907" id="Fill-87" fill="#F3FFBE"></path>
                        <path d="M76.2306007,97.4748855 L76.2306007,84.6910987 C74.0157336,84.2975981 72.2684934,82.5547696 71.8740139,80.3452294 L12.715345,80.3452294 C12.3209388,82.5549242 10.5738775,84.2976889 8.35873507,84.6911251 L8.35873507,97.4748591 C10.5738775,97.8682952 12.3209388,99.61106 12.715345,101.820755 L71.8740139,101.820755 C72.2684934,99.6112146 74.0157336,97.8683861 76.2306007,97.4748855 Z M10.8960485,103.71906 L10.8960485,102.769907 C10.8960485,100.847827 9.33406115,99.2896814 7.40724254,99.2896814 L6.45575,99.2896814 L6.45575,82.8763028 L7.40724254,82.8763028 C9.33406115,82.8763028 10.8960485,81.3181568 10.8960485,79.3960768 L10.8960485,78.4469243 L73.6932873,78.4469243 L73.6932873,79.3960768 C73.6932873,81.3179174 75.2556689,82.8763028 77.1820933,82.8763028 L78.1335858,82.8763028 L78.1335858,99.2896814 L77.1820933,99.2896814 C75.2556689,99.2896814 73.6932873,100.848067 73.6932873,102.769907 L73.6932873,103.71906 L10.8960485,103.71906 Z" id="Stroke-88" fill="#32383D" fill-rule="nonzero"></path>
                    </g>
                </g>
            </g>
        </g>
    </g>
</svg>