<?xml version="1.0" encoding="UTF-8"?>
<svg width="182px" height="127px" viewBox="0 0 182 127" version="1.1" xmlns="http://www.w3.org/2000/svg" xmlns:xlink="http://www.w3.org/1999/xlink">
    <!-- Generator: Sketch 52.6 (67491) - http://www.bohemiancoding.com/sketch -->
    <title>Comp-showcase</title>
    <desc>Created with Sketch.</desc>
    <defs>
        <polygon id="path-1" points="0.504266272 0.194911243 13.0872249 0.194911243 13.0872249 7.31763905 0.504266272 7.31763905"></polygon>
        <polygon id="path-3" points="0.504266272 0.194911243 13.0872249 0.194911243 13.0872249 7.31763905 0.504266272 7.31763905"></polygon>
        <polygon id="path-5" points="0.306159763 0.194911243 12.8891183 0.194911243 12.8891183 7.31763905 0.306159763 7.31763905"></polygon>
        <polygon id="path-7" points="0.306159763 0.194911243 12.8891183 0.194911243 12.8891183 7.31763905 0.306159763 7.31763905"></polygon>
        <polygon id="path-9" points="0.108 0.194911243 12.690426 0.194911243 12.690426 7.31763905 0.108 7.31763905"></polygon>
        <polygon id="path-11" points="0.108 0.194911243 12.690426 0.194911243 12.690426 7.31763905 0.108 7.31763905"></polygon>
        <polygon id="path-13" points="0.441852071 0.194911243 13.0248107 0.194911243 13.0248107 7.31763905 0.441852071 7.31763905"></polygon>
        <polygon id="path-15" points="0.441852071 0.194911243 13.0248107 0.194911243 13.0248107 7.31763905 0.441852071 7.31763905"></polygon>
        <polygon id="path-17" points="0.243692308 0.194911243 12.8266509 0.194911243 12.8266509 7.31763905 0.243692308 7.31763905"></polygon>
        <polygon id="path-19" points="0.243692308 0.194911243 12.8266509 0.194911243 12.8266509 7.31763905 0.243692308 7.31763905"></polygon>
        <polygon id="path-21" points="0.0455857988 0.194911243 12.6285444 0.194911243 12.6285444 7.31763905 0.0455857988 7.31763905"></polygon>
        <polygon id="path-23" points="0.0455857988 0.194911243 12.6285444 0.194911243 12.6285444 7.31763905 0.0455857988 7.31763905"></polygon>
        <polygon id="path-25" points="0.379970414 0.194911243 12.9623964 0.194911243 12.9623964 7.31763905 0.379970414 7.31763905"></polygon>
        <polygon id="path-27" points="0.379970414 0.194911243 12.9623964 0.194911243 12.9623964 7.31763905 0.379970414 7.31763905"></polygon>
        <polygon id="path-29" points="0.181331361 0.194911243 12.7642899 0.194911243 12.7642899 7.31763905 0.181331361 7.31763905"></polygon>
        <polygon id="path-31" points="0.181331361 0.194911243 12.7642899 0.194911243 12.7642899 7.31763905 0.181331361 7.31763905"></polygon>
        <polygon id="path-33" points="0.515715976 0.194911243 13.0986746 0.194911243 13.0986746 7.31763905 0.515715976 7.31763905"></polygon>
        <polygon id="path-35" points="0.515715976 0.194911243 13.0986746 0.194911243 13.0986746 7.31763905 0.515715976 7.31763905"></polygon>
        <polygon id="path-37" points="0.317556213 0.194911243 12.9005148 0.194911243 12.9005148 7.31763905 0.317556213 7.31763905"></polygon>
        <polygon id="path-39" points="0.317556213 0.194911243 12.9005148 0.194911243 12.9005148 7.31763905 0.317556213 7.31763905"></polygon>
        <polygon id="path-41" points="0.119449704 0.194911243 12.7024083 0.194911243 12.7024083 7.31763905 0.119449704 7.31763905"></polygon>
        <polygon id="path-43" points="0.119449704 0.194911243 12.7024083 0.194911243 12.7024083 7.31763905 0.119449704 7.31763905"></polygon>
    </defs>
    <g id="Page-1" stroke="none" stroke-width="1" fill="none" fill-rule="evenodd">
        <g id="Instincts-2017" transform="translate(-525.000000, -4579.000000)">
            <g id="Group-62" transform="translate(110.000000, 4476.000000)">
                <g id="Comp-showcase" transform="translate(415.000000, 103.000000)">
                    <g id="Group-33" transform="translate(0.000000, 0.169349)">
                        <path d="M90.9494083,1.4806213 C74.8111834,33.4710947 23.3034911,49.0799704 23.3034911,49.0799704 L23.5404734,60.636716 L90.6250888,60.636716 L158.357811,60.636716 L158.594793,49.0799704 C158.594793,49.0799704 107.087101,33.4710947 90.9494083,1.4806213" id="Fill-1" fill="#FC3D4B"></path>
                        <path d="M90.4739392,1.24076157 L90.9494161,0.298233422 L91.4248805,1.24076787 C97.2745384,12.8368078 108.173255,23.0944405 122.663663,32.0056617 C130.557413,36.8601109 139.01851,41.0077419 147.479899,44.4516772 C150.441403,45.6570616 153.190987,46.6882231 155.657839,47.5457049 C156.520555,47.8455867 157.286075,48.1022721 157.945548,48.3158329 C158.17595,48.390445 158.376525,48.4543042 158.546168,48.5074198 C158.613635,48.528544 158.810079,48.5885261 159.1355,48.6873662 L158.879547,61.1692604 L23.0187374,61.1692604 L22.7627841,48.6873662 L23.1490449,48.5703138 C23.5217639,48.4543028 23.7223415,48.3904427 23.9527456,48.3158297 C24.6122274,48.1022663 25.3777563,47.8455777 26.2404836,47.5456922 C28.7073653,46.6881999 31.4569838,45.6570256 34.4185235,44.4516264 C42.8800167,41.0076485 51.3412177,36.8599663 59.2350648,32.005457 C73.7254023,23.0942787 84.6241333,12.8367124 90.4739392,1.24076157 Z M59.7930047,32.912715 C51.844739,37.8006904 43.3322477,41.9735151 34.8200485,45.4381312 C31.840796,46.6507398 29.0739644,47.6883695 26.5901858,48.5517352 C25.720182,48.85415 24.9474701,49.1132471 24.2808821,49.3291118 C24.1212579,49.3808037 23.9755557,49.4274686 23.8441271,49.4691096 L24.0622094,60.1041716 L157.836075,60.1041716 L158.054157,49.4691096 C157.922731,49.4274694 157.777032,49.3808057 157.617412,49.3291149 C156.950832,49.1132528 156.17813,48.854159 155.308136,48.5517478 C152.824388,47.6883927 150.05759,46.6507758 147.078374,45.438182 C138.566279,41.9736084 130.053892,37.800835 122.105723,32.9129198 C107.843588,24.1420806 97.0042371,14.0614947 90.9494007,2.63967964 C84.8944269,14.061402 74.0550669,24.1419201 59.7930047,32.912715 Z" id="Stroke-3" fill="#32383D" fill-rule="nonzero"></path>
                        <path d="M90.8724556,3.72678698 C79.356716,35.7167278 42.6766568,49.0798639 42.6766568,49.0798639 L42.8460059,60.6366095 L90.7174852,60.6366095 L139.052278,60.6366095 L139.221627,49.0798639 C139.221627,49.0798639 102.388195,35.7167278 90.8724556,3.72678698" id="Fill-5" fill="#F9BF64"></path>
                        <path d="M90.3713881,3.54641269 L90.8724556,2.15448131 L91.3735231,3.54641269 C95.5506096,15.1500747 103.333188,25.1035254 113.683192,33.4900269 C119.312212,38.0511632 125.345624,41.8600164 131.378782,44.948768 C133.489844,46.0295526 135.449492,46.9428783 137.207122,47.6929053 C137.821334,47.9550058 138.366104,48.1778666 138.835109,48.3620127 C138.998694,48.4262415 139.14097,48.4809902 139.261146,48.5263248 C139.308686,48.5442585 139.474861,48.6050024 139.75967,48.7085564 L139.577076,61.1691538 L42.3212081,61.1691538 L42.1386221,48.7090937 L42.4943631,48.5794915 C42.7559101,48.4810984 42.8978016,48.4262688 43.0609466,48.3619444 C43.528698,48.1775203 44.0720172,47.9543201 44.6845962,47.6918177 C46.4375691,46.9406337 48.3920324,46.0258859 50.4975138,44.9434047 C56.5147574,41.8497875 62.532265,38.0348521 68.1464649,33.4663322 C78.4468789,25.0844351 86.198348,15.1388341 90.3713881,3.54641269 Z M68.8187208,34.2924594 C63.1428237,38.911185 57.0637988,42.7651206 50.9845098,45.8906369 C48.8562049,46.9848523 46.879295,47.9101058 45.1041127,48.670807 C44.4818373,48.9374645 43.9289082,49.1646125 43.4516181,49.3527975 C43.3671859,49.3860872 43.2881514,49.416957 43.214615,49.4454154 L43.3708037,60.1040651 L138.52748,60.1040651 L138.683661,49.4459666 C138.60988,49.4175331 138.530576,49.3866877 138.44585,49.3534217 C137.967332,49.16554 137.412975,48.9387577 136.78909,48.6725295 C135.0093,47.9130461 133.027251,46.9892803 130.893408,45.8968326 C124.798269,42.7763491 118.703383,38.9286874 113.012658,34.3175517 C102.921486,26.1407801 95.2261812,16.4789735 90.8724991,5.24789278 C86.524933,16.4669671 78.8610856,26.1205482 68.8187208,34.2924594 Z" id="Stroke-7" fill="#32383D" fill-rule="nonzero"></path>
                        <path d="M90.8724556,5.54180473 C84.1474852,37.5322781 62.7589053,49.0799704 62.7589053,49.0799704 L62.8579586,60.636716 L90.8144083,60.636716 L119.040858,60.636716 L119.139379,49.0799704 C119.139379,49.0799704 97.597426,37.5322781 90.8724556,5.54180473" id="Fill-9" fill="#FC3D4B"></path>
                        <path d="M90.3513021,5.43224892 L90.8724556,2.95313775 L91.3936092,5.43224892 C93.8383649,17.061875 98.3906564,26.7820067 104.439616,34.7470259 C107.720147,39.0666922 111.233653,42.5959299 114.744904,45.3919051 C115.971654,46.3687541 117.109567,47.1837478 118.129142,47.8440093 C118.484509,48.0741391 118.799241,48.2682717 119.069648,48.4272989 C119.229686,48.5214179 119.338029,48.5822239 119.390982,48.61061 L119.674647,48.7626704 L119.568882,61.1692604 L62.3299591,61.1692604 L62.2236311,48.7637611 L62.5059038,48.6113621 C62.5585769,48.5829239 62.6663917,48.5219789 62.8256722,48.4276304 C63.0948268,48.2681989 63.4081094,48.0735642 63.7618455,47.8428308 C64.7767797,47.1808143 65.9095284,46.363616 67.1307255,45.3840825 C70.626175,42.5803501 74.1239083,39.0410752 77.3897589,34.7088333 C83.3893351,26.7502278 87.9106151,17.0425203 90.3513021,5.43224892 Z M78.2402565,35.3499789 C74.9190623,39.7556359 71.3592476,43.3577295 67.7971492,46.2149216 C66.5482044,47.2167117 65.3872501,48.0542584 64.3437327,48.734919 C63.9770108,48.9741227 63.6507031,49.1768496 63.3684868,49.3440181 C63.3511687,49.3542763 63.3569925,52.9409941 63.3859581,60.1041716 L118.512834,60.1041716 L118.604181,49.3889701 C118.246271,49.1786934 117.918535,48.9765393 117.5502,48.7380115 C116.502059,48.0592511 115.335945,47.2240591 114.081435,46.2251054 C110.503374,43.3759303 106.927566,39.7841122 103.591404,35.3911925 C97.8566062,27.8398484 93.4489401,18.7399184 90.872588,7.97207296 C88.3035475,18.7196919 83.927176,27.8061214 78.2402565,35.3499789 Z" id="Stroke-11" fill="#32383D" fill-rule="nonzero"></path>
                        <path d="M160.886917,48.1375266 L21.0114734,48.1375266 C17.9738402,81.9658107 1.2418284,125.615278 1.2418284,125.615278 L180.65603,125.615278 C180.65603,125.615278 163.92455,81.9658107 160.886917,48.1375266" id="Fill-13" fill="#FC3D4B"></path>
                        <path d="M161.373784,47.6049822 L161.417327,48.0898981 C161.947841,53.9979045 162.917882,60.4415822 164.28057,67.3370992 C166.000227,76.0389602 168.30398,85.2643314 171.048056,94.7594017 C173.259006,102.409746 175.628032,109.800287 177.996977,116.652738 C178.826013,119.050824 179.595757,121.210184 180.28644,123.096059 C180.528075,123.75583 180.742534,124.334204 180.927346,124.826836 C180.991971,124.999097 181.048257,125.148295 181.095896,125.273886 C181.114896,125.323976 181.226427,125.615288 181.430489,126.147822 L0.467360073,126.147822 L0.744566075,125.424664 C0.849605789,125.148292 0.905893574,124.999095 0.97051961,124.826834 C1.1553365,124.334205 1.36980092,123.755835 1.61144174,123.096068 C2.30214214,121.210205 3.07190589,119.050857 3.90096344,116.652786 C6.26996846,109.800374 8.6390551,102.409872 10.8500611,94.7595645 C13.5942362,85.2644373 15.8980679,76.0390094 17.6177739,67.337097 C18.9804929,60.4415807 19.9505498,53.9979037 20.4810631,48.0898981 L20.5246065,47.6049822 L161.373784,47.6049822 Z M21.4974732,48.670071 C20.9545846,54.4849697 19.9950995,60.8012616 18.6626541,67.5435903 C16.9365057,76.2781022 14.6254237,85.532563 11.8732742,95.0552821 C9.65685054,102.724335 7.28226253,110.131999 4.9075929,117.000796 C4.07636432,119.405147 3.30443381,121.570573 2.61156244,123.462364 C2.38800084,124.072768 2.18751734,124.614023 2.01204483,125.082734 L179.885822,125.082734 C179.710353,124.614018 179.509873,124.072757 179.286316,123.462344 C178.593462,121.570542 177.821551,119.405104 176.990344,117.000739 C174.615735,110.131903 172.241207,102.7242 170.02484,95.055111 C167.272791,85.5324501 164.961788,76.2780471 163.235689,67.5435881 C161.903274,60.8012601 160.943805,54.4849689 160.400917,48.670071 L21.4974732,48.670071 Z" id="Stroke-15" fill="#32383D" fill-rule="nonzero"></path>
                        <path d="M150.234485,48.1375266 L31.6640118,48.1375266 C29.0891598,81.9658107 14.9053728,125.615278 14.9053728,125.615278 L166.993124,125.615278 C166.993124,125.615278 152.809337,81.9658107 150.234485,48.1375266" id="Fill-17" fill="#F9BF64"></path>
                        <path d="M150.728035,47.6049822 L150.765494,48.0971087 C151.215409,54.0080719 152.03804,60.4543758 153.193614,67.3523561 C154.651776,76.0565786 156.605153,85.2840175 158.931854,94.7810281 C160.806387,102.432402 162.81492,109.823838 164.823387,116.677122 C165.526276,119.075517 166.178901,121.235175 166.764504,123.121339 C166.969385,123.781241 167.151229,124.359744 167.30794,124.852504 C167.362744,125.024827 167.410479,125.174086 167.450884,125.299738 C167.477942,125.383702 167.56969,125.666397 167.726128,126.147822 L14.1723689,126.147822 L14.3988971,125.4507 C14.4880177,125.174086 14.535753,125.024827 14.5905565,124.852504 C14.7472682,124.359744 14.9291121,123.781241 15.1339935,123.121339 C15.719596,121.235175 16.3722207,119.075517 17.0751096,116.677122 C19.0835768,109.823838 21.0921098,102.432402 22.9666428,94.7810281 C25.2933441,85.2840175 27.2467208,76.0565786 28.7048827,67.3523561 C29.8604565,60.4543758 30.6830883,54.0080719 31.1330034,48.0971087 L31.1704618,47.6049822 L150.728035,47.6049822 Z M32.1568044,48.670071 C31.6967428,54.4800548 30.883948,60.7912796 29.7553335,67.5283312 C28.2924502,76.2607371 26.3337313,85.5134113 24.0011379,95.0344722 C22.1225695,102.702317 20.1099224,110.108893 18.0972094,116.976665 C17.3926853,119.380639 16.7384265,121.545705 16.1511848,123.437149 C15.9582508,124.058569 15.7856013,124.608293 15.6349665,125.082734 L166.263531,125.082734 C166.112896,124.608293 165.940246,124.058569 165.747312,123.437149 C165.160071,121.545705 164.505812,119.380639 163.801288,116.976665 C161.788575,110.108893 159.775928,102.702317 157.897359,95.0344722 C155.564766,85.5134113 153.606047,76.2607371 152.143164,67.5283312 C151.014549,60.7912796 150.201754,54.4800548 149.741693,48.670071 L32.1568044,48.670071 Z" id="Stroke-19" fill="#32383D" fill-rule="nonzero"></path>
                        <path d="M136.746148,48.1375266 L45.1522426,48.1375266 C43.1626568,81.9658107 32.2066213,125.615278 32.2066213,125.615278 L149.691769,125.615278 C149.691769,125.615278 138.734669,81.9658107 136.746148,48.1375266" id="Fill-21" fill="#FC3D4B"></path>
                        <path d="M137.248307,47.6049822 L137.277775,48.1062761 C137.625462,54.0210516 138.261203,60.4707809 139.154239,67.3720008 C140.281035,76.0796754 141.790492,85.3102452 143.588427,94.8102369 C145.036745,102.462908 146.588573,109.855459 148.140357,116.709779 C148.683432,119.108574 149.187679,121.26862 149.640154,123.155171 C149.79847,123.815253 149.938989,124.393937 150.060095,124.88688 C150.102453,125.059292 150.139351,125.208642 150.170587,125.334385 C150.191512,125.418439 150.259489,125.689585 150.374518,126.147822 L31.5238888,126.147822 L31.6900992,125.485631 C31.7590383,125.208618 31.7959375,125.05925 31.838297,124.886816 C31.9594064,124.393812 32.0999303,123.815057 32.2582506,123.154895 C32.7107385,121.268117 33.2150003,119.107816 33.7580914,116.708749 C35.309921,109.853649 36.8617949,102.46032 38.3101551,94.8069256 C40.1077575,85.3080733 41.6170037,76.0786385 42.7437616,67.3719951 C43.6368736,60.4707718 44.2727435,54.0210388 44.6206169,48.1062595 L44.6500992,47.6049822 L137.248307,47.6049822 Z M45.6537787,48.670071 C45.2984172,54.4737541 44.6710262,60.7784532 43.8000418,67.5086922 C42.6704087,76.2375526 41.1578909,85.4869943 39.3566691,95.0049723 C37.9058084,102.67158 36.351374,110.077107 34.7968954,116.943909 C34.2527787,119.347507 33.7474904,121.512205 33.2939716,123.403282 C33.1413696,124.0396 33.0052059,124.600702 32.8869166,125.082734 L149.011459,125.082734 C148.893178,124.600782 148.757026,124.03978 148.604438,123.403579 C148.150932,121.512729 147.645659,119.348284 147.101558,116.944958 C145.547124,110.078934 143.992734,102.674183 142.541916,95.008296 C140.740359,85.4891714 139.227629,76.238587 138.097957,67.5086865 C137.227047,60.7784504 136.599779,54.4737534 136.244596,48.670071 L45.6537787,48.670071 Z" id="Stroke-23" fill="#32383D" fill-rule="nonzero"></path>
                        <path d="M124.601101,48.1375266 L57.2970769,48.1375266 C55.8352426,81.9658107 47.7847692,125.615278 47.7847692,125.615278 L134.113408,125.615278 C134.113408,125.615278 126.062935,81.9658107 124.601101,48.1375266" id="Fill-25" fill="#F9BF64"></path>
                        <path d="M125.111129,47.6049822 L125.133148,48.114535 C125.388897,54.0328003 125.856345,60.4856957 126.512874,67.389931 C127.341077,76.0995264 128.450376,85.3316145 129.771597,94.832994 C130.836059,102.487925 131.976585,109.882646 133.117085,116.739069 C133.516231,119.138646 133.886846,121.29944 134.219418,123.186702 C134.33579,123.847082 134.439085,124.426053 134.528115,124.919271 C134.559259,125.091808 134.586391,125.241278 134.609362,125.367138 C134.624756,125.451303 134.672687,125.711531 134.753154,126.147822 L47.1450234,126.147822 L47.2610577,125.518688 C47.3117868,125.241278 47.3389188,125.091808 47.370063,124.919271 C47.4590926,124.426053 47.5623877,123.847082 47.6787595,123.186702 C48.0113317,121.29944 48.3819465,119.138646 48.7810929,116.739069 C49.9215926,109.882646 51.0621183,102.487925 52.1265802,94.832994 C53.4478013,85.3316145 54.5571007,76.0995264 55.3853031,67.389931 C56.0418324,60.4856957 56.5092809,54.0328003 56.7650291,48.114535 L56.7870486,47.6049822 L125.111129,47.6049822 Z M57.8066438,48.670071 C57.545626,54.468021 57.0849994,60.7667572 56.4456089,67.4907563 C55.615832,76.2169098 54.5047338,85.4639678 53.1815184,94.9796892 C52.1156703,102.644589 50.9737209,110.048541 49.8317456,116.913835 C49.4320257,119.316859 49.0608362,121.481003 48.7276865,123.371543 C48.6130723,124.021949 48.5110865,124.593719 48.4228572,125.082734 L133.47532,125.082734 C133.387091,124.593719 133.285105,124.021949 133.170491,123.371543 C132.837341,121.481003 132.466152,119.316859 132.066432,116.913835 C130.924457,110.048541 129.782507,102.644589 128.716659,94.9796892 C127.393444,85.4639678 126.282346,76.2169098 125.452569,67.4907563 C124.813178,60.7667572 124.352552,54.468021 124.091534,48.670071 L57.8066438,48.670071 Z" id="Stroke-27" fill="#32383D" fill-rule="nonzero"></path>
                        <path d="M117.057609,48.1375266 L64.840568,48.1375266 C64.0268402,81.9658107 59.5465444,125.615278 59.5465444,125.615278 L122.351633,125.615278 C122.351633,125.615278 117.870805,81.9658107 117.057609,48.1375266" id="Fill-29" fill="#7F5F34"></path>
                        <g id="Group-125" transform="translate(52.189349, 48.461538)">
                            <path d="M36.9148462,1.41067598 C37.0096391,14.2444524 24.1673314,39.2305874 10.1662071,45.234366 C10.1662071,45.234366 19.0314734,49.9550104 24.9219467,77.0511073 L1.35952071,77.0511073 L11.0981598,1.41067598 L36.9148462,1.41067598 Z" id="Fill-101" fill="#FC3D4B"></path>
                            <path d="M11.5665352,1.94322036 L1.96502539,76.5185629 L24.2596986,76.5185629 C22.9103383,70.4414504 21.3463741,65.2159661 19.6105222,60.778984 C17.4560175,55.2718907 15.1544719,51.2519075 12.8624497,48.485392 C12.0685043,47.5270845 11.3354031,46.7943709 10.6823856,46.2578695 C10.4581573,46.0736497 10.2611857,45.9275312 10.0938491,45.8158518 C9.99931228,45.7527585 9.93920913,45.7168309 9.91590754,45.7044231 L8.93580485,45.1825306 L9.95633023,44.7449223 C16.3783216,41.9911281 23.0354566,34.8808645 28.3649028,25.6181847 C33.1855333,17.2398365 36.2540788,8.17695347 36.3788668,1.94322036 L11.5665352,1.94322036 Z M11.2325334,45.3328204 C11.2733889,45.3654582 11.3153877,45.3994773 11.3585102,45.4349057 C12.0645122,46.0149376 12.845747,46.7957593 13.682625,47.8058874 C16.0500981,50.6634736 18.4080479,54.7819748 20.6024056,60.3909359 C22.420705,65.0386608 24.0495151,70.5310195 25.4423365,76.9379788 L25.5827005,77.5836517 L0.754016034,77.5836517 L10.6297843,0.878131601 L37.4434716,0.878131601 L37.447376,1.4067426 C37.4950872,7.86624119 34.3330107,17.3811838 29.2880883,26.1493557 C24.086642,35.1895691 17.6276838,42.2371623 11.2325334,45.3328204 Z" id="Stroke-103" fill="#32383D" fill-rule="nonzero"></path>
                            <path d="M40.6047396,1.41067598 C40.5099467,14.2444524 53.352787,39.2305874 67.3533787,45.234366 C67.3533787,45.234366 58.4881124,49.9550104 52.5976391,77.0511073 L76.1600651,77.0511073 L66.421426,1.41067598 L40.6047396,1.41067598 Z" id="Fill-105" fill="#FC3D4B"></path>
                            <path d="M48.2316988,26.1493584 C43.1866601,17.3811023 40.024499,7.86618617 40.0722098,1.4067426 L40.0761142,0.878131601 L66.8898015,0.878131601 L76.7655698,77.5836517 L51.9368852,77.5836517 L52.0772493,76.9379788 C53.4700707,70.5310195 55.0988808,65.0386608 56.9171802,60.3909359 C59.1115379,54.7819748 61.4694877,50.6634736 63.8369608,47.8058874 C64.6738388,46.7957593 65.4550736,46.0149376 66.1610756,45.4349057 C66.2042022,45.399474 66.2462048,45.3654518 66.287064,45.3328111 C59.8921217,42.2371395 53.4331842,35.1895184 48.2316988,26.1493584 Z M49.1548811,25.618182 C54.4843734,34.8808173 61.1414947,41.9911222 67.5632623,44.7449252 L68.5837636,45.1825398 L67.6036783,45.7044231 C67.5803767,45.7168309 67.5202735,45.7527585 67.4257367,45.8158518 C67.2584001,45.9275312 67.0614285,46.0736497 66.8372002,46.2578695 C66.1841827,46.7943709 65.4510815,47.5270845 64.6571361,48.485392 C62.3651139,51.2519075 60.0635683,55.2718907 57.9090636,60.778984 C56.1732117,65.2159661 54.6092474,70.4414504 53.2598872,76.5185629 L75.5545604,76.5185629 L65.9530506,1.94322036 L41.1407194,1.94322036 C41.2655137,8.17689684 44.3341404,17.2397548 49.1548811,25.618182 Z" id="Stroke-107" fill="#32383D" fill-rule="nonzero"></path>
                            <path d="M31.9872663,1.41067598 C31.9872663,1.41067598 30.3917633,26.0500179 11.7452544,41.2663235 C11.7452544,41.2663235 23.3163787,27.73166 24.1093373,1.41067598 L31.9872663,1.41067598 Z" id="Fill-109" fill="#F9BF64"></path>
                            <path d="M20.9666331,1.41067598 C20.9666331,1.41067598 20.3520769,29.7667876 9.90089349,41.2663235 C9.90089349,41.2663235 16.5316036,28.3619716 15.5261598,1.41067598 L20.9666331,1.41067598 Z" id="Fill-111" fill="#F9BF64"></path>
                            <path d="M8.63748521,47.6401972 C8.63748521,47.6401972 12.7593787,62.2870321 11.5228107,76.3881242 L18.9416864,76.3881242 C18.9416864,76.3881242 15.8124556,59.9379654 8.63748521,47.6401972" id="Fill-113" fill="#F9BF64"></path>
                            <path d="M45.5323195,1.41067598 C45.5323195,1.41067598 47.1278225,26.0500179 65.7743314,41.2663235 C65.7743314,41.2663235 54.2032071,27.73166 53.4102485,1.41067598 L45.5323195,1.41067598 Z" id="Fill-115" fill="#F9BF64"></path>
                            <path d="M56.5529527,1.41067598 C56.5529527,1.41067598 57.1675089,29.7667876 67.6186923,41.2663235 C67.6186923,41.2663235 60.9879822,28.3619716 61.993426,1.41067598 L56.5529527,1.41067598 Z" id="Fill-117" fill="#F9BF64"></path>
                            <path d="M67.500787,49.4191239 C67.500787,49.4191239 63.6137456,63.233047 64.7800178,76.5322562 L57.7829172,76.5322562 C57.7829172,76.5322562 60.7342781,61.0172219 67.500787,49.4191239" id="Fill-119" fill="#F9BF64"></path>
                        </g>
                        <path d="M117.577506,47.6049822 L117.59,48.1247285 C117.732373,54.0473248 117.992642,60.5041774 118.358204,67.4122017 C118.81934,76.1263186 119.437008,85.3626578 120.172687,94.8681481 C120.765259,102.524597 121.400166,109.920622 122.035065,116.778266 C122.25727,119.178341 122.463597,121.339628 122.648752,123.227389 C122.713547,123.888013 122.771065,124.46723 122.820643,124.9607 C122.83799,125.133363 122.848069,125.233124 122.865903,125.40895 C122.874485,125.493245 122.899732,125.739536 122.941644,126.147822 L58.9565403,126.147822 L59.0167833,125.560902 C59.0501087,125.23308 59.0601882,125.133303 59.0775361,124.960614 C59.1271162,124.46707 59.1846358,123.887766 59.2494332,123.227045 C59.4345948,121.339005 59.6409289,119.177408 59.8631421,116.777 C60.4980636,109.918403 61.1329938,102.521428 61.7255867,94.8640951 C62.4610987,85.3600004 63.0786609,76.1250516 63.5397785,67.4121987 C63.9053777,60.5041727 64.1657116,54.0473183 64.3081777,48.1247202 L64.3206798,47.6049822 L117.577506,47.6049822 Z M65.360189,48.670071 C65.2149532,54.4609223 64.9588277,60.7522527 64.6033788,67.4684886 C64.1417679,76.1906626 63.5236402,85.4340661 62.7875003,94.9462755 C62.1944686,102.609277 61.5590867,110.011516 60.9236962,116.875179 C60.7013001,119.277562 60.4947827,121.44108 60.3094367,123.331 C60.2445564,123.992566 60.186954,124.572704 60.1372909,125.067074 C60.1369369,125.070599 80.6786576,125.075819 121.762453,125.082734 C121.711228,124.572877 121.653628,123.992824 121.58875,123.331356 C121.40341,121.441714 121.1969,119.278505 120.974512,116.876455 C120.339144,110.013744 119.703785,102.612455 119.110774,94.950335 C118.374467,85.4367262 117.756233,76.1919283 117.294603,67.4684856 C116.939191,60.7522513 116.683127,54.4609219 116.53798,48.670071 L65.360189,48.670071 Z" id="Stroke-31" fill="#32383D" fill-rule="nonzero"></path>
                    </g>
                    <g id="Group-100" transform="translate(20.704142, 48.565799)">
                        <g id="Group-36">
                            <mask id="mask-2" fill="white">
                                <use xlink:href="#path-1"></use>
                            </mask>
                            <g id="Clip-35"></g>
                            <path d="M13.0872249,-0.483071006 C13.0872249,3.82521302 10.2705976,7.31763905 6.79574556,7.31763905 C3.32089349,7.31763905 0.504266272,3.82521302 0.504266272,-0.483071006 C0.504266272,-4.79188757 3.32089349,-8.28378107 6.79574556,-8.28378107 C10.2705976,-8.28378107 13.0872249,-4.79188757 13.0872249,-0.483071006" id="Fill-34" fill="#529DF7" mask="url(#mask-2)"></path>
                        </g>
                        <g id="Group-39">
                            <mask id="mask-4" fill="white">
                                <use xlink:href="#path-3"></use>
                            </mask>
                            <g id="Clip-38"></g>
                            <path d="M12.5546805,-0.483071006 C12.5546805,-4.51979677 9.94834626,-7.75123669 6.79574556,-7.75123669 C3.64314486,-7.75123669 1.03681065,-4.51979677 1.03681065,-0.483071006 C1.03681065,3.55331015 3.64329989,6.78509467 6.79574556,6.78509467 C9.94819124,6.78509467 12.5546805,3.55331015 12.5546805,-0.483071006 Z M13.6197692,-0.483071006 C13.6197692,4.09720743 10.5929302,7.85018343 6.79574556,7.85018343 C2.99856093,7.85018343 -0.0282781065,4.09720743 -0.0282781065,-0.483071006 C-0.0282781065,-5.06370207 2.99841926,-8.81632544 6.79574556,-8.81632544 C10.5930719,-8.81632544 13.6197692,-5.06370207 13.6197692,-0.483071006 Z" id="Stroke-37" fill="#32383D" fill-rule="nonzero" mask="url(#mask-4)"></path>
                        </g>
                        <g id="Group-42" transform="translate(12.781065, 0.000000)">
                            <mask id="mask-6" fill="white">
                                <use xlink:href="#path-5"></use>
                            </mask>
                            <g id="Clip-41"></g>
                            <path d="M12.8891183,-0.483071006 C12.8891183,3.82521302 10.0719586,7.31763905 6.59763905,7.31763905 C3.12278698,7.31763905 0.306159763,3.82521302 0.306159763,-0.483071006 C0.306159763,-4.79188757 3.12278698,-8.28378107 6.59763905,-8.28378107 C10.0719586,-8.28378107 12.8891183,-4.79188757 12.8891183,-0.483071006" id="Fill-40" fill="#FC3D4B" mask="url(#mask-6)"></path>
                        </g>
                        <g id="Group-45" transform="translate(12.781065, 0.000000)">
                            <mask id="mask-8" fill="white">
                                <use xlink:href="#path-7"></use>
                            </mask>
                            <g id="Clip-44"></g>
                            <path d="M12.356574,-0.483071006 C12.356574,-4.51956376 9.74989942,-7.75123669 6.59763905,-7.75123669 C3.44503835,-7.75123669 0.838704142,-4.51979677 0.838704142,-0.483071006 C0.838704142,3.55331015 3.44519338,6.78509467 6.59763905,6.78509467 C9.74974439,6.78509467 12.356574,3.55307714 12.356574,-0.483071006 Z M13.4216627,-0.483071006 C13.4216627,4.09698436 10.3944668,7.85018343 6.59763905,7.85018343 C2.80045442,7.85018343 -0.226384615,4.09720743 -0.226384615,-0.483071006 C-0.226384615,-5.06370207 2.80031275,-8.81632544 6.59763905,-8.81632544 C10.3946085,-8.81632544 13.4216627,-5.06347901 13.4216627,-0.483071006 Z" id="Stroke-43" fill="#32383D" fill-rule="nonzero" mask="url(#mask-8)"></path>
                        </g>
                        <g id="Group-48" transform="translate(25.562130, 0.000000)">
                            <mask id="mask-10" fill="white">
                                <use xlink:href="#path-9"></use>
                            </mask>
                            <g id="Clip-47"></g>
                            <path d="M12.690426,-0.483071006 C12.690426,3.82521302 9.87379882,7.31763905 6.39947929,7.31763905 C2.92462722,7.31763905 0.108,3.82521302 0.108,-0.483071006 C0.108,-4.79188757 2.92462722,-8.28378107 6.39947929,-8.28378107 C9.87379882,-8.28378107 12.690426,-4.79188757 12.690426,-0.483071006" id="Fill-46" fill="#529DF7" mask="url(#mask-10)"></path>
                        </g>
                        <g id="Group-51" transform="translate(25.562130, 0.000000)">
                            <mask id="mask-12" fill="white">
                                <use xlink:href="#path-11"></use>
                            </mask>
                            <g id="Clip-50"></g>
                            <path d="M12.1578817,-0.483071006 C12.1578817,-4.51969964 9.5516215,-7.75123669 6.39947929,-7.75123669 C3.24687859,-7.75123669 0.640544379,-4.51979677 0.640544379,-0.483071006 C0.640544379,3.55331015 3.24703361,6.78509467 6.39947929,6.78509467 C9.55146649,6.78509467 12.1578817,3.55321302 12.1578817,-0.483071006 Z M13.2229704,-0.483071006 C13.2229704,4.09710035 10.196222,7.85018343 6.39947929,7.85018343 C2.60229466,7.85018343 -0.424544379,4.09720743 -0.424544379,-0.483071006 C-0.424544379,-5.06370207 2.60215298,-8.81632544 6.39947929,-8.81632544 C10.1963637,-8.81632544 13.2229704,-5.063595 13.2229704,-0.483071006 Z" id="Stroke-49" fill="#32383D" fill-rule="nonzero" mask="url(#mask-12)"></path>
                        </g>
                        <g id="Group-54" transform="translate(37.810651, 0.000000)">
                            <mask id="mask-14" fill="white">
                                <use xlink:href="#path-13"></use>
                            </mask>
                            <g id="Clip-53"></g>
                            <path d="M13.0248107,-0.483071006 C13.0248107,3.82521302 10.2081834,7.31763905 6.73386391,7.31763905 C3.25847929,7.31763905 0.441852071,3.82521302 0.441852071,-0.483071006 C0.441852071,-4.79188757 3.25847929,-8.28378107 6.73386391,-8.28378107 C10.2081834,-8.28378107 13.0248107,-4.79188757 13.0248107,-0.483071006" id="Fill-52" fill="#529DF7" mask="url(#mask-14)"></path>
                        </g>
                        <g id="Group-57" transform="translate(37.810651, 0.000000)">
                            <mask id="mask-16" fill="white">
                                <use xlink:href="#path-15"></use>
                            </mask>
                            <g id="Clip-56"></g>
                            <path d="M12.4922663,-0.483071006 C12.4922663,-4.51969964 9.88600612,-7.75123669 6.73386391,-7.75123669 C3.58080472,-7.75123669 0.97439645,-4.51989388 0.97439645,-0.483071006 C0.97439645,3.55340727 3.58095975,6.78509467 6.73386391,6.78509467 C9.8858511,6.78509467 12.4922663,3.55321302 12.4922663,-0.483071006 Z M13.557355,-0.483071006 C13.557355,4.09710035 10.5306066,7.85018343 6.73386391,7.85018343 C2.93623735,7.85018343 -0.0906923077,4.09731449 -0.0906923077,-0.483071006 C-0.0906923077,-5.06380913 2.93609567,-8.81632544 6.73386391,-8.81632544 C10.5307483,-8.81632544 13.557355,-5.063595 13.557355,-0.483071006 Z" id="Stroke-55" fill="#32383D" fill-rule="nonzero" mask="url(#mask-16)"></path>
                        </g>
                        <g id="Group-60" transform="translate(50.591716, 0.000000)">
                            <mask id="mask-18" fill="white">
                                <use xlink:href="#path-17"></use>
                            </mask>
                            <g id="Clip-59"></g>
                            <path d="M12.8266509,-0.483071006 C12.8266509,3.82521302 10.0100237,7.31763905 6.5351716,7.31763905 C3.06031953,7.31763905 0.243692308,3.82521302 0.243692308,-0.483071006 C0.243692308,-4.79188757 3.06031953,-8.28378107 6.5351716,-8.28378107 C10.0100237,-8.28378107 12.8266509,-4.79188757 12.8266509,-0.483071006" id="Fill-58" fill="#529DF7" mask="url(#mask-18)"></path>
                        </g>
                        <g id="Group-63" transform="translate(50.591716, 0.000000)">
                            <mask id="mask-20" fill="white">
                                <use xlink:href="#path-19"></use>
                            </mask>
                            <g id="Clip-62"></g>
                            <path d="M12.2941065,-0.483071006 C12.2941065,-4.51979677 9.6877723,-7.75123669 6.5351716,-7.75123669 C3.3825709,-7.75123669 0.776236686,-4.51979677 0.776236686,-0.483071006 C0.776236686,3.55331015 3.38272592,6.78509467 6.5351716,6.78509467 C9.68761727,6.78509467 12.2941065,3.55331015 12.2941065,-0.483071006 Z M13.3591953,-0.483071006 C13.3591953,4.09720743 10.3323562,7.85018343 6.5351716,7.85018343 C2.73798696,7.85018343 -0.288852071,4.09720743 -0.288852071,-0.483071006 C-0.288852071,-5.06370207 2.73784529,-8.81632544 6.5351716,-8.81632544 C10.3324979,-8.81632544 13.3591953,-5.06370207 13.3591953,-0.483071006 Z" id="Stroke-61" fill="#32383D" fill-rule="nonzero" mask="url(#mask-20)"></path>
                        </g>
                        <g id="Group-66" transform="translate(63.372781, 0.000000)">
                            <mask id="mask-22" fill="white">
                                <use xlink:href="#path-21"></use>
                            </mask>
                            <g id="Clip-65"></g>
                            <path d="M12.6285444,-0.483071006 C12.6285444,3.82521302 9.81138462,7.31763905 6.33706509,7.31763905 C2.86221302,7.31763905 0.0455857988,3.82521302 0.0455857988,-0.483071006 C0.0455857988,-4.79188757 2.86221302,-8.28378107 6.33706509,-8.28378107 C9.81138462,-8.28378107 12.6285444,-4.79188757 12.6285444,-0.483071006" id="Fill-64" fill="#529DF7" mask="url(#mask-22)"></path>
                        </g>
                        <g id="Group-69" transform="translate(63.372781, 0.000000)">
                            <mask id="mask-24" fill="white">
                                <use xlink:href="#path-23"></use>
                            </mask>
                            <g id="Clip-68"></g>
                            <path d="M12.096,-0.483071006 C12.096,-4.51956376 9.48932546,-7.75123669 6.33706509,-7.75123669 C3.18446439,-7.75123669 0.578130178,-4.51979677 0.578130178,-0.483071006 C0.578130178,3.55331015 3.18461941,6.78509467 6.33706509,6.78509467 C9.48917042,6.78509467 12.096,3.55307714 12.096,-0.483071006 Z M13.1610888,-0.483071006 C13.1610888,4.09698436 10.1338928,7.85018343 6.33706509,7.85018343 C2.53988045,7.85018343 -0.48695858,4.09720743 -0.48695858,-0.483071006 C-0.48695858,-5.06370207 2.53973878,-8.81632544 6.33706509,-8.81632544 C10.1340345,-8.81632544 13.1610888,-5.06347901 13.1610888,-0.483071006 Z" id="Stroke-67" fill="#32383D" fill-rule="nonzero" mask="url(#mask-24)"></path>
                        </g>
                        <g id="Group-72" transform="translate(75.621302, 0.000000)">
                            <mask id="mask-26" fill="white">
                                <use xlink:href="#path-25"></use>
                            </mask>
                            <g id="Clip-71"></g>
                            <path d="M12.9623964,-0.483071006 C12.9623964,3.82521302 10.1457692,7.31763905 6.6714497,7.31763905 C3.19659763,7.31763905 0.379970414,3.82521302 0.379970414,-0.483071006 C0.379970414,-4.79188757 3.19659763,-8.28378107 6.6714497,-8.28378107 C10.1457692,-8.28378107 12.9623964,-4.79188757 12.9623964,-0.483071006" id="Fill-70" fill="#529DF7" mask="url(#mask-26)"></path>
                        </g>
                        <g id="Group-75" transform="translate(75.621302, 0.000000)">
                            <mask id="mask-28" fill="white">
                                <use xlink:href="#path-27"></use>
                            </mask>
                            <g id="Clip-74"></g>
                            <path d="M12.4298521,-0.483071006 C12.4298521,-4.51969964 9.82359192,-7.75123669 6.6714497,-7.75123669 C3.518849,-7.75123669 0.912514793,-4.51979677 0.912514793,-0.483071006 C0.912514793,3.55331015 3.51900403,6.78509467 6.6714497,6.78509467 C9.8234369,6.78509467 12.4298521,3.55321302 12.4298521,-0.483071006 Z M13.4949408,-0.483071006 C13.4949408,4.09710035 10.4681924,7.85018343 6.6714497,7.85018343 C2.87426507,7.85018343 -0.152573964,4.09720743 -0.152573964,-0.483071006 C-0.152573964,-5.06370207 2.8741234,-8.81632544 6.6714497,-8.81632544 C10.4683341,-8.81632544 13.4949408,-5.063595 13.4949408,-0.483071006 Z" id="Stroke-73" fill="#32383D" fill-rule="nonzero" mask="url(#mask-28)"></path>
                        </g>
                        <g id="Group-78" transform="translate(88.402367, 0.000000)">
                            <mask id="mask-30" fill="white">
                                <use xlink:href="#path-29"></use>
                            </mask>
                            <g id="Clip-77"></g>
                            <path d="M12.7642899,-0.483071006 C12.7642899,3.82521302 9.94766272,7.31763905 6.4733432,7.31763905 C2.99849112,7.31763905 0.181331361,3.82521302 0.181331361,-0.483071006 C0.181331361,-4.79188757 2.99849112,-8.28378107 6.4733432,-8.28378107 C9.94766272,-8.28378107 12.7642899,-4.79188757 12.7642899,-0.483071006" id="Fill-76" fill="#529DF7" mask="url(#mask-30)"></path>
                        </g>
                        <g id="Group-81" transform="translate(88.402367, 0.000000)">
                            <mask id="mask-32" fill="white">
                                <use xlink:href="#path-31"></use>
                            </mask>
                            <g id="Clip-80"></g>
                            <path d="M12.2317456,-0.483071006 C12.2317456,-4.51969964 9.62548541,-7.75123669 6.4733432,-7.75123669 C3.32062434,-7.75123669 0.71387574,-4.51966088 0.71387574,-0.483071006 C0.71387574,3.55317426 3.32077938,6.78509467 6.4733432,6.78509467 C9.62533039,6.78509467 12.2317456,3.55321302 12.2317456,-0.483071006 Z M13.2968343,-0.483071006 C13.2968343,4.09710035 10.2700859,7.85018343 6.4733432,7.85018343 C2.67607353,7.85018343 -0.351213018,4.09709144 -0.351213018,-0.483071006 C-0.351213018,-5.06358608 2.67593184,-8.81632544 6.4733432,-8.81632544 C10.2702276,-8.81632544 13.2968343,-5.063595 13.2968343,-0.483071006 Z" id="Stroke-79" fill="#32383D" fill-rule="nonzero" mask="url(#mask-32)"></path>
                        </g>
                        <g id="Group-84" transform="translate(100.650888, 0.000000)">
                            <mask id="mask-34" fill="white">
                                <use xlink:href="#path-33"></use>
                            </mask>
                            <g id="Clip-83"></g>
                            <path d="M13.0986746,-0.483071006 C13.0986746,3.82521302 10.2820473,7.31763905 6.80719527,7.31763905 C3.3323432,7.31763905 0.515715976,3.82521302 0.515715976,-0.483071006 C0.515715976,-4.79188757 3.3323432,-8.28378107 6.80719527,-8.28378107 C10.2820473,-8.28378107 13.0986746,-4.79188757 13.0986746,-0.483071006" id="Fill-82" fill="#529DF7" mask="url(#mask-34)"></path>
                        </g>
                        <g id="Group-87" transform="translate(100.650888, 0.000000)">
                            <mask id="mask-36" fill="white">
                                <use xlink:href="#path-35"></use>
                            </mask>
                            <g id="Clip-86"></g>
                            <path d="M12.5661302,-0.483071006 C12.5661302,-4.51979677 9.95979597,-7.75123669 6.80719527,-7.75123669 C3.65459457,-7.75123669 1.04826036,-4.51979677 1.04826036,-0.483071006 C1.04826036,3.55331015 3.65474959,6.78509467 6.80719527,6.78509467 C9.95964094,6.78509467 12.5661302,3.55331015 12.5661302,-0.483071006 Z M13.6312189,-0.483071006 C13.6312189,4.09720743 10.6043799,7.85018343 6.80719527,7.85018343 C3.01001063,7.85018343 -0.0168284024,4.09720743 -0.0168284024,-0.483071006 C-0.0168284024,-5.06370207 3.00986896,-8.81632544 6.80719527,-8.81632544 C10.6045216,-8.81632544 13.6312189,-5.06370207 13.6312189,-0.483071006 Z" id="Stroke-85" fill="#32383D" fill-rule="nonzero" mask="url(#mask-36)"></path>
                        </g>
                        <g id="Group-90" transform="translate(113.431953, 0.000000)">
                            <mask id="mask-38" fill="white">
                                <use xlink:href="#path-37"></use>
                            </mask>
                            <g id="Clip-89"></g>
                            <path d="M12.9005148,-0.483071006 C12.9005148,3.82521302 10.083355,7.31763905 6.6090355,7.31763905 C3.13418343,7.31763905 0.317556213,3.82521302 0.317556213,-0.483071006 C0.317556213,-4.79188757 3.13418343,-8.28378107 6.6090355,-8.28378107 C10.083355,-8.28378107 12.9005148,-4.79188757 12.9005148,-0.483071006" id="Fill-88" fill="#FC3D4B" mask="url(#mask-38)"></path>
                        </g>
                        <g id="Group-93" transform="translate(113.431953, 0.000000)">
                            <mask id="mask-40" fill="white">
                                <use xlink:href="#path-39"></use>
                            </mask>
                            <g id="Clip-92"></g>
                            <path d="M12.3679704,-0.483071006 C12.3679704,-4.51956376 9.76129587,-7.75123669 6.6090355,-7.75123669 C3.4564348,-7.75123669 0.850100592,-4.51979677 0.850100592,-0.483071006 C0.850100592,3.55331015 3.45658983,6.78509467 6.6090355,6.78509467 C9.76114084,6.78509467 12.3679704,3.55307714 12.3679704,-0.483071006 Z M13.4330592,-0.483071006 C13.4330592,4.09698436 10.4058632,7.85018343 6.6090355,7.85018343 C2.81185087,7.85018343 -0.214988166,4.09720743 -0.214988166,-0.483071006 C-0.214988166,-5.06370207 2.8117092,-8.81632544 6.6090355,-8.81632544 C10.4060049,-8.81632544 13.4330592,-5.06347901 13.4330592,-0.483071006 Z" id="Stroke-91" fill="#32383D" fill-rule="nonzero" mask="url(#mask-40)"></path>
                        </g>
                        <g id="Group-96" transform="translate(126.213018, 0.000000)">
                            <mask id="mask-42" fill="white">
                                <use xlink:href="#path-41"></use>
                            </mask>
                            <g id="Clip-95"></g>
                            <path d="M12.7024083,-0.483071006 C12.7024083,3.82521302 9.88524852,7.31763905 6.41092899,7.31763905 C2.93607692,7.31763905 0.119449704,3.82521302 0.119449704,-0.483071006 C0.119449704,-4.79188757 2.93607692,-8.28378107 6.41092899,-8.28378107 C9.88524852,-8.28378107 12.7024083,-4.79188757 12.7024083,-0.483071006" id="Fill-94" fill="#529DF7" mask="url(#mask-42)"></path>
                        </g>
                        <g id="Group-99" transform="translate(126.213018, 0.000000)">
                            <mask id="mask-44" fill="white">
                                <use xlink:href="#path-43"></use>
                            </mask>
                            <g id="Clip-98"></g>
                            <path d="M12.1698639,-0.483071006 C12.1698639,-4.51956376 9.56318936,-7.75123669 6.41092899,-7.75123669 C3.25832829,-7.75123669 0.651994083,-4.51979677 0.651994083,-0.483071006 C0.651994083,3.55331015 3.25848332,6.78509467 6.41092899,6.78509467 C9.56303433,6.78509467 12.1698639,3.55307714 12.1698639,-0.483071006 Z M13.2349527,-0.483071006 C13.2349527,4.09698436 10.2077567,7.85018343 6.41092899,7.85018343 C2.61374436,7.85018343 -0.413094675,4.09720743 -0.413094675,-0.483071006 C-0.413094675,-5.06370207 2.61360269,-8.81632544 6.41092899,-8.81632544 C10.2078984,-8.81632544 13.2349527,-5.06347901 13.2349527,-0.483071006 Z" id="Stroke-97" fill="#32383D" fill-rule="nonzero" mask="url(#mask-44)"></path>
                        </g>
                    </g>
                </g>
            </g>
        </g>
    </g>
</svg>