<?xml version="1.0" encoding="UTF-8"?>
<svg width="64px" height="64px" viewBox="0 0 64 64" version="1.1" xmlns="http://www.w3.org/2000/svg" xmlns:xlink="http://www.w3.org/1999/xlink">
    <!-- Generator: Sketch 61.2 (89653) - https://sketch.com -->
    <title>ELC</title>
    <desc>Created with Sketch.</desc>
    <g id="Page-1" stroke="none" stroke-width="1" fill="none" fill-rule="evenodd">
        <g id="Instincts-2017" transform="translate(-200.000000, -5433.000000)">
            <g id="ELC" transform="translate(200.000000, 5433.000000)">
                <circle id="Oval-Copy-3" fill="#E6E6E6" fill-rule="nonzero" cx="32" cy="32" r="32"></circle>
                <path d="M41.5789474,26.8091638 C38.735336,27.4203222 35.8321068,27.7473637 32.9027446,27.7856512 C32.7075162,27.7879698 32.5122878,27.7894737 32.3161905,27.7894737 C29.186654,27.7894737 26.0857235,27.4609282 23.0526316,26.8091011 L23.0983475,26.6184157 L23.0983475,25.7690101 C23.0983475,25.3102496 23.1367115,24.8598861 23.2102312,24.4210526 C24.5956781,24.7435197 25.9966308,24.9916677 27.4098815,25.1647447 C29.0322625,25.3631377 30.6700827,25.4626476 32.3161237,25.4626476 C35.3966024,25.4626476 38.4468711,25.1134231 41.421214,24.4210526 C41.4947338,24.8598861 41.5330978,25.3102496 41.5330978,25.7690101 L41.5330978,26.6184157 L41.5789474,26.8091638 Z" id="Path" fill="#999999"></path>
                <path d="M45.5818322,26.9861055 C45.6263171,27.1259752 45.647368,27.2684034 45.647368,27.4082731 C45.647368,27.9633452 45.3148567,28.4793277 44.7929537,28.6530987 C40.6067404,30.0508001 36.2667498,30.7578952 31.8741981,30.7578952 C27.4808521,30.7578952 23.1408615,30.0508001 18.9546483,28.6530987 C18.3017399,28.4350499 17.9440734,27.6810473 18.1657697,26.9861055 C18.3380824,26.4466693 18.8073583,26.1053106 19.3122485,26.1053106 C19.4320002,26.1053106 19.5533407,26.1244289 19.6730924,26.1643714 C20.6731418,26.4979122 21.6820617,26.7898047 22.6990577,27.0399781 C25.7031778,27.7791977 28.7744885,28.1518991 31.8741319,28.1518991 C34.9729148,28.1518991 38.0442255,27.7792688 41.0484118,27.0399781 C42.0654078,26.7898047 43.0743939,26.4979122 44.0743771,26.1643714 C44.7015346,25.9549934 45.3690065,26.3189529 45.5818322,26.9861055 Z" id="Path" fill="#666666"></path>
                <path d="M27.3684676,28.7152805 C27.1805043,28.6639899 26.9918675,28.6079902 26.8039042,28.5488087 C26.8498708,28.5348088 26.8965108,28.5270452 26.9431509,28.5270452 C27.0446813,28.5270452 27.1475588,28.5612814 27.2490893,28.6328082 C27.2888821,28.6609353 27.3286749,28.6889352 27.3684676,28.7152805 Z" id="Path" fill="#4D4D4D"></path>
                <path d="M38.9462403,18.8610564 C40.3174646,20.2885745 41.2656335,22.1566365 41.5789474,24.2437663 C38.5531701,25.0263338 35.4500163,25.4210526 32.3161974,25.4210526 C29.1814947,25.4210526 26.0784088,25.0263338 23.0526316,24.2437663 C23.7548681,19.5735052 27.6349833,16 32.3161974,16 C34.9057286,16 37.2500753,17.0925064 38.9462403,18.8610564 Z" id="Path" fill="#666666"></path>
                <path d="M38.8503718,42.4318631 C39.0135625,42.6712561 39.1401796,42.9877685 39.1401796,43.3954611 C39.1401796,43.8022929 39.0135625,44.1197379 38.8503718,44.3590591 C38.5801024,44.7544844 38.526563,45.2692116 38.702478,45.7172215 C38.8308334,46.0469338 38.8256881,46.4484569 38.4092632,46.8439539 C37.1345398,48.0531144 34.0521333,45.4962654 33.9883728,45.4428199 C34.4863583,44.0776271 34.4863583,42.7124343 33.9883728,41.3472415 C34.0521333,41.2946568 37.1344703,38.7378078 38.4092632,39.9469683 C38.8256881,40.3415327 38.8307639,40.7439884 38.702478,41.0727682 C38.526563,41.5217107 38.5801024,42.0364379 38.8503718,42.4318631 Z" id="Path" fill="#529DF7"></path>
                <path d="M29.9483071,41.3481024 C29.4494872,42.7132952 29.4494872,44.0776271 29.9483071,45.4428199 C29.9483071,45.4428199 26.8149338,48.0653818 25.5265823,46.8439539 C25.1101574,46.4485287 25.1050816,46.0469338 25.2342714,45.7172215 C25.409352,45.2691398 25.3558127,44.7544844 25.0855432,44.3590591 C24.9223525,44.1196661 24.7957354,43.8022929 24.7957354,43.3954611 C24.7957354,42.9877685 24.9223525,42.6711844 25.0855432,42.4318631 C25.3558127,42.0364379 25.409352,41.5217107 25.2342714,41.0727682 C25.1050816,40.7439884 25.1102269,40.3415327 25.5265823,39.9469683 C26.8149338,38.7255405 29.9483071,41.3481024 29.9483071,41.3481024 Z" id="Path" fill="#529DF7"></path>
                <path d="M33.9884423,41.3472415 C34.4864278,42.7124343 34.4864278,44.0776271 33.9884423,45.4428199 L33.9876079,45.4428199 C32.6406412,45.9478623 31.2945089,45.9478623 29.9483071,45.4428199 C29.4494872,44.0776271 29.4494872,42.7132952 29.9483071,41.3481024 L29.9483071,41.3472415 C31.2944394,40.8421991 32.6414061,40.8421991 33.9884423,41.3472415 Z" id="Path" fill="#529DF7"></path>
                <path d="M46.4836929,26.5244973 C46.1648711,25.5918861 45.179577,25.0906068 44.2402511,25.3830307 C43.4902482,25.6166935 42.7344664,25.8273255 41.9740222,26.0160456 L41.9740222,25.6778893 C41.9740222,23.0921354 40.9692902,20.6618716 39.1452747,18.8348143 C37.3216533,17.00677 34.8961777,16 32.3158551,16 C26.9901845,16 22.6575567,20.341416 22.6575567,25.6778893 L22.6575567,26.0160456 C21.8971782,25.8272597 21.1413964,25.6166276 20.3914592,25.3830307 C19.4523303,25.090541 18.4667079,25.5918203 18.1479517,26.5245631 C17.9885736,26.9912964 18.0235751,27.4904701 18.2464549,27.9302904 C18.4694003,28.3702423 18.8511328,28.6931326 19.3213211,28.8396077 C23.5303602,30.1505144 27.9023892,30.8152458 32.3159865,30.8152458 C36.7295838,30.8152458 41.1016127,30.1505144 45.3104549,28.8396077 C45.7807088,28.6931326 46.1624413,28.3701765 46.3855181,27.9301588 C46.6082009,27.4903385 46.643071,26.9911648 46.4836929,26.5244973 Z M32.3158551,17.2063474 C34.5745978,17.2063474 36.6976031,18.0875672 38.293945,19.6878051 C39.4417035,20.8374312 40.2188276,22.2598064 40.5650333,23.8094426 C37.8688711,24.4355482 35.0965987,24.7527795 32.3157238,24.7527795 C29.5358996,24.7527795 26.7645466,24.4356798 24.0689097,23.8097716 C24.9202395,20.0344499 28.2944317,17.2063474 32.3158551,17.2063474 Z M23.8614621,25.6778893 C23.8614621,25.4515963 23.8705901,25.2273432 23.8881236,25.005459 C26.6441758,25.6380791 29.4758127,25.9591269 32.3158551,25.9591269 C35.1560946,25.9591269 37.9877315,25.6380791 40.743718,25.0055906 C40.7610546,25.2281329 40.7701169,25.4522543 40.7701169,25.6778893 L40.7701169,26.2945853 C37.9967282,26.8928567 35.1658793,27.1962037 32.3158551,27.1962037 C29.4657653,27.1962037 26.6348508,26.8927909 23.8614621,26.2945853 C23.8614621,26.2945853 23.8614621,25.6778893 23.8614621,25.6778893 Z M45.3117682,27.3841341 C45.2372999,27.5310041 45.1099025,27.6388535 44.9528885,27.6876786 C40.8597547,28.9625916 36.6078996,29.6089643 32.3157238,29.6089643 C28.023548,29.6089643 23.7716929,28.9625258 19.6784278,27.6876786 C19.5216108,27.6388535 19.3941478,27.5310041 19.3197451,27.3842657 C19.2453423,27.2374616 19.233719,27.0709168 19.286845,26.915361 C19.3724771,26.6645239 19.6029087,26.5073888 19.8531724,26.5073888 C19.9127996,26.5073888 19.9736746,26.5163379 20.0338928,26.5351572 C24.0120406,27.7743398 28.1443129,28.4026827 32.3157238,28.4026827 C36.4871347,28.4026827 40.619407,27.7743398 44.5975548,26.5351572 C44.9102694,26.4377703 45.2383506,26.6047099 45.3445369,26.9154268 C45.3977943,27.0709168 45.3861053,27.2373958 45.3117682,27.3841341 Z" id="Shape" fill="#333333" fill-rule="nonzero"></path>
                <path d="M39.6917045,43.4170149 C39.6917045,42.9624549 39.562534,42.5482316 39.3077393,42.185597 C39.172593,41.9933236 39.1444211,41.7353799 39.2341246,41.5123771 C39.4783467,40.9054856 39.3225147,40.2848415 38.8064896,39.8097513 C38.096676,39.1560747 37.0108431,39.199833 35.5788701,39.9403682 C34.9609928,40.2599684 34.4185031,40.6376716 34.1107793,40.8656754 C32.9181033,40.497645 31.7134099,40.497645 30.5206683,40.8656754 C30.2129445,40.6376716 29.6705205,40.2599684 29.0525775,39.9403682 C27.6211299,39.1999646 26.5350343,39.1560747 25.8248923,39.8098171 C25.3089329,40.2849731 25.1531666,40.9055514 25.397323,41.5123113 C25.4870266,41.7353141 25.4588547,41.9932578 25.3237084,42.1856628 C25.0689792,42.5481658 24.9398088,42.9623891 24.9398088,43.4169491 C24.9398088,43.871509 25.0689792,44.2857982 25.3237084,44.6482354 C25.4588547,44.8405087 25.4870266,45.0985182 25.397323,45.3215868 C25.1531666,45.9284783 25.3089329,46.5490566 25.824958,47.0242126 C26.1577016,47.3307181 26.5729908,47.4837735 27.0680019,47.4837735 C27.6288788,47.4837735 28.2920019,47.2869598 29.0525775,46.8935957 C29.6705205,46.5739956 30.2129445,46.1962923 30.5206683,45.9682885 C31.1170063,46.1522708 31.716365,46.245249 32.3157238,46.245249 C32.9150826,46.245249 33.5144413,46.1522708 34.1107793,45.9681569 C34.4185031,46.1961607 34.9609271,46.573864 35.5788701,46.8934641 C36.339577,47.286894 37.0025031,47.4836419 37.5634457,47.4836419 C38.0582598,47.4836419 38.4738117,47.3305207 38.8064896,47.024081 C39.3225147,46.5489908 39.4783467,45.9283467 39.2341246,45.3214552 C39.1444211,45.0985182 39.172593,44.8405087 39.3078049,44.6481038 C39.5625997,44.2857324 39.6917045,43.871509 39.6917045,43.4170149 Z M26.6397103,46.1359519 C26.4413906,45.9532857 26.4800039,45.8573464 26.5140859,45.7727251 C26.7586364,45.165044 26.6816726,44.4850465 26.3082144,43.9536957 C26.1976939,43.7963632 26.1439112,43.6208035 26.1439112,43.4170149 C26.1439112,43.2132262 26.1976939,43.0376666 26.3082144,42.8803341 C26.6816726,42.3489832 26.7586364,41.6689858 26.5140859,41.0613047 C26.4800039,40.9766833 26.4414563,40.8807441 26.6396446,40.6980778 C27.1298619,40.247137 28.6263216,40.9704979 29.7015818,41.7557786 C29.3729754,42.8600013 29.3729754,43.9739627 29.7015818,45.0782512 C28.6260589,45.8635318 27.1294679,46.586827 26.6397103,46.1359519 Z M30.879548,44.8179386 C30.5808209,43.8777602 30.5808209,42.9562695 30.879548,42.0160911 C31.8434998,41.7182056 32.7880792,41.7182056 33.7520309,42.0160911 C34.0507581,42.9562695 34.0507581,43.8777602 33.7520309,44.8179386 C32.7881449,45.1157583 31.8434998,45.1157583 30.879548,44.8179386 Z M38.3235616,43.9536299 C37.9500377,44.4849149 37.8729425,45.165044 38.1175587,45.7727909 C38.1516408,45.857478 38.1901883,45.9534173 37.992,46.1360177 C37.5019141,46.5869586 36.0055857,45.8637292 34.9301284,45.078317 C35.2588006,43.9738969 35.2587349,42.8598039 34.9299971,41.7553837 C36.0042067,40.9691161 37.500141,40.2454261 37.992,40.6982094 C38.190254,40.8807441 38.1516408,40.9767491 38.1175587,41.0614363 C37.8730082,41.6691174 37.9500377,42.3491806 38.3234959,42.8804657 C38.4340164,43.0377982 38.4877991,43.2133578 38.4877991,43.4171465 C38.4877991,43.6209351 38.4340164,43.7963632 38.3235616,43.9536299 Z" id="Shape" fill="#333333" fill-rule="nonzero"></path>
            </g>
        </g>
    </g>
</svg>