<?xml version="1.0" encoding="UTF-8"?>
<svg width="64px" height="64px" viewBox="0 0 64 64" version="1.1" xmlns="http://www.w3.org/2000/svg" xmlns:xlink="http://www.w3.org/1999/xlink">
    <!-- Generator: Sketch 61.2 (89653) - https://sketch.com -->
    <title>Flim Club</title>
    <desc>Created with Sketch.</desc>
    <g id="Page-1" stroke="none" stroke-width="1" fill="none" fill-rule="evenodd">
        <g id="Instincts-2017" transform="translate(-288.000000, -5433.000000)">
            <g id="Flim-Club" transform="translate(288.000000, 5433.000000)">
                <g id="Group-94-Copy-2" fill="#E6E6E6" fill-rule="nonzero">
                    <circle id="Oval-Copy-3" cx="32" cy="32" r="32"></circle>
                </g>
                <g id="download-(5)-2" transform="translate(18.000000, 16.000000)">
                    <g id="download-(5)" transform="translate(0.000000, -0.000000)">
                        <g id="Group" transform="translate(0.451282, 0.451282)" fill="#F2F2F2">
                            <polygon id="Path" points="12.6232359 3.53760355 17.7714594 6.18322504 12.4841148 7.77587757 7.33508499 5.13025609 7.29371462 4.99862742 12.5818655 3.40597488"></polygon>
                            <polygon id="Path" points="23.7671243 0.0372112255 25.0256023 3.99827369 23.0604166 4.5905725 23.0596103 4.5905725 17.9121931 1.94501143 17.8700164 1.81338276"></polygon>
                            <polygon id="Path" points="26.1337949 11.1446412 26.1337949 15.2915182 19.9608018 15.2915182 24.077185 11.2824315 24.077185 11.1446412"></polygon>
                            <polygon id="Path" points="18.5418043 11.1446412 18.5418043 11.2824315 14.4254211 15.2915182 8.89004039 15.2915182 13.0064235 11.2824315 13.0064235 11.1446412"></polygon>
                            <polygon id="Path" points="7.4710428 11.1446412 7.4710428 11.2824315 3.35546599 15.2915182 1.29804973 15.2915182 1.29804973 11.1446412"></polygon>
                            <polygon id="Path" points="7.19596393 9.3684697 1.29804973 11.1446412 0.0404400049 7.18357876 2.00556374 6.59206525 2.04693411 6.72290862"></polygon>
                        </g>
                        <g id="Group" transform="translate(2.707692, 2.256410)" fill="#4D4D4D">
                            <polygon id="Path" points="15.6786428 0.133830199 20.7456642 2.80038779 15.5409009 4.40568042 15.5401071 4.40568042 10.472292 1.73906195 10.4315678 1.6063886 15.6371248 0.00115685796"></polygon>
                            <polygon id="Path" points="10.3353438 6.01097306 5.12978679 7.6162048 0.0611779186 4.94964721 0.0204536953 4.8177654 5.22601074 3.21168124 5.26673496 3.34435458"></polygon>
                        </g>
                        <polygon id="Path" fill="#666666" points="26.625641 16.2461538 26.625641 30.6871795 1.80512821 30.6871795 1.80512821 16.2461538 3.8612826 16.2461538 9.39246252 16.2461538 14.9244483 16.2461538 20.456434 16.2461538"></polygon>
                        <g id="Group" transform="translate(3.610256, 11.733333)" fill="#4D4D4D">
                            <polygon id="Path" points="20.7086571 0.0284307692 20.7086571 0.160778901 16.5960874 4.01152352 11.0658346 4.01152352 15.1784043 0.160778901 15.1784043 0.0284307692"></polygon>
                            <polygon id="Path" points="9.64815161 0.0284307692 9.64815161 0.160778901 5.53558191 4.01152352 0.00613474168 4.01152352 4.11789887 0.160778901 4.11789887 0.0284307692"></polygon>
                        </g>
                        <g id="Group" transform="translate(5.866667, 20.307692)" fill="#B3B3B3">
                            <path d="M16.0899905,1.22601111 L0.624935055,1.22601111 C0.301407,1.22601111 0.0391231892,0.962988889 0.0391231892,0.63855 C0.0391231892,0.314111111 0.301407,0.0510888889 0.624935055,0.0510888889 L16.0900514,0.0510888889 C16.4135795,0.0510888889 16.6758633,0.314111111 16.6758633,0.63855 C16.6758633,0.962988889 16.4135185,1.22601111 16.0899905,1.22601111 Z" id="Path"></path>
                            <path d="M16.0899905,5.84729444 L0.624935055,5.84729444 C0.301407,5.84729444 0.0391231892,5.58427222 0.0391231892,5.25983333 C0.0391231892,4.93539444 0.301407,4.67237222 0.624935055,4.67237222 L16.0900514,4.67237222 C16.4135795,4.67237222 16.6758633,4.93539444 16.6758633,5.25983333 C16.6758633,5.58427222 16.4135185,5.84729444 16.0899905,5.84729444 Z" id="Path"></path>
                        </g>
                        <path d="M26.4851901,11.1833363 L5.75576329,11.1833363 L25.5597379,5.13152962 C25.8719765,5.03610729 26.0467144,4.70872783 25.9501438,4.40026255 L24.7019282,0.411864807 C24.6556433,0.263774711 24.5515638,0.139829078 24.412709,0.0675781403 C24.2739158,-0.00473361502 24.111734,-0.0197554851 23.9618619,0.0261007499 L0.416994955,7.22115081 C0.104756406,7.31657314 -0.0699814691,7.6439526 0.026589058,7.95241788 L1.24846165,11.8562188 L1.33539924,30.1427588 C1.33801691,30.6933607 1.78523885,31.1382572 2.33584692,31.1380045 L26.0359927,31.1271267 C26.5872181,31.1268737 27.0342886,30.6806052 27.0355312,30.1293811 L27.0769231,11.7679121 L27.0769231,11.7679121 C27.0769231,11.4450331 26.8119542,11.1833363 26.4851901,11.1833363 Z M25.8935187,15.3579566 L21.7880711,15.3579566 L24.8296426,12.3525487 L25.8935187,12.3525487 L25.8935187,15.3579566 L25.8935187,15.3579566 Z M16.2951838,15.3579566 L19.3367553,12.3525487 L23.1562458,12.3525487 L20.1146743,15.3579566 L16.2951838,15.3579566 Z M10.802235,15.3579566 L13.8438065,12.3525487 L17.663297,12.3525487 L14.6217255,15.3579566 L10.802235,15.3579566 Z M5.30934772,15.3579566 L8.35091925,12.3525487 L12.1704098,12.3525487 L9.12883824,15.3579566 L5.30934772,15.3579566 Z M2.43174297,15.3579566 L2.43174297,12.3525487 L6.67746096,12.3525487 L3.63588943,15.3579566 L2.43174297,15.3579566 Z M7.59589653,6.2512367 L11.4003075,8.23448846 L7.75136953,9.34957344 L3.94702009,7.36632168 L7.59589653,6.2512367 Z M12.8436953,4.64766727 L16.6481063,6.63091903 L12.9990452,7.74594319 L9.19463422,5.76269143 L12.8436953,4.64766727 Z M18.091371,3.04397621 L21.895782,5.02722797 L18.246844,6.14231294 L14.442433,4.15906118 L18.091371,3.04397621 Z M24.6449338,4.18721959 L23.4945812,4.53874351 L19.6901702,2.55549175 L23.746317,1.31603543 L24.6449338,4.18721959 Z M2.34822085,7.85492777 L6.15263184,9.83817953 L2.23047743,11.0367666 L1.33179913,8.16546084 L2.34822085,7.85492777 Z M2.43174297,29.9692492 L2.43174297,16.5272298 L25.8935187,16.5272298 L25.8935187,29.9692492 L2.43174297,29.9692492 L2.43174297,29.9692492 Z" id="Shape" fill="#333333" fill-rule="nonzero"></path>
                    </g>
                </g>
            </g>
        </g>
    </g>
</svg>