<?xml version="1.0" encoding="UTF-8"?>
<svg width="64px" height="64px" viewBox="0 0 64 64" version="1.1" xmlns="http://www.w3.org/2000/svg" xmlns:xlink="http://www.w3.org/1999/xlink">
    <!-- Generator: Sketch 61.2 (89653) - https://sketch.com -->
    <title>Home</title>
    <desc>Created with Sketch.</desc>
    <g id="Page-1" stroke="none" stroke-width="1" fill="none" fill-rule="evenodd">
        <g id="Instincts-2017" transform="translate(-112.000000, -5315.000000)">
            <g id="Home" transform="translate(112.000000, 5315.000000)">
                <circle id="Oval" fill="#E6E6E6" fill-rule="nonzero" cx="32" cy="32" r="32"></circle>
                <g id="Group-76" transform="translate(14.000000, 14.000000)" stroke="#424242">
                    <path d="M7,35.3988 L29,35.3988 C29.5522847,35.3988 30,34.9510847 30,34.3988 L30,12 L30,12 L6,12 L6,34.3988 C6,34.9510847 6.44771525,35.3988 7,35.3988 Z" id="Fill-33" fill="#FFFFFF"></path>
                    <path d="M22.3328,30.1445668 L22.3328,27.3198419 C22.3328,25.1544454 20.468,23.4 18.1664,23.4 C15.8648,23.4 14,25.1544454 14,27.3198419 L14,30.1445668 L14,35.4 L22.3328,35.4 L22.3328,30.1445668 Z" id="Fill-37" fill="#E0E0E0"></path>
                    <path d="M26.88064,18.3608094 C26.88064,19.4656533 25.9850533,20.36124 24.8810706,20.36124 C23.7762267,20.36124 22.88064,19.4656533 22.88064,18.3608094 C22.88064,17.2568267 23.7762267,16.36124 24.8810706,16.36124 C25.9850533,16.36124 26.88064,17.2568267 26.88064,18.3608094" id="Fill-41" fill="#E0E0E0"></path>
                    <path d="M8.54950873,3.40146899 L2.09427272,11.001469 C1.73673958,11.4224066 1.78813909,12.0534819 2.20907674,12.411015 C2.38983782,12.5645486 2.61928295,12.64884 2.85644775,12.64884 L33.0935341,12.64884 C33.6458188,12.64884 34.0935341,12.2011247 34.0935341,11.64884 C34.0935341,11.4199144 34.0149881,11.1979195 33.8710155,11.0199341 L27.7233638,3.41993408 C27.5335037,3.18522071 27.2477717,3.04884 26.9458823,3.04884 L9.31168376,3.04884 C9.0181879,3.04884 8.73950945,3.17777377 8.54950873,3.40146899 Z" id="Fill-45" fill="#FC3D4B"></path>
                    <path d="M21.5492,3.04872 L25.1492,3.04872 L25.1492,1.64872 C25.1492,1.09643525 24.7014847,0.64872 24.1492,0.64872 L22.5492,0.64872 C21.9969153,0.64872 21.5492,1.09643525 21.5492,1.64872 L21.5492,3.04872 L21.5492,3.04872 Z" id="Fill-49" fill="#FC3D4B"></path>
                </g>
            </g>
        </g>
    </g>
</svg>