<?xml version="1.0" encoding="UTF-8"?>
<svg width="64px" height="64px" viewBox="0 0 64 64" version="1.1" xmlns="http://www.w3.org/2000/svg" xmlns:xlink="http://www.w3.org/1999/xlink">
    <!-- Generator: Sketch 61.2 (89653) - https://sketch.com -->
    <title>Hospitality</title>
    <desc>Created with Sketch.</desc>
    <defs>
        <path d="M18,0 C27.9411255,0 36,8.0588745 36,18 C36,27.9411255 27.9411255,36 18,36 C8.0588745,36 0,27.9411255 0,18 C0,8.0588745 8.0588745,0 18,0 Z M18,10 C13.581722,10 10,13.581722 10,18 C10,22.418278 13.581722,26 18,26 C22.418278,26 26,22.418278 26,18 C26,13.581722 22.418278,10 18,10 Z" id="path-1"></path>
        <path d="M18,0 C27.9411255,0 36,8.0588745 36,18 C36,27.9411255 27.9411255,36 18,36 C8.0588745,36 0,27.9411255 0,18 C0,8.0588745 8.0588745,0 18,0 Z M18,10 C13.581722,10 10,13.581722 10,18 C10,22.418278 13.581722,26 18,26 C22.418278,26 26,22.418278 26,18 C26,13.581722 22.418278,10 18,10 Z" id="path-3"></path>
    </defs>
    <g id="Page-1" stroke="none" stroke-width="1" fill="none" fill-rule="evenodd">
        <g id="Instincts-2017" transform="translate(-464.000000, -5315.000000)">
            <g id="Hospitality" transform="translate(464.000000, 5315.000000)">
                <circle id="Oval-Copy-2" fill="#E6E6E6" fill-rule="nonzero" cx="32" cy="32" r="32"></circle>
                <g id="Fill-181-+-Fill-183-+-Fill-185-+-Fill-187-Mask" transform="translate(14.000000, 14.000000)">
                    <mask id="mask-2" fill="white">
                        <use xlink:href="#path-1"></use>
                    </mask>
                    <use id="Mask" stroke="#424242" stroke-width="2" fill="#FFFFFF" xlink:href="#path-1"></use>
                    <mask id="mask-4" fill="white">
                        <use xlink:href="#path-3"></use>
                    </mask>
                    <use id="Mask" fill="#FFFFFF" xlink:href="#path-3"></use>
                    <path d="M20.3,25.3365454 L24.3861211,35.2 C29.153994,33.2264313 33.1684288,29.4314445 35.3,24.2861211 L25.4365454,20.2 C24.4329367,22.6212426 22.5442212,24.407549 20.3,25.3365454" id="Fill-181" fill="#FC3D4B" mask="url(#mask-4)"></path>
                    <path d="M11.4134803,35.1 C8.88811939,34.0538627 6.68757316,32.5526922 4.8674405,30.7310964 C2.98146703,28.8421966 1.50370659,26.6123878 0.5,24.1865197 L10.3629536,20.1 C10.8355443,21.2412407 11.5334569,22.2903043 12.4201131,23.1798869 C13.2760437,24.0358174 14.310476,24.7425088 15.5,25.2355833 L11.4134803,35.1 Z" id="Fill-183" fill="#FC3D4B" mask="url(#mask-4)"></path>
                    <path d="M36,11.6410456 L25.4779555,16 C24.9738588,14.7826766 24.2309793,13.6636754 23.2852126,12.7147874 C22.3706594,11.8017948 21.2672649,11.0479906 20,10.5220445 L24.3589544,0 C27.0526726,1.11587983 29.399922,2.71712837 31.3398361,4.6586032 C33.3531018,6.67342957 34.927819,9.05345298 36,11.6410456" id="Fill-185" fill="#FC3D4B" mask="url(#mask-4)"></path>
                    <path d="M15.5,10.5346728 L11.5500829,1 C6.94113918,2.90919731 3.06051887,6.57627036 1,11.5500829 L10.5346728,15.5 C11.5048279,13.1594655 13.3305862,11.4341168 15.5,10.5346728" id="Fill-187" fill="#FC3D4B" mask="url(#mask-4)"></path>
                </g>
            </g>
        </g>
    </g>
</svg>