<?xml version="1.0" encoding="UTF-8"?>
<svg width="32px" height="32px" viewBox="0 0 32 32" version="1.1" xmlns="http://www.w3.org/2000/svg" xmlns:xlink="http://www.w3.org/1999/xlink">
    <!-- Generator: Sketch 61.2 (89653) - https://sketch.com -->
    <title>icon/social/instagram-colored</title>
    <desc>Created with Sketch.</desc>
    <defs>
        <radialGradient cx="20.4994381%" cy="87.3920768%" fx="20.4994381%" fy="87.3920768%" r="110.2824%" id="radialGradient-1">
            <stop stop-color="#FAE100" offset="0%"></stop>
            <stop stop-color="#FADC04" offset="5.44%"></stop>
            <stop stop-color="#FBCE0E" offset="11.67%"></stop>
            <stop stop-color="#FCB720" offset="18.29%"></stop>
            <stop stop-color="#FE9838" offset="25.14%"></stop>
            <stop stop-color="#FF7950" offset="30.54%"></stop>
            <stop stop-color="#FF1C74" offset="49.22%"></stop>
            <stop stop-color="#6C1CD1" offset="100%"></stop>
        </radialGradient>
        <linearGradient x1="36.8759009%" y1="42.6177546%" x2="-154.039644%" y2="-64.7722395%" id="linearGradient-2">
            <stop stop-color="#A1B5D8" stop-opacity="0" offset="0%"></stop>
            <stop stop-color="#90A2BD" stop-opacity="0.309804" offset="30.94%"></stop>
            <stop stop-color="#7C8B9C" stop-opacity="0.756863" offset="75.54%"></stop>
            <stop stop-color="#748290" offset="100%"></stop>
        </linearGradient>
        <linearGradient x1="49.9996672%" y1="41.2557065%" x2="49.9996672%" y2="119.349194%" id="linearGradient-3">
            <stop stop-color="#FAE100" stop-opacity="0" offset="0%"></stop>
            <stop stop-color="#FCA800" stop-opacity="0.305882" offset="30.68%"></stop>
            <stop stop-color="#FE7300" stop-opacity="0.627451" offset="62.75%"></stop>
            <stop stop-color="#FF5200" stop-opacity="0.866667" offset="86.85%"></stop>
            <stop stop-color="#FF4500" offset="100%"></stop>
        </linearGradient>
        <linearGradient x1="31.6097795%" y1="31.2687228%" x2="1.2163078%" y2="1.03725639%" id="linearGradient-4">
            <stop stop-color="#833AB4" stop-opacity="0" offset="0%"></stop>
            <stop stop-color="#833AB4" offset="100%"></stop>
        </linearGradient>
        <linearGradient x1="58.2371646%" y1="88.5512159%" x2="41.8417883%" y2="11.3608773%" id="linearGradient-5">
            <stop stop-color="#833AB4" stop-opacity="0" offset="0%"></stop>
            <stop stop-color="#833AB4" offset="100%"></stop>
        </linearGradient>
        <linearGradient x1="60.5048093%" y1="60.5047823%" x2="-15.9715487%" y2="-15.9716059%" id="linearGradient-6">
            <stop stop-color="#833AB4" stop-opacity="0" offset="0%"></stop>
            <stop stop-color="#833AB4" offset="100%"></stop>
        </linearGradient>
        <linearGradient x1="40.2793567%" y1="33.2168435%" x2="5.2944048%" y2="-6.34929376%" id="linearGradient-7">
            <stop stop-color="#833AB4" stop-opacity="0" offset="0%"></stop>
            <stop stop-color="#833AB4" offset="100%"></stop>
        </linearGradient>
        <linearGradient x1="81.5887586%" y1="19.065856%" x2="17.2310239%" y2="82.5326174%" id="linearGradient-8">
            <stop stop-color="#833AB4" offset="0%"></stop>
            <stop stop-color="#9C3495" offset="9.22%"></stop>
            <stop stop-color="#DC2546" offset="29.27%"></stop>
            <stop stop-color="#FD1D1D" offset="39.2%"></stop>
            <stop stop-color="#FC6831" offset="55.89%"></stop>
            <stop stop-color="#FC9B40" offset="68.87%"></stop>
            <stop stop-color="#FCAF45" offset="75.21%"></stop>
            <stop stop-color="#FDB750" offset="78.06%"></stop>
            <stop stop-color="#FECB6A" offset="86.56%"></stop>
            <stop stop-color="#FFD87A" offset="94.15%"></stop>
            <stop stop-color="#FFDC80" offset="100%"></stop>
        </linearGradient>
    </defs>
    <g id="icon/social/instagram-colored" stroke="none" stroke-width="1" fill="none" fill-rule="evenodd">
        <g id="instagram" fill-rule="nonzero">
            <path d="M31.4521484,5.72363281 C31.1608887,2.99462888 29.0056152,0.838867188 26.2763672,0.547851562 C19.4321289,-0.182617188 12.5678711,-0.182617188 5.72387694,0.547851562 C2.99462887,0.839111313 0.839111312,2.99462888 0.547851562,5.72363281 C-0.182617188,12.5676269 -0.182617188,19.4321289 0.547851562,26.2761231 C0.839111312,29.0053711 2.99462887,31.1608887 5.72363281,31.4521484 C12.5676269,32.1826172 19.4321289,32.1826172 26.2763672,31.4521484 C29.0056152,31.1608887 31.1608887,29.0053711 31.4521484,26.2761231 C32.1826172,19.4321289 32.1826172,12.5678711 31.4521484,5.72363281 Z" id="Path" fill="url(#radialGradient-1)"></path>
            <path d="M29.7116699,6.8811035 C29.4533691,4.45947262 27.5407715,2.54663087 25.1188965,2.28808594 C19.0456543,1.64013675 12.9543457,1.64013675 6.8811035,2.28808594 C4.45947263,2.54663087 2.54663088,4.45947262 2.28808594,6.8811035 C1.64013675,12.9543457 1.64013675,19.0456543 2.28808594,25.1186524 C2.54663088,27.5405274 4.45947263,29.4533691 6.8811035,29.7116699 C12.9543457,30.3598632 19.0456543,30.3598632 25.1186524,29.7116699 C27.5405274,29.4533691 29.4533691,27.5405274 29.7116699,25.1186524 C30.3598633,19.0456543 30.3598633,12.9543457 29.7116699,6.8811035 L29.7116699,6.8811035 Z" id="Path" fill="url(#linearGradient-2)"></path>
            <path d="M0.479492187,25.612793 C0.501464875,25.8339844 0.524169937,26.0551758 0.547851562,26.2763672 C0.839111312,29.0053711 2.99462887,31.1608887 5.72387694,31.4521484 C12.5678711,32.1826172 19.4323731,32.1826172 26.2763672,31.4521484 C29.0056152,31.1608887 31.1608887,29.0053711 31.4521484,26.2763672 C31.4758301,26.0551758 31.4985351,25.8339844 31.5207519,25.612793 L0.479492187,25.612793 Z" id="Path" fill="url(#linearGradient-3)"></path>
            <path d="M31.4521484,26.2761231 C31.8447266,22.5986328 32.0258789,18.9152832 31.996582,15.2324219 L24.6821289,7.91796875 C23.7683106,6.87475588 22.4335938,6.22363281 20.8652344,6.16723631 C17.6398926,6.05102538 14.4042969,6.05688475 11.1784668,6.16772463 C8.49926756,6.26000975 6.62573244,8.060791 6.14526369,10.7075195 C6.06054688,11.1748047 6.00976563,11.6481934 5.94311525,12.1188965 L5.94311525,19.8781738 C5.9799805,20.1296387 6.03417969,20.3798828 6.05102538,20.6328125 C6.15844725,22.2426758 6.82006838,23.621582 7.8793945,24.5544434 L15.3227539,31.9975586 C18.9755859,32.0231934 22.6286621,31.8415527 26.2763672,31.4521484 C29.0056152,31.1608887 31.1608887,29.0053711 31.4521484,26.2761231 L31.4521484,26.2761231 Z" id="Path" fill="url(#linearGradient-4)"></path>
            <path d="M31.4521484,26.2763672 C31.1611328,29.0051269 29.0051269,31.1611328 26.2763672,31.4521484 C22.6291504,31.8413086 18.9753418,32.0231934 15.3229981,31.9975586 L7.89086912,24.5654297 C8.75244137,25.3195801 9.87548825,25.7788086 11.1787109,25.8278809 C14.4038086,25.9489746 17.6401367,25.9458007 20.8652344,25.8295899 C23.7822266,25.7241211 25.8930664,23.5651856 25.9841309,20.6481934 C26.0812988,17.5510254 26.0812988,14.4458007 25.9841309,11.3486328 C25.9426269,10.0029297 25.4702149,8.81884762 24.6870117,7.92285156 L31.9968262,15.232666 C32.0256347,18.9150391 31.8444824,22.5988769 31.4521484,26.2763672 Z" id="Path" fill="url(#linearGradient-5)"></path>
            <path d="M19.7758789,12.5349121 C18.8388672,11.5146484 17.4943848,10.8745117 16,10.8745117 C13.1694336,10.8745117 10.8745117,13.1694336 10.8745117,16 C10.8745117,17.4943848 11.5146484,18.8388672 12.5349121,19.7758789 L24.3935547,31.6345215 C25.0212402,31.579834 25.6489257,31.519043 26.2761231,31.4521484 C29.0053711,31.1608887 31.1608887,29.0053711 31.4521484,26.2761231 C31.519043,25.6489257 31.579834,25.0212402 31.6345215,24.3935547 L19.7758789,12.5349121 Z" id="Path" fill="url(#linearGradient-6)"></path>
            <path d="M31.9379882,19.4470215 L22.394043,9.90332031 C22.1713867,9.611084 21.8205566,9.42138675 21.4248047,9.42138675 C20.7514649,9.42138675 20.2053222,9.96728513 20.2053222,10.6408691 C20.2053222,11.0366211 20.3950195,11.3874512 20.6872559,11.6101074 L31.767334,22.6904297 C31.8425293,21.6096191 31.8994141,20.5283203 31.9379882,19.4470215 L31.9379882,19.4470215 Z" id="Path" fill="url(#linearGradient-7)"></path>
            <path d="M5.94311525,12.1188965 C6.00976562,11.6481934 6.06054688,11.1748047 6.14526369,10.7075195 C6.62548825,8.060791 8.49926756,6.26000975 11.1784668,6.16772462 C14.4042969,6.05688475 17.6398926,6.05102537 20.8652344,6.16723631 C23.78125,6.27221681 25.8930664,8.4313965 25.9841309,11.3483887 C26.0810547,14.4458007 26.0810547,17.5507812 25.9841309,20.6481934 C25.8930664,23.5651856 23.7819824,25.7241211 20.8654785,25.8293457 C17.6401367,25.9458007 14.4038086,25.9487305 11.1787109,25.8276367 C8.262207,25.7180176 6.24609375,23.5539551 6.05102537,20.6325684 C6.03417969,20.3798828 5.9799805,20.1293945 5.94311525,19.8779297 C5.94311525,17.2915039 5.94311525,14.7050781 5.94311525,12.1188965 Z M16.0026856,24.1005859 C17.4787597,24.1005859 18.9562988,24.1447754 20.4304199,24.090332 C22.7416992,24.0046387 24.1633301,22.6252441 24.2172851,20.3161621 C24.2841797,17.4389649 24.2841797,14.5578613 24.2172851,11.6804199 C24.1633301,9.37182619 22.7407226,7.96020506 20.4304199,7.91113281 C17.4980469,7.84912112 14.5625,7.84960937 11.6301269,7.91113281 C9.33740237,7.9592285 7.91162112,9.34228512 7.84936525,11.6254882 C7.77026369,14.5390625 7.77026369,17.4577637 7.84936525,20.3713379 C7.91162112,22.6542969 9.33740237,24.0053711 11.6303711,24.090332 C13.0859375,24.1445312 14.545166,24.1005859 16.0026856,24.1005859 L16.0026856,24.1005859 Z" id="Shape" fill="url(#linearGradient-8)"></path>
            <g id="Group" transform="translate(5.937500, 6.062500)" fill="#FFFFFF">
                <path d="M0.00561525,6.0563965 C0.072265625,5.58569337 0.123046875,5.11230469 0.207763687,4.6450195 C0.68798825,1.998291 2.56176756,0.19750975 5.24096681,0.105224625 C8.46679688,-0.00561525 11.7023926,-0.011474625 14.9277344,0.104736312 C17.84375,0.209716812 19.9555664,2.3688965 20.0466309,5.28588869 C20.1435547,8.38330075 20.1435547,11.4882812 20.0466309,14.5856934 C19.9555664,17.5026856 17.8444824,19.6616211 14.9279785,19.7668457 C11.7026367,19.8833008 8.46630862,19.8862305 5.24121094,19.7651367 C2.324707,19.6555176 0.30859375,17.4914551 0.113525375,14.5700684 C0.0966796875,14.3173828 0.0424805,14.0668945 0.00561525,13.8154297 C0.00561525,11.2290039 0.00561525,8.64257812 0.00561525,6.0563965 Z M10.0651856,18.0380859 C11.5412597,18.0380859 13.0187988,18.0822754 14.4929199,18.027832 C16.8041992,17.9421387 18.2258301,16.5627441 18.2797851,14.2536621 C18.3466797,11.3764649 18.3466797,8.49536131 18.2797851,5.61791994 C18.2258301,3.30932619 16.8032226,1.89770506 14.4929199,1.84863281 C11.5605469,1.78662112 8.625,1.78710937 5.69262694,1.84863281 C3.39990237,1.8967285 1.97412112,3.27978512 1.91186525,5.56298825 C1.83276369,8.4765625 1.83276369,11.3952637 1.91186525,14.3088379 C1.97412112,16.5917969 3.39990237,17.9428711 5.69287112,18.027832 C7.1484375,18.0820312 8.607666,18.0380859 10.0651856,18.0380859 L10.0651856,18.0380859 Z" id="Shape"></path>
                <path d="M10.0625,4.81225587 C7.23193362,4.81225587 4.93701175,7.10693362 4.93701175,9.9375 C4.93701175,12.7683106 7.23193362,15.0629883 10.0625,15.0629883 C12.8933106,15.0629883 15.1879883,12.7683106 15.1879883,9.9375 C15.1879883,7.10693362 12.8933106,4.81225587 10.0625,4.81225587 Z M10.0625,13.2983399 C8.20629881,13.2983399 6.70166013,11.7937012 6.70166013,9.9375 C6.70166013,8.08129881 8.20629881,6.57666013 10.0625,6.57666013 C11.9187012,6.57666013 13.4233399,8.08129881 13.4233399,9.9375 C13.4233399,11.7937012 11.9187012,13.2983399 10.0625,13.2983399 Z" id="Shape"></path>
                <path d="M16.706543,4.57836913 C16.706543,5.251709 16.1606445,5.79760744 15.4873047,5.79760744 C14.8139649,5.79760744 14.2678223,5.251709 14.2678223,4.57836913 C14.2678223,3.90478513 14.8139649,3.35888675 15.4873047,3.35888675 C16.1606445,3.35888675 16.706543,3.90478513 16.706543,4.57836913 Z" id="Path"></path>
            </g>
        </g>
    </g>
</svg>