<?xml version="1.0" encoding="UTF-8"?>
<svg width="64px" height="64px" viewBox="0 0 64 64" version="1.1" xmlns="http://www.w3.org/2000/svg" xmlns:xlink="http://www.w3.org/1999/xlink">
    <!-- Generator: Sketch 61.2 (89653) - https://sketch.com -->
    <title>Photography</title>
    <desc>Created with Sketch.</desc>
    <g id="Page-1" stroke="none" stroke-width="1" fill="none" fill-rule="evenodd">
        <g id="Instincts-2017" transform="translate(-644.000000, -5433.000000)">
            <g id="Photography" transform="translate(644.000000, 5433.000000)">
                <circle id="Oval-Copy-3" fill="#E6E6E6" fill-rule="nonzero" cx="32" cy="32" r="32"></circle>
                <g id="download-(10)" transform="translate(16.000000, 16.000000)">
                    <path d="M28.5420625,12.497 C27.2993125,8.03375 23.7378125,4.53725 19.2368125,3.3859375 C18.202625,3.1211875 17.117875,2.9799375 16.0003125,2.9799375 C12.3554375,2.9799375 9.0595,4.477875 6.695875,6.8911875 C4.39725,9.2395625 2.980375,12.4544375 2.980375,15.9998125 C2.980375,17.220125 3.1480625,18.401125 3.4625625,19.5211875 C4.7109375,23.97725 8.271625,27.4673125 12.769375,28.615375 C13.80275,28.8793125 14.8850625,29.01975 16.0003125,29.01975 C19.651625,29.01975 22.9515625,27.5161875 25.3159375,25.095625 C27.6073125,22.7480625 29.0194375,19.5388125 29.0194375,15.9998125 C29.0194375,14.786 28.8533125,13.611375 28.5420625,12.497 Z M16.0003125,0.601875 C24.504,0.601875 31.3983125,7.495375 31.3983125,15.999875 C31.3983125,24.504375 24.504,31.397875 16.00025,31.397875 C7.49575,31.397875 0.6014375,24.504375 0.6014375,15.999875 C0.6014375,7.495375 7.49575,0.601875 16.0003125,0.601875 Z" id="Shape" fill="#F9BF64" fill-rule="nonzero"></path>
                    <g id="Group" transform="translate(2.937500, 2.937500)" fill="#B3B3B3">
                        <path d="M16.2993125,0.4484375 L16.2993125,0.44925 L11.039375,9.5595 L11.0401875,9.5595 L9.0175625,13.062375 L3.758375,3.95375 C6.122,1.540375 9.417875,0.0424999793 13.0628125,0.0424999793 C14.180375,0.0424999793 15.265125,0.1836875 16.2993125,0.4484375 Z" id="Path"></path>
                        <path d="M9.0175,13.062375 L11.040125,16.5660625 L0.58925,16.5660625 L0.5250625,16.5836875 C0.2105625,15.4636875 0.042875,14.282625 0.042875,13.0623125 C0.042875,9.516875 1.45975,6.302 3.758375,3.9536875 L9.0175,13.062375 Z" id="Path"></path>
                        <path d="M15.0854375,16.5660625 L9.8383125,25.653875 L9.831875,25.6779375 C5.334125,24.5298125 1.7734375,21.03975 0.5250625,16.58375 L0.58925,16.5660625 L11.0401875,16.5660625 L13.6356875,16.5660625 L15.0854375,16.5660625 L15.0854375,16.5660625 Z" id="Path"></path>
                        <path d="M22.2685,22.00175 L22.3784375,22.1581875 C20.014,24.57875 16.714125,26.0823125 13.0628125,26.0823125 C11.947625,26.0823125 10.86525,25.9419375 9.831875,25.6779375 L9.8383125,25.653875 L15.0854375,16.5660625 L17.1080625,13.062375 L22.2685,22.00175 Z" id="Path"></path>
                        <path d="M25.6045625,9.5595 C25.915875,10.6739375 26.0819375,11.8485 26.0819375,13.062375 C26.0819375,16.601375 24.669875,19.810625 22.3784375,22.1581875 L22.2685,22.00175 L17.108,13.062375 L15.085375,9.5595 L25.6045625,9.5595 L25.6045625,9.5595 Z" id="Path"></path>
                        <path d="M25.6045625,9.5595 L15.0854375,9.5595 L13.15425,9.5595 L11.040125,9.5595 L11.0393125,9.5595 L16.29925,0.44925 L16.29925,0.4484375 C20.8003125,1.59975 24.36175,5.0961875 25.6045625,9.5595 Z" id="Path"></path>
                    </g>
                    <polygon id="Path" fill="#4D4D4D" points="18.0229375 12.497 20.0455625 15.999875 18.0229375 19.5035625 16.573125 19.5035625 13.977625 19.5035625 11.955 15.999875 13.977625 12.497 16.09175 12.497"></polygon>
                    <g id="Group" fill="#333333" fill-rule="nonzero">
                        <path d="M16.0000625,2.3785625 C8.489125,2.3785625 2.378625,8.489125 2.378625,16 C2.378625,23.510875 8.4891875,29.6214375 16.0000625,29.6214375 C23.5109375,29.6214375 29.6215,23.510875 29.6215,16 C29.6215,8.489125 23.510875,2.3785625 16.0000625,2.3785625 Z M27.71975,11.8949375 L15.0194375,11.8949375 L19.5244375,4.0923125 C23.347,5.225625 26.4053125,8.153125 27.71975,11.8949375 Z M17.67525,18.901625 L14.3248125,18.901625 L12.6495625,16 L14.3248125,13.098375 L17.67525,13.098375 L19.3505,16 L17.67525,18.901625 Z M18.3050625,3.7974375 L11.9546875,14.7965625 L7.4530625,6.999625 C9.6810625,4.8828125 12.6914375,3.582 15.9999375,3.582 C16.7875,3.582 17.557875,3.6565625 18.3050625,3.7974375 Z M6.588125,7.90825 L12.935125,18.901625 L3.925125,18.901625 C3.701375,17.970375 3.582,16.9989375 3.582,16 C3.582,12.911625 4.7155625,10.08325 6.588125,7.90825 Z M4.28025,20.1050625 L16.9804375,20.1050625 L12.475625,27.90775 C8.653,26.7743125 5.5946875,23.846875 4.28025,20.1050625 Z M13.695,28.2025625 L20.045375,17.2034375 L24.547,25.000375 C22.319,27.1171875 19.3086875,28.418 16.000125,28.418 C15.2125,28.418 14.4421875,28.343375 13.695,28.2025625 Z M25.411875,24.0916875 L19.064875,13.0983125 L28.074875,13.0983125 C28.298625,14.0295625 28.418,15.001 28.418,15.9999375 C28.418,19.088375 27.2844375,21.91675 25.411875,24.0916875 Z" id="Shape"></path>
                        <path d="M16.0000625,0 C7.1775625,0 0,7.1775625 0,15.9999375 C0,24.8224375 7.1775625,32 16.0000625,32 C24.8224375,32 32,24.8224375 32,15.9999375 C32,7.1775625 24.8224375,0 16.0000625,0 Z M16.0000625,30.7965625 C7.8411875,30.7965625 1.2035,24.158875 1.2035,16 C1.2035,7.841125 7.8411875,1.2035 16.0000625,1.2035 C24.158875,1.2035 30.7965625,7.8411875 30.7965625,16 C30.7965625,24.1588125 24.1588125,30.7965625 16.0000625,30.7965625 Z" id="Shape"></path>
                    </g>
                </g>
            </g>
        </g>
    </g>
</svg>