<?xml version="1.0" encoding="UTF-8"?>
<svg width="64px" height="64px" viewBox="0 0 64 64" version="1.1" xmlns="http://www.w3.org/2000/svg" xmlns:xlink="http://www.w3.org/1999/xlink">
    <!-- Generator: Sketch 61.2 (89653) - https://sketch.com -->
    <title>Schedule</title>
    <desc>Created with Sketch.</desc>
    <g id="Page-1" stroke="none" stroke-width="1" fill="none" fill-rule="evenodd">
        <g id="Instincts-2017" transform="translate(-376.000000, -5315.000000)">
            <g id="Schedule" transform="translate(376.000000, 5315.000000)">
                <circle id="Oval-Copy-2" fill="#E6E6E6" fill-rule="nonzero" cx="32" cy="32" r="32"></circle>
                <g id="Group-32" transform="translate(15.000000, 19.000000)" stroke="#424242">
                    <path d="M1.49365161,6.67753548 L34.1815226,6.67753548 L34.1815226,6.67753548 L34.1815226,25.4183097 C34.1815226,25.9705944 33.7338073,26.4183097 33.1815226,26.4183097 L1.49365161,26.4183097 C0.941366863,26.4183097 0.493651613,25.9705944 0.493651613,25.4183097 L0.493651613,7.67753548 C0.493651613,7.12525073 0.941366863,6.67753548 1.49365161,6.67753548 Z" id="Stroke-8" fill="#FFFFFF"></path>
                    <g id="Group-13" transform="translate(0.161290, 2.322581)" fill="#FC3D4B">
                        <path d="M0.332593548,5.51624516 L0.332593548,1.06050323 C0.332593548,0.508218476 0.780308799,0.0605032258 1.33259355,0.0605032258 L33.0204645,0.0605032258 C33.5727493,0.0605032258 34.0204645,0.508218476 34.0204645,1.06050323 L34.0204645,5.51624516 L34.0204645,5.51624516" id="Stroke-12"></path>
                    </g>
                    <line x1="0.918348387" y1="7.50089032" x2="34.5570584" y2="7.50089032" id="Stroke-14"></line>
                    <line x1="12.1118968" y1="7.881535" x2="12.1118968" y2="26.6621806" id="Stroke-16"></line>
                    <line x1="22.5635097" y1="7.881535" x2="22.5635097" y2="26.6621806" id="Stroke-18"></line>
                    <line x1="25.761471" y1="9.4923871" x2="31.3542452" y2="14.8621935" id="Stroke-20" stroke-width="2"></line>
                    <line x1="30.8891484" y1="9.4923871" x2="26.2254065" y2="14.8621935" id="Stroke-22" stroke-width="2"></line>
                    <path d="M6.0236129,4.68 L6.4483871,4.68 C7.00067185,4.68 7.4483871,4.23228475 7.4483871,3.68 L7.4483871,1.14980645 C7.4483871,0.597521702 7.00067185,0.149806452 6.4483871,0.149806452 L6.0236129,0.149806452 C5.47132815,0.149806452 5.0236129,0.597521702 5.0236129,1.14980645 L5.0236129,3.68 C5.0236129,4.23228475 5.47132815,4.68 6.0236129,4.68 Z" id="Fill-24" fill="#E0E0E0"></path>
                    <path d="M28.5781935,4.68 L29.0029677,4.68 C29.5552525,4.68 30.0029677,4.23228475 30.0029677,3.68 L30.0029677,1.14980645 C30.0029677,0.597521702 29.5552525,0.149806452 29.0029677,0.149806452 L28.5781935,0.149806452 C28.0259088,0.149806452 27.5781935,0.597521702 27.5781935,1.14980645 L27.5781935,3.68 C27.5781935,4.23228475 28.0259088,4.68 28.5781935,4.68 Z" id="Fill-27" fill="#E0E0E0"></path>
                    <line x1="0.918348387" y1="16.7912129" x2="34.5570584" y2="16.7912129" id="Stroke-29"></line>
                </g>
            </g>
        </g>
    </g>
</svg>