<?xml version="1.0" encoding="UTF-8"?>
<svg width="64px" height="64px" viewBox="0 0 64 64" version="1.1" xmlns="http://www.w3.org/2000/svg" xmlns:xlink="http://www.w3.org/1999/xlink">
    <!-- Generator: Sketch 61.2 (89653) - https://sketch.com -->
    <title>Special</title>
    <desc>Created with Sketch.</desc>
    <defs>
        <polygon id="path-1" points="0 0.0545292545 29.9949801 0.0545292545 29.9949801 9.02619543 0 9.02619543"></polygon>
    </defs>
    <g id="Page-1" stroke="none" stroke-width="1" fill="none" fill-rule="evenodd">
        <g id="Instincts-2017" transform="translate(-996.000000, -5433.000000)">
            <g id="Special" transform="translate(996.000000, 5433.000000)">
                <circle id="Oval-Copy-3" fill="#E6E6E6" fill-rule="nonzero" cx="32" cy="32" r="32"></circle>
                <g id="lightbulb" transform="translate(17.000000, 14.000000)">
                    <path d="M20.7389189,23.5459459 C19.0624116,25.2224532 19.2719751,28.6054054 19.2719751,28.6054054 L10.7696881,28.6054054 C10.7696881,28.6054054 10.9493139,25.2224532 9.30274428,23.5459459 C7.47654886,21.9293139 6.30898129,19.5941788 6.30898129,16.989605 C6.30898129,12.1995842 10.2008732,8.30769231 14.990894,8.30769231 C19.7809148,8.30769231 23.6728067,12.1995842 23.6728067,16.989605 C23.6728067,19.5941788 22.5351767,21.9293139 20.7389189,23.5459459" id="Fill-1" fill="#F9BF64"></path>
                    <path d="M19.5114761,31.2698545 C19.5114761,31.7189189 19.1522245,32.0781705 18.7031601,32.0781705 L11.3085655,32.0781705 C10.859501,32.0781705 10.5002495,31.7189189 10.5002495,31.2698545 C10.5002495,30.82079 10.859501,30.4615385 11.3085655,30.4615385 L18.6732225,30.4615385 C19.1222869,30.4615385 19.5114761,30.82079 19.5114761,31.2698545" id="Fill-2" fill="#D9D7D1"></path>
                    <path d="M18.4037838,34.622869 C18.4037838,35.0719335 18.0445322,35.431185 17.5954678,35.431185 L12.4162578,35.431185 C11.9671933,35.431185 11.6079418,35.0719335 11.6079418,34.622869 C11.6079418,34.1738046 11.9671933,33.814553 12.4162578,33.814553 L17.5954678,33.814553 C18.0445322,33.814553 18.4037838,34.1738046 18.4037838,34.622869" id="Fill-3" fill="#D9D7D1"></path>
                    <path d="M20.3497297,23.0968815 C20.2898545,23.1268191 20.2599168,23.1866944 20.2299792,23.2465696 C18.9127235,24.6536383 18.7031601,26.9588358 18.6732225,28.0365904 L11.3385031,28.0365904 C11.3085655,26.9288981 11.0690644,24.5338877 9.66199584,23.1268191 C7.89567568,21.5700624 6.87779626,19.3546778 6.87779626,17.0195426 C6.87779626,12.5288981 10.5301871,8.90644491 14.990894,8.90644491 C19.4815385,8.90644491 23.1039917,12.5588358 23.1039917,17.0195426 C23.1039917,19.3247401 22.1160499,21.5700624 20.3497297,23.0968815 Z M21.1879834,23.8453222 C23.1339293,22.0790021 24.2416216,19.5941788 24.2416216,16.989605 C24.2416216,11.9002079 20.0802911,7.73887734 14.990894,7.73887734 C9.90149688,7.73887734 5.74016632,11.9002079 5.74016632,16.989605 C5.74016632,19.6540541 6.90773389,22.1987526 8.88361746,23.9351351 C10.3505613,25.402079 10.2008732,28.5155925 10.2008732,28.5455301 C10.2008732,28.6952183 10.2607484,28.8449064 10.3505613,28.964657 C10.4703119,29.0844075 10.62,29.1442827 10.7696881,29.1442827 L19.2420374,29.1442827 C19.3917256,29.1442827 19.5414137,29.0844075 19.6611642,28.964657 C19.7809148,28.8449064 19.8108524,28.6952183 19.8108524,28.5455301 C19.8108524,28.5155925 19.6611642,25.402079 21.1281081,23.9351351 C21.1580457,23.9051975 21.1879834,23.8752599 21.1879834,23.8453222 L21.1879834,23.8453222 Z" id="Fill-4" fill="#190F18"></path>
                    <g id="Group-9" transform="translate(9.879418, 29.862786)" fill="#190F18">
                        <path d="M8.79380457,1.64656965 L1.42914761,1.64656965 C1.27945946,1.64656965 1.18964657,1.52681913 1.18964657,1.40706861 C1.18964657,1.25738046 1.30939709,1.16756757 1.42914761,1.16756757 L8.79380457,1.16756757 C8.94349272,1.16756757 9.03330561,1.28731809 9.03330561,1.40706861 C9.06324324,1.55675676 8.94349272,1.64656965 8.79380457,1.64656965 Z M10.2008732,1.40706861 C10.2008732,0.628690229 9.57218295,0.0299376299 8.8237422,0.0299376299 L1.42914761,0.0299376299 C0.650769231,0.0299376299 0.052016632,0.658627859 0.052016632,1.40706861 C0.052016632,2.18544699 0.680706861,2.78419958 1.42914761,2.78419958 L8.79380457,2.78419958 C9.57218295,2.78419958 10.2008732,2.18544699 10.2008732,1.40706861 L10.2008732,1.40706861 Z" id="Fill-6"></path>
                        <path d="M7.7160499,4.9995842 L2.53683992,4.9995842 C2.38715177,4.9995842 2.29733888,4.87983368 2.29733888,4.76008316 C2.29733888,4.61039501 2.4170894,4.52058212 2.53683992,4.52058212 L7.7160499,4.52058212 C7.86573805,4.52058212 7.95555094,4.64033264 7.95555094,4.76008316 C7.95555094,4.90977131 7.86573805,4.9995842 7.7160499,4.9995842 Z M7.7160499,3.38295218 L2.53683992,3.38295218 C1.75846154,3.38295218 1.15970894,4.01164241 1.15970894,4.76008316 C1.15970894,5.53846154 1.78839917,6.13721414 2.53683992,6.13721414 L7.7160499,6.13721414 C8.49442827,6.13721414 9.09318087,5.50852391 9.09318087,4.76008316 C9.09318087,4.01164241 8.46449064,3.38295218 7.7160499,3.38295218 L7.7160499,3.38295218 Z" id="Fill-8"></path>
                    </g>
                    <path d="M15.5597089,4.41580042 L15.5597089,0.583783784 C15.5597089,0.284407484 15.3202079,0.014968815 14.990894,0.014968815 C14.6915177,0.014968815 14.422079,0.254469854 14.422079,0.583783784 L14.422079,4.44573805 C14.422079,4.74511435 14.66158,5.01455301 14.990894,5.01455301 C15.3202079,4.98461538 15.5597089,4.74511435 15.5597089,4.41580042" id="Fill-10" fill="#190F18"></path>
                    <path d="M24.4212474,2.85904366 C24.1518087,2.67941788 23.8224948,2.76923077 23.642869,3.00873181 L21.5172973,6.21205821 C21.3376715,6.48149688 21.4274844,6.81081081 21.6669854,6.99043659 C21.7567983,7.05031185 21.8765489,7.08024948 21.9663617,7.08024948 C22.1459875,7.08024948 22.3256133,6.99043659 22.4453638,6.84074844 L24.5709356,3.63742204 C24.7505613,3.397921 24.6607484,3.03866944 24.4212474,2.85904366" id="Fill-11" fill="#190F18"></path>
                    <g id="Group-16" transform="translate(0.000000, 2.544699)">
                        <mask id="mask-2" fill="white">
                            <use xlink:href="#path-1"></use>
                        </mask>
                        <g id="Clip-13"></g>
                        <path d="M8.2249896,4.41580042 C8.31480249,4.41580042 8.43455301,4.38586279 8.5243659,4.32598753 C8.79380457,4.14636175 8.85367983,3.81704782 8.70399168,3.54760915 L6.63829522,0.314345114 C6.45866944,0.0449064449 6.12935551,-0.014968815 5.85991684,0.134719335 C5.59047817,0.314345114 5.53060291,0.643659044 5.68029106,0.913097713 L7.74598753,4.14636175 C7.86573805,4.32598753 8.04536383,4.41580042 8.2249896,4.41580042" id="Fill-12" fill="#190F18" mask="url(#mask-2)"></path>
                        <path d="M0.291517672,7.11018711 L3.67446985,8.93638254 C3.76428274,8.9962578 3.85409563,8.9962578 3.94390852,8.9962578 C4.15347193,8.9962578 4.33309771,8.87650728 4.45284823,8.6968815 C4.60253638,8.42744283 4.51272349,8.06819127 4.21334719,7.91850312 L0.83039501,6.09230769 C0.560956341,5.94261954 0.201704782,6.03243243 0.052016632,6.33180873 C-0.0677338877,6.63118503 0.0220790021,6.96049896 0.291517672,7.11018711" id="Fill-14" fill="#190F18" mask="url(#mask-2)"></path>
                        <path d="M26.0378794,9.02619543 C26.1276923,9.02619543 26.2175052,8.9962578 26.3073181,8.96632017 L29.6902703,7.14012474 C29.9597089,6.99043659 30.0794595,6.66112266 29.9297713,6.36174636 C29.7800832,6.09230769 29.4507692,5.97255717 29.1513929,6.12224532 L25.7684407,7.94844075 C25.4990021,8.0981289 25.3792516,8.42744283 25.5289397,8.72681913 C25.6187526,8.90644491 25.828316,9.02619543 26.0378794,9.02619543" id="Fill-15" fill="#190F18" mask="url(#mask-2)"></path>
                    </g>
                </g>
            </g>
        </g>
    </g>
</svg>