<?xml version="1.0" encoding="UTF-8"?>
<svg width="84px" height="36px" viewBox="0 0 84 36" version="1.1" xmlns="http://www.w3.org/2000/svg" xmlns:xlink="http://www.w3.org/1999/xlink">
    <!-- Generator: Sketch 61.2 (89653) - https://sketch.com -->
    <title>Combined Shape</title>
    <desc>Created with Sketch.</desc>
    <g id="Projects" stroke="none" stroke-width="1" fill="none" fill-rule="evenodd">
        <g id="Portfolio-Projects" transform="translate(-128.000000, -1396.000000)" fill="#EAEAE8">
            <g id="Group-8" transform="translate(79.000000, 1306.000000)">
                <g id="Group-7" transform="translate(49.000000, 90.000000)">
                    <path d="M19.9564322,0.145375796 C25.9280085,0.145375796 33.0505169,1.61289172 33.0505169,8.6035414 C33.0505169,9.13001274 33.0068136,9.71495541 32.9603644,10.3150318 L32.9603644,10.3150318 L32.9557881,10.3998726 L22.8918814,10.3998726 L22.9122458,9.79819108 C22.9122458,7.2009172 21.5084746,5.77307006 18.9549153,5.77307006 C16.5121017,5.77307006 14.8669322,7.1656051 14.8669322,9.23617834 C14.8669322,11.0201274 16.1093898,12.4997962 18.5567797,13.6389554 L18.5567797,13.6389554 L24.7505339,16.512535 C28.3140763,18.1887134 30.1189576,20.7891975 30.1189576,24.2461146 C30.1189576,31.6068535 24.228839,36 14.3612542,36 C9.30813559,36 5.72148305,35.2616561 3.39925424,33.738879 C1.11180508,32.2406369 0,29.9150828 0,26.6301401 C0,26.0880764 0,25.4726369 0.0638389831,24.8464204 L0.0638389831,24.8464204 L0.073220339,24.7627261 L10.2984407,24.7627261 L10.2735,25.7145478 C10.2735,28.5436433 12.0873051,30.370242 14.8934746,30.370242 C17.6939237,30.370242 19.648678,28.6878726 19.648678,26.2763312 C19.648678,23.9260127 18.1286695,22.9865732 16.436822,22.1592611 L16.436822,22.1592611 L10.4421356,19.2150573 C6.1594322,17.0949554 4.33258475,14.6343439 4.33258475,10.9855032 C4.33235593,3.9953121 9.87948305,0.145375796 19.9564322,0.145375796 Z M40.8576356,0.143541401 C46.8321864,0.144687898 53.9517203,1.61220382 53.9517203,8.6028535 C53.9517203,9.12932484 53.9096186,9.71426752 53.8631695,10.3143439 L53.8631695,10.3143439 L53.8572203,10.3991847 L43.7933136,10.3991847 L43.813678,9.79727389 C43.813678,7.2 42.4083051,5.77238217 39.859322,5.77238217 C37.4149068,5.77238217 35.7683644,7.1646879 35.7683644,9.23549045 C35.7683644,11.0192102 37.0137966,12.4991083 39.4595847,13.6380382 L39.4595847,13.6380382 L45.6519661,16.5118471 C49.2155085,18.1880255 51.0219915,20.7882803 51.0219915,24.2454268 C51.0219915,31.6061656 45.1318729,35.9993121 35.2640593,35.9993121 C30.9710593,35.9993121 27.7420424,35.4634395 25.4415508,34.3705987 C25.8019322,34.152535 26.1492712,33.9239236 26.4762458,33.6797197 C29.3348136,31.5490701 30.8998983,28.4727898 31.0335254,24.7627261 L31.0335254,24.7627261 L31.2007881,24.7627261 L31.1744746,25.7145478 C31.1744746,28.543414 32.9882797,30.370242 35.7987966,30.370242 C38.5965,30.370242 40.5510254,28.6876433 40.5510254,26.2761019 C40.5510254,23.9260127 39.0294153,22.9865732 37.3377966,22.1592611 L37.3377966,22.1592611 L31.3444831,19.2150573 C27.2143983,17.1717707 25.3687881,14.8138854 25.2408814,11.3739363 L25.2408814,11.3739363 L33.8092627,11.3739363 L33.8820254,10.3929936 C33.9341949,9.77136306 33.9778983,9.16486624 33.9778983,8.60147771 C33.9778983,5.82924841 32.9258136,3.58028025 30.9202627,1.98687898 C33.4445339,0.774343949 36.781322,0.143541401 40.8576356,0.143541401 L40.8576356,0.143541401 Z M74.5709506,6.39488462e-14 C80.157219,6.39488462e-14 83.625,3.24930477 83.625,8.47886959 C83.625,9.85108869 83.4826076,10.9960949 83.1655442,12.1901663 L83.1655442,12.1901663 L82.4734989,14.8992959 L77.0021518,34.7963582 L65.399233,34.875 L65.7167543,33.5296062 L65.8243498,33.1384607 L65.8252655,33.1054449 L65.8369408,33.0880199 L66.4852611,30.7244098 L70.8692066,14.6615363 L70.9825253,14.3254171 L70.9564276,14.3426129 C71.4188595,12.7218582 71.5147797,11.2116147 71.5147797,10.232146 C71.5147797,8.29980475 69.844073,6.7863514 67.7081873,6.7863514 C62.399607,6.7863514 60.2593716,12.2046107 58.9929494,16.9274747 L58.9929494,16.9274747 L54.1234504,34.7693036 L45.75,34.7693036 C46.38985,34.4329552 46.985975,34.0585468 47.5356279,33.64883 C50.5583755,31.3955017 52.1562836,28.0985075 52.1562836,24.1171232 C52.1562836,20.7479069 50.5860757,18.0250207 47.5994985,16.1600867 C48.0923776,14.3611842 48.5417606,12.7048917 48.9066697,11.3711911 L48.9066697,11.3711911 L54.9146209,11.3711911 L54.9974924,10.2768549 C55.0453381,9.65368173 55.089063,9.04564079 55.089063,8.47772321 C55.089063,5.40656618 53.8196647,2.96614845 51.4031149,1.34057896 L51.4031149,1.34057896 L51.409067,1.31237797 L51.493312,0.842590675 L62.9014142,0.842590675 C62.9014142,0.842590675 61.2611547,6.79666884 61.2611547,6.99911987 C64.9297044,2.12264067 70.0622401,6.39488462e-14 74.5709506,6.39488462e-14 Z" id="Combined-Shape"></path>
                </g>
            </g>
        </g>
    </g>
</svg>