<?xml version="1.0" encoding="UTF-8"?>
<svg width="32px" height="32px" viewBox="0 0 32 32" version="1.1" xmlns="http://www.w3.org/2000/svg" xmlns:xlink="http://www.w3.org/1999/xlink">
    <!-- Generator: Sketch 61.2 (89653) - https://sketch.com -->
    <title>icon/social/twitter</title>
    <desc>Created with Sketch.</desc>
    <g id="icon/social/twitter" stroke="none" stroke-width="1" fill="none" fill-rule="evenodd">
        <path d="M26.2761231,0.547851562 C29.0053711,0.839111312 31.1608887,2.99462887 31.4521484,5.72363281 C32.1826172,12.5676269 32.1826172,19.4321289 31.4521484,26.2761231 C31.1608887,29.0053711 29.0056152,31.1608887 26.2763672,31.4521484 C19.4323731,32.1826172 12.5676269,32.1826172 5.72363281,31.4521484 C2.99462888,31.1608887 0.839111313,29.0053711 0.547851562,26.2761231 C-0.182617188,19.4321289 -0.182617188,12.5676269 0.547851562,5.72363281 C0.839111313,2.99462887 2.99462888,0.839111312 5.72363281,0.547851562 C12.5676269,-0.182617188 19.4321289,-0.182617188 26.2761231,0.547851562 Z M19.8359375,7.918457 C17.5581055,7.918457 15.7111816,9.76489256 15.7111816,12.043457 C15.7111816,12.1254882 15.7133789,12.2070312 15.71875,12.2878418 C15.7297363,12.4853516 15.7548828,12.6794434 15.7937012,12.8681641 C14.6911621,12.8518066 10.7114258,12.5136719 7.41357425,8.68286131 C7.41357425,8.68286131 5.57714844,11.8869629 8.66455075,14.0756836 C8.66455075,14.0756836 7.41357425,14.0366211 6.74951175,13.5676269 C6.74951175,13.5676269 6.55419925,16.6550293 10.1101074,17.6315918 C10.1101074,17.6315918 8.85986325,17.9445801 8.23413087,17.6708984 C8.23413087,17.6708984 8.85961913,20.328125 11.9858399,20.5239257 C11.9858399,20.5239257 9.74365237,22.5766601 6.08227538,22.28125 C7.88305663,23.4213867 10.0180664,24.0812988 12.3071289,24.0812988 C18.7434082,24.0812988 23.9611816,18.8637695 23.9611816,12.4274902 C23.9611816,12.347168 23.9604492,12.2668457 23.9587402,12.1865234 C23.9604492,12.138916 23.9611816,12.0915527 23.9611816,12.043457 L23.9599609,11.9431152 L23.9599609,11.9431152 C25.1499024,11.1501465 25.9177246,9.83544925 25.9177246,9.83544925 C25.2097168,10.2058106 24.1433106,10.3769531 23.7897949,10.4262695 L23.7810059,10.3764649 L23.7810059,10.3764649 C24.9829101,9.63305662 25.3508301,8.23339844 25.3508301,8.23339844 C24.6064453,8.65893556 23.9504394,8.8950195 23.4562988,9.02587887 C23.1784668,9.10034181 22.9516601,9.140625 22.7885742,9.16308594 C22.0395507,8.3950195 20.9936524,7.918457 19.8359375,7.918457 Z" id="Combined-Shape" fill="#6c7580" class="fill-color" fill-rule="nonzero"></path>
    </g>
</svg>