<?xml version="1.0" encoding="UTF-8"?>
<svg width="32px" height="32px" viewBox="0 0 32 32" version="1.1" xmlns="http://www.w3.org/2000/svg" xmlns:xlink="http://www.w3.org/1999/xlink">
    <!-- Generator: Sketch 61.2 (89653) - https://sketch.com -->
    <title>icon/social/twitter-colored</title>
    <desc>Created with Sketch.</desc>
    <defs>
        <linearGradient x1="33.2019533%" y1="14.05981%" x2="58.4948073%" y2="68.1747744%" id="linearGradient-1">
            <stop stop-color="#00C3FF" offset="0%"></stop>
            <stop stop-color="#00B0ED" offset="100%"></stop>
        </linearGradient>
        <linearGradient x1="73.8335045%" y1="62.7852419%" x2="-89.8948936%" y2="-25.0447696%" id="linearGradient-2">
            <stop stop-color="#00B0ED" stop-opacity="0" offset="0%"></stop>
            <stop stop-color="#00A2CE" offset="100%"></stop>
        </linearGradient>
        <linearGradient x1="49.9996672%" y1="26.9860983%" x2="49.9996672%" y2="92.6337225%" id="linearGradient-3">
            <stop stop-color="#00B0ED" stop-opacity="0" offset="0%"></stop>
            <stop stop-color="#00A2CE" offset="100%"></stop>
        </linearGradient>
        <linearGradient x1="94.5561774%" y1="86.4621691%" x2="34.2372875%" y2="30.4154833%" id="linearGradient-4">
            <stop stop-color="#00B0ED" stop-opacity="0" offset="0%"></stop>
            <stop stop-color="#00A2CE" offset="100%"></stop>
        </linearGradient>
    </defs>
    <g id="icon/social/twitter-colored" stroke="none" stroke-width="1" fill="none" fill-rule="evenodd">
        <g id="twitter-(2)" fill-rule="nonzero">
            <path d="M26.2763672,31.4521484 C19.4323731,32.1826172 12.5676269,32.1826172 5.72363281,31.4521484 C2.99462888,31.1608887 0.839111313,29.0053711 0.547851562,26.2761231 C-0.182617188,19.4321289 -0.182617188,12.5676269 0.547851562,5.72363281 C0.839111313,2.99462887 2.99462888,0.839111312 5.72363281,0.547851562 C12.5676269,-0.182617188 19.4321289,-0.182617188 26.2761231,0.547851562 C29.0053711,0.839111312 31.1608887,2.99462887 31.4521484,5.72363281 C32.1826172,12.5676269 32.1826172,19.4321289 31.4521484,26.2761231 C31.1608887,29.0053711 29.0056152,31.1608887 26.2763672,31.4521484 Z" id="Path" fill="url(#linearGradient-1)"></path>
            <path d="M29.7116699,6.8811035 C29.4533691,4.45947262 27.5407715,2.54663087 25.1188965,2.28808594 C19.0456543,1.64013675 12.9543457,1.64013675 6.8811035,2.28808594 C4.45947263,2.54663087 2.54663088,4.45947262 2.28808594,6.8811035 C1.64013675,12.9543457 1.64013675,19.0456543 2.28808594,25.1186524 C2.54663088,27.5405274 4.45947263,29.4533691 6.8811035,29.7116699 C12.9543457,30.3598632 19.0456543,30.3598632 25.1186524,29.7116699 C27.5405274,29.4533691 29.4533691,27.5405274 29.7116699,25.1186524 C30.3598633,19.0456543 30.3598633,12.9543457 29.7116699,6.8811035 L29.7116699,6.8811035 Z" id="Path" fill="url(#linearGradient-2)"></path>
            <path d="M0.479492187,25.612793 C0.501464875,25.8339844 0.524169937,26.0551758 0.547851562,26.2763672 C0.839111312,29.0053711 2.99462887,31.1608887 5.72387694,31.4521484 C12.5678711,32.1826172 19.4323731,32.1826172 26.2763672,31.4521484 C29.0056152,31.1608887 31.1608887,29.0053711 31.4521484,26.2763672 C31.4758301,26.0551758 31.4985351,25.8339844 31.5207519,25.612793 L0.479492187,25.612793 Z" id="Path" fill="url(#linearGradient-3)"></path>
            <path d="M31.9931641,14.8754883 L25.3508301,8.23339844 C24.6064453,8.65893556 23.9504394,8.8950195 23.4562988,9.02587888 C23.1784668,9.10034181 22.9516601,9.14086913 22.7885743,9.16308594 C22.0395508,8.39526369 20.9936524,7.918457 19.8359375,7.918457 C17.5581055,7.918457 15.7111816,9.76513675 15.7111816,12.043457 C15.7111816,12.1257324 15.7133789,12.2070312 15.71875,12.2880859 C15.7297363,12.4855957 15.7548828,12.6796875 15.7937012,12.8684082 C14.8427734,12.8542481 11.7519531,12.6003418 8.80419925,10.0734863 C8.80395506,10.0734863 8.80395506,10.0732422 8.80395506,10.0732422 L8.80371094,10.0732422 L7.41357425,8.68286131 C7.41357425,8.68286131 5.78271488,11.5292969 8.18041994,13.689209 C8.2856445,13.8066406 8.40136719,13.9226074 8.52807619,14.0366211 C8.53808594,14.0478516 8.548584,14.0588379 8.55859375,14.0700684 C8.2438965,14.0488281 7.29736325,13.9545899 6.74951175,13.5676269 C6.74951175,13.5676269 6.63940431,15.3073731 8.08886719,16.5881348 L9.25927738,17.7685547 C8.902832,17.7980957 8.50854494,17.7910156 8.234375,17.6708984 C8.234375,17.6708984 8.47705075,18.701416 9.41503906,19.5261231 L11.0546875,21.1743164 C10.0710449,21.7473144 8.34912113,22.4643555 6.0825195,22.28125 L16.0290528,32 C19.4465332,31.9990234 22.8640137,31.8164062 26.2763672,31.4521484 C29.0056153,31.1608887 31.1611328,29.0053711 31.4523926,26.2763672 C31.8574219,22.4799805 32.0373535,18.6772461 31.9931641,14.8754882 L31.9931641,14.8754883 Z" id="Path" fill="url(#linearGradient-4)"></path>
            <path d="M25.9177246,9.83544925 C25.2097168,10.2058106 24.1433106,10.3769531 23.7897949,10.4262695 C23.7868652,10.4091797 23.7839356,10.3928222 23.7810059,10.3764649 C24.9829101,9.63305663 25.3508301,8.23339844 25.3508301,8.23339844 C24.6064453,8.65893556 23.9504394,8.8950195 23.4562988,9.02587888 C23.1784668,9.10034181 22.9516601,9.140625 22.7885743,9.16308594 C22.0395508,8.3950195 20.9936524,7.918457 19.8359375,7.918457 C17.5581055,7.918457 15.7111816,9.76489256 15.7111816,12.043457 C15.7111816,12.1254883 15.7133789,12.2070312 15.71875,12.2878418 C15.7297363,12.4853516 15.7548828,12.6794434 15.7937012,12.8681641 C14.6911621,12.8518066 10.7114258,12.5136719 7.41357425,8.68286131 C7.41357425,8.68286131 5.57714844,11.8869629 8.66455075,14.0756836 C8.66455075,14.0756836 7.41357425,14.0366211 6.74951175,13.5676269 C6.74951175,13.5676269 6.55419925,16.6550293 10.1101074,17.6315918 C10.1101074,17.6315918 8.85986325,17.9445801 8.23413088,17.6708984 C8.23413088,17.6708984 8.85961913,20.328125 11.9858399,20.5239257 C11.9858399,20.5239257 9.74365238,22.5766601 6.08227538,22.28125 C7.88305663,23.4213867 10.0180664,24.0812988 12.3071289,24.0812988 C18.7434082,24.0812988 23.9611816,18.8637695 23.9611816,12.4274902 C23.9611816,12.347168 23.9604493,12.2668457 23.9587402,12.1865234 C23.9604493,12.138916 23.9611816,12.0915527 23.9611816,12.043457 C23.9611816,12.0100097 23.9604493,11.9765625 23.9599609,11.9431152 C25.1499024,11.1501465 25.9177246,9.83544925 25.9177246,9.83544925 L25.9177246,9.83544925 Z" id="Path" fill="#FFFFFF"></path>
        </g>
    </g>
</svg>