<?xml version="1.0" encoding="UTF-8"?>
<svg width="40px" height="40px" viewBox="0 0 40 40" version="1.1" xmlns="http://www.w3.org/2000/svg" xmlns:xlink="http://www.w3.org/1999/xlink">
    <!-- Generator: Sketch 61.2 (89653) - https://sketch.com -->
    <title>icon/dual-tone/weight</title>
    <desc>Created with Sketch.</desc>
    <defs>
        <linearGradient x1="50%" y1="0%" x2="50%" y2="100%" id="linearGradient-1">
            <stop stop-color="#E3E5E8" offset="0%"></stop>
            <stop stop-color="#C2C6CC" offset="100%"></stop>
        </linearGradient>
        <linearGradient x1="50%" y1="0%" x2="50%" y2="100%" id="linearGradient-2">
            <stop stop-color="#A5ADB7" offset="0%"></stop>
            <stop stop-color="#6C7580" offset="100%"></stop>
        </linearGradient>
    </defs>
    <g id="icon/dual-tone/weight" stroke="none" stroke-width="1" fill="none" fill-rule="evenodd">
        <g id="Group-9">
            <rect id="Rectangle" x="0" y="0" width="40" height="40"></rect>
            <g id="gym" transform="translate(6.000000, 6.000000)">
                <path d="M0.479989152,17.0901575 C1.12008395,16.4501735 2.15766357,16.4501735 2.79775837,17.0901575 L2.79775837,17.0901575 L10.9097594,25.2022483 C11.5498542,25.8422323 11.5498542,26.8799187 10.9097594,27.520012 C10.2697192,28.159996 9.23203036,28.159996 8.59204483,27.520012 L8.59204483,27.520012 L6.27913765,25.2070557 L4.5445392,26.94165 C4.38452916,27.1017143 4.17486083,27.1817464 3.9651925,27.1817464 C3.75552417,27.1817464 3.54585584,27.1017143 3.3858458,26.9415954 L3.3858458,26.9415954 L1.05797011,24.6144901 C0.904297104,24.4608721 0.817873108,24.2527885 0.817873108,24.0351448 C0.817873108,23.8175011 0.904297104,23.6094721 1.05797011,23.4557995 L1.05797011,23.4557995 L2.79327874,21.7212052 L0.479989152,19.4079211 C-0.159996384,18.7679371 -0.159996384,17.7302508 0.479989152,17.0901575 Z M2.85487972,12.3463267 C3.49743451,11.7037668 4.53928925,11.7037668 5.18184404,12.3463267 L5.18184404,12.3463267 L15.6535949,22.818161 C16.2962593,23.4607758 16.2962593,24.5026388 15.6535949,25.1451987 C15.0109852,25.7877586 13.9691305,25.7877586 13.3265757,25.1451987 L13.3265757,25.1451987 L2.85487972,14.6734193 C2.21221523,14.0308594 2.21221523,12.9889963 2.85487972,12.3463267 Z M12.3464051,2.85480129 C12.9889599,2.21224138 14.0308695,2.21224138 14.6734243,2.85480129 L14.6734243,2.85480129 L25.1451203,13.3265807 C25.7877848,13.9692503 25.7877848,15.0111134 25.1451203,15.6536733 C24.5025106,16.2962332 23.4606559,16.2962332 22.8181011,15.6536733 L22.8181011,15.6536733 L12.3464051,5.18189386 C11.7037407,4.53922425 11.7037407,3.4974709 12.3464051,2.85480129 Z M17.0902406,0.479990303 C17.7302808,-0.159996768 18.7679696,-0.159996768 19.4079552,0.479990303 L19.4079552,0.479990303 L21.7211901,2.79334007 L23.4592302,1.05464024 C23.7665216,0.747348112 24.3106869,0.747348112 24.6179783,1.05464024 L24.6179783,1.05464024 L26.945854,3.38252151 C27.099527,3.53614026 27.185951,3.74422483 27.185951,3.9618696 C27.185951,4.17951437 27.099527,4.38759894 26.9457993,4.54116306 L26.9457993,4.54116306 L25.2071037,6.27920733 L27.5200108,8.59212006 C28.1599964,9.23216176 28.1599964,10.2698531 27.5200108,10.9098402 C26.8800253,11.5498273 25.8423364,11.5498273 25.2022416,10.9098402 L25.2022416,10.9098402 L17.0902406,2.79771045 C16.4501458,2.15766875 16.4501458,1.11997737 17.0902406,0.479990303 Z" id="Combined-Shape" fill="url(#linearGradient-1)"></path>
                <polygon id="Path" fill="url(#linearGradient-2)" fill-rule="nonzero" points="14.7431662 9.8079096 9.8079096 14.8433115 13.2568338 18.3502825 18.1920904 13.3147704"></polygon>
            </g>
        </g>
    </g>
</svg>