<?xml version="1.0" encoding="UTF-8"?>
<svg width="128px" height="128px" viewBox="0 0 128 128" version="1.1" xmlns="http://www.w3.org/2000/svg" xmlns:xlink="http://www.w3.org/1999/xlink">
    <!-- Generator: Sketch 52.5 (67469) - http://www.bohemiancoding.com/sketch -->
    <title>background-comp</title>
    <desc>Created with Sketch.</desc>
    <defs>
        <linearGradient x1="50.0000055%" y1="100%" x2="50.0000055%" y2="1.8680436e-05%" id="linearGradient-1">
            <stop stop-color="#E6D6C6" offset="0%"></stop>
            <stop stop-color="#93E8FD" offset="100%"></stop>
        </linearGradient>
        <circle id="path-2" cx="64" cy="64" r="64"></circle>
    </defs>
    <g id="Page-1" stroke="none" stroke-width="1" fill="none" fill-rule="evenodd">
        <g id="Instincts-2017" transform="translate(-263.000000, -4260.000000)">
            <g id="Group-70" transform="translate(110.000000, 4215.000000)">
                <g id="background-comp" transform="translate(153.000000, 45.000000)">
                    <g id="Group-25">
                        <g id="Fill-3">
                            <mask id="mask-3" fill="white">
                                <use xlink:href="#path-2"></use>
                            </mask>
                            <use id="Mask" fill="url(#linearGradient-1)" xlink:href="#path-2"></use>
                            <path d="M9.71865205,97.6326657 L9.71865205,91.8428265 L15.9443354,91.8428265 L15.9443354,98.3880983 L19.4234305,98.3880983 L19.4234305,91.8428265 L23.0851323,91.8428265 L23.0851323,77.4938958 L24.7331685,77.4938958 L24.7331685,74.2216888 L28.7615396,74.2216888 L28.7615396,77.4938958 L30.4095758,77.4938958 L30.4095758,90.0803411 L31.8747973,90.0803411 L31.8747973,100.779634 L35.1706617,100.779634 L35.1706617,81.5221073 L37.3679739,81.5221073 L37.3679739,66.6693641 L38.8323635,66.6693641 L38.8323635,57.1035056 L39.9309156,57.1035056 L39.9309156,49.8030871 L41.0294677,49.8030871 L41.0294677,42 L42.6772959,42 L42.6772959,49.5517528 L43.9592867,49.5517528 L43.9592867,55.5932122 L45.0580469,55.5932122 L45.0580469,67.1728906 L46.5224364,67.1728906 L46.5224364,82.276968 L48.1702646,82.276968 L48.1702646,103.926317 L50.9168529,103.926317 L50.9168529,98.8916248 L56.7764909,98.8916248 L56.7764909,101.408685 L58.9738032,101.408685 L58.9738032,83.7872614 L60.6216314,83.7872614 L60.6216314,77.4938958 L65.7487626,77.4938958 L65.7487626,83.5359271 L66.8930704,85.1088396 L66.8930704,95.3672257 L68.8611884,95.3672257 L68.8611884,92.0944468 L73.9881116,92.0944468 L73.9881116,95.6188459 L77.1015773,95.6188459 L77.1015773,98.8916248 L80.3974417,98.8916248 L80.3974417,94.3598869 L82.7779846,94.3598869 L82.7779846,84.6685041 L96.1444648,84.6685041 L96.1444648,94.3598869 L98.5239679,94.3598869 L98.5239679,84.6685041 L109.876783,84.6685041 L109.876783,88.5700477 L112.989208,88.5700477 L113.413979,105.717839 L89.1461742,124.07915 C74.1164296,129.196675 59.7405065,129.724403 46.0184048,125.662334 C32.296303,121.600264 20.1963855,112.257041 9.71865205,97.6326657 Z" fill="#000000" opacity="0.103013393" mask="url(#mask-3)"></path>
                        </g>
                    </g>
                </g>
            </g>
        </g>
    </g>
</svg>