<?xml version="1.0" encoding="UTF-8"?>
<svg width="128px" height="128px" viewBox="0 0 128 128" version="1.1" xmlns="http://www.w3.org/2000/svg" xmlns:xlink="http://www.w3.org/1999/xlink">
    <!-- Generator: Sketch 52.5 (67469) - http://www.bohemiancoding.com/sketch -->
    <title>bench-comp</title>
    <desc>Created with Sketch.</desc>
    <defs>
        <linearGradient x1="50.0000055%" y1="100%" x2="50.0000055%" y2="1.8680436e-05%" id="linearGradient-1">
            <stop stop-color="#E6D6C6" offset="0%"></stop>
            <stop stop-color="#93E8FD" offset="100%"></stop>
        </linearGradient>
        <circle id="path-2" cx="64" cy="64" r="64"></circle>
        <polygon id="path-4" points="0.188090909 0.570247934 76.1538951 0.570247934 76.1538951 20.6770661 0.188090909 20.6770661"></polygon>
        <polygon id="path-6" points="0 0.4284 84.3125065 0.4284 84.3125065 8.9064 0 8.9064"></polygon>
    </defs>
    <g id="Page-1" stroke="none" stroke-width="1" fill="none" fill-rule="evenodd">
        <g id="Instincts-2017" transform="translate(-719.000000, -4260.000000)">
            <g id="Group-70" transform="translate(110.000000, 4215.000000)">
                <g id="bench-comp" transform="translate(609.000000, 45.000000)">
                    <g id="Fill-5">
                        <mask id="mask-3" fill="white">
                            <use xlink:href="#path-2"></use>
                        </mask>
                        <use id="Mask" fill="url(#linearGradient-1)" xlink:href="#path-2"></use>
                        <polygon fill="#8EF757" mask="url(#mask-3)" points="-3 131 128 131 128 74 -3 74"></polygon>
                    </g>
                    <g id="Group-24" transform="translate(22.000000, 50.000000)">
                        <path d="M15.4545455,19.0909091 L19.0909091,19.0909091 L19.0909091,37.3213165 C19.0909091,38.3001975 18.2764295,39.0909091 17.2727273,39.0909091 C16.2690251,39.0909091 15.4545455,38.3001975 15.4545455,37.3213165 L15.4545455,19.0909091 Z" id="Fill-1" fill="#FC3D4B"></path>
                        <path d="M17.1213311,19.7579134 L17.1213311,37.4211193 C17.1213311,37.9721448 17.5969435,38.4239048 18.1818182,38.4239048 C18.7666929,38.4239048 19.2423052,37.9721448 19.2423052,37.4211193 L19.2423052,19.7579134 L17.1213311,19.7579134 Z M18.1818182,40 C16.6778547,40 15.4545455,38.8432515 15.4545455,37.4211193 L15.4545455,18.9698658 C15.4545455,18.5343125 15.8273227,18.1818182 16.2879383,18.1818182 L20.0756981,18.1818182 C20.5363136,18.1818182 20.9090909,18.5343125 20.9090909,18.9698658 L20.9090909,37.4211193 C20.9090909,38.8432515 19.6857816,40 18.1818182,40 Z" id="Fill-3" fill="#1C1A1A"></path>
                        <path d="M64.5454545,19.0909091 L68.1818182,19.0909091 L68.1818182,37.3213165 C68.1818182,38.3001975 67.3693953,39.0909091 66.3636364,39.0909091 C65.3599342,39.0909091 64.5454545,38.3001975 64.5454545,37.3213165 L64.5454545,19.0909091 Z" id="Fill-5" fill="#FC3D4B"></path>
                        <path d="M66.2137274,19.7579134 L66.2137274,37.4211193 C66.2137274,37.9721448 66.689153,38.4239048 67.2737981,38.4239048 C67.8563015,38.4239048 68.3317272,37.9721448 68.3317272,37.4211193 L68.3317272,19.7579134 L66.2137274,19.7579134 Z M67.2737981,40 C65.7682835,40 64.5454545,38.8432515 64.5454545,37.4211193 L64.5454545,18.9698658 C64.5454545,18.5343125 64.920227,18.1818182 65.3785202,18.1818182 L69.1647928,18.1818182 C69.6252275,18.1818182 70,18.5343125 70,18.9698658 L70,37.4211193 C70,38.8432515 68.777171,40 67.2737981,40 Z" id="Fill-7" fill="#1C1A1A"></path>
                        <path d="M69.9924658,19.0909091 L13.6438979,19.0909091 C8.6201427,19.0909091 4.54545455,15.0195951 4.54545455,9.99796942 C4.54545455,4.97837432 8.6201427,0.909090909 13.6438979,0.909090909 L69.9924658,0.909090909 C75.0182532,0.909090909 79.0909091,4.97837432 79.0909091,9.99796942 C79.0909091,15.0195951 75.0182532,19.0909091 69.9924658,19.0909091" id="Fill-9" fill="#F9BF64"></path>
                        <g id="Group-13" transform="translate(3.636364, 0.000000)">
                            <mask id="mask-5" fill="white">
                                <use xlink:href="#path-4"></use>
                            </mask>
                            <g id="Clip-12"></g>
                            <path d="M7.07508392,2.17706612 C4.14872028,2.17706612 1.76788112,4.60475207 1.76788112,7.58409091 L1.76788112,13.6626033 C1.76788112,16.6440083 4.14872028,19.0696281 7.07508392,19.0696281 L69.2689301,19.0696281 C72.1952937,19.0696281 74.5761329,16.6440083 74.5761329,13.6626033 L74.5761329,7.58409091 C74.5761329,4.60475207 72.1952937,2.17706612 69.2689301,2.17706612 L7.07508392,2.17706612 Z M69.2689301,20.6770661 L7.07508392,20.6770661 C3.27669231,20.6770661 0.188090909,17.5303719 0.188090909,13.6626033 L0.188090909,7.58409091 C0.188090909,3.71632231 3.27669231,0.569628099 7.07508392,0.569628099 L69.2689301,0.569628099 C73.0652937,0.569628099 76.1538951,3.71632231 76.1538951,7.58409091 L76.1538951,13.6626033 C76.1538951,17.5303719 73.0652937,20.6770661 69.2689301,20.6770661 Z" id="Fill-11" fill="#1C1A1A" mask="url(#mask-5)"></path>
                        </g>
                        <path d="M79.0909091,10 L79.0909091,7.22753547 C79.0909091,3.73830793 76.3554825,0.909090909 72.9819252,0.909090909 L10.6564707,0.909090909 C7.28291337,0.909090909 4.54545455,3.73830793 4.54545455,7.22753547 L4.54545455,10 L79.0909091,10 Z" id="Fill-14" fill="#FC3D4B"></path>
                        <g id="Group-18" transform="translate(3.636364, 0.000000)" fill="#1C1A1A">
                            <path d="M1.76767832,9.06375758 L74.5759301,9.06375758 L74.5759301,7.2299697 C74.5759301,4.38966667 72.1950909,2.07527273 69.2687273,2.07527273 L7.07488112,2.07527273 C4.14851748,2.07527273 1.76767832,4.38966667 1.76767832,7.2299697 L1.76767832,9.06375758 Z M75.3648112,10.5961818 L0.978797203,10.5961818 C0.542783217,10.5961818 0.189916084,10.2534545 0.189916084,9.8299697 L0.189916084,7.2299697 C0.189916084,3.54269697 3.27851748,0.542848485 7.07488112,0.542848485 L69.2687273,0.542848485 C73.0650909,0.542848485 76.1557203,3.54269697 76.1557203,7.2299697 L76.1557203,9.8299697 C76.1557203,10.2534545 75.8008252,10.5961818 75.3648112,10.5961818 Z" id="Fill-16"></path>
                        </g>
                        <path d="M80.1164871,32.7272727 L4.4310021,32.7272727 C2.48591423,32.7272727 0.909090909,31.1003678 0.909090909,29.093011 C0.909090909,27.0814503 2.48591423,25.4545455 4.4310021,25.4545455 L80.1164871,25.4545455 C82.0615749,25.4545455 83.6363636,27.0814503 83.6363636,29.093011 C83.6363636,31.1003678 82.0615749,32.7272727 80.1164871,32.7272727" id="Fill-19" fill="#529DF7"></path>
                        <g id="Group-23" transform="translate(0.000000, 23.636364)">
                            <mask id="mask-7" fill="white">
                                <use xlink:href="#path-6"></use>
                            </mask>
                            <g id="Clip-22"></g>
                            <path d="M4.31280952,1.9844 C2.80921645,1.9844 1.58436797,3.1904 1.58436797,4.6684 C1.58436797,6.1464 2.80921645,7.3504 4.31280952,7.3504 L79.9990866,7.3504 C81.5026797,7.3504 82.7275281,6.1464 82.7275281,4.6684 C82.7275281,3.1904 81.5026797,1.9844 79.9990866,1.9844 L4.31280952,1.9844 Z M79.9990866,8.9064 L4.31280952,8.9064 C1.93432468,8.9064 -0.00061038961,7.0044 -0.00061038961,4.6684 C-0.00061038961,2.3304 1.93432468,0.4284 4.31280952,0.4284 L79.9990866,0.4284 C82.3775714,0.4284 84.3125065,2.3304 84.3125065,4.6684 C84.3125065,7.0044 82.3775714,8.9064 79.9990866,8.9064 Z" id="Fill-21" fill="#1C1A1A" mask="url(#mask-7)"></path>
                        </g>
                    </g>
                </g>
            </g>
        </g>
    </g>
</svg>