<?xml version="1.0" encoding="UTF-8"?>
<svg width="85px" height="88px" viewBox="0 0 85 88" version="1.1" xmlns="http://www.w3.org/2000/svg" xmlns:xlink="http://www.w3.org/1999/xlink">
    <!-- Generator: Sketch 52.6 (67491) - http://www.bohemiancoding.com/sketch -->
    <title>Comp-help-desk</title>
    <desc>Created with Sketch.</desc>
    <g id="Page-1" stroke="none" stroke-width="1" fill="none" fill-rule="evenodd">
        <g id="Instincts-2017" transform="translate(-1100.000000, -4618.000000)">
            <g id="Group-62" transform="translate(110.000000, 4476.000000)">
                <g id="Comp-help-desk" transform="translate(990.000000, 142.000000)">
                    <polygon id="Fill-1" fill="#FC3D4B" points="0.71298 0.888012 4.72838 86.505452 80.66534 86.505452 83.7301 0.888012"></polygon>
                    <path d="M83.025144,0.20808 L1.425144,0.20808 L0.000544,0.20808 L0.066504,1.632 L4.018664,85.88944 L4.079864,87.18552 L5.377304,87.18552 L80.009344,87.18552 L81.321064,87.18552 L81.367984,85.8738 L84.383784,1.61704 L84.434784,0.20808 L83.025144,0.20808 Z M1.425144,1.56808 L83.025144,1.56808 L80.009344,85.82552 L5.377304,85.82552 L1.425144,1.56808 Z" id="Fill-2" fill="#1C1A1A"></path>
                    <polygon id="Fill-3" fill="#F9BF64" points="8.9216 86.50552 17.01088 86.50552 17.01088 0.84796 8.9216 0.84796"></polygon>
                    <path d="M16.33122,0.1683 L9.60262,0.1683 L8.24194,0.1683 L8.24194,1.5283 L8.24194,85.82586 L8.24194,87.18586 L9.60262,87.18586 L16.33122,87.18586 L17.69122,87.18586 L17.69122,85.82586 L17.69122,1.5283 L17.69122,0.1683 L16.33122,0.1683 Z M9.60262,85.82586 L16.3319,85.82586 L16.3319,1.5283 L9.60262,1.5283 L9.60262,85.82586 Z" id="Fill-4" fill="#1C1A1A"></path>
                    <polygon id="Fill-5" fill="#F9BF64" points="23.78572 86.50552 31.87364 86.50552 31.87364 0.84796 23.78572 0.84796"></polygon>
                    <path d="M31.194252,0.1683 L24.465652,0.1683 L23.105652,0.1683 L23.105652,1.5283 L23.105652,85.82586 L23.105652,87.18586 L24.465652,87.18586 L31.194252,87.18586 L32.554252,87.18586 L32.554252,85.82586 L32.554252,1.5283 L32.554252,0.1683 L31.194252,0.1683 Z M24.465652,85.82586 L31.194252,85.82586 L31.194252,1.5283 L24.465652,1.5283 L24.465652,85.82586 Z" id="Fill-6" fill="#1C1A1A"></path>
                    <polygon id="Fill-7" fill="#F9BF64" points="53.5126 86.50552 61.6012 86.50552 61.6012 0.84796 53.5126 0.84796"></polygon>
                    <path d="M60.92154,0.1683 L54.19294,0.1683 L52.83362,0.1683 L52.83362,1.5283 L52.83362,85.82586 L52.83362,87.18586 L54.19294,87.18586 L60.92154,87.18586 L62.28154,87.18586 L62.28154,85.82586 L62.28154,1.5283 L62.28154,0.1683 L60.92154,0.1683 Z M54.19294,85.82586 L60.92154,85.82586 L60.92154,1.5283 L54.19294,1.5283 L54.19294,85.82586 Z" id="Fill-8" fill="#1C1A1A"></path>
                    <polygon id="Fill-9" fill="#F9BF64" points="68.37604 86.50552 76.46396 86.50552 76.46396 0.84796 68.37604 0.84796"></polygon>
                    <path d="M75.784572,0.1683 L69.055972,0.1683 L67.696652,0.1683 L67.696652,1.5283 L67.696652,85.82586 L67.696652,87.18586 L69.055972,87.18586 L75.784572,87.18586 L77.144572,87.18586 L77.144572,85.82586 L77.144572,1.5283 L77.144572,0.1683 L75.784572,0.1683 Z M69.055972,85.82586 L75.784572,85.82586 L75.784572,1.5283 L69.055972,1.5283 L69.055972,85.82586 Z" id="Fill-10" fill="#1C1A1A"></path>
                    <polygon id="Fill-11" fill="#F9BF64" points="38.64984 86.50552 46.73776 86.50552 46.73776 0.84796 38.64984 0.84796"></polygon>
                    <path d="M46.057896,0.1683 L39.328616,0.1683 L37.968616,0.1683 L37.968616,1.5283 L37.968616,85.82586 L37.968616,87.18586 L39.328616,87.18586 L46.057896,87.18586 L47.417896,87.18586 L47.417896,85.82586 L47.417896,1.5283 L47.417896,0.1683 L46.057896,0.1683 Z M39.328616,85.82586 L46.057896,85.82586 L46.057896,1.5283 L39.328616,1.5283 L39.328616,85.82586 Z" id="Fill-12" fill="#1C1A1A"></path>
                    <g id="Group-43" transform="translate(13.960000, 8.665520)">
                        <path d="M56.798828,8.793684 L56.798828,46.784604 L1.065348,46.784604 L1.065348,8.793684 L15.423548,8.793684 C18.168708,4.441684 23.183708,1.517684 28.929708,1.517684 C34.681148,1.517684 39.695468,4.441684 42.440628,8.793684 L56.798828,8.793684 Z" id="Fill-13" fill="#529DF7"></path>
                        <path d="M56.118828,9.473684 L42.0655804,9.473684 L41.8654885,9.15647121 C39.1661585,4.87712721 34.2997538,2.197684 28.929708,2.197684 C23.5642013,2.197684 18.6975646,4.87784519 15.9986875,9.15647121 L15.7985956,9.473684 L1.745348,9.473684 L1.745348,46.104604 L56.118828,46.104604 L56.118828,9.473684 Z M57.478828,8.113684 L57.478828,47.464604 L0.385348,47.464604 L0.385348,8.113684 L15.0538921,8.113684 C18.0387746,3.62536786 23.2307017,0.837684 28.929708,0.837684 C34.6331241,0.837684 39.8249683,3.62466411 42.8102851,8.113684 L57.478828,8.113684 Z" id="Stroke-15" fill="#1C1A1A" fill-rule="nonzero"></path>
                        <polygon id="Fill-17" fill="#4D4D4D" points="32.008 26.39392 42.5684 26.39392 42.5684 20.66628 32.008 20.66628"></polygon>
                        <path d="M42.568672,20.17838 C42.568672,23.09422 40.204312,25.45858 37.288472,25.45858 C34.371952,25.45858 32.008272,23.09422 32.008272,20.17838 C32.008272,17.26186 34.371952,14.8975 37.288472,14.8975 C40.204312,14.8975 42.568672,17.26186 42.568672,20.17838" id="Fill-19" fill="#4D4D4D"></path>
                        <path d="M41.498828,29.522396 C41.498828,27.767996 40.141548,26.393716 38.283788,26.393716 L36.968668,26.393716 C35.110908,26.393716 33.700588,27.767996 33.700588,29.522396 L33.700588,36.063996 L41.498828,36.063996 L41.498828,29.522396 Z" id="Fill-20" fill="#FC3D4B"></path>
                        <path d="M32.008068,38.730276 C31.583068,38.730276 31.234908,38.382116 31.234908,37.957116 L31.234908,33.687396 C31.234908,33.262396 31.583068,32.914236 32.008068,32.914236 C32.433748,32.914236 32.781228,33.262396 32.781228,33.687396 L32.781228,37.957116 C32.781228,38.382116 32.433748,38.730276 32.008068,38.730276" id="Fill-21" fill="#F9BF64"></path>
                        <path d="M31.800872,34.581256 C31.390152,34.471776 31.143992,34.045416 31.253472,33.634696 L32.885472,27.544616 C32.994952,27.133896 33.421312,26.888416 33.831352,26.997896 C34.242752,27.108056 34.488232,27.534416 34.378752,27.944456 L32.747432,34.034536 C32.637272,34.445936 32.211592,34.691416 31.800872,34.581256" id="Fill-22" fill="#D12237"></path>
                        <path d="M33.331552,38.761488 C33.331552,39.358528 32.794352,39.842008 32.130672,39.842008 C31.468352,39.842008 30.931152,39.358528 30.931152,38.761488 C30.931152,38.164448 31.468352,37.680968 32.130672,37.680968 C32.794352,37.680968 33.331552,38.164448 33.331552,38.761488" id="Fill-23" fill="#DB9E4D"></path>
                        <path d="M43.21678,38.730276 C43.64178,38.730276 43.98994,38.382116 43.98994,37.957116 L43.98994,33.687396 C43.98994,33.262396 43.64178,32.914236 43.21678,32.914236 C42.7911,32.914236 42.44362,33.262396 42.44362,33.687396 L42.44362,37.957116 C42.44362,38.382116 42.7911,38.730276 43.21678,38.730276" id="Fill-24" fill="#F9BF64"></path>
                        <path d="M43.423976,34.581256 L43.424656,34.581256 C43.834696,34.471776 44.080856,34.045416 43.971376,33.634696 L42.339376,27.544616 C42.229896,27.133896 41.803536,26.888416 41.393496,26.997896 C40.982096,27.108056 40.736616,27.534416 40.846096,27.944456 L42.477416,34.034536 C42.588256,34.445936 43.013256,34.691416 43.423976,34.581256" id="Fill-25" fill="#D12237"></path>
                        <path d="M42.130344,38.761488 C42.130344,39.358528 42.667544,39.842008 43.331224,39.842008 C43.993544,39.842008 44.530744,39.358528 44.530744,38.761488 C44.530744,38.164448 43.993544,37.680968 43.331224,37.680968 C42.667544,37.680968 42.130344,38.164448 42.130344,38.761488" id="Fill-26" fill="#DB9E4D"></path>
                        <path d="M37.331176,27.324364 C36.806896,27.324364 36.378496,26.895284 36.378496,26.371684 L36.378496,25.625724 C36.378496,25.101444 36.806896,24.673724 37.331176,24.673724 C37.855456,24.673724 38.283856,25.101444 38.283856,25.625724 L38.283856,26.371684 C38.283856,26.895284 37.855456,27.324364 37.331176,27.324364" id="Fill-27" fill="#DB9E4D"></path>
                        <path d="M37.331176,25.41914 C35.576776,25.41914 34.141976,23.98366 34.141976,22.22994 L34.141976,19.33518 C34.141976,17.58146 35.576776,16.1453 37.331176,16.1453 C39.085576,16.1453 40.520376,17.58146 40.520376,19.33518 L40.520376,22.22994 C40.520376,23.98366 39.085576,25.41914 37.331176,25.41914" id="Fill-28" fill="#F9BF64"></path>
                        <path d="M39.229056,20.250732 C39.229056,20.528852 39.003976,20.781132 38.725856,20.781132 C38.447736,20.781132 38.222656,20.515252 38.222656,20.236452 C38.222656,20.222852 38.224696,20.154852 38.224696,20.154852 L39.224976,20.154852 C39.224976,20.154852 39.229056,20.236452 39.229056,20.250732" id="Fill-29" fill="#4D4D4D"></path>
                        <path d="M36.733524,20.250732 C36.733524,20.528852 36.508444,20.781132 36.230324,20.781132 C35.952204,20.781132 35.727124,20.515252 35.727124,20.236452 C35.727124,20.222852 35.729164,20.154852 35.729164,20.154852 L36.729444,20.154852 C36.729444,20.154852 36.733524,20.236452 36.733524,20.250732" id="Fill-30" fill="#4D4D4D"></path>
                        <path d="M37.444056,22.551036 C37.254336,22.551036 37.098616,22.395316 37.098616,22.204916 L37.098616,21.157036 C37.098616,20.967316 37.254336,20.810916 37.444056,20.810916 C37.633776,20.810916 37.789496,20.967316 37.789496,21.157036 L37.789496,22.204916 C37.789496,22.395316 37.633776,22.551036 37.444056,22.551036" id="Fill-31" fill="#DB9E4D"></path>
                        <path d="M34.6736,21.147244 C34.6736,21.587884 34.3166,21.946244 33.87528,21.946244 C33.43464,21.946244 33.07696,21.587884 33.07696,21.147244 C33.07696,20.706604 33.43464,20.348924 33.87528,20.348924 C34.3166,20.348924 34.6736,20.706604 34.6736,21.147244" id="Fill-32" fill="#F9BF64"></path>
                        <path d="M34.356176,21.147244 C34.356176,21.413124 34.141296,21.628004 33.875416,21.628004 C33.609536,21.628004 33.394656,21.413124 33.394656,21.147244 C33.394656,20.881364 33.609536,20.666484 33.875416,20.666484 C34.141296,20.666484 34.356176,20.881364 34.356176,21.147244" id="Fill-33" fill="#DB9E4D"></path>
                        <path d="M41.848144,21.147244 C41.848144,21.587884 41.491144,21.946244 41.049824,21.946244 C40.609184,21.946244 40.251504,21.587884 40.251504,21.147244 C40.251504,20.706604 40.609184,20.348924 41.049824,20.348924 C41.491144,20.348924 41.848144,20.706604 41.848144,21.147244" id="Fill-34" fill="#F9BF64"></path>
                        <path d="M41.53072,21.147244 C41.53072,21.413124 41.31584,21.628004 41.04996,21.628004 C40.78408,21.628004 40.5692,21.413124 40.5692,21.147244 C40.5692,20.881364 40.78408,20.666484 41.04996,20.666484 C41.31584,20.666484 41.53072,20.881364 41.53072,21.147244" id="Fill-35" fill="#DB9E4D"></path>
                        <polygon id="Fill-36" fill="#4D4D4D" points="34.14184 18.86292 40.52092 18.86292 40.52092 16.14564 34.14184 16.14564"></polygon>
                        <path d="M38.077612,23.530576 L36.789012,23.530576 C36.675452,23.530576 36.582972,23.437416 36.582972,23.323856 C36.582972,23.210296 36.675452,23.117816 36.789012,23.117816 L38.077612,23.117816 C38.191172,23.117816 38.284332,23.210296 38.284332,23.323856 C38.284332,23.437416 38.191172,23.530576 38.077612,23.530576" id="Fill-37" fill="#FC3D4B"></path>
                        <path d="M38.077612,23.842016 L36.789012,23.842016 C36.675452,23.842016 36.582972,23.748856 36.582972,23.635296 C36.582972,23.521736 36.675452,23.429256 36.789012,23.429256 L38.077612,23.429256 C38.191172,23.429256 38.284332,23.521736 38.284332,23.635296 C38.284332,23.748856 38.191172,23.842016 38.077612,23.842016" id="Fill-38" fill="#D12237"></path>
                        <polygon id="Fill-39" fill="#F3FFBE" points="1.06528 46.26148 56.51112 46.26148 56.51112 36.31648 1.06528 36.31648"></polygon>
                        <path d="M0.38528,46.94148 L0.38528,35.63648 L57.19112,35.63648 L57.19112,46.94148 L0.38528,46.94148 Z M1.74528,45.58148 L55.83112,45.58148 L55.83112,36.99648 L1.74528,36.99648 L1.74528,45.58148 Z" id="Stroke-40" fill="#1C1A1A" fill-rule="nonzero"></path>
                    </g>
                    <g id="Group-86" transform="translate(27.880000, 21.225520)">
                        <path d="M10.578828,16.55664 C10.578828,14.80224 9.221548,13.42796 7.363788,13.42796 L6.048668,13.42796 C4.190908,13.42796 2.780588,14.80224 2.780588,16.55664 L2.780588,23.09824 L10.578828,23.09824 L10.578828,16.55664 Z" id="Fill-48" fill="#23CC98"></path>
                        <path d="M1.088068,25.76452 C0.663068,25.76452 0.314908,25.41636 0.314908,24.99136 L0.314908,20.72164 C0.314908,20.29664 0.663068,19.94848 1.088068,19.94848 C1.513748,19.94848 1.861228,20.29664 1.861228,20.72164 L1.861228,24.99136 C1.861228,25.41636 1.513748,25.76452 1.088068,25.76452" id="Fill-50" fill="#F9BF64"></path>
                        <path d="M0.880872,21.6155 C0.470152,21.50534 0.223992,21.07966 0.333472,20.66826 L1.965472,14.57818 C2.074952,14.16814 2.501312,13.92198 2.911352,14.03214 C3.322752,14.1423 3.568232,14.56798 3.458752,14.9787 L1.827432,21.06878 C1.717272,21.4795 1.291592,21.72566 0.880872,21.6155" id="Fill-52" fill="#F9BF64"></path>
                        <path d="M2.411552,25.795732 C2.411552,26.392772 1.874352,26.876252 1.210672,26.876252 C0.548352,26.876252 0.011152,26.392772 0.011152,25.795732 C0.011152,25.198692 0.548352,24.714532 1.210672,24.714532 C1.874352,24.714532 2.411552,25.198692 2.411552,25.795732" id="Fill-54" fill="#DB9E4D"></path>
                        <path d="M12.29678,25.76452 C12.72178,25.76452 13.06994,25.41636 13.06994,24.99136 L13.06994,20.72164 C13.06994,20.29664 12.72178,19.94848 12.29678,19.94848 C11.8711,19.94848 11.52362,20.29664 11.52362,20.72164 L11.52362,24.99136 C11.52362,25.41636 11.8711,25.76452 12.29678,25.76452" id="Fill-56" fill="#F9BF64"></path>
                        <path d="M12.503976,21.6155 L12.504656,21.6155 C12.914696,21.50534 13.160856,21.07966 13.051376,20.66826 L11.419376,14.57818 C11.309896,14.16814 10.883536,13.92198 10.473496,14.03214 C10.062096,14.1423 9.816616,14.56798 9.926096,14.9787 L11.557416,21.06878 C11.668256,21.4795 12.093256,21.72566 12.503976,21.6155" id="Fill-58" fill="#F9BF64"></path>
                        <path d="M11.210344,25.795732 C11.210344,26.392772 11.747544,26.876252 12.411224,26.876252 C13.073544,26.876252 13.610744,26.392772 13.610744,25.795732 C13.610744,25.198692 13.073544,24.714532 12.411224,24.714532 C11.747544,24.714532 11.210344,25.198692 11.210344,25.795732" id="Fill-60" fill="#DB9E4D"></path>
                        <path d="M12.187232,5.77694 C12.187232,8.91718 9.641312,11.46242 6.501752,11.46242 C3.361512,11.46242 0.815592,8.91718 0.815592,5.77694 C0.815592,2.63738 3.361512,0.09146 6.501752,0.09146 C9.641312,0.09146 12.187232,2.63738 12.187232,5.77694" id="Fill-62" fill="#4D4D4D"></path>
                        <path d="M6.411176,14.358608 C5.886896,14.358608 5.458496,13.929528 5.458496,13.405928 L5.458496,12.659968 C5.458496,12.135688 5.886896,11.707968 6.411176,11.707968 C6.935456,11.707968 7.363856,12.135688 7.363856,12.659968 L7.363856,13.405928 C7.363856,13.929528 6.935456,14.358608 6.411176,14.358608" id="Fill-64" fill="#DB9E4D"></path>
                        <path d="M6.411176,12.452772 C4.656776,12.452772 3.221976,11.017972 3.221976,9.263572 L3.221976,6.369492 C3.221976,4.615772 4.656776,3.179612 6.411176,3.179612 C8.165576,3.179612 9.600376,4.615772 9.600376,6.369492 L9.600376,9.263572 C9.600376,11.017972 8.165576,12.452772 6.411176,12.452772" id="Fill-66" fill="#F9BF64"></path>
                        <path d="M5.745796,7.342096 C5.745796,7.620216 5.520716,7.845296 5.242596,7.845296 C4.964476,7.845296 4.739396,7.620216 4.739396,7.342096 C4.739396,7.063976 4.964476,6.838896 5.242596,6.838896 C5.520716,6.838896 5.745796,7.063976 5.745796,7.342096" id="Fill-68" fill="#4D4D4D"></path>
                        <path d="M8.309056,7.342096 C8.309056,7.620216 8.083976,7.845296 7.805856,7.845296 C7.527736,7.845296 7.302656,7.620216 7.302656,7.342096 C7.302656,7.063976 7.527736,6.838896 7.805856,6.838896 C8.083976,6.838896 8.309056,7.063976 8.309056,7.342096" id="Fill-70" fill="#4D4D4D"></path>
                        <path d="M6.524056,9.584668 C6.334336,9.584668 6.178616,9.428948 6.178616,9.239228 L6.178616,8.190668 C6.178616,8.000948 6.334336,7.845228 6.524056,7.845228 C6.713776,7.845228 6.869496,8.000948 6.869496,8.190668 L6.869496,9.239228 C6.869496,9.428948 6.713776,9.584668 6.524056,9.584668" id="Fill-72" fill="#DB9E4D"></path>
                        <path d="M6.208672,11.195656 C6.691472,11.318056 7.226632,10.845456 7.302792,10.543536 L5.556552,10.101536 C5.480392,10.404136 5.726552,11.073256 6.208672,11.195656" id="Fill-74" fill="#4D4D4D"></path>
                        <path d="M3.7536,8.181488 C3.7536,8.622128 3.3966,8.979808 2.95528,8.979808 C2.51464,8.979808 2.15696,8.622128 2.15696,8.181488 C2.15696,7.740848 2.51464,7.383168 2.95528,7.383168 C3.3966,7.383168 3.7536,7.740848 3.7536,8.181488" id="Fill-76" fill="#F9BF64"></path>
                        <path d="M3.436176,8.181488 C3.436176,8.447368 3.221296,8.662248 2.955416,8.662248 C2.689536,8.662248 2.474656,8.447368 2.474656,8.181488 C2.474656,7.915608 2.689536,7.700728 2.955416,7.700728 C3.221296,7.700728 3.436176,7.915608 3.436176,8.181488" id="Fill-78" fill="#DB9E4D"></path>
                        <path d="M10.928144,8.181488 C10.928144,8.622128 10.571144,8.979808 10.129824,8.979808 C9.689184,8.979808 9.331504,8.622128 9.331504,8.181488 C9.331504,7.740848 9.689184,7.383168 10.129824,7.383168 C10.571144,7.383168 10.928144,7.740848 10.928144,8.181488" id="Fill-80" fill="#F9BF64"></path>
                        <path d="M10.61072,8.181488 C10.61072,8.447368 10.39584,8.662248 10.12996,8.662248 C9.86408,8.662248 9.6492,8.447368 9.6492,8.181488 C9.6492,7.915608 9.86408,7.700728 10.12996,7.700728 C10.39584,7.700728 10.61072,7.915608 10.61072,8.181488" id="Fill-82" fill="#DB9E4D"></path>
                        <path d="M9.600716,4.226336 C9.600716,4.977056 8.172716,5.584976 6.411516,5.584976 C4.649636,5.584976 3.221636,4.977056 3.221636,4.226336 C3.221636,3.475616 4.649636,2.867696 6.411516,2.867696 C8.172716,2.867696 9.600716,3.475616 9.600716,4.226336" id="Fill-84" fill="#4D4D4D"></path>
                    </g>
                </g>
            </g>
        </g>
    </g>
</svg>