<?xml version="1.0" encoding="UTF-8"?>
<svg width="64px" height="64px" viewBox="0 0 64 64" version="1.1" xmlns="http://www.w3.org/2000/svg" xmlns:xlink="http://www.w3.org/1999/xlink">
    <!-- Generator: Sketch 61.2 (89653) - https://sketch.com -->
    <title>Contact Us</title>
    <desc>Created with Sketch.</desc>
    <g id="Page-1" stroke="none" stroke-width="1" fill="none" fill-rule="evenodd">
        <g id="Instincts-2017" transform="translate(-640.000000, -5315.000000)">
            <g id="Contact-Us" transform="translate(640.000000, 5315.000000)">
                <circle id="Oval-Copy-2" fill="#E6E6E6" fill-rule="nonzero" cx="32" cy="32" r="32"></circle>
                <g id="Group-24" transform="translate(17.000000, 19.000000)">
                    <g id="Group-23" transform="translate(0.000000, -0.000107)">
                        <path d="M0.39590625,1.80000108 L0.39590625,5.15834806 L0.39590625,5.15834806 L0.39590625,23.2698287 C0.39590625,23.8221134 0.8436215,24.2698287 1.39590625,24.2698287 L28.1997856,24.2698287 C28.7520703,24.2698287 29.1997856,23.8221134 29.1997856,23.2698287 L29.1997856,5.15834806 L29.1997856,5.15834806 L29.1997856,1.80000108 C29.1997856,1.24771633 28.7520703,0.800001078 28.1997856,0.800001078 L1.39590625,0.800001078 C0.8436215,0.800001078 0.39590625,1.24771633 0.39590625,1.80000108 Z" id="Stroke-9" stroke="#424242" fill="#FFFFFF"></path>
                        <g id="Group-16" transform="translate(0.129310, 9.601293)" fill-rule="nonzero" stroke="#424242">
                            <g id="Group-13">
                                <polyline id="Path-2" points="0.661152954 14.1790597 14.5967205 0.975965858 29.0182661 14.1963058"></polyline>
                            </g>
                        </g>
                        <g id="Group-20" transform="translate(0.000000, 1.066810)">
                            <polyline id="Fill-17" fill="#FC3D4B" points="0.0364978448 0.172845711 14.6187284 13.8802918 29.1998922 0.172845711"></polyline>
                            <path d="M0.298219667,0.0141033834 L13.8923756,13.0975348 C14.2750189,13.4658024 14.8787863,13.4707353 15.2673957,13.108769 L29.1653186,0.163687851 L29.1653186,0.163687851" id="Stroke-19" stroke="#424242"></path>
                        </g>
                    </g>
                </g>
            </g>
        </g>
    </g>
</svg>