<?xml version="1.0" encoding="UTF-8"?>
<svg width="64px" height="64px" viewBox="0 0 64 64" version="1.1" xmlns="http://www.w3.org/2000/svg" xmlns:xlink="http://www.w3.org/1999/xlink">
    <!-- Generator: Sketch 61.2 (89653) - https://sketch.com -->
    <title>Events</title>
    <desc>Created with Sketch.</desc>
    <g id="Page-1" stroke="none" stroke-width="1" fill="none" fill-rule="evenodd">
        <g id="Instincts-2017" transform="translate(-200.000000, -5315.000000)">
            <g id="Events" transform="translate(200.000000, 5315.000000)">
                <circle id="Oval-Copy" fill="#E6E6E6" fill-rule="nonzero" cx="32" cy="32" r="32"></circle>
                <g id="Group-77" transform="translate(14.000000, 18.000000)">
                    <path d="M17.94228,28.19276 C8.14788,28.09316 0.25548,21.90716 0.25548,14.18036 C0.25548,6.45236 8.21988,0.12236 18.01548,0.12236 C27.1993571,0.12236 34.7736051,6.03452989 35.6837939,12.7065354 C35.6837939,12.7065354 35.6837939,12.7065354 35.6837939,12.7065354 C35.772037,13.3533882 35.3191943,13.9493011 34.6723415,14.0375441 C34.6193886,14.0447679 34.5660067,14.0483923 34.5125633,14.04836 C34.3278881,14.04836 34.1672651,14.04836 34.0306943,14.04836 C30.259558,14.04836 26.4884217,14.04836 22.7172854,14.04836 C22.1650006,14.04836 21.7172854,14.4960753 21.7172854,15.04836 C21.7172854,15.3147081 21.8235407,15.5700512 22.0124911,15.7577718 L29.20401,22.9024813 C29.5940494,23.2899535 29.5981296,23.9196174 29.2131587,24.3121259 C26.6267735,26.9491515 22.8698139,28.2426963 17.94228,28.19276 Z" id="Stroke-58" stroke="#424242" fill="#FFFFFF"></path>
                    <path d="M19.20444,5.40212 C19.20444,6.60332 17.71284,7.57772 15.87324,7.57772 C14.03364,7.57772 12.54204,6.60332 12.54204,5.40212 C12.54204,4.20092 14.03364,3.22652 15.87324,3.22652 C17.71284,3.22652 19.20444,4.20092 19.20444,5.40212" id="Fill-60" fill="#7CB342"></path>
                    <path d="M19.20444,5.40212 C19.20444,6.60332 17.71284,7.57772 15.87324,7.57772 C14.03364,7.57772 12.54204,6.60332 12.54204,5.40212 C12.54204,4.20092 14.03364,3.22652 15.87324,3.22652 C17.71284,3.22652 19.20444,4.20092 19.20444,5.40212 Z" id="Stroke-62" stroke="#424242"></path>
                    <path d="M10.638,9.07364 C10.638,10.27484 9.1464,11.24924 7.3068,11.24924 C5.466,11.24924 3.9756,10.27484 3.9756,9.07364 C3.9756,7.87244 5.466,6.89804 7.3068,6.89804 C9.1464,6.89804 10.638,7.87244 10.638,9.07364" id="Fill-64" fill="#FC3D4B"></path>
                    <path d="M10.638,9.07364 C10.638,10.27484 9.1464,11.24924 7.3068,11.24924 C5.466,11.24924 3.9756,10.27484 3.9756,9.07364 C3.9756,7.87244 5.466,6.89804 7.3068,6.89804 C9.1464,6.89804 10.638,7.87244 10.638,9.07364 Z" id="Stroke-66" stroke="#424242"></path>
                    <path d="M9.82236,16.41668 C9.82236,17.61788 8.33076,18.59228 6.49116,18.59228 C4.65036,18.59228 3.15876,17.61788 3.15876,16.41668 C3.15876,15.21548 4.65036,14.24108 6.49116,14.24108 C8.33076,14.24108 9.82236,15.21548 9.82236,16.41668" id="Fill-68" fill="#7CB342"></path>
                    <path d="M9.82236,16.41668 C9.82236,17.61788 8.33076,18.59228 6.49116,18.59228 C4.65036,18.59228 3.15876,17.61788 3.15876,16.41668 C3.15876,15.21548 4.65036,14.24108 6.49116,14.24108 C8.33076,14.24108 9.82236,15.21548 9.82236,16.41668 Z" id="Stroke-70" stroke="#424242"></path>
                    <path d="M17.1648,22.5356 C17.1648,23.7368 15.6732,24.7112 13.8336,24.7112 C11.994,24.7112 10.5024,23.7368 10.5024,22.5356 C10.5024,21.3344 11.994,20.36 13.8336,20.36 C15.6732,20.36 17.1648,21.3344 17.1648,22.5356" id="Fill-72" fill="#FC3D4B"></path>
                    <path d="M17.1648,22.5356 C17.1648,23.7368 15.6732,24.7112 13.8336,24.7112 C11.994,24.7112 10.5024,23.7368 10.5024,22.5356 C10.5024,21.3344 11.994,20.36 13.8336,20.36 C15.6732,20.36 17.1648,21.3344 17.1648,22.5356 Z" id="Stroke-74" stroke="#424242"></path>
                    <path d="M28.587,6.21836 C28.587,7.41956 27.0954,8.39396 25.2558,8.39396 C23.415,8.39396 21.9246,7.41956 21.9246,6.21836 C21.9246,5.01716 23.415,4.04276 25.2558,4.04276 C27.0954,4.04276 28.587,5.01716 28.587,6.21836" id="Fill-76" fill="#FC3D4B"></path>
                    <path d="M28.587,6.21836 C28.587,7.41956 27.0954,8.39396 25.2558,8.39396 C23.415,8.39396 21.9246,7.41956 21.9246,6.21836 C21.9246,5.01716 23.415,4.04276 25.2558,4.04276 C27.0954,4.04276 28.587,5.01716 28.587,6.21836 Z" id="Stroke-78" stroke="#424242"></path>
                </g>
            </g>
        </g>
    </g>
</svg>