<?xml version="1.0" encoding="UTF-8"?>
<svg width="64px" height="64px" viewBox="0 0 64 64" version="1.1" xmlns="http://www.w3.org/2000/svg" xmlns:xlink="http://www.w3.org/1999/xlink">
    <!-- Generator: Sketch 61.2 (89653) - https://sketch.com -->
    <title>Gallery</title>
    <desc>Created with Sketch.</desc>
    <g id="Page-1" stroke="none" stroke-width="1" fill="none" fill-rule="evenodd">
        <g id="Instincts-2017" transform="translate(-288.000000, -5315.000000)">
            <g id="Gallery" transform="translate(288.000000, 5315.000000)">
                <circle id="Oval-Copy-2" fill="#E6E6E6" fill-rule="nonzero" cx="32" cy="32" r="32"></circle>
                <g id="Group-85" transform="translate(12.000000, 13.000000)">
                    <g id="Group-80" transform="translate(16.326299, 14.222892) rotate(-29.000000) translate(-16.326299, -14.222892) translate(3.326299, 5.722892)">
                        <rect id="Rectangle" stroke="#424242" stroke-width="0.8" fill="#FFFFFF" x="0" y="0" width="25.3028571" height="16.1454545" rx="1"></rect>
                        <g id="Group-79" transform="translate(7.380000, 3.027273)">
                            <path d="M11.0363163,5.5528044 C10.9639694,8.38952571 8.50294785,10.6335518 5.53917647,10.5643063 C2.5754051,10.493887 0.230874329,8.13836379 0.303221251,5.30164248 C0.375568174,2.46492117 2.83658975,0.220895051 5.80036112,0.290140627 C8.76535872,0.359386203 11.1086633,2.71608309 11.0363163,5.5528044" id="Fill-24" fill="#FC3D4B"></path>
                            <path d="M11.0363163,5.5528044 C10.9639694,8.38952571 8.50294785,10.6335518 5.53917647,10.5643063 C2.5754051,10.493887 0.230874329,8.13836379 0.303221251,5.30164248 C0.375568174,2.46492117 2.83658975,0.220895051 5.80036112,0.290140627 C8.76535872,0.359386203 11.1086633,2.71608309 11.0363163,5.5528044 Z" id="Stroke-25" stroke="#424242" stroke-width="0.5"></path>
                            <path d="M2.30551429,4.36999607 C2.33984842,4.04372031 2.48576849,3.74678589 2.70403547,3.48036647 C2.91494514,3.21394705 3.28035841,2.99212648 3.70708263,2.98860551 C4.1301282,3.00034205 4.49186281,3.21394705 4.70522492,3.47684551 C4.81681085,3.60712108 4.9038724,3.75265416 4.99093395,3.88645069 C5.04366137,4.04019935 5.11355585,4.17986415 5.1491162,4.34182838 C4.86585961,4.16225934 4.62919934,3.95452262 4.39131285,3.8125105 C4.14484282,3.66697743 3.91553987,3.57191147 3.70463019,3.57543243 C3.27422732,3.55313301 2.80090678,3.95686992 2.30551429,4.36999607" id="Fill-26" fill="#424242"></path>
                            <path d="M8.77124457,4.71152934 C8.37272339,4.21155281 7.99504793,3.72448647 7.56709749,3.66345647 C7.36109269,3.62003127 7.11584889,3.66815108 6.84608071,3.7643907 C6.58244362,3.85593569 6.30654434,4.01437896 5.99140605,4.13526531 C6.06130053,3.98386396 6.15817183,3.86063031 6.24155473,3.7209655 C6.35681932,3.60594743 6.47085768,3.48036647 6.60819422,3.37356397 C6.87305752,3.15878532 7.27157871,3.01794686 7.68849317,3.08953974 C8.10540764,3.17404282 8.41686727,3.46158801 8.56769221,3.76321704 C8.72587447,4.06601973 8.8055787,4.38525357 8.77124457,4.71152934" id="Fill-27" fill="#424242"></path>
                            <path d="M2.73542668,5.99632819 L8.24728118,6.12543011 C8.24728118,6.12543011 7.84017647,8.58540854 5.42084634,8.82131296 C3.00151621,9.05604372 2.73542668,5.99632819 2.73542668,5.99632819" id="Fill-28" fill="#FFFFFF"></path>
                            <path d="M2.73542668,5.99632819 L8.24728118,6.12543011 C8.24728118,6.12543011 7.84017647,8.58540854 5.42084634,8.82131296 C3.00151621,9.05604372 2.73542668,5.99632819 2.73542668,5.99632819 Z" id="Stroke-29" stroke="#424242" stroke-width="0.5"></path>
                        </g>
                    </g>
                    <g id="Group-82" transform="translate(10.800000, 17.100000)">
                        <rect id="Rectangle-Copy-5" stroke="#424242" stroke-width="0.8" fill="#FFFFFF" x="0" y="0" width="25.2" height="16.2" rx="1"></rect>
                        <g id="Group-79-Copy" transform="translate(7.350000, 3.037500)">
                            <path d="M10.9914533,5.57156388 C10.9194004,8.4178687 8.46838302,10.669476 5.5166595,10.5999965 C2.56493597,10.5293394 0.229935816,8.16585826 0.301988645,5.31955344 C0.374041474,2.47324861 2.8250589,0.221641318 5.77678242,0.291120832 C8.72972718,0.360600346 11.0635061,2.72525905 10.9914533,5.57156388" id="Fill-24" fill="#7CB342"></path>
                            <path d="M10.9914533,5.57156388 C10.9194004,8.4178687 8.46838302,10.669476 5.5166595,10.5999965 C2.56493597,10.5293394 0.229935816,8.16585826 0.301988645,5.31955344 C0.374041474,2.47324861 2.8250589,0.221641318 5.77678242,0.291120832 C8.72972718,0.360600346 11.0635061,2.72525905 10.9914533,5.57156388 Z" id="Stroke-25" stroke="#424242" stroke-width="0.5"></path>
                            <path d="M2.29614228,4.38475957 C2.33033685,4.05738152 2.47566374,3.75944395 2.69304346,3.49212446 C2.90309577,3.22480498 3.26702362,3.00223501 3.69201319,2.99870215 C4.11333906,3.01047834 4.4736032,3.22480498 4.68609799,3.48859161 C4.79723032,3.6193073 4.88393796,3.76533204 4.9706456,3.8995806 C5.02315868,4.05384867 5.09276904,4.19398531 5.12818484,4.35649672 C4.84607969,4.17632103 4.61038145,3.96788249 4.37346198,3.82539061 C4.12799387,3.67936587 3.89962304,3.58397874 3.68957072,3.58751159 C3.26091745,3.56513683 2.78952098,3.97023773 2.29614228,4.38475957" id="Fill-26" fill="#424242"></path>
                            <path d="M8.7355891,4.72744667 C8.33868793,4.22578102 7.96254773,3.73706919 7.53633693,3.67583301 C7.33116955,3.63226111 7.08692268,3.68054348 6.81825111,3.77710823 C6.55568572,3.8689625 6.28090798,4.02794105 5.96705074,4.1492358 C6.0366611,3.99732296 6.13313862,3.87367298 6.21618255,3.73353633 C6.33097859,3.61812968 6.44455339,3.49212446 6.58133164,3.38496115 C6.84511827,3.16945689 7.24201944,3.02814263 7.65723914,3.09997738 C8.07245883,3.18476594 8.38265236,3.47328256 8.53286419,3.77593061 C8.69040343,4.07975628 8.76978367,4.40006862 8.7355891,4.72744667" id="Fill-27" fill="#424242"></path>
                            <path d="M2.72430706,6.01658605 L8.21375565,6.14612413 C8.21375565,6.14612413 7.80830583,8.61441329 5.39881038,8.85111469 C2.98931492,9.08663846 2.72430706,6.01658605 2.72430706,6.01658605" id="Fill-28" fill="#FFFFFF"></path>
                            <path d="M2.72430706,6.01658605 L8.21375565,6.14612413 C8.21375565,6.14612413 7.80830583,8.61441329 5.39881038,8.85111469 C2.98931492,9.08663846 2.72430706,6.01658605 2.72430706,6.01658605 Z" id="Stroke-29" stroke="#424242" stroke-width="0.5"></path>
                        </g>
                    </g>
                </g>
            </g>
        </g>
    </g>
</svg>