<?xml version="1.0" encoding="UTF-8"?>
<svg width="64px" height="64px" viewBox="0 0 64 64" version="1.1" xmlns="http://www.w3.org/2000/svg" xmlns:xlink="http://www.w3.org/1999/xlink">
    <!-- Generator: Sketch 61.2 (89653) - https://sketch.com -->
    <title>Games</title>
    <desc>Created with Sketch.</desc>
    <g id="Page-1" stroke="none" stroke-width="1" fill="none" fill-rule="evenodd">
        <g id="Instincts-2017" transform="translate(-908.000000, -5433.000000)">
            <g id="Games" transform="translate(908.000000, 5433.000000)">
                <circle id="Oval-Copy-3" fill="#E6E6E6" fill-rule="nonzero" cx="32" cy="32" r="32"></circle>
                <g id="Group-98" transform="translate(15.000000, 10.000000)">
                    <g id="console" transform="translate(0.000000, 13.000000)">
                        <path d="M33.891559,15.4141429 C33.807087,13.4712857 33.4691988,11.3172484 32.9623665,9.28991925 C32.4555342,7.34706211 31.8219938,5.53091304 31.0617453,4.13712422 C28.1052236,-1.05790683 24.8952857,-0.25542236 21.0518075,0.758242236 C19.8269627,1.05389441 18.517646,1.39178261 17.1660932,1.51849068 L16.7437329,1.51849068 C15.3921801,1.39178261 14.0828634,1.05389441 12.8580186,0.758242236 C9.01454037,-0.213186335 5.80460248,-1.05790683 2.84808075,4.17936025 C2.0878323,5.57314907 1.4120559,7.38929814 0.947459627,9.33215528 C0.440627329,11.3594845 0.10273913,13.5135217 0.0182670807,15.4563789 C-0.0662049689,17.6104161 0.144975155,19.1731491 0.609571429,20.2712857 C1.0741677,21.2849503 1.7499441,21.9184907 2.63690062,22.1719068 C3.43938509,22.383087 4.36857764,22.2986149 5.34000621,21.8762547 C6.98721118,21.2004783 8.8878323,19.7644534 10.7462174,18.0327764 C12.0555342,16.7656957 14.5052236,16.1321553 16.954913,16.1321553 C19.4046025,16.1321553 21.8542919,16.7656957 23.1636087,18.0327764 C25.0219938,19.7644534 26.9226149,21.2004783 28.5698199,21.8762547 C29.5412484,22.2563789 30.470441,22.383087 31.2729255,22.1719068 C32.117646,21.9184907 32.8356584,21.3271863 33.3002547,20.2290497 C33.7648509,19.1731491 33.9760311,17.6104161 33.891559,15.4141429 Z M31.8642298,19.6377453 C31.6108137,20.2290497 31.2729255,20.5669379 30.8505652,20.693646 C30.3859689,20.820354 29.7946646,20.735882 29.1188882,20.4824658 C27.6406273,19.8911615 25.9089503,18.5818447 24.2195093,16.9768758 C22.6145404,15.3719068 19.7847267,14.5694224 16.954913,14.5694224 C14.1250994,14.5694224 11.2952857,15.3719068 9.64808075,16.8924037 C7.91640373,18.4973727 6.18472671,19.8489255 4.74870186,20.3979938 C4.07292547,20.6514099 3.48162112,20.778118 3.01702484,20.6091739 C2.5946646,20.4824658 2.2567764,20.1445776 2.00336025,19.5532733 C1.66547205,18.7507888 1.49652795,17.441472 1.581,15.4986149 C1.66547205,13.6824658 1.96112422,11.6129006 2.46795652,9.67004348 C2.9325528,7.85389441 3.52385714,6.16445342 4.24186957,4.89737267 C6.56485093,0.716006211 9.26795652,1.39178261 12.4778944,2.23650311 C13.7872112,2.5743913 15.138764,2.9122795 16.6170248,3.03898758 C16.6592609,3.03898758 16.6592609,3.03898758 16.7014969,3.03898758 L17.1660932,3.03898758 C17.2083292,3.03898758 17.2083292,3.03898758 17.2505652,3.03898758 C18.7710621,2.9122795 20.1226149,2.5743913 21.4319317,2.23650311 C24.6418696,1.43401863 27.3449752,0.716006211 29.6679565,4.89737267 C30.3859689,6.16445342 30.9772733,7.81165839 31.4418696,9.67004348 C31.9064658,11.6129006 32.244354,13.6402298 32.3288261,15.4986149 C32.4132981,17.441472 32.244354,18.7507888 31.8642298,19.6377453 Z" id="Shape" fill="#333333" fill-rule="nonzero"></path>
                        <path d="M32.2889748,20.0118186 C32.0273283,20.628503 31.6784664,20.9808941 31.242389,21.1130407 C30.7627039,21.2451874 30.1521955,21.1570896 29.4544717,20.8927963 C27.9282008,20.2761119 26.1402835,18.9105966 24.3959739,17.236739 C22.7388798,15.5628815 19.8171612,14.7259527 16.8954427,14.7259527 C13.9737241,14.7259527 11.0520056,15.5628815 9.35130374,17.1486413 C7.56338641,18.8224988 5.77546909,20.2320631 4.29280594,20.8046985 C3.59508211,21.0689918 2.98457375,21.2011385 2.50488862,21.0249429 C2.06881122,20.8927963 1.7199493,20.5404052 1.45830287,19.9237209 C1.10944095,19.0867921 0.93500999,17.7212767 1.02222547,15.6950281 C1.10944095,13.8009262 1.41469513,11.6425309 1.937988,9.61628233 C2.41767314,7.72218038 3.02818149,5.96022507 3.76951307,4.63875859 C6.16793874,0.277919205 8.95883408,0.982701328 12.2730223,1.86367898 C13.6248622,2.21607004 15.0203099,2.5684611 16.5465808,2.70060775 C16.5901885,2.70060775 16.5901885,2.70060775 16.6337963,2.70060775 L17.1134814,2.70060775 C17.1570891,2.70060775 17.1570891,2.70060775 17.2006969,2.70060775 C18.7705755,2.5684611 20.1660232,2.21607004 21.5178631,1.86367898 C24.8320513,1.02675021 27.6229466,0.277919205 30.0213723,4.63875859 C30.7627039,5.96022507 31.3732122,7.6781315 31.8528974,9.61628233 C32.3325825,11.6425309 32.6814444,13.7568773 32.7686599,15.6950281 C32.8558754,17.7212767 32.6814444,19.0867921 32.2889748,20.0118186 Z" id="Path" fill="#B3B3B3"></path>
                        <path d="M13.0691988,7.17811801 C12.6468385,6.79799379 12.1400062,6.50234161 11.5487019,6.46010559 C11.5064658,5.91103727 11.2530497,5.36196894 10.8729255,4.98184472 L10.8306894,4.9396087 C10.3660932,4.47501242 9.77478882,4.22159627 9.09901242,4.22159627 C8.42323602,4.22159627 7.78969565,4.51724845 7.3673354,4.9396087 C6.98721118,5.31973292 6.69155901,5.86880124 6.64932298,6.46010559 C6.05801863,6.50234161 5.55118634,6.75575776 5.12882609,7.13588199 L5.08659006,7.17811801 C4.62199379,7.64271429 4.36857764,8.23401863 4.36857764,8.90979503 C4.36857764,9.58557143 4.66422981,10.2191118 5.08659006,10.641472 C5.50895031,11.0638323 6.01578261,11.3172484 6.64932298,11.3594845 C6.69155901,11.9507888 6.94497516,12.4998571 7.3673354,12.8799814 C7.83193168,13.3445776 8.42323602,13.5979938 9.09901242,13.5979938 C9.77478882,13.5979938 10.4083292,13.3023416 10.8306894,12.8799814 C11.2108137,12.4576211 11.5064658,11.9507888 11.5487019,11.3594845 C12.1400062,11.3172484 12.6890745,11.0638323 13.0691988,10.641472 C13.533795,10.1768758 13.7872112,9.58557143 13.7872112,8.90979503 C13.7872112,8.23401863 13.491559,7.60047826 13.0691988,7.17811801 Z M12.0132981,9.5433354 C11.844354,9.7122795 11.6331739,9.79675155 11.3797578,9.79675155 L10.7884534,9.79675155 C10.3660932,9.79675155 9.98596894,10.1346398 9.98596894,10.599236 L9.98596894,11.1483043 C9.98596894,11.4017205 9.90149689,11.6129006 9.7325528,11.7818447 C9.5636087,11.9507888 9.35242857,12.0352609 9.09901242,12.0352609 C8.84559627,12.0352609 8.63441615,11.9507888 8.46547205,11.7818447 C8.29652795,11.6129006 8.2120559,11.4017205 8.2120559,11.1483043 L8.2120559,10.557 C8.2120559,10.1346398 7.8741677,9.75451553 7.40957143,9.75451553 L6.81826708,9.75451553 C6.56485093,9.75451553 6.35367081,9.67004348 6.18472671,9.50109938 C6.05801863,9.3743913 5.93131056,9.16321118 5.93131056,8.90979503 C5.93131056,8.65637888 6.01578261,8.44519876 6.18472671,8.27625466 C6.18472671,8.27625466 6.18472671,8.27625466 6.22696273,8.23401863 C6.39590683,8.10731056 6.60708696,8.02283851 6.81826708,8.02283851 L7.40957143,8.02283851 C7.83193168,8.02283851 8.2120559,7.68495031 8.2120559,7.22035404 L8.2120559,6.62904969 C8.2120559,6.37563354 8.29652795,6.16445342 8.46547205,5.99550932 C8.63441615,5.82656522 8.84559627,5.74209317 9.09901242,5.74209317 C9.35242857,5.74209317 9.5636087,5.82656522 9.7325528,5.99550932 C9.7325528,5.99550932 9.7325528,5.99550932 9.77478882,6.03774534 C9.90149689,6.20668944 9.98596894,6.41786957 9.98596894,6.62904969 L9.98596894,7.22035404 C9.98596894,7.64271429 10.3238571,8.02283851 10.7884534,8.02283851 L11.3797578,8.02283851 C11.6331739,8.02283851 11.844354,8.10731056 12.0132981,8.27625466 C12.1822422,8.44519876 12.2667143,8.65637888 12.2667143,8.90979503 C12.2667143,9.16321118 12.1822422,9.3743913 12.0132981,9.5433354 Z" id="Shape" fill="#333333" fill-rule="nonzero"></path>
                        <path d="M12.0132981,9.5433354 C11.844354,9.7122795 11.6331739,9.79675155 11.3797578,9.79675155 L10.7884534,9.79675155 C10.3660932,9.79675155 9.98596894,10.1346398 9.98596894,10.599236 L9.98596894,11.1483043 C9.98596894,11.4017205 9.90149689,11.6129006 9.7325528,11.7818447 C9.5636087,11.9507888 9.35242857,12.0352609 9.09901242,12.0352609 C8.84559627,12.0352609 8.63441615,11.9507888 8.46547205,11.7818447 C8.29652795,11.6129006 8.2120559,11.4017205 8.2120559,11.1483043 L8.2120559,10.557 C8.2120559,10.1346398 7.8741677,9.75451553 7.40957143,9.75451553 L6.81826708,9.75451553 C6.56485093,9.75451553 6.35367081,9.67004348 6.18472671,9.50109938 C6.05801863,9.3743913 5.93131056,9.16321118 5.93131056,8.90979503 C5.93131056,8.65637888 6.01578261,8.44519876 6.18472671,8.27625466 C6.18472671,8.27625466 6.18472671,8.27625466 6.22696273,8.23401863 C6.39590683,8.10731056 6.60708696,8.02283851 6.81826708,8.02283851 L7.40957143,8.02283851 C7.83193168,8.02283851 8.2120559,7.68495031 8.2120559,7.22035404 L8.2120559,6.62904969 C8.2120559,6.37563354 8.29652795,6.16445342 8.46547205,5.99550932 C8.63441615,5.82656522 8.84559627,5.74209317 9.09901242,5.74209317 C9.35242857,5.74209317 9.5636087,5.82656522 9.7325528,5.99550932 C9.7325528,5.99550932 9.7325528,5.99550932 9.77478882,6.03774534 C9.90149689,6.20668944 9.98596894,6.41786957 9.98596894,6.62904969 L9.98596894,7.22035404 C9.98596894,7.64271429 10.3238571,8.02283851 10.7884534,8.02283851 L11.3797578,8.02283851 C11.6331739,8.02283851 11.844354,8.10731056 12.0132981,8.27625466 C12.1822422,8.44519876 12.2667143,8.65637888 12.2667143,8.90979503 C12.2667143,9.16321118 12.1822422,9.3743913 12.0132981,9.5433354 Z" id="Path" fill="#4D4D4D"></path>
                        <circle id="Oval" stroke="#000000" fill="#F9BF64" cx="24.4194705" cy="4.9640264" r="1.59375"></circle>
                        <circle id="Oval" stroke="#000000" fill="#7CB342" cx="24.4194705" cy="13.0865419" r="1.59375"></circle>
                        <circle id="Oval" stroke="#000000" fill="#2BA5F7" cx="20.3582127" cy="9.02528416" r="1.59375"></circle>
                        <circle id="Oval" stroke="#000000" fill="#FC3D4B" cx="28.4807283" cy="9.02528416" r="1.59375"></circle>
                    </g>
                    <path d="M17.7356071,15.0102299 L20.2940726,11.4628817 C20.9402052,10.5670099 20.7377516,9.31696824 19.8418797,8.67083563 C19.5012524,8.42516386 19.0919312,8.29295516 18.6719531,8.29295516 L17.1427377,8.29295516 C16.0381682,8.29295516 15.1427377,7.39752466 15.1427377,6.29295516 C15.1427377,5.8894091 15.2648136,5.49530217 15.4929262,5.16241469 L18.5637054,0.681188857 L18.5637054,0.681188857" id="Path-3" stroke="#333333" fill-rule="nonzero"></path>
                </g>
            </g>
        </g>
    </g>
</svg>