<?xml version="1.0" encoding="UTF-8"?>
<svg width="128px" height="128px" viewBox="0 0 128 128" version="1.1" xmlns="http://www.w3.org/2000/svg" xmlns:xlink="http://www.w3.org/1999/xlink">
    <!-- Generator: Sketch 52.5 (67469) - http://www.bohemiancoding.com/sketch -->
    <title>grass-and-trees-comp</title>
    <desc>Created with Sketch.</desc>
    <defs>
        <linearGradient x1="50.0000055%" y1="100%" x2="50.0000055%" y2="1.8680436e-05%" id="linearGradient-1">
            <stop stop-color="#E6D6C6" offset="0%"></stop>
            <stop stop-color="#93E8FD" offset="100%"></stop>
        </linearGradient>
        <circle id="path-2" cx="64" cy="64" r="64"></circle>
        <polygon id="path-4" points="0.271203429 0.576618932 3.69065486 0.576618932 3.69065486 23.4466019 0.271203429 23.4466019"></polygon>
        <polygon id="path-6" points="0.272091611 0.579824852 3.70274163 0.579824852 3.70274163 23.5769617 0.272091611 23.5769617"></polygon>
    </defs>
    <g id="Page-1" stroke="none" stroke-width="1" fill="none" fill-rule="evenodd">
        <g id="Instincts-2017" transform="translate(-567.000000, -4260.000000)">
            <g id="Group-70" transform="translate(110.000000, 4215.000000)">
                <g id="grass-and-trees-comp" transform="translate(457.000000, 45.000000)">
                    <g id="Fill-5">
                        <mask id="mask-3" fill="white">
                            <use xlink:href="#path-2"></use>
                        </mask>
                        <use id="Mask" fill="url(#linearGradient-1)" xlink:href="#path-2"></use>
                        <polygon fill="#8EF757" mask="url(#mask-3)" points="0 131 131 131 131 74 0 74"></polygon>
                    </g>
                    <g id="Group-19" transform="translate(15.000000, 33.000000)">
                        <g id="Group-36" transform="translate(52.000000, 5.000000)">
                            <path d="M40.4222289,4.61964739 C39.7519264,2.27908871 37.644333,0.669902913 35.2499313,0.669902913 C32.8555296,0.669902913 30.7487486,2.27908871 30.0784462,4.61964739 L25.1612697,21.7837443 C24.3414695,24.6455303 25.1320202,27.7348361 27.2176765,29.826364 C28.7061542,31.3188941 30.7113742,32.1553398 32.8002804,32.1553398 L37.6995821,32.1553398 C39.7884884,32.1553398 41.7937084,31.3188941 43.2829986,29.826364 C45.3686549,27.7348361 46.1583931,24.6455303 45.3385929,21.7837443 L40.4222289,4.61964739 Z" id="Fill-1" fill="#6C9C40"></path>
                            <g id="Group-5" transform="translate(24.171429, 0.000000)" fill="#1C1A1A">
                                <path d="M11.2279883,1.08968042 C9.07394949,1.08968042 7.14901173,2.56544386 6.5456852,4.6795104 L1.61308316,21.967025 C0.843434184,24.6618973 1.58128622,27.5609267 3.53883622,29.5308334 C4.94279337,30.9424332 6.80006071,31.7207297 8.76984031,31.7207297 L13.6869515,31.7207297 C15.6567311,31.7207297 17.5139985,30.9424332 18.9171403,29.5308334 C20.8746903,27.5609267 21.6133577,24.6618973 20.8437087,21.967025 L15.9102913,4.6795104 C15.3077801,2.56544386 13.382027,1.08968042 11.2279883,1.08968042 M13.6869515,32.8023451 L8.76984031,32.8023451 C6.52041071,32.8023451 4.39979949,31.9132206 2.79690765,30.3016302 C0.561338265,28.0509035 -0.280872959,24.7418935 0.597211735,21.663706 L5.53062908,4.37619143 C6.26440459,1.80464655 8.60759439,0.00889827137 11.2279883,0.00889827137 C13.8491974,0.00889827137 16.1923872,1.80464655 16.9261628,4.37619143 L21.8595801,21.663706 C22.7376648,24.7418935 21.8946383,28.0509035 19.6598842,30.3007969 C18.0569923,31.9132206 15.9355658,32.8023451 13.6869515,32.8023451" id="Fill-3"></path>
                            </g>
                            <path d="M35.5857143,22.776699 C36.3268839,22.776699 36.9285714,23.3197285 36.9285714,23.9904812 L36.9285714,42.998986 C36.9285714,43.6689147 36.3268839,44.2135922 35.5857143,44.2135922 C34.843633,44.2135922 34.2428571,43.6689147 34.2428571,42.998986 L34.2428571,23.9904812 C34.2428571,23.3197285 34.843633,22.776699 35.5857143,22.776699" id="Fill-6" fill="#E06A1B"></path>
                            <path d="M35.25,23.1884225 C34.8908711,23.1884225 34.598189,23.496982 34.598189,23.8755929 L34.598189,43.1138644 C34.598189,43.4933092 34.8908711,43.8010349 35.25,43.8010349 C35.6099199,43.8010349 35.902602,43.4933092 35.902602,43.1138644 L35.902602,23.8755929 C35.902602,23.496982 35.6099199,23.1884225 35.25,23.1884225 M35.25,44.8834951 C34.3252828,44.8834951 33.5714286,44.0887458 33.5714286,43.1138644 L33.5714286,23.8755929 C33.5714286,22.9007115 34.3252828,22.1067961 35.25,22.1067961 C36.1755083,22.1067961 36.9285714,22.9007115 36.9285714,23.8755929 L36.9285714,43.1138644 C36.9285714,44.0887458 36.1755083,44.8834951 35.25,44.8834951" id="Fill-8" fill="#1C1A1A"></path>
                            <path d="M35.5857143,17.4174757 C36.3268839,17.4174757 36.9285714,17.9094211 36.9285714,18.5161538 L36.9285714,18.9991547 C36.9285714,19.6058874 36.3268839,20.0970874 35.5857143,20.0970874 C34.843633,20.0970874 34.2428571,19.6058874 34.2428571,18.9991547 L34.2428571,18.5161538 C34.2428571,17.9094211 34.843633,17.4174757 35.5857143,17.4174757" id="Fill-10" fill="#E06A1B"></path>
                            <path d="M35.25,17.8132279 C34.8908711,17.8132279 34.598189,18.1172312 34.598189,18.4910732 L34.598189,19.0243115 C34.598189,19.3973319 34.8908711,19.7013352 35.25,19.7013352 C35.6099199,19.7013352 35.902602,19.3973319 35.902602,19.0243115 L35.902602,18.4910732 C35.902602,18.1172312 35.6099199,17.8132279 35.25,17.8132279 M35.25,20.7669903 C34.3252828,20.7669903 33.5714286,19.9856195 33.5714286,19.0243115 L33.5714286,18.4910732 C33.5714286,17.5297653 34.3252828,16.7475728 35.25,16.7475728 C36.1755083,16.7475728 36.9285714,17.5297653 36.9285714,18.4910732 L36.9285714,19.0243115 C36.9285714,19.9856195 36.1755083,20.7669903 35.25,20.7669903" id="Fill-12" fill="#1C1A1A"></path>
                            <path d="M35.5857143,12.7281553 C36.3268839,12.7281553 36.9285714,13.2199639 36.9285714,13.8265279 L36.9285714,14.3093945 C36.9285714,14.9159584 36.3268839,15.407767 35.5857143,15.407767 C34.843633,15.407767 34.2428571,14.9159584 34.2428571,14.3093945 L34.2428571,13.8265279 C34.2428571,13.2199639 34.843633,12.7281553 35.5857143,12.7281553" id="Fill-14" fill="#E06A1B"></path>
                            <path d="M35.25,13.7944141 C34.8908711,13.7944141 34.598189,14.0975338 34.598189,14.4712994 L34.598189,15.0044288 C34.598189,15.3773729 34.8908711,15.6813141 35.25,15.6813141 C35.6099199,15.6813141 35.902602,15.3773729 35.902602,15.0044288 L35.902602,14.4712994 C35.902602,14.0975338 35.6099199,13.7944141 35.25,13.7944141 M35.25,16.7475728 C34.3252828,16.7475728 33.5714286,15.9655402 33.5714286,15.0044288 L33.5714286,14.4712994 C33.5714286,13.5101879 34.3252828,12.7281553 35.25,12.7281553 C36.1755083,12.7281553 36.9285714,13.5101879 36.9285714,14.4712994 L36.9285714,15.0044288 C36.9285714,15.9655402 36.1755083,16.7475728 35.25,16.7475728" id="Fill-16" fill="#1C1A1A"></path>
                            <path d="M16.2506305,28.736256 C15.5803063,26.3956359 13.473457,24.7864078 11.0781652,24.7864078 C8.68368583,24.7864078 6.57683652,26.3956359 5.90651231,28.736256 L0.989988902,45.900804 C0.170162077,48.7626652 0.959925876,51.8512248 3.04564982,53.943635 C4.53417583,55.4362044 6.53946087,56.2718447 8.62843487,56.2718447 L13.528708,56.2718447 C15.617682,56.2718447 17.6221545,55.4362044 19.111493,53.943635 C21.197217,51.8512248 21.9869808,48.7626652 21.167154,45.900804 L16.2506305,28.736256 Z" id="Fill-18" fill="#6C9C40"></path>
                            <g id="Group-22" transform="translate(0.000000, 24.116505)" fill="#1C1A1A">
                                <path d="M11.0445971,1.16948133 C8.87647968,1.16948133 6.93896063,2.62281896 6.33169079,4.70475998 L1.36602889,21.7295721 C0.592170159,24.383493 1.33484476,27.2376478 3.30518921,29.1784403 C4.71832254,30.5685893 6.58772889,31.3350588 8.56956222,31.3350588 L13.5188114,31.3350588 C15.5014654,31.3350588 17.3716924,30.5685893 18.7840051,29.1776197 C20.7543495,27.2376478 21.4970241,24.383493 20.7231654,21.7295721 L15.7575035,4.70475998 C15.1502337,2.62281896 13.2127146,1.16948133 11.0445971,1.16948133 M13.5188114,32.3994173 L8.56956222,32.3994173 C6.30625111,32.3994173 4.17177968,31.5246245 2.55841143,29.9367034 C0.308230476,27.7209995 -0.539485397,24.4622736 0.343517778,21.4308624 L5.30917968,4.40605027 C6.04857175,1.87358279 8.40625587,0.10512284 11.0445971,0.10512284 C13.6829384,0.10512284 16.0406225,1.87358279 16.7800146,4.40605027 L21.7456765,21.4308624 C22.6295003,24.4622736 21.7809638,27.7209995 19.5316035,29.9367034 C17.9182352,31.5246245 15.7829432,32.3994173 13.5188114,32.3994173" id="Fill-20"></path>
                            </g>
                            <path d="M11.4142857,46.8932039 C12.1554553,46.8932039 12.7571429,47.4362543 12.7571429,48.1070327 L12.7571429,67.1162682 C12.7571429,67.7862227 12.1554553,68.3300971 11.4142857,68.3300971 C10.6731161,68.3300971 10.0714286,67.7862227 10.0714286,67.1162682 L10.0714286,48.1070327 C10.0714286,47.4362543 10.6731161,46.8932039 11.4142857,46.8932039" id="Fill-23" fill="#E06A1B"></path>
                            <g id="Group-27" transform="translate(9.400000, 45.553398)">
                                <mask id="mask-5" fill="white">
                                    <use xlink:href="#path-4"></use>
                                </mask>
                                <g id="Clip-26"></g>
                                <path d="M1.98092914,1.66269903 C1.61432914,1.66269903 1.31702057,1.97252913 1.31702057,2.35269903 L1.31702057,21.6701869 C1.31702057,22.0503568 1.61432914,22.3601869 1.98092914,22.3601869 C2.34752914,22.3601869 2.64483771,22.0503568 2.64483771,21.6701869 L2.64483771,2.35269903 C2.64483771,1.97252913 2.34752914,1.66269903 1.98092914,1.66269903 M1.98092914,23.4471044 C1.03824343,23.4471044 0.271203429,22.6490825 0.271203429,21.6701869 L0.271203429,2.35269903 C0.271203429,1.37296602 1.03824343,0.576618932 1.98092914,0.576618932 C2.92361486,0.576618932 3.69065486,1.37296602 3.69065486,2.35269903 L3.69065486,21.6701869 C3.69065486,22.6490825 2.92361486,23.4471044 1.98092914,23.4471044" id="Fill-25" fill="#1C1A1A" mask="url(#mask-5)"></path>
                            </g>
                            <path d="M11.4142857,41.5339806 C12.1554553,41.5339806 12.7571429,42.0251806 12.7571429,42.6319133 L12.7571429,43.1156596 C12.7571429,43.7223922 12.1554553,44.2135922 11.4142857,44.2135922 C10.6731161,44.2135922 10.0714286,43.7223922 10.0714286,43.1156596 L10.0714286,42.6319133 C10.0714286,42.0251806 10.6731161,41.5339806 11.4142857,41.5339806" id="Fill-28" fill="#E06A1B"></path>
                            <path d="M11.0785714,42.5996356 C10.7186515,42.5996356 10.4267605,42.903639 10.4267605,43.2766593 L10.4267605,43.8107193 C10.4267605,44.1837397 10.7186515,44.487743 11.0785714,44.487743 C11.4384913,44.487743 11.7303824,44.1837397 11.7303824,43.8107193 L11.7303824,43.2766593 C11.7303824,42.903639 11.4384913,42.5996356 11.0785714,42.5996356 M11.0785714,45.5533981 C10.1530631,45.5533981 9.4,44.7712056 9.4,43.8107193 L9.4,43.2766593 C9.4,42.3153514 10.1530631,41.5339806 11.0785714,41.5339806 C12.0040797,41.5339806 12.7571429,42.3153514 12.7571429,43.2766593 L12.7571429,43.8107193 C12.7571429,44.7712056 12.0040797,45.5533981 11.0785714,45.5533981" id="Fill-30" fill="#1C1A1A"></path>
                            <path d="M11.4142857,37.5145631 C12.1554553,37.5145631 12.7571429,38.0065085 12.7571429,38.6132412 L12.7571429,39.0962421 C12.7571429,39.7029747 12.1554553,40.1941748 11.4142857,40.1941748 C10.6731161,40.1941748 10.0714286,39.7029747 10.0714286,39.0962421 L10.0714286,38.6132412 C10.0714286,38.0065085 10.6731161,37.5145631 11.4142857,37.5145631" id="Fill-32" fill="#E06A1B"></path>
                            <path d="M11.0785714,37.9103152 C10.7186515,37.9103152 10.4267605,38.2143186 10.4267605,38.5873389 L10.4267605,39.1213989 C10.4267605,39.4944193 10.7186515,39.7984226 11.0785714,39.7984226 C11.4384913,39.7984226 11.7303824,39.4944193 11.7303824,39.1213989 L11.7303824,38.5873389 C11.7303824,38.2143186 11.4384913,37.9103152 11.0785714,37.9103152 M11.0785714,40.8640777 C10.1530631,40.8640777 9.4,40.0827069 9.4,39.1213989 L9.4,38.5873389 C9.4,37.6268526 10.1530631,36.8446602 11.0785714,36.8446602 C12.0040797,36.8446602 12.7571429,37.6268526 12.7571429,38.5873389 L12.7571429,39.1213989 C12.7571429,40.0827069 12.0040797,40.8640777 11.0785714,40.8640777" id="Fill-34" fill="#1C1A1A"></path>
                        </g>
                        <g id="Group-36-Copy">
                            <path d="M40.952889,4.85954588 C40.2803913,2.50597403 38.1658955,0.887841385 35.7636522,0.887841385 C33.361409,0.887841385 31.2477283,2.50597403 30.5752307,4.85954588 L25.6419506,22.1190728 C24.8194656,24.9967699 25.6126053,28.1032518 27.705092,30.2064082 C29.1984445,31.7072367 31.2102315,32.5483329 33.3059789,32.5483329 L38.2213256,32.5483329 C40.317073,32.5483329 42.32886,31.7072367 43.8230276,30.2064082 C45.9155143,28.1032518 46.7078389,24.9967699 45.8853538,22.1190728 L40.952889,4.85954588 Z" id="Fill-1" fill="#6C9C40"></path>
                            <path d="M35.9136273,1.30995279 C33.7525342,1.30995279 31.8212923,2.79392127 31.2159899,4.91974172 L26.2672337,22.3033724 C25.4950642,25.0132279 26.2353327,27.9283755 28.1992936,29.9092346 C29.6078486,31.3286827 31.4711985,32.1113064 33.447429,32.1113064 L38.3806436,32.1113064 C40.3568742,32.1113064 42.220224,31.3286827 43.6279611,29.9092346 C45.591922,27.9283755 46.3330085,25.0132279 45.5608389,22.3033724 L40.6112648,4.91974172 C40.0067804,2.79392127 38.0747205,1.30995279 35.9136273,1.30995279 M38.3806436,33.1989354 L33.447429,33.1989354 C31.1906326,33.1989354 29.0630765,32.3048675 27.4549352,30.6843169 C25.2120444,28.4210765 24.367075,25.0936689 25.2480354,21.998367 L30.1976095,4.61473634 C30.9337881,2.02889404 33.2846518,0.223161651 35.9136273,0.223161651 C38.5434209,0.223161651 40.8942846,2.02889404 41.6304632,4.61473634 L46.5800373,21.998367 C47.4609977,25.0936689 46.6152103,28.4210765 44.3731374,30.683479 C42.7649962,32.3048675 40.636622,33.1989354 38.3806436,33.1989354" id="Fill-3" fill="#1C1A1A"></path>
                            <path d="M36.1005349,23.1175482 C36.8441318,23.1175482 37.4477899,23.6635968 37.4477899,24.3380788 L37.4477899,43.4522682 C37.4477899,44.1259216 36.8441318,44.6736275 36.1005349,44.6736275 C35.3560233,44.6736275 34.7532799,44.1259216 34.7532799,43.4522682 L34.7532799,24.3380788 C34.7532799,23.6635968 35.3560233,23.1175482 36.1005349,23.1175482" id="Fill-6" fill="#E06A1B"></path>
                            <path d="M35.7637212,23.5315607 C35.4034162,23.5315607 35.1097755,23.8418358 35.1097755,24.2225518 L35.1097755,43.5677853 C35.1097755,43.9493398 35.4034162,44.2587763 35.7637212,44.2587763 C36.1248198,44.2587763 36.4184604,43.9493398 36.4184604,43.5677853 L36.4184604,24.2225518 C36.4184604,23.8418358 36.1248198,23.5315607 35.7637212,23.5315607 M35.7637212,45.347255 C34.8359755,45.347255 34.0796525,44.5480869 34.0796525,43.5677853 L34.0796525,24.2225518 C34.0796525,23.2422502 34.8359755,22.4439207 35.7637212,22.4439207 C36.6922605,22.4439207 37.4477899,23.2422502 37.4477899,24.2225518 L37.4477899,43.5677853 C37.4477899,44.5480869 36.6922605,45.347255 35.7637212,45.347255" id="Fill-8" fill="#1C1A1A"></path>
                            <path d="M36.1005349,17.7285283 C36.8441318,17.7285283 37.4477899,18.2232089 37.4477899,18.8333149 L37.4477899,19.3190012 C37.4477899,19.9291072 36.8441318,20.4230383 36.1005349,20.4230383 C35.3560233,20.4230383 34.7532799,19.9291072 34.7532799,19.3190012 L34.7532799,18.8333149 C34.7532799,18.2232089 35.3560233,17.7285283 36.1005349,17.7285283" id="Fill-10" fill="#E06A1B"></path>
                            <path d="M35.7637212,18.1264808 C35.4034162,18.1264808 35.1097755,18.4321744 35.1097755,18.8080949 L35.1097755,19.3442979 C35.1097755,19.7193922 35.4034162,20.0250858 35.7637212,20.0250858 C36.1248198,20.0250858 36.4184604,19.7193922 36.4184604,19.3442979 L36.4184604,18.8080949 C36.4184604,18.4321744 36.1248198,18.1264808 35.7637212,18.1264808 M35.7637212,21.0966657 C34.8359755,21.0966657 34.0796525,20.3109506 34.0796525,19.3442979 L34.0796525,18.8080949 C34.0796525,17.8414422 34.8359755,17.0549009 35.7637212,17.0549009 C36.6922605,17.0549009 37.4477899,17.8414422 37.4477899,18.8080949 L37.4477899,19.3442979 C37.4477899,20.3109506 36.6922605,21.0966657 35.7637212,21.0966657" id="Fill-12" fill="#1C1A1A"></path>
                            <path d="M36.1005349,13.013136 C36.8441318,13.013136 37.4477899,13.507679 37.4477899,14.1176153 L37.4477899,14.6031666 C37.4477899,15.2131029 36.8441318,15.7076459 36.1005349,15.7076459 C35.3560233,15.7076459 34.7532799,15.2131029 34.7532799,14.6031666 L34.7532799,14.1176153 C34.7532799,13.507679 35.3560233,13.013136 36.1005349,13.013136" id="Fill-14" fill="#E06A1B"></path>
                            <path d="M35.7637212,14.085323 C35.4034162,14.085323 35.1097755,14.390128 35.1097755,14.7659717 L35.1097755,15.3020652 C35.1097755,15.6770828 35.4034162,15.9827139 35.7637212,15.9827139 C36.1248198,15.9827139 36.4184604,15.6770828 36.4184604,15.3020652 L36.4184604,14.7659717 C36.4184604,14.390128 36.1248198,14.085323 35.7637212,14.085323 M35.7637212,17.0549009 C34.8359755,17.0549009 34.0796525,16.2685203 34.0796525,15.3020652 L34.0796525,14.7659717 C34.0796525,13.7995166 34.8359755,13.013136 35.7637212,13.013136 C36.6922605,13.013136 37.4477899,13.7995166 37.4477899,14.7659717 L37.4477899,15.3020652 C37.4477899,16.2685203 36.6922605,17.0549009 35.7637212,17.0549009" id="Fill-16" fill="#1C1A1A"></path>
                            <path d="M16.7021294,29.1102395 C16.0296099,26.7566058 13.9158607,25.1384306 11.5127244,25.1384306 C9.11040317,25.1384306 6.99665399,26.7566058 6.32413449,29.1102395 L1.39150963,46.3702199 C0.568997899,49.2479926 1.36134815,52.3537242 3.45390277,54.4577679 C4.94730366,55.9586358 6.95915594,56.7989221 9.05497126,56.7989221 L13.9712926,56.7989221 C16.0671079,56.7989221 18.078145,55.9586358 19.5723611,54.4577679 C21.6649157,52.3537242 22.457266,49.2479926 21.6347542,46.3702199 L16.7021294,29.1102395 Z" id="Fill-18" fill="#6C9C40"></path>
                            <g id="Group-22" transform="translate(0.398279, 24.464803)" fill="#1C1A1A">
                                <path d="M11.0807678,1.17598349 C8.90554987,1.17598349 6.96168551,2.63740146 6.35242688,4.73091778 L1.37050259,21.8503855 C0.594109497,24.5190618 1.33921634,27.3890853 3.31601359,29.3406683 C4.73377489,30.7385464 6.60930349,31.5092773 8.59762726,31.5092773 L13.5630851,31.5092773 C15.5522322,31.5092773 17.4285841,30.7385464 18.8455221,29.3398431 C20.8223193,27.3890853 21.5674262,24.5190618 20.7910331,21.8503855 L15.8091088,4.73091778 C15.1998502,2.63740146 13.2559858,1.17598349 11.0807678,1.17598349 M13.5630851,32.5795534 L8.59762726,32.5795534 C6.32690388,32.5795534 4.18544213,31.699897 2.56679014,30.1031473 C0.309239921,27.8751244 -0.541252194,24.5982804 0.344642787,21.550015 L5.32656707,4.43054729 C6.06838062,1.88399965 8.43378609,0.105707308 11.0807678,0.105707308 C13.7277496,0.105707308 16.0931551,1.88399965 16.8349686,4.43054729 L21.8168929,21.550015 C22.7036112,24.5982804 21.8522958,27.8751244 19.5955689,30.1031473 C17.9769169,31.699897 15.8346318,32.5795534 13.5630851,32.5795534" id="Fill-20"></path>
                            </g>
                            <path d="M11.8499457,47.3681374 C12.5935426,47.3681374 13.1972006,47.9142071 13.1972006,48.588715 L13.1972006,67.7036391 C13.1972006,68.3773184 12.5935426,68.9242167 11.8499457,68.9242167 C11.1063487,68.9242167 10.5026907,68.3773184 10.5026907,67.7036391 L10.5026907,48.588715 C10.5026907,47.9142071 11.1063487,47.3681374 11.8499457,47.3681374" id="Fill-23" fill="#E06A1B"></path>
                            <g id="Group-27" transform="translate(9.829063, 46.020882)">
                                <mask id="mask-7" fill="white">
                                    <use xlink:href="#path-6"></use>
                                </mask>
                                <g id="Clip-26"></g>
                                <path d="M1.98741662,1.6719434 C1.61961602,1.6719434 1.32133377,1.98349611 1.32133377,2.3657797 L1.32133377,21.7906701 C1.32133377,22.1729537 1.61961602,22.4845064 1.98741662,22.4845064 C2.35521723,22.4845064 2.65349947,22.1729537 2.65349947,21.7906701 L2.65349947,2.3657797 C2.65349947,1.98349611 2.35521723,1.6719434 1.98741662,1.6719434 M1.98741662,23.577467 C1.04164364,23.577467 0.272091611,22.7750082 0.272091611,21.7906701 L0.272091611,2.3657797 C0.272091611,1.38059952 1.04164364,0.579824852 1.98741662,0.579824852 C2.9331896,0.579824852 3.70274163,1.38059952 3.70274163,2.3657797 L3.70274163,21.7906701 C3.70274163,22.7750082 2.9331896,23.577467 1.98741662,23.577467" id="Fill-25" fill="#1C1A1A" mask="url(#mask-7)"></path>
                            </g>
                            <path d="M11.8499457,41.9791176 C12.5935426,41.9791176 13.1972006,42.4730486 13.1972006,43.0831546 L13.1972006,43.5695905 C13.1972006,44.1796965 12.5935426,44.6736275 11.8499457,44.6736275 C11.1063487,44.6736275 10.5026907,44.1796965 10.5026907,43.5695905 L10.5026907,43.0831546 C10.5026907,42.4730486 11.1063487,41.9791176 11.8499457,41.9791176" id="Fill-28" fill="#E06A1B"></path>
                            <path d="M11.5131319,43.0506975 C11.1520333,43.0506975 10.8591863,43.3563911 10.8591863,43.7314854 L10.8591863,44.2685146 C10.8591863,44.6436089 11.1520333,44.9493025 11.5131319,44.9493025 C11.8742306,44.9493025 12.1670776,44.6436089 12.1670776,44.2685146 L12.1670776,43.7314854 C12.1670776,43.3563911 11.8742306,43.0506975 11.5131319,43.0506975 M11.5131319,46.0208824 C10.5845926,46.0208824 9.82906324,45.2343411 9.82906324,44.2685146 L9.82906324,43.7314854 C9.82906324,42.7648327 10.5845926,41.9791176 11.5131319,41.9791176 C12.4416712,41.9791176 13.1972006,42.7648327 13.1972006,43.7314854 L13.1972006,44.2685146 C13.1972006,45.2343411 12.4416712,46.0208824 11.5131319,46.0208824" id="Fill-30" fill="#1C1A1A"></path>
                            <path d="M11.8499457,37.9373527 C12.5935426,37.9373527 13.1972006,38.4320332 13.1972006,39.0421392 L13.1972006,39.5278256 C13.1972006,40.1379316 12.5935426,40.6318626 11.8499457,40.6318626 C11.1063487,40.6318626 10.5026907,40.1379316 10.5026907,39.5278256 L10.5026907,39.0421392 C10.5026907,38.4320332 11.1063487,37.9373527 11.8499457,37.9373527" id="Fill-32" fill="#E06A1B"></path>
                            <path d="M11.5131319,38.3353052 C11.1520333,38.3353052 10.8591863,38.6409987 10.8591863,39.016093 L10.8591863,39.5531223 C10.8591863,39.9282166 11.1520333,40.2339102 11.5131319,40.2339102 C11.8742306,40.2339102 12.1670776,39.9282166 12.1670776,39.5531223 L12.1670776,39.016093 C12.1670776,38.6409987 11.8742306,38.3353052 11.5131319,38.3353052 M11.5131319,41.3054901 C10.5845926,41.3054901 9.82906324,40.519775 9.82906324,39.5531223 L9.82906324,39.016093 C9.82906324,38.0502665 10.5845926,37.2637252 11.5131319,37.2637252 C12.4416712,37.2637252 13.1972006,38.0502665 13.1972006,39.016093 L13.1972006,39.5531223 C13.1972006,40.519775 12.4416712,41.3054901 11.5131319,41.3054901" id="Fill-34" fill="#1C1A1A"></path>
                        </g>
                    </g>
                </g>
            </g>
        </g>
    </g>
</svg>