<?xml version="1.0" encoding="UTF-8"?>
<svg width="128px" height="128px" viewBox="0 0 128 128" version="1.1" xmlns="http://www.w3.org/2000/svg" xmlns:xlink="http://www.w3.org/1999/xlink">
    <!-- Generator: Sketch 52.5 (67469) - http://www.bohemiancoding.com/sketch -->
    <title>lamp-comp</title>
    <desc>Created with Sketch.</desc>
    <defs>
        <linearGradient x1="50.0000055%" y1="100%" x2="50.0000055%" y2="1.8680436e-05%" id="linearGradient-1">
            <stop stop-color="#E6D6C6" offset="0%"></stop>
            <stop stop-color="#93E8FD" offset="100%"></stop>
        </linearGradient>
        <circle id="path-2" cx="64" cy="64" r="64"></circle>
        <polygon id="path-4" points="0 0.110333333 16.1925 0.110333333 16.1925 4.9995 0 4.9995"></polygon>
    </defs>
    <g id="Page-1" stroke="none" stroke-width="1" fill="none" fill-rule="evenodd">
        <g id="Instincts-2017" transform="translate(-871.000000, -4260.000000)">
            <g id="Group-70" transform="translate(110.000000, 4215.000000)">
                <g id="lamp-comp" transform="translate(761.000000, 45.000000)">
                    <g id="Fill-5">
                        <mask id="mask-3" fill="white">
                            <use xlink:href="#path-2"></use>
                        </mask>
                        <use id="Mask" fill="url(#linearGradient-1)" xlink:href="#path-2"></use>
                        <polygon fill="#8EF757" mask="url(#mask-3)" points="-3 131 128 131 128 74 -3 74"></polygon>
                        <g id="Group-26" mask="url(#mask-3)">
                            <g transform="translate(58.000000, 19.000000)">
                                <path d="M14.2319546,85 L2.76723439,85 C1.79075426,85 1,85.8958238 1,87 C1,88.1050941 1.79075426,89 2.76723439,89 L14.2319546,89 C15.2084347,89 16,88.1050941 16,87 C16,85.8958238 15.2084347,85 14.2319546,85" id="Fill-1" fill="#529DF7"></path>
                                <g id="Group-5" stroke-width="1" fill="none" transform="translate(0.000000, 85.000000)">
                                    <mask id="mask-5" fill="white">
                                        <use xlink:href="#path-4"></use>
                                    </mask>
                                    <g id="Clip-4"></g>
                                    <path d="M2.3747381,1.36783333 C1.73845238,1.36783333 1.22116667,1.90116667 1.22116667,2.55533333 C1.22116667,3.21033333 1.73845238,3.74283333 2.3747381,3.74283333 L13.8181667,3.74283333 C14.4544524,3.74283333 14.9717381,3.21033333 14.9717381,2.55533333 C14.9717381,1.90116667 14.4544524,1.36783333 13.8181667,1.36783333 L2.3747381,1.36783333 Z M13.8181667,4.9995 L2.3747381,4.9995 C1.06492857,4.9995 -0.000404761905,3.90366667 -0.000404761905,2.55533333 C-0.000404761905,1.20783333 1.06492857,0.110333333 2.3747381,0.110333333 L13.8181667,0.110333333 C15.1279762,0.110333333 16.1925,1.20783333 16.1925,2.55533333 C16.1925,3.90366667 15.1279762,4.9995 13.8181667,4.9995 Z" id="Fill-3" fill="#32383D" mask="url(#mask-5)"></path>
                                </g>
                                <path d="M15,7.5 C15,11.0895781 12.0895781,14 8.5,14 C4.91042194,14 2,11.0895781 2,7.5 C2,3.91042194 4.91042194,1 8.5,1 C12.0895781,1 15,3.91042194 15,7.5" id="Fill-6" fill="#F9BF64"></path>
                                <path d="M7.99957666,1.36809 C4.84481403,1.36809 2.27765346,4.11878553 2.27765346,7.5 C2.27765346,10.8803072 4.84481403,13.63191 7.99957666,13.63191 C11.1560327,13.63191 13.7231932,10.8803072 13.7231932,7.5 C13.7231932,4.11878553 11.1560327,1.36809 7.99957666,1.36809 M7.99957666,15 C4.14036891,15 1,11.6351155 1,7.5 C1,3.36397726 4.14036891,0 7.99957666,0 C11.8604778,0 15,3.36397726 15,7.5 C15,11.6351155 11.8604778,15 7.99957666,15" id="Fill-8" fill="#32383D"></path>
                                <path d="M8.74709496,19 L8.25371919,19 C5.35208349,19 3,16.4860196 3,13.3866037 C3,12.621101 3.58130412,12 4.29775738,12 L12.7022426,12 C13.41951,12 14,12.621101 14,13.3866037 C14,16.4860196 11.6479165,19 8.74709496,19" id="Fill-10" fill="#FC3D4B"></path>
                                <path d="M3.8760237,13.2634223 C3.50609228,13.2634223 3.20567281,13.5782313 3.20567281,13.9658817 C3.20567281,16.5957091 5.24788601,18.7365777 7.75830615,18.7365777 L8.24249284,18.7365777 C10.752114,18.7365777 12.7951262,16.5957091 12.7951262,13.9658817 C12.7951262,13.5782313 12.4939077,13.2634223 12.1239763,13.2634223 L3.8760237,13.2634223 Z M8.24249284,20 L7.75830615,20 C4.58312804,20 2,17.2923077 2,13.9658817 C2,12.8816327 2.84133431,12 3.8760237,12 L12.1239763,12 C13.1586657,12 14,12.8816327 14,13.9658817 C14,17.2923077 11.416872,20 8.24249284,20 Z" id="Fill-12" fill="#32383D"></path>
                                <path d="M8.50040708,75 C11.5371919,75 14,77.5483797 14,80.6934038 L14,86 L3,86 L3,80.6934038 C3,77.5483797 5.46280808,75 8.50040708,75" id="Fill-14" fill="#FC3D4B"></path>
                                <path d="M3.20567281,84.7564041 L12.7951262,84.7564041 L12.7951262,78.9455395 C12.7951262,76.9041961 11.1843665,75.2427718 9.20527332,75.2427718 L6.79392769,75.2427718 C4.81563353,75.2427718 3.20567281,76.9041961 3.20567281,78.9455395 L3.20567281,84.7564041 Z M13.3975631,86 L2.60243691,86 C2.27005793,86 2,85.7214477 2,85.3786141 L2,78.9455395 C2,76.2185289 4.15087556,74 6.79392769,74 L9.20527332,74 C11.8491244,74 14,76.2185289 14,78.9455395 L14,85.3786141 C14,85.7214477 13.7299421,86 13.3975631,86 Z" id="Fill-16" fill="#32383D"></path>
                                <path d="M7.99933731,75 C7.44797879,75 7,74.7246692 7,74.3858004 L7,18.6150141 C7,18.2753308 7.44797879,18 7.99933731,18 C8.55202121,18 9,18.2753308 9,18.6150141 L9,74.3858004 C9,74.7246692 8.55202121,75 7.99933731,75" id="Fill-18" fill="#32383D"></path>
                                <path d="M10,7.67528672 C10,6.61659564 8.82948881,5.78795096 7.51266372,6.04824569 C6.81624756,6.18595513 6.2471435,6.650824 6.06852653,7.23111407 C5.90796128,7.75249953 6.04002382,8.2460247 6.35545379,8.62492466 C6.73073944,9.07785341 6.92550794,9.61595504 6.92550794,10.1667928 L6.92550794,12 L9.07461209,12 L9.07461209,10.1691808 C9.07461209,9.59525882 9.32068547,9.05317715 9.68932049,8.57000009 C9.88598917,8.31129738 10,8.00483417 10,7.67528672" id="Fill-20" fill="#FFFFFF"></path>
                                <path d="M7.77060295,10.8323322 L8.43053337,10.8323322 L8.43053337,9.63603375 C8.43053337,9.01080143 8.65517194,8.3824739 9.09920459,7.76730101 C9.21807948,7.60170731 9.28188732,7.40980432 9.28188732,7.21171091 C9.28188732,6.89058292 9.11756027,6.59189521 8.83261018,6.39148039 C8.5432897,6.18874417 8.17705016,6.12064956 7.80381799,6.1980298 C7.40261526,6.28237426 7.06347221,6.57487156 6.96120485,6.92617783 C6.8711746,7.23802019 6.92973796,7.54986255 7.12902821,7.80289592 C7.54858662,8.33681956 7.77060295,8.97056371 7.77060295,9.63371234 L7.77060295,10.8323322 Z M9.08958971,12 L7.11154661,12 C6.74705524,12 6.45161619,11.7384548 6.45161619,11.416553 L6.45161619,9.63371234 C6.45161619,9.20966864 6.31176338,8.8072914 6.04604306,8.46913977 C5.62561056,7.93366852 5.49624672,7.28212692 5.68417393,6.63522814 C5.90968657,5.86297337 6.62293587,5.24547908 7.50051222,5.06208791 C8.26358409,4.90268462 9.04763387,5.05357609 9.65074909,5.47607218 C10.2538643,5.89934208 10.6,6.53076482 10.6,7.21171091 C10.6,7.6318856 10.4653917,8.04122705 10.2110344,8.39562854 C9.90335822,8.81967224 9.74864605,9.23675172 9.74864605,9.63603375 L9.74864605,11.416553 C9.74864605,11.7384548 9.453207,12 9.08958971,12 Z" id="Fill-22" fill="#32383D"></path>
                                <path d="M13.3975631,79 L2.60243691,79 C2.27005793,79 2,78.7760106 2,78.5003313 C2,78.2239894 2.27005793,78 2.60243691,78 L13.3975631,78 C13.7299421,78 14,78.2239894 14,78.5003313 C14,78.7760106 13.7299421,79 13.3975631,79" id="Fill-24" fill="#32383D"></path>
                            </g>
                        </g>
                    </g>
                </g>
            </g>
        </g>
    </g>
</svg>