<?xml version="1.0" encoding="UTF-8"?>
<svg width="64px" height="64px" viewBox="0 0 64 64" version="1.1" xmlns="http://www.w3.org/2000/svg" xmlns:xlink="http://www.w3.org/1999/xlink">
    <!-- Generator: Sketch 61.2 (89653) - https://sketch.com -->
    <title>LOP</title>
    <desc>Created with Sketch.</desc>
    <g id="Page-1" stroke="none" stroke-width="1" fill="none" fill-rule="evenodd">
        <g id="Instincts-2017" transform="translate(-464.000000, -5433.000000)">
            <g id="LOP" transform="translate(464.000000, 5433.000000)">
                <circle id="Oval-Copy-3" fill="#E6E6E6" fill-rule="nonzero" cx="32" cy="32" r="32"></circle>
                <g id="download-(8)" transform="translate(16.000000, 17.000000)">
                    <path d="M31.434875,21.2079375 C28.678875,21.2079375 26.4445625,24.641625 26.4445625,28.877375 L23.651625,28.877375 L23.651625,26.5548125 L8.348875,26.5548125 L8.348875,28.877375 L5.5551875,28.877375 C5.5551875,24.641625 3.321625,21.2079375 0.565625,21.2079375 C5.12175,21.2079375 8.9489375,16.4105625 10.0246875,9.923125 C10.2229375,8.7335625 10.32775,7.4875 10.32775,6.20375 L10.3209375,6.131375 C11.2368125,6.0446875 12.133875,5.716 12.912625,5.145375 C13.8315625,5.8185625 14.9155625,6.1555 15.9995625,6.1555 C17.0835625,6.1555 18.1668125,5.8185625 19.08575,5.146125 L19.0865,5.146125 C19.8659375,5.71675 20.76375,6.0454375 21.6789375,6.132125 L21.6729375,6.20375 C21.6729375,7.4875 21.77775,8.733625 21.976,9.923125 C23.0515625,16.4105625 26.87875,21.2079375 31.434875,21.2079375 Z" id="Path" fill="#F9BF64"></path>
                    <rect id="Rectangle" fill="#B27214" x="8.348625" y="26.5549375" width="15.3026875" height="2.3225625"></rect>
                    <g id="Group" transform="translate(0.562500, 0.562500)" fill="#FC3D4B">
                        <path d="M2.420625,28.314875 L0.003125,28.314875 L0.003125,20.6454375 C2.759125,20.6454375 4.9926875,24.079125 4.9926875,28.314875 L2.420625,28.314875 Z" id="Path"></path>
                        <path d="M28.4540625,28.314875 L25.882,28.314875 C25.882,24.079125 28.116375,20.6454375 30.8723125,20.6454375 L30.8723125,28.314875 L28.4540625,28.314875 Z" id="Path"></path>
                        <path d="M30.872375,4.582875 L30.872375,20.6454375 C25.9325625,20.6454375 21.8498125,15.0068125 21.20075,7.687875 C21.1411875,7.01925 21.1103125,6.3355 21.1103125,5.64125 L21.1163125,5.569625 C22.360875,5.68725 23.638625,5.3585625 24.697,4.583625 L24.69775,4.582875 L24.6985,4.583625 C26.5363125,5.9299375 29.03375,5.9299375 30.870875,4.583625 L30.872375,4.582875 Z" id="Path"></path>
                        <path d="M9.7651875,5.64125 C9.7651875,6.33475 9.73425,7.01775 9.67475,7.686375 C9.0264375,15.0060625 4.9429375,20.6454375 0.003125,20.6454375 L0.003125,4.583625 C1.8409375,5.9291875 4.338375,5.9291875 6.17625,4.583625 L6.177,4.582875 C7.0959375,5.2560625 8.1791875,5.593 9.2631875,5.593 C9.42825,5.593 9.594125,5.5854375 9.7584375,5.568875 L9.7651875,5.64125 Z" id="Path"></path>
                        <path d="M24.69775,4.582875 L24.697,4.583625 C23.638625,5.3585625 22.360875,5.68725 21.1163125,5.569625 C20.2011875,5.4829375 19.303375,5.15425 18.523875,4.583625 L18.523125,4.583625 C17.6041875,5.2560625 16.5209375,5.593 15.4369375,5.593 C14.3529375,5.593 13.2689375,5.2560625 12.35,4.582875 C11.5713125,5.1535 10.67425,5.4821875 9.7583125,5.568875 C9.594,5.5854375 9.428125,5.593 9.2630625,5.593 C8.1790625,5.593 7.0958125,5.2560625 6.176875,4.582875 L6.176125,4.583625 C4.3383125,5.9291875 1.840875,5.9291875 0.003,4.583625 L0.003,4.582875 L0.003,0.060625 L30.87225,0.060625 L30.87225,4.5828125 L30.87075,4.5835625 C29.0336875,5.929875 26.53625,5.929875 24.698375,4.5835625 L24.69775,4.582875 Z" id="Path"></path>
                    </g>
                    <path d="M31.434625,0.0575625 L0.565375,0.0575625 C0.253125,0.0575625 0,0.3106875 0,0.6229375 L0,28.8770625 C0,29.1893125 0.253125,29.4424375 0.565375,29.4424375 L31.434625,29.4424375 C31.746875,29.4424375 32,29.1893125 32,28.8770625 L32,0.6229375 C32,0.3106875 31.746875,0.0575625 31.434625,0.0575625 Z M23.651375,25.98925 L8.348625,25.98925 C8.036375,25.98925 7.78325,26.242375 7.78325,26.554625 L7.78325,28.31175 L6.1065625,28.31175 C6.0188125,26.36675 5.48125,24.549625 4.567875,23.1456875 C4.080375,22.3964375 3.512875,21.8034375 2.8918125,21.383 C4.800125,20.7300625 6.543,19.2721875 7.94225,17.1215625 C9.779875,14.29725 10.8199375,10.584375 10.8890625,6.6260625 C11.5945,6.493375 12.2814375,6.22825 12.9125,5.8291875 C13.8586875,6.4275625 14.929875,6.7265 16.0009375,6.726375 C17.072,6.72625 18.1426875,6.42725 19.0865625,5.8291875 C19.7180625,6.2286875 20.4055625,6.493875 21.111375,6.6265625 C21.1805625,10.5845625 22.220625,14.2973125 24.0581875,17.1214375 C25.4575,19.272125 27.2003125,20.73 29.108625,21.382875 C28.4875,21.8033125 27.92,22.3963125 27.4325625,23.1455625 C26.519125,24.5495 25.981625,26.366625 25.893875,28.31175 L24.216875,28.31175 L24.216875,26.5545 C24.21675,26.242375 23.9635625,25.98925 23.651375,25.98925 Z M1.13075,6.1434375 C2.2605625,6.69325 3.5216875,6.8540625 4.7280625,6.6244375 C4.6859375,11.3953125 3.9293125,15.78525 2.6855625,18.4319375 C2.5528125,18.7145625 2.67425,19.0513125 2.9568125,19.184125 C3.0345625,19.220625 3.1163125,19.2379375 3.1969375,19.2379375 C3.4091875,19.2379375 3.61275,19.11775 3.709,18.912875 C5.0493125,16.0606875 5.852,11.3445 5.8604375,6.284375 C6.1621875,6.1590625 6.4564375,6.0079375 6.739125,5.8291875 C7.663875,6.4139375 8.7084375,6.711875 9.7555,6.7246875 C9.672,10.428125 8.699375,13.8841875 6.9943125,16.504875 C5.39475,18.9633125 3.330625,20.404 1.13075,20.6151875 L1.13075,6.1434375 L1.13075,6.1434375 Z M25.0056875,16.5048125 C23.3006875,13.88425 22.3280625,10.428375 22.2445,6.725125 C23.2918125,6.71225 24.336125,6.414125 25.260125,5.829375 C25.543125,6.0083125 25.8375625,6.1595625 26.139625,6.285 C26.148125,11.3449375 26.9508125,16.060875 28.2910625,18.913 C28.3873125,19.117875 28.590875,19.2380625 28.803125,19.2380625 C28.883625,19.2380625 28.9655,19.2208125 29.0431875,19.18425 C29.3258125,19.0514375 29.4471875,18.7146875 29.3144375,18.4320625 C28.0706875,15.7854375 27.3140625,11.395625 27.2719375,6.624875 C28.4776875,6.854125 29.7384375,6.6931875 30.8691875,6.143 L30.8691875,20.6153125 C28.6695,20.404 26.6053125,18.9633125 25.0056875,16.5048125 Z M30.86925,1.1883125 L30.86925,4.8475 C29.3284375,5.8429375 27.36375,5.8425 25.8246875,4.8471875 L25.8246875,2.1305625 C25.8246875,1.8183125 25.5715625,1.5651875 25.2593125,1.5651875 C24.9470625,1.5651875 24.6939375,1.8183125 24.6939375,2.1305625 L24.6939375,4.8478125 C23.1536875,5.8423125 21.1904375,5.8419375 19.650875,4.8470625 L19.650875,3.0351875 C19.650875,2.7229375 19.39775,2.4698125 19.0855,2.4698125 C18.77325,2.4698125 18.520125,2.7229375 18.520125,3.0351875 L18.520125,4.8476875 C16.978875,5.8428125 15.01425,5.8419375 13.4776875,4.84775 L13.4776875,3.0351875 C13.4776875,2.7229375 13.2245625,2.4698125 12.9123125,2.4698125 C12.6000625,2.4698125 12.3469375,2.7229375 12.3469375,3.0351875 L12.3469375,4.8474375 C10.806875,5.8419375 8.843875,5.841875 7.303875,4.847125 L7.303875,2.1305625 C7.303875,1.8183125 7.05075,1.5651875 6.7385,1.5651875 C6.42625,1.5651875 6.173125,1.8183125 6.173125,2.1305625 L6.173125,4.84775 C4.6346875,5.8409375 2.67425,5.8416875 1.130625,4.847 L1.130625,1.1883125 L30.86925,1.1883125 Z M3.541875,28.311625 C3.5065,26.71425 3.3218125,25.2150625 3.0014375,23.94675 C2.9249375,23.644 2.617375,23.4604375 2.314875,23.5370625 C2.012125,23.6135 1.82875,23.9209375 1.9051875,24.223625 C2.198875,25.386125 2.375,26.8199375 2.4106875,28.311625 L1.13075,28.311625 L1.13075,21.8318125 C2.057,22.025875 2.9251875,22.6943125 3.6199375,23.7621875 C4.4170625,24.9873125 4.8910625,26.585625 4.976125,28.311625 L3.541875,28.311625 L3.541875,28.311625 Z M8.914,28.311625 L8.914,27.119875 L23.0859375,27.119875 L23.0859375,28.311625 L8.914,28.311625 Z M29.58925,28.3116875 C29.6250625,26.820125 29.801125,25.38625 30.0948125,24.2236875 C30.1713125,23.9209375 29.9879375,23.6135625 29.685125,23.537125 C29.3821875,23.4605625 29.075,23.6440625 28.9985625,23.9468125 C28.6781875,25.215125 28.4934375,26.7143125 28.458125,28.3116875 L27.023875,28.3116875 C27.1089375,26.58575 27.583,24.9874375 28.3800625,23.7623125 C29.074875,22.694375 29.943,22.0259375 30.86925,21.8319375 L30.86925,28.3116875 L29.5891875,28.3116875 L29.5891875,28.3116875 L29.58925,28.3116875 Z" id="Shape" fill="#333333" fill-rule="nonzero"></path>
                </g>
            </g>
        </g>
    </g>
</svg>