<?xml version="1.0" encoding="UTF-8"?>
<svg width="64px" height="64px" viewBox="0 0 64 64" version="1.1" xmlns="http://www.w3.org/2000/svg" xmlns:xlink="http://www.w3.org/1999/xlink">
    <!-- Generator: Sketch 61.2 (89653) - https://sketch.com -->
    <title>Music</title>
    <desc>Created with Sketch.</desc>
    <g id="Page-1" stroke="none" stroke-width="1" fill="none" fill-rule="evenodd">
        <g id="Instincts-2017" transform="translate(-556.000000, -5433.000000)">
            <g id="Music" transform="translate(556.000000, 5433.000000)">
                <circle id="Oval-Copy-3" fill="#E6E6E6" fill-rule="nonzero" cx="32" cy="32" r="32"></circle>
                <g id="download-(9)" transform="translate(16.000000, 16.000000)">
                    <path d="M29.16625,2.834625 C32.10325,5.771625 32.10325,10.53525 29.16625,13.47225 L18.5285625,2.834625 C21.4664375,-0.10325 26.228375,-0.10325 29.16625,2.834625 Z" id="Path" fill="#999999"></path>
                    <polygon id="Path" fill="#F9BF64" points="16.503625 9.787625 22.2115 15.496375 6.32025 29.6228125 6.2176875 29.5075625 2.49325 25.78225 2.378 25.6796875"></polygon>
                    <path d="M16.985875,5.06725 L26.9326875,15.0149375 C25.44425,15.6845625 23.7829375,15.845625 22.2114375,15.496375 L16.5035625,9.787625 C16.1560625,8.216125 16.31625,6.5556875 16.985875,5.06725 Z" id="Path" fill="#666666"></path>
                    <polygon id="Path" fill="#FC3D4B" points="6.2176875 29.5075625 6.32025 29.6228125 4.3614375 31.363875 0.636125 27.6385625 2.378 25.6796875 2.49325 25.78225"></polygon>
                    <path d="M16.985875,5.06725 L16.6230625,4.7044375 C16.10175,4.183125 16.10175,3.3380625 16.6230625,2.8168125 C16.884125,2.5565625 17.224875,2.4260625 17.5673125,2.4260625 C17.9080625,2.4260625 18.2505,2.556625 18.5106875,2.8168125 L18.527625,2.834625 L18.5285,2.834625 L29.16625,13.47225 L29.1831875,13.4891875 C29.7045,14.0105 29.7045,14.8555625 29.1831875,15.3768125 C28.922125,15.6370625 28.581375,15.7675625 28.2389375,15.7675625 C27.8981875,15.7675625 27.55575,15.637 27.2955625,15.3768125 L26.93275,15.014875 L16.985875,5.06725 Z" id="Path" fill="#CCCCCC"></path>
                    <g id="Group" transform="translate(16.187500, 2.375000)" fill="#B3B3B3">
                        <polygon id="Path" points="4.18740625 2.30584375 4.15890625 2.27734375 4.18600625 2.30584375"></polygon>
                        <path d="M2.620625,4.514375 L2.2578125,4.1515625 C1.7365,3.63025 1.7365,2.7851875 2.2578125,2.2639375 C2.518875,2.0036875 2.859625,1.8731875 3.2020625,1.8731875 C3.5428125,1.8731875 3.88525,2.00375 4.1454375,2.2639375 L2.341125,0.459625 L2.34025,0.459625 L2.3233125,0.4418125 C2.0630625,0.1815625 1.720625,0.0510625 1.3799375,0.0510625 C1.0375,0.0510625 0.69675,0.181625 0.4356875,0.4418125 C-0.085625,0.963125 -0.085625,1.8081875 0.4356875,2.3294375 L0.7985,2.69225 L2.620625,4.514375 Z" id="Path"></path>
                    </g>
                    <path d="M29.6154375,2.3846875 C26.5641875,-0.6665 21.6785625,-0.789 18.4776875,2.01375 C17.7351875,1.6273125 16.79625,1.745 16.1735,2.3675625 C15.4053125,3.13575 15.4053125,4.3858125 16.1735,5.1540625 L16.236375,5.2169375 C15.70325,6.6035 15.555875,8.13375 15.8184375,9.6016875 L0.160625,27.216 C-0.0630625,27.4675625 -0.0518125,27.849875 0.18625,28.087875 L3.9120625,31.8136875 C4.035875,31.9374375 4.198625,31.9999375 4.36175,31.9999375 C4.5123125,31.9999375 4.6633125,31.9466875 4.7840625,31.8393125 L22.397875,16.181125 C22.873875,16.2665625 23.3565625,16.3096875 23.8390625,16.3096875 C24.8435625,16.3096875 25.8469375,16.1259375 26.7846875,15.7651875 L26.8460625,15.8265625 C27.21825,16.19875 27.713,16.4036875 28.239375,16.4036875 C28.7656875,16.4036875 29.2604375,16.19875 29.6325,15.826625 C30.00475,15.4544375 30.20975,14.9596875 30.20975,14.4333125 C30.20975,14.110625 30.132,13.80025 29.9865625,13.5221875 C32.7889375,10.321375 32.666625,5.435875 29.6154375,2.3846875 Z M28.7163125,3.28375 C30.017,4.5844375 30.7333125,6.3138125 30.7333125,8.1533125 C30.7333125,9.77925 30.172875,11.3185 29.1448125,12.5523125 L19.4478125,2.8553125 C20.681625,1.82725 22.220875,1.2668125 23.8466875,1.2668125 C25.6863125,1.2668125 27.4156875,1.9830625 28.7163125,3.28375 Z M4.3871875,30.4906875 L1.5090625,27.6126875 L2.4104375,26.5986875 L5.401125,29.589375 L4.3871875,30.4906875 Z M6.3530625,28.7431875 L3.2566875,25.6468125 L16.530875,10.7139375 L21.28525,15.4689375 L6.3530625,28.7431875 Z M22.52525,14.9109375 L17.089125,9.4740625 C16.87975,8.3939375 16.93375,7.2705625 17.239,6.2194375 L25.78125,14.7615625 C24.72875,15.067375 23.605,15.1211875 22.52525,14.9109375 Z M28.7334375,14.9275 C28.6014375,15.0595 28.426,15.1321875 28.239375,15.1321875 C28.052625,15.1321875 27.8771875,15.0594375 27.7451875,14.9275 L17.072625,4.2549375 C16.800125,3.9824375 16.800125,3.5390625 17.0725625,3.2665 C17.208875,3.1301875 17.387875,3.062125 17.5668125,3.062125 C17.74575,3.062125 17.924875,3.13025 18.061,3.2665 L28.7335625,13.9391875 C28.8655625,14.0711875 28.93825,14.246625 28.93825,14.433375 C28.93825,14.62 28.8655,14.7955 28.7334375,14.9275 Z" id="Shape" fill="#333333" fill-rule="nonzero"></path>
                </g>
            </g>
        </g>
    </g>
</svg>