<?xml version="1.0" encoding="UTF-8"?>
<svg width="64px" height="64px" viewBox="0 0 64 64" version="1.1" xmlns="http://www.w3.org/2000/svg" xmlns:xlink="http://www.w3.org/1999/xlink">
    <!-- Generator: Sketch 61.2 (89653) - https://sketch.com -->
    <title>Quiz</title>
    <desc>Created with Sketch.</desc>
    <g id="Page-1" stroke="none" stroke-width="1" fill="none" fill-rule="evenodd">
        <g id="Instincts-2017" transform="translate(-732.000000, -5433.000000)">
            <g id="Quiz" transform="translate(732.000000, 5433.000000)">
                <circle id="Oval-Copy-3" fill="#E6E6E6" fill-rule="nonzero" cx="32" cy="32" r="32"></circle>
                <g id="download-(11)" transform="translate(16.000000, 17.000000)">
                    <path d="M16.0001875,11.4084375 C18.978375,11.4084375 21.39325,13.8225625 21.39325,16.8015 C21.39325,19.7796875 18.978375,22.1945625 16.0001875,22.1945625 C13.02125,22.1945625 10.607125,19.7796875 10.607125,16.8015 C10.607125,13.822625 13.02125,11.4084375 16.0001875,11.4084375 Z" id="Path" fill="#F9BF64"></path>
                    <path d="M31.4515,11.7808125 L23.7255,19.3115 L25.54925,29.94475 L16.0001875,24.9248125 L6.450375,29.94475 L8.274125,19.3115 L0.548875,11.7808125 L11.22525,10.2291875 L16.0001875,0.555 L20.774375,10.2291875 L31.4515,11.7808125 Z M21.39325,16.8015 C21.39325,13.8225625 18.978375,11.4084375 16.0001875,11.4084375 C13.02125,11.4084375 10.607125,13.8225625 10.607125,16.8015 C10.607125,19.7796875 13.02125,22.1945625 16.0001875,22.1945625 C18.978375,22.1945625 21.39325,19.7796875 21.39325,16.8015 Z" id="Shape" fill="#FC3D4B" fill-rule="nonzero"></path>
                    <g id="Group" fill="#333333">
                        <path d="M31.973,11.611375 C31.9085,11.41275 31.73675,11.268 31.530125,11.238 L21.1389375,9.7280625 L16.4919375,0.3120625 C16.3994375,0.1248125 16.20875,0.0061875 15.999875,0.0061875 C15.791,0.0061875 15.6003125,0.12475 15.5078125,0.3120625 L10.86075,9.7280625 L0.46975,11.238 C0.2630625,11.268 0.091375,11.41275 0.026875,11.611375 C-0.037625,11.81 0.0161875,12.0280625 0.165625,12.1738125 L7.68475,19.503125 L5.9096875,29.85225 C5.8744375,30.058125 5.959,30.2661875 6.128,30.388875 C6.223625,30.458375 6.3368125,30.4936919 6.4505625,30.4936919 C6.5378125,30.4936919 6.6255625,30.4728125 6.7058125,30.4306875 L15.9999375,25.5444375 L25.2940625,30.4306875 C25.4789375,30.5278125 25.703,30.5116875 25.871875,30.3889375 C26.040875,30.2661875 26.1254375,30.0581875 26.0901875,29.8523125 L24.315125,19.503125 L31.83425,12.1738125 C31.98375,12.0280625 32.037625,11.81 31.973,11.611375 Z M23.3425625,18.91875 C23.21325,19.0448125 23.15425,19.2264375 23.18475,19.4044375 L24.8205625,28.9421875 L16.2551875,24.4390625 C16.09525,24.3550625 15.904375,24.3550625 15.7445625,24.4390625 L7.1791875,28.9421875 L8.815,19.404375 C8.8455,19.226375 8.7865625,19.04475 8.6571875,18.9186875 L1.7276875,12.164 L11.304125,10.7724375 C11.482875,10.7464375 11.637375,10.63425 11.71725,10.47225 L15.9999375,1.7945625 L20.282625,10.47225 C20.3625,10.634125 20.517,10.7464375 20.69575,10.7724375 L30.2721875,12.164 L23.3425625,18.91875 Z" id="Shape" fill-rule="nonzero"></path>
                        <path d="M16,10.8595625 C12.723625,10.8595625 10.058125,13.5250625 10.058125,16.8014375 C10.058125,20.0778125 12.723625,22.74325 16,22.74325 C19.276375,22.74325 21.9418125,20.07775 21.9418125,16.8014375 C21.9418125,13.525125 19.27625,10.8595625 16,10.8595625 Z M16,21.6459375 C13.3286875,21.6459375 11.1554375,19.4726875 11.1554375,16.8015 C11.1554375,14.1303125 13.3286875,11.956875 16,11.956875 C18.6713125,11.956875 20.8444375,14.130125 20.8444375,16.8014375 C20.8444375,19.47275 18.6711875,21.6459375 16,21.6459375 Z" id="Shape" fill-rule="nonzero"></path>
                        <path d="M13.7505,15.5395 L18.249375,15.5395 C18.552375,15.5395 18.7980625,15.2938125 18.7980625,14.9908125 C18.7980625,14.6878125 18.552375,14.442125 18.249375,14.442125 L13.7505,14.442125 C13.4475,14.442125 13.2018125,14.6878125 13.2018125,14.9908125 C13.2018125,15.2938125 13.4475,15.5395 13.7505,15.5395 Z" id="Path"></path>
                        <path d="M12.843625,16.2526875 C12.540625,16.2526875 12.2949375,16.498375 12.2949375,16.801375 C12.2949375,17.104375 12.540625,17.3500625 12.843625,17.3500625 L19.15625,17.3500625 C19.45925,17.3500625 19.7049375,17.104375 19.7049375,16.801375 C19.7049375,16.498375 19.45925,16.2526875 19.15625,16.2526875 L12.843625,16.2526875 Z" id="Path"></path>
                        <path d="M18.249375,18.06325 L13.7505,18.06325 C13.4475,18.06325 13.2018125,18.3089375 13.2018125,18.6119375 C13.2018125,18.9149375 13.4475,19.160625 13.7505,19.160625 L18.249375,19.160625 C18.552375,19.160625 18.7980625,18.9149375 18.7980625,18.6119375 C18.7980625,18.3089375 18.552375,18.06325 18.249375,18.06325 Z" id="Path"></path>
                    </g>
                </g>
            </g>
        </g>
    </g>
</svg>