<?xml version="1.0" encoding="UTF-8"?>
<svg width="128px" height="128px" viewBox="0 0 128 128" version="1.1" xmlns="http://www.w3.org/2000/svg" xmlns:xlink="http://www.w3.org/1999/xlink">
    <!-- Generator: Sketch 52.5 (67469) - http://www.bohemiancoding.com/sketch -->
    <title>sky-and-clouds-comp</title>
    <desc>Created with Sketch.</desc>
    <defs>
        <linearGradient x1="50.0000055%" y1="100%" x2="50.0000055%" y2="1.8680436e-05%" id="linearGradient-1">
            <stop stop-color="#E6D6C6" offset="0%"></stop>
            <stop stop-color="#93E8FD" offset="100%"></stop>
        </linearGradient>
        <polygon id="path-2" points="0.1059 0.16056 5.926875 0.16056 5.926875 5.61416 0.1059 5.61416"></polygon>
    </defs>
    <g id="Page-1" stroke="none" stroke-width="1" fill="none" fill-rule="evenodd">
        <g id="Instincts-2017" transform="translate(-111.000000, -4260.000000)">
            <g id="Group-70" transform="translate(110.000000, 4215.000000)">
                <g id="sky-and-clouds-comp" transform="translate(1.000000, 45.000000)">
                    <g id="Group-25">
                        <circle id="Oval-2-Copy" fill="url(#linearGradient-1)" cx="64" cy="64" r="64"></circle>
                        <g id="Group-10" transform="translate(25.000000, 49.000000)">
                            <path d="M61.1145109,0 L21.8854891,0 C20.2918458,0 19,1.34311281 19,3 C19,4.65688719 20.2918458,6 21.8854891,6 L61.1145109,6 C62.7081542,6 64,4.65688719 64,3 C64,1.34311281 62.7081542,0 61.1145109,0" id="Fill-1" fill="#FFFFFF"></path>
                            <path d="M71.3650712,0 L70.6349288,0 C69.1796689,0 68,1.34311281 68,3 C68,4.65688719 69.1796689,6 70.6349288,6 L71.3650712,6 C72.8203311,6 74,4.65688719 74,3 C74,1.34311281 72.8203311,0 71.3650712,0" id="Fill-3" fill="#FFFFFF"></path>
                            <g id="Group-7" transform="translate(78.000000, 0.000000)">
                                <mask id="mask-3" fill="white">
                                    <use xlink:href="#path-2"></use>
                                </mask>
                                <g id="Clip-6"></g>
                                <path d="M3.37065,0.16056 L2.662275,0.16056 C1.2504,0.16056 0.1059,1.38136 0.1059,2.88736 C0.1059,4.39336 1.2504,5.61416 2.662275,5.61416 L3.37065,5.61416 C4.782525,5.61416 5.927025,4.39336 5.927025,2.88736 C5.927025,1.38136 4.782525,0.16056 3.37065,0.16056" id="Fill-5" fill="#FFFFFF" mask="url(#mask-3)"></path>
                            </g>
                            <path d="M64.9748868,23.8848082 L28.2246024,23.8848082 C26.9737845,23.8848082 25.9601832,22.8173183 25.9601832,21.5004485 C25.9601832,20.1831302 26.9737845,19.1156403 28.2246024,19.1156403 L42.2519064,19.1156403 C43.8413013,19.1156403 45.22755,17.825682 45.2756748,16.1522347 C45.3246513,14.4204791 44.0065439,13 42.3732831,13 L3.02468727,13 C1.43529241,13 0.0486177953,14.2904068 0.00134479696,15.9638542 C-0.0480576157,17.6956097 1.27004986,19.1156403 2.90288477,19.1156403 L19.0208478,19.1156403 C20.2712399,19.1156403 21.2848411,20.1831302 21.2848411,21.5004485 C21.2848411,22.8173183 20.2712399,23.8848082 19.0208478,23.8848082 L10.926518,23.8848082 C9.33669726,23.8848082 7.9508744,25.1747665 7.90274964,26.8482138 C7.85334723,28.5799694 9.17188059,30 10.8051414,30 L65.0966893,30 C66.7299501,30 68.0480576,28.5799694 67.9986552,26.8482138 C67.9509563,25.1747665 66.5642817,23.8848082 64.9748868,23.8848082" id="Fill-8" fill="#FFFFFF"></path>
                        </g>
                    </g>
                </g>
            </g>
        </g>
    </g>
</svg>